<?xml version="1.0" encoding="utf-8"?>
<!-- Generator: Adobe Illustrator 16.0.0, SVG Export Plug-In . SVG Version: 6.00 Build 0)  -->
<!DOCTYPE svg PUBLIC "-//W3C//DTD SVG 1.1//EN" "http://www.w3.org/Graphics/SVG/1.1/DTD/svg11.dtd">
<svg version="1.1" xmlns="http://www.w3.org/2000/svg" xmlns:xlink="http://www.w3.org/1999/xlink" x="0px" y="0px" width="270px"
	 height="290.5px" viewBox="0 0 270 290.5" style="enable-background:new 0 0 270 290.5;" xml:space="preserve">
<style type="text/css">
<![CDATA[
	.st0{fill:#D78033;}
]]>
</style>
<g id="background">
</g>
<g id="illustration">
	<g>
		<path class="st0" d="M202.7,125.8c1.3-19.3-5.2-39.1-22.7-49c-9.6-5.4-21.1-7.5-32-8.8c-12.1-1.4-24.1-0.6-35.7,3.5
			C94.2,77.9,78.1,92,70.5,109.7c-8.8,20.5-2,42.4,10.2,59.9c6.7,9.6,15.4,17.6,19.1,29c1.8,5.6,1.4,11.7,2.3,17.4
			c0.1,1.6,0.1,3.2,0.7,4.8c0.8,1.9,1.6,3.8,2.5,5.6c1,1.8,2.2,3.2,3.7,4.3c-2.1,2.1-3,6.9-1.9,8.9c0.6,1,1.5,1.8,2.6,2.4
			c-2.5,2.4-2.7,7.1-0.1,9.5c-3.8,4.6-3.4,9.2,1.6,11.7c-3.2,2.4-2.1,6,0.9,7.8c-1.2,1.2-2,3.1-1,4.6c0.9,1.5,2.4,2.4,4,2.9
			c0.7,1.8,2,2.8,3.6,4c0.6,0.5,4.3,4.4,4.4,3.8c0,0.8,0.6,1.2,1.3,1.3c2.2,0.3,4.2,1.3,6.3,1.7c1.9,0.4,3.9,0.6,5.9,0.7
			c3.7,0.3,7.4,0.3,11.1-0.2c6.2-0.9,10.6-8,12.3-13.6c0-0.1,0-0.1,0-0.2c1.2-0.9,2.3-1.9,3.2-3.1c2.2-3.1,3.1-8.3-0.3-10.3
			c1.4-2.3,1.4-5-0.8-8.2c0-0.1-0.1-0.1-0.1-0.1c0.9-1.1,1.6-2.2,2.2-3.6c0.9-2.2-0.6-3.8-2.1-5.1c0.9-1.3,1.6-2.7,1.7-4.4
			c0.2-1.7,0.1-3.7-1.2-4.7c0.7-0.9,1.2-2,1.2-3.3c0.1-2.3-0.7-4.4-2.2-5.6c4.3-3.9,7.1-9.1,7.3-15.1c0.7-3.6,0.9-7.2,1.2-10.9
			c0.5-6.8,2-12.8,5.8-18.5c2.9-4.3,6.6-8,9.7-12.1c3.7-4.8,6.8-9.9,9.4-15.3C199.4,146.5,202.1,136.3,202.7,125.8z M129.2,223.9
			c2.2-0.8,4.6-1,6.9-1.5c3.6-0.7,20.6-3,17.6,5.6c0,0,0,0,0,0c-1.5,0.4-3.1,0.8-4.6,1.1c-3.9,0.9-7.7,1.5-11.6,2.1
			c-2.6,0-5.2,0-7.8,0c-1.1,0-2.3,0-3.5-0.1C124.5,227.4,125.2,225.4,129.2,223.9z M132.7,215.6c0-2.2-0.5-4.4-1.1-6.5
			c-1.3-4.9-1.8-10-1.9-15.1c-0.1-7.1,0.1-14.7,2.6-21.5c1.6-4.3,4.8-4.8,8.2-1.5c3.5,3.4,3.7,9.6,3.8,14.1c0.1,1.8,0.1,3.5,0.2,5.3
			c-0.4,0-0.8,0.1-1.1,0.1c-0.5,0-1,0.1-1.5,0.2c-0.4,0.1-0.9,0.2-1,0.2c-0.9,0.2-1,1.7,0,1.9c0.8,0.2,1.5,0.2,2.3,0.1
			c0.4,0,0.9,0,1.3,0c0,0.5,0,1,0,1.5c-0.5,0-1,0.1-1.5,0.2c-0.6,0.1-1.3,0.5-1.9,0.3c-1.2-0.3-1.9,1.3-0.8,2
			c0.8,0.5,1.6,0.4,2.5,0.3c0.4-0.1,0.8-0.2,1.2-0.2c0.2,0,0.4,0,0.6-0.1c0,0.7,0,1.4,0,2.1c-0.4,0.1-0.7,0.2-1,0.3
			c-0.6,0.1-1.8,0.1-2.6,0.4c-0.4-0.1-0.9,0.1-1.1,0.7c-0.1,0.3-0.1,0.6,0.1,0.9c0.1,0.2,0.2,0.3,0.4,0.4c0,0,0,0,0.1,0
			c0.8,0.7,2.6,0.3,3.5,0.1c0.1,0,0.3-0.1,0.5-0.1c0,0.7-0.1,1.4-0.1,2.1c-0.5,0.1-1,0.2-1.4,0.2c-0.8,0-2,0-2.6,0.6
			c-0.8,0.6-0.3,1.9,0.6,1.8c0.8,0.2,1.9,0.1,2.5,0.1c0.2,0,0.5,0,0.7,0c-0.1,0.8-0.1,1.6-0.2,2.3c-0.3,0-0.6,0.1-0.9,0.1
			c-0.7,0.1-1.5,0.1-2.2,0.2c-1.5,0.2-1.5,2.1,0,2.3c0.7,0.1,1.5,0.1,2.2,0c0.2,0,0.5,0,0.7-0.1c0,0.9,0,1.7,0,2.5c0,0,0,0.1,0,0.1
			c-0.1,0-0.2,0-0.3,0c-0.6,0-1.3-0.2-1.9-0.2c-1.1-0.7-2.1,1-1,1.8c-0.2-0.1-0.1,0,0.1,0.2c0.2,0.2,0.4,0.3,0.7,0.4
			c0.5,0.2,1,0.3,1.6,0.4c0.3,0,0.6,0,0.9,0c0,0.7-0.1,1.3-0.2,1.5c-0.2,0.2-0.3,0.5-0.3,0.7c-1.8,0.1-3.6,0.4-5.3,0.6
			c-1.4,0.2-3.3,0.5-5.3,1.1C132.3,219.4,132.7,216.5,132.7,215.6z M114.7,107.4c0.5-0.4,0.6-1.1,0.6-1.7c0-0.1,0-0.3,0-0.4
			c0.8-1.6,1.8-3,2.8-4.5c0.5,2.2-0.3,5.3-0.4,7.2c0,2.1-0.3,4.2,0.3,6.3c0.2,0.7,1.4,1,1.8,0.2c1.5-3,2.6-6.1,3.7-9.2
			c0.8-2.3,1.3-4.7,2-7c0,2.3-0.2,4.6,0.8,6.8c0,0.1,0.1,0.2,0.2,0.2c0,0.8,0.3,1.5,1.3,2.1c0,1.9-0.1,4.5-0.1,5.1
			c0,3.2,0.1,6.3,0.4,9.4c0.5,5.8,2.5,11.3,4,16.9c-1.1,1.4-1.9,3.2-1.9,4.6c0,7.9,2.3,15.4,4,23.1c-0.6,0.2-1.1,0.5-1.6,1
			c-0.1,0.1-0.2,0.2-0.3,0.4c-1-1.3-1.5-3.4-2.2-4.6c-1.3-2.6-2.2-5.3-3.2-8c-2-5.4-4.4-10.7-6.3-16.1c-1.9-5.3-3.3-10.9-4.3-16.5
			c-0.5-2.5-0.7-5-1.1-7.5c-0.4-2.3-1.1-4.8-1.3-7.3C114.1,107.7,114.5,107.6,114.7,107.4z M131.4,100.8c1.1,1.2,1.1,5,1.2,6.1
			c0.2,2.4,0.8,4.7,1.8,6.9c0.5,1,1.8,0.4,1.9-0.5c0.2-3.6,1.4-7,2.4-10.5c0.4-1.7,1.2-3.1,1.8-4.7c0.6,3.9-0.6,8.4,0.6,12
			c0.2,0.7,1.1,1,1.6,0.4c0.8-0.8,1.5-1.6,2.1-2.5c-0.1,1.6-0.7,3.4-1,4.8c-0.6,2.8-1.1,5.5-1.6,8.3c-1,5.3-4.1,10.1-5.1,15.4
			c-1-0.3-2-0.1-3,0.4c-0.8-4.2-2.2-8.4-3.1-12.5c-1.2-5.7-0.8-11.7-0.8-17.6c1-0.5,1.7-1.5,1.2-3.1c-0.2-0.9-0.6-1.4-1.1-1.6
			C130.7,101.8,131,101.3,131.4,100.8z M158.7,108.8c0,0.2,0.1,0.3,0.1,0.5c0.1,0.5,0.4,1,0.9,1.2c-0.5,1.5-0.6,4-0.7,4.7
			c-0.3,2.8-0.8,5.5-1.5,8.2c-1.2,5.3-3,10.4-5,15.4c-2.4,5.7-4.9,11.3-7.4,16.9c-1.7,3.8-3.9,7.6-4.8,11.7
			c-0.5-0.3-1.1-0.6-1.7-0.8c0.5-1,0.5-2.2,0.7-3.3c0.4-3.3,0.8-6.7,1.2-10c0.5-4.6,2.2-11.6-1.4-15.3c0.2-0.2,0.2-0.5,0.1-0.8
			c0,0,0-0.1,0-0.1c1.4-6.6,4.7-12.8,6-19.4c0.5-2.7,2.3-7.3,1.9-10.7c0.1-0.1,0.1-0.2,0.2-0.2c1-0.6,1.7-1.7,0.9-3
			c-0.1-0.2-0.3-0.4-0.5-0.6c0.5-1,0.9-2,1.4-3c0,4.7,0.3,9.3,2.5,13.6c0.4,0.7,1.5,0.7,1.8,0c1.2-2.1,2-4.8,3.5-6.7
			C157.4,107.6,158,108.2,158.7,108.8z M136.1,166.1c-0.1-3.4-1.4-7-2.1-10.3c-0.6-2.7-0.8-5.5-1.2-8.3c-0.1-0.9-0.2-1.9-0.2-2.8
			c-0.1-1.9,2.3-9,5.5-4.4c1.5,2.2,0.7,5.7,0.5,8.2c-0.2,2.6-0.5,5.3-0.8,7.9c-0.2,1.6-0.1,7.7-1.1,9c-0.2,0.2-0.3,0.5-0.3,0.7
			C136.3,166.1,136.2,166.1,136.1,166.1z M160.6,238.6C160.6,238.6,160.6,238.6,160.6,238.6c2.2,0.8-0.9,6-1.5,6.7
			c-1.7,2-4.6,3.4-7,4.4c-5.1,2-11.2,2.4-16.7,2.8c-5.2,0.5-10.4,0-15.6-0.4c-2.4-0.2-4.9-0.6-7.1-1.6c-0.4-0.2-0.8-0.4-1.1-0.7
			c-0.7-1-0.8-2.1-0.3-3.6c0.2-0.8,0.7-1.5,1.1-2.2c0.2-0.2,0.4-0.5,0.6-0.7c4.2,1.1,9.5,1,12.5,1.1c10.1,0.6,21.3,0.9,30.8-3.5
			C157.7,240.4,159.3,239.6,160.6,238.6z M111.8,252.8c2.5,1.2,5.3,1.6,8.1,1.9c5.2,0.6,10.4,0.8,15.6,0.5c8-0.5,17.2-1.3,23.7-6.4
			c0.4-0.3,0.7-0.6,1.1-0.9c4.4,4.4-5.5,8.9-8.8,10.2c-4.3,1.7-9.1,2.4-13.6,3.2c-5.2,0.9-10.5,1-15.7,1
			C116.4,262.4,106,261.4,111.8,252.8z M113.7,264.4c0.1-0.1,0.1-0.1,0.1-0.2c6.9,2,16,0.8,22.7-0.1c7.6-1,15.7-2.6,22.2-6.8
			c0.3-0.2,0.7-0.5,1-0.7c0.1,0.1,0.3,0.2,0.5,0.2c4.1,8-11.6,11.9-17.1,13.2c-5.2,1.2-10.8,1.6-16.1,1.6c-2.8,0-5.5-0.4-8.2-0.9
			C116.1,270.1,109,268.1,113.7,264.4z M152.6,284.2c-2.7,3-5.2,3.4-9.2,3.6c-3.1,0.2-6.3,0-9.4-0.4c-3-0.4-5.8-1.5-8.8-2
			c-0.6-0.8-1.7-1.3-2.4-2c-1.2-1.2-3-2.4-4.4-3.8c0.2,0,0.4,0.1,0.7,0.1c8.1,1.8,17.6,1.4,25.9,0.9c3.8-0.2,8.1-0.9,11.8-2.5
			C155.8,280.4,154.3,282.3,152.6,284.2z M157.1,275.1c-4.3,2.5-9.7,2.9-14.5,3.1c-4.3,0.2-8.7-0.1-13.1-0.1c-2.8,0-5.5-0.2-8.3-0.5
			c-1.9-0.3-10.8-2-7-5.5c0,0,0,0,0-0.1c8.2,2.6,16.6,2.4,25.1,1.2c4.8-0.7,16.5-3.2,21.8-8.2C165.9,266.9,159.3,273.8,157.1,275.1z
			 M160.5,234.9c-0.7,1.5-2.9,2.4-4.3,3.2c-3,1.6-6.3,2.4-9.6,3.1c-6,1.2-12.3,1.1-18.4,0.9c-4.4-0.2-9-0.4-13.4-1.1
			c-2.1-0.4-5.1-1.1-5.9-3.4c-0.2-0.6,1.4-4.8,2.3-5.5c1.3,0.6,2.6,1.1,4.1,1.5c9.4,2.7,18.3,2.4,27.6,1.1
			c5.8,0.3,11.7-1.6,16.4-4.9C161.2,230.6,161.6,232.6,160.5,234.9z M183.9,168.8C183.9,168.8,183.9,168.8,183.9,168.8
			c-1.2-0.2-2.3,0-3.4,0.2c-0.9,0.2-2.5,0.8-3.4,0.3c-1.4-0.8-2.7,1.4-1.3,2.2c1.1,0.6,2.4,0.5,3.6,0.3c0.8-0.1,1.7-0.4,2.6-0.6
			c-0.1,0.1-0.2,0.2-0.3,0.3c-0.9,1.1-1.8,2.1-2.6,3.2c-0.2-0.2-0.5-0.4-0.9-0.4c-2.2-0.1-4.4,0.2-6.6,0.3c-1.6,0-1.6,2.5,0,2.5
			c1.9,0,3.8-0.3,5.7-0.3c-0.7,0.8-1.3,1.7-2,2.5c-2.1,0-4.2,0.4-6.2,0.4c-1.6,0-1.6,2.5,0,2.5c1.5,0,2.9-0.2,4.4-0.3
			c-0.6,0.9-1.2,1.8-1.7,2.7c-1.5,0.4-3.2,1.1-4.7,0.5c-1.5-0.6-2.2,1.8-0.7,2.4c1.2,0.5,2.5,0.4,3.8,0.1c-0.4,0.8-0.7,1.7-1,2.5
			c0,0,0,0,0,0c-0.8,0.2-1.7,0.5-2.5,0.7c-0.9,0.2-2,0.6-2.9,0.5c-1,0-1.2,1.5-0.2,1.8c1.6,0.4,3.2,0.2,4.8-0.2
			c-0.2,0.8-0.3,1.6-0.5,2.3c-0.7,0.2-1.5,0.4-2.2,0.5c-0.5,0.1-1,0.2-1.5,0.3c-0.3,0-0.6,0-1,0.1c-0.4,0-0.8,0.2-0.9,0.6
			c0,0.1,0,0.1-0.1,0.2c-0.2,0.4,0.1,1.1,0.5,1.3c1,0.5,2.1,0.3,3.1,0.1c0.5-0.1,1.1-0.2,1.6-0.3c-0.1,0.9-0.2,1.8-0.3,2.7
			c-0.6,0.1-1.2,0.2-1.7,0.3c-0.9,0.2-2,0.2-2.5,0.8c0,0,0,0,0,0c0,0-0.1,0.1-0.1,0.1c-0.1,0.1-0.1,0.2-0.2,0.3c0,0,0,0,0,0l0,0
			c-0.1,0.4,0.1,1,0.5,1.1c0.7,0.4,1.6,0.2,2.4,0.1c0.5-0.1,0.9-0.1,1.4-0.2c-0.1,1.1-0.2,2.3-0.3,3.4c-0.5,0.1-0.9,0.1-1.4,0.2
			c-1.1,0.2-2.4,0.3-3.5,0.9c0,0-0.1,0-0.1,0c-0.4,0.1-0.8,0.6-0.8,1c0,0,0,0.1,0,0.1c0.1,0.7,0.7,1.3,1.4,1.1
			c1.2-0.3,2.4-0.5,3.6-0.7c0.1,0,0.3,0,0.4-0.1c-0.1,0.9-0.3,1.8-0.4,2.7c-1.2,0.2-2.3,0.5-3.5,0.7c-0.6-0.3-1.4,0-1.6,0.7
			c0,0.1,0,0.2,0,0.3c-0.1,0.8,0.3,1.4,1.1,1.5c1.1,0.1,2.2,0,3.3-0.3c-0.1,0.3-0.2,0.7-0.3,1c-0.2,0.7-0.5,1.4-0.7,2
			c-0.5,0-1,0.1-1.5,0.2c-1,0.1-2,0.1-3,0.2c-1.2,0.1-1.4,1.7-0.3,2.1c1,0.3,1.9,0.4,2.9,0.3c0.2,0,0.3,0,0.5,0
			c-1.1,1.8-2.3,3.3-3.8,4.7c-0.2,0.2-0.4,0.3-0.7,0.5c-0.6,0.4-1.2,0.7-1.8,1c0.3-2.4-1.5-4.4-3.5-6c-2-1.5-4.4-2.1-6.9-2.2
			c0.5-1.5,0.3-3.5,0.3-4.9c0.2-4.4,0.5-8.7,0.7-13.1c0.3-6.2,0.1-12.6-0.4-18.8c-0.3-4.8-1.4-9.7-4.9-13.2c0,0,0-0.1,0-0.1
			c1.8-6.5,5.6-12.8,8.3-19c2.8-6.1,5.5-12.3,7.5-18.7c2.1-6.4,2.7-12.9,4.1-19.5c0.1-0.4,0.1-0.9,0.1-1.4c1.3-1,2-3-0.3-4.1
			c-1.1-0.5-1.9-0.2-2.5,0.4c-0.6-0.5-1.1-1.1-1.4-1.9c-0.3-0.7-1.2-0.6-1.7-0.2c-1.9,1.7-2.8,4-3.8,6.2c-1.8-4.9-1.4-10.2-1.3-15.3
			c0-1-1.5-1.5-1.9-0.5c-1.3,2.7-2.3,5.4-3.7,8.1c-0.5,0.2-0.9,0.5-1.2,0.9c-0.2,0.1-0.4,0.3-0.4,0.6c-0.1,0.6-0.2,1.1-0.1,1.4
			c-0.4,0.7-0.9,1.4-1.5,2.1c-0.8-4.4,0.8-9.6-1.4-13.5c-0.4-0.8-1.7-0.4-1.7,0.5c0,3.2-2,5.9-2.8,8.8c-0.5,1.9-1.2,3.7-1.7,5.6
			c-0.5-2.2-0.7-4.5-1.2-6.8c-0.3-1.4-0.8-3-2.2-3.6c-0.5-0.2-0.9,0.1-1,0.5c-0.2,0.1-0.3,0.1-0.4,0.3c-0.8,1-1.6,1.9-2.5,2.9
			c-0.6-2.7,0.2-5.7-0.5-8.4c-0.2-0.9-1.4-0.9-1.8-0.2c-1.6,2.7-2.2,5.7-3,8.7c-0.7,2.6-1.6,5.3-2.7,7.8c0.2-4.3,2.1-9.1-0.7-12.5
			c-0.4-0.5-1.3-0.3-1.6,0.2c-1,1.9-2.3,3.5-3.3,5.4c-0.4-0.3-0.9-0.3-1.3-0.1c-0.8,0.4-1.6,1.1-1.6,2.1c0,0.4,0.1,0.7,0.3,1.1
			c0,0,0,0.1,0,0.1c0,0,0,0.1,0.1,0.1c0.1,0.1,0.1,0.2,0.2,0.2c0,0,0,0,0,0c0,0,0.1,0.1,0.1,0.1c-0.4,4.2,1.1,9.1,1.7,13
			c0.9,6.6,2.7,13.2,4.8,19.5c2,5.9,4.7,11.6,6.8,17.5c0.9,2.4,1.8,4.8,2.9,7.1c0.8,1.7,1.2,4.1,2.7,5.3c-3.9,6-3.6,16.1-3.6,22.5
			c-0.1,5.4,0.2,11.1,1.6,16.3c0.9,3.3,1.4,6.2,1.6,9.6c0.1,0.8,0.1,2.1,0.4,3.1c-5.5,1.7-10.8,4.7-6.9,9.8
			c-2.4-0.3-4.9-0.8-7.2-1.5c-6.6-2-9.4-8.5-11.2-14.5c-1.1-3.6-1-7.5-1.7-11.2c-0.5-3.5-1.2-6.8-2.7-10.1
			c-4.6-10.5-13-18.3-19.3-27.7c-6.9-10.4-12.2-22.8-12.4-35.4c-0.2-10.8,3.6-21.1,9.5-30c12.8-19.3,35.8-30.4,58.6-30.4
			c9,0,18.5,1.2,27.4,3.7c-0.1,0.2-0.1,0.3-0.2,0.5c-0.3,0.9-0.7,2.9-0.1,3.8c0.6,0.7,1.8,0.8,2.1-0.3c0.2-0.7,0-1.5,0.1-2.2
			c0-0.3,0.2-0.7,0.2-1.1c1,0.3,1.9,0.6,2.9,1c-0.2,0.5-0.3,1.1-0.5,1.7c-0.2,0.8-0.5,1.6-0.6,2.4c-0.1,1.4,1.8,1.5,2.3,0.3
			c0.3-0.7,0.4-1.4,0.6-2.1c0.1-0.5,0.2-1,0.2-1.6c1,0.4,2,0.8,3,1.2c0.9,0.4,1.8,0.8,2.7,1.3c0,0-0.1,0.1-0.1,0.1
			c-0.3,0.3-0.5,0.8-0.7,1.1c-0.4,0.8-0.9,1.6-1.2,2.4c-0.1,0.4,0,0.9,0.3,1.2c0.2,0.3,0.5,0.3,0.8,0.3c0.4,0,0.8-0.3,1-0.6
			c0.5-0.6,0.8-1.4,1.1-2.1c0.2-0.4,0.4-0.8,0.6-1.2c0-0.1,0-0.1,0.1-0.2c1.2,0.7,2.4,1.5,3.5,2.3c-0.3,0.7-0.5,1.4-0.9,2
			c-0.5,0.9-1.2,1.5-1.8,2.3c-0.6,0.9,0.4,1.9,1.3,1.7c1.1-0.3,1.9-1.6,2.4-2.6c0.3-0.6,0.6-1.3,0.8-2c1.5,1.3,2.9,2.6,4.1,4.1
			c-0.8,0.7-1.3,2.1-1.7,2.8c-0.4,0.6-0.8,1.3-1.2,1.9c-0.1,0.1-0.4,0.6-0.4,0.5c-0.2,0.2-0.3,0.4-0.4,0.6c0,0,0,0.1,0,0.2
			c-0.1,0.6,0.1,1.2,0.8,1.4c1.5,0.4,2.5-1.9,3.1-3c0.4-0.6,1-1.6,1.4-2.5c1,1.3,1.9,2.6,2.7,4c-0.1,0.1-0.2,0.3-0.3,0.4
			c-0.4,0.5-0.7,1.1-1,1.7c-0.3,0.6-0.7,1.2-1,1.8c-0.1,0.1-0.4,0.4-0.2,0.3c-0.1,0.1-0.5,0.4-0.6,0.5c-0.3,0.4-0.3,0.8-0.1,1.2
			c1.1,2,2.9-0.5,3.5-1.5c0.4-0.7,0.7-1.4,1.1-2.2c0,0,0-0.1,0.1-0.1c0.7,1.4,1.3,2.8,1.9,4.3c-1.3,2.5-3.1,4.6-5.2,6.5
			c-1,0.9,0.3,2.2,1.3,1.7c2-0.9,3.7-2.9,5-5c0.2,0.8,0.4,1.5,0.6,2.3c-1.5,2.5-3.5,4.2-6,5.7c-1.4,0.8-0.2,3,1.3,2.2
			c1.9-1,4.1-2.6,5.5-4.5c0.2,1.1,0.4,2.2,0.5,3.3c-1,0.9-1.9,1.8-2.9,2.7c-1.4,1.2-2.8,1.9-4.3,2.9c-1.2,0.7-0.4,2.4,0.9,2.2
			c2.5-0.5,4.8-2.6,6.7-4.6c0.2,1.9,0.2,3.9,0.2,5.8c-0.1,0.1-0.1,0.1-0.2,0.2c-0.5,1-1.5,1.5-2.5,2.1c-1.1,0.7-2.2,1.5-3.3,2.2
			c-0.9,0.5-3.5,0.8-3.8,2.1c-0.2,0.9,0.7,1.7,1.5,1.5c0,0,0,0,0,0c1.8-0.4,3.6-1.4,5.2-2.4c0.9-0.6,2.1-1.3,3.1-2.1
			c-0.1,1.5-0.2,3.1-0.4,4.6c-2.6,1.7-5.8,3.5-8.9,3.6c0,0,0,0,0,0c-1.6,0-1.7,2.7,0,2.6c2.6-0.1,6-1.1,8.4-2.8
			c-0.3,1.7-0.6,3.4-1,5.1c-1.9,0.4-3.7,1.2-5.5,1.6c-0.8,0.2-2.2,0.8-3,0.6c-1.6-0.5-2.2,1.9-0.7,2.4c1.2,0.4,2.7-0.2,3.8-0.4
			c1.6-0.4,3.1-1,4.7-1.4c-0.3,1-0.5,2-0.8,3c-0.1,0-0.2,0.1-0.3,0.1c-1.1,0.6-2.3,0.9-3.5,1.1c-1.5,0.3-3.1,0.7-4.5,0.8
			c-1.6,0.1-1.6,2.6,0,2.5c1.6-0.1,3.1-0.5,4.7-0.8c0.9-0.2,1.8-0.4,2.6-0.6c-0.1,0.4-0.3,0.8-0.4,1.2c-0.4,1-0.7,2-1.1,2.9
			c-2.5-0.3-5.1,1.7-7.6,1.5c-1.6-0.1-1.6,2.4,0,2.5c1.4,0.1,2.8-0.4,4.2-0.8c0.6-0.2,1.5-0.5,2.3-0.7c-0.5,1-0.9,2-1.4,3
			c-1.5,0.2-2.9,0.6-4.3,1c-1.5,0.4-3.1,0.4-4.6,1c-1.5,0.6-0.8,3,0.7,2.4c1.3-0.5,2.6-0.6,3.9-0.8c0.9-0.2,1.8-0.5,2.7-0.7
			c-0.7,1.2-1.3,2.3-2,3.5c-1.1,0.1-2.2,0.3-3.3,0.6c-1.5,0.3-2.9,0.3-4.4,0.5c-1.6,0.2-1.6,2.7,0,2.5c1.2-0.1,2.4-0.2,3.6-0.3
			c0.8-0.1,1.5-0.3,2.3-0.4C185.4,166.8,184.7,167.8,183.9,168.8z"/>
		<path class="st0" d="M149.4,238.2c1.7,0.4,3.4,0,5-0.7c1.5-0.7,3.8-1.7,4.5-3.3c0.4-1-0.5-2.1-1.5-1.5c-1.2,0.6-2.2,1.6-3.3,2.2
			c-1.4,0.8-3,1.1-4.6,1.3C148.4,236.4,148.5,237.9,149.4,238.2z"/>
		<path class="st0" d="M151.9,245.3c-0.2,0-0.3,0.1-0.5,0.2c-0.5-0.2-1.2-0.1-1.3,0.5c0,0,0,0.1,0,0.1c-0.2,0.5-0.1,1.1,0.4,1.4
			c1,0.7,2.8,0.1,3.8-0.4c1.4-0.7,3.3-1.8,3.8-3.4c0.3-0.9-0.8-1.7-1.6-1.2c-1.1,0.7-1.9,1.7-3.1,2.4
			C152.9,245,152.4,245.2,151.9,245.3z"/>
		<path class="st0" d="M148.6,256.9c1.9,0.4,3.7-0.2,5.5-0.9c1.6-0.6,3.5-1.5,4.5-3c0.4-0.7-0.3-1.8-1.1-1.5
			c-1.3,0.5-2.5,1.5-3.8,2.1c-1.6,0.8-3.3,1.1-5,1.6C147.8,255.4,147.7,256.8,148.6,256.9z"/>
		<path class="st0" d="M149.3,265.8c3.3,0.4,8.5-1.4,9.9-4.6c0.4-0.9-0.5-2.1-1.5-1.5c-1.5,1-2.7,2.2-4.5,2.9
			c-1.5,0.6-3,0.8-4.5,1.4C147.8,264.5,148.5,265.7,149.3,265.8z"/>
		<path class="st0" d="M159.1,269.1c-1.3,0.2-2.6,1.5-3.7,2.2c-1.1,0.7-2.3,1.5-3.6,1.5c-0.7,0-1.2,0.8-0.8,1.4
			c1,1.5,3.1,0.7,4.4,0.1c1.5-0.7,4-2,4.8-3.6C160.7,269.8,160,269,159.1,269.1z"/>
		<path class="st0" d="M144.2,285c1.1,0.3,2.2,0,3.4-0.2c1.1-0.3,2.4-0.5,3.3-1.1c0.7-0.5,0.7-1.7-0.3-1.9c-1-0.2-2,0.1-3,0.4
			c-1.1,0.3-2.3,0.5-3.5,0.8C143.2,283.2,143.1,284.8,144.2,285z"/>
		<path class="st0" d="M139.1,183.5c0.4,1,1.9,0.4,1.9-0.5c0-1.9-0.3-3.8-0.5-5.6c-0.3-1.9-1.2-3-2.2-4.5c-0.5-0.7-1.7-0.5-1.7,0.5
			c0.1,1.4,1.1,2.6,1.5,4C138.6,179.4,138.3,181.6,139.1,183.5z"/>
		<path class="st0" d="M142.8,224.8C142.9,224.8,142.9,224.9,142.8,224.8c0.1,0.1,0.1,0.2,0.1,0.2c0,0,0,0,0,0.1
			c0.1,0.4,0.1,0.5,0.1,0.9c0.1,0.9,0.1,2.2,1.2,2.5c0.5,0.1,1-0.1,1.3-0.5c0.3-0.5,0.1-1,0-1.6c0-0.3-0.1-0.9-0.2-1.4
			c-0.2-1.1-1.1-2.1-2.1-2c-0.9,0.1-1.3,1.1-0.6,1.7C142.8,224.7,142.8,224.7,142.8,224.8z"/>
		<path class="st0" d="M147.2,225.8c0.2,0.6,0.2,1.3,0.9,1.6c0.4,0.2,1,0.2,1.3-0.2c0.3-0.4,0.5-0.7,0.4-1.3
			c-0.1-0.3-0.1-0.6-0.2-0.8c-0.1-0.5-0.3-1.1-0.6-1.6c-0.2-0.5-0.9-0.7-1.3-0.5c-0.6,0.2-1,0.8-0.8,1.5
			C147,224.9,147.1,225.4,147.2,225.8z"/>
		<path class="st0" d="M190.1,98.5C190.2,98.5,190.2,98.4,190.1,98.5C190.1,98.5,190.1,98.5,190.1,98.5z"/>
		<path class="st0" d="M185.4,93.9C185.4,93.9,185.4,93.9,185.4,93.9C185.4,94.3,185.4,94.1,185.4,93.9z"/>
		<path class="st0" d="M95.6,101.7c-2.5-0.3-4.5,0.2-5.9,1.7c-2.9,2.8-4,7.2-5.3,10.9c-2,5.5-2.7,11.3-2.7,17.1c0,3.4,1,6.1,4.4,7.3
			c2.3,0.8,6.7,0.5,8-1.9c0.8-1.5,1-3,1.2-4.7c0.3-3.5,0.7-6.7,1.4-10.1c0.6-2.8,1.3-5.5,2.2-8.2c0.8-2.4,2.3-4.6,2.4-7.2
			C101.6,103.6,97.9,102,95.6,101.7z M98,109c-1.2,2.5-2,5.2-2.8,7.8c-0.9,2.9-1.4,6-2.1,9c-0.6,2.7-0.3,5.4-0.7,8.1
			c-0.8,5.2-7.9,2-8.3-1.5c-0.4-3.3,0.1-6.9,0.6-10.1c0.6-3.5,1.7-6.9,2.9-10.2c0.5-1.5,1-2.9,1.6-4.4c0.3,0,0.5-0.2,0.6-0.5
			C91.8,103,100.8,103.2,98,109z"/>
		<path class="st0" d="M92.1,143.1c-1.9-1.4-5.5-0.4-7.5-0.2c-0.4,0-0.7,0.3-0.9,0.6c-0.3,0.2-0.6,0.4-0.8,0.7
			c-1.4,1.9-1.1,4.5-0.6,6.7c1.3,5.4,5.3,9.5,10.7,10.5c7,1.2,3.7-8.3,2.6-11.8C94.9,147.2,94.1,144.6,92.1,143.1z M92.9,158.6
			c-3.3-0.6-5.2-2.7-6.8-5.5c-0.8-1.5-1.4-3.2-1.6-4.9c-0.3-2.7,1.6-3,3.7-3.2c0.4,0,0.8,0,1.2,0c1.9,0.1,2.4,1.6,3,3.2
			c0.6,1.7,1.2,3.4,1.6,5.2c0.3,1.2,0.4,2.4,0.5,3.7C94.7,158.7,94.5,158.9,92.9,158.6z"/>
		<path class="st0" d="M141.9,42.2c0.8,0.4,1.9-0.1,1.8-1.1c-0.2-2-0.3-4.9-0.3-7.3c0.1-2.3,0.2-6.4,0.8-8c0.3-0.7-0.7-1.5-1.3-1
			c-2.2,1.6-1.9,5.9-2.1,8.4C140.7,35.1,139.7,41,141.9,42.2z"/>
		<path class="st0" d="M172.2,48.2c0.8-0.4,1-0.7,1.5-1.5c0.1-0.1,0.1-0.2,0.1-0.2c2.7-3.8,2.3-10,4.1-14c0.5-1.1-0.8-2.4-1.7-1.3
			c-1.5,1.8-1.9,4.4-2.3,6.6c-0.5,2.4-0.9,6.6-3,8.2C169.4,46.8,170.6,49,172.2,48.2z"/>
		<path class="st0" d="M204.2,65.4c4-3.9,8.6-7.1,12.7-10.8c0.9-0.8,0-2.4-1.2-2c-2.6,0.7-4.5,3.4-6.4,5.2c-2.3,2.1-5.1,3.8-6.8,6.4
			C201.8,65.1,203.3,66.3,204.2,65.4z"/>
		<path class="st0" d="M235.7,93.2c-5.4,0.6-11.5,1.8-16.7,3.5c-1.4,0.5-0.8,2.3,0.6,2.1c5.3-0.8,11.3-1.4,16.4-3.2
			C237.3,95.2,237.2,93,235.7,93.2z"/>
		<path class="st0" d="M230.1,134.4c2.1,0.5,6.4,1.9,7.9-0.3c0.5-0.7-0.2-1.9-1.1-1.9c-4.3,0.4-10-0.8-13.7-3.1
			c-1.2-0.7-2.2,0.8-1.4,1.8C223.7,133.1,227.6,133.8,230.1,134.4z"/>
		<path class="st0" d="M219.2,167.8c-2.3-1.4-4.9-2.9-7.5-3.9c-0.2-0.1-0.5-0.2-0.7-0.2c-0.7,0-1.3,0.4-1.2,1.2v0
			c0,0.3,0.1,0.5,0.2,0.7c0.1,0.1,0.1,0.2,0.1,0.4c0.1,0.5,0.7,0.7,1.2,0.6c1.7,1,3.5,1.9,5.1,2.9c1.8,1,3.1,2.2,4.5,3.6
			c0.6,0.6,1.6,0.5,2-0.3C224.2,170.6,220.6,168.7,219.2,167.8z"/>
		<path class="st0" d="M208.8,196.6C208.8,196.6,208.8,196.7,208.8,196.6C208.8,196.6,208.8,196.6,208.8,196.6c0-0.1,0-0.1,0-0.2
			c0.1-0.6-0.2-1.1-0.7-1.4c-1.5-1.2-3.3-3.1-4.8-4.5c-1-0.9-1.9-1.7-2.9-2.6c-0.6-0.5-1.4-1.3-2.1-1.5c-1.2-0.2-1.8,1-1.3,1.8
			c0.3,0.7,1.2,1.3,1.8,1.8c1,0.9,1.9,1.8,2.9,2.7c1.6,1.5,3.3,2.9,4.7,4.5c0.3,0.4,1,0.5,1.4,0.4c-0.1,0-0.1,0-0.1,0
			C208.3,197.6,208.7,197.2,208.8,196.6z"/>
		<path class="st0" d="M69.8,194.9c-2.2-0.4-4.2,1.2-5.9,2.5c-2.2,1.7-4.2,3.9-6.4,5.6c-0.5,0.4-0.8,1-0.4,1.7
			c0.1,0.1,0.1,0.2,0.2,0.3c0.3,0.4,0.8,0.6,1.3,0.4c0.5,0,0.8-0.3,0.8-0.8c0.5-0.3,1.2-0.7,1.5-1c1-0.8,2-1.7,3-2.6
			c1.1-0.9,2.1-1.8,3.3-2.6c0.9-0.6,2-0.9,2.9-1.4C71,196.6,70.9,195.1,69.8,194.9z"/>
		<path class="st0" d="M49,167.1c-4.3,3.3-10.8,4.1-14.1,8.6c-0.8,1.1,0.9,2.1,1.8,1.4c4.2-3.3,9.5-4.4,13.8-7.5
			C52,168.5,50.5,166,49,167.1z"/>
		<path class="st0" d="M31.8,129.2c-2.6-0.3-5.3-0.9-7.9-0.1c-1.2,0.3-0.9,2.1,0.3,2.1c3.2,0.1,6.3,0.5,9.4,0.9
			c2.2,0.3,5.2,0.5,7-1.1c0.7-0.7,0.2-2.1-0.8-2C36.9,129.2,34.6,129.5,31.8,129.2z"/>
		<path class="st0" d="M37.4,94.9c0.9,0.5,2.3,1.3,3.1,1.6c2.6,1.1,5.4,2.2,7.1,4.6c0.8,1.1,2.7,0.8,2.7-0.7c0-0.6-0.1-1-0.2-1.6
			c-0.2-0.8-1-1-1.6-0.9c-2.4-2.1-5.4-3-8.4-4.5c-0.9-0.5-2.1-1.2-3.2-0.9c-0.9,0.3-1,1.2-0.6,2C36.6,94.9,37,95,37.4,94.9z"/>
		<path class="st0" d="M64.7,64c1.7,1.7,3.4,3.3,5.2,4.8c1,0.8,2.2,1.9,3.7,1.5c1-0.3,1.2-1.7,0.3-2.2c-2.7-1.4-5.1-3.9-7.3-6
			c-1.3-1.3-2.6-2.6-3.9-4c-0.5-0.5-1-1-1.4-1.5c-0.1-0.2-0.3-0.3-0.4-0.5c-0.3-0.4-0.4-0.4-0.4-0.2c-0.5-0.3-1.2-0.3-1.4,0.5
			c-0.2,0.7,0.3,1.6,1.1,2.7C61.5,60.9,63.1,62.5,64.7,64z"/>
		<path class="st0" d="M92.2,33.2c2.5,5.4,5.2,10.7,7.4,16.2c0.8,1.9,3.4,0.8,2.6-1.1c-1.6-3.7-3.1-7.3-5-10.8
			c-0.8-1.5-1.8-4.9-3.5-5.8C92.7,31.2,91.7,32.4,92.2,33.2C92.2,33.2,92.2,33.2,92.2,33.2z"/>
		<path class="st0" d="M111.2,2.2c2.4,0.9,5.2,1,7.8,1.3c-2.6,2.2-5.9,4.6-6.1,7.7c-0.2,4,5.9,4.1,9.2,5.4c-2.3,1.9-5.3,4.5-5,7.3
			c0.2,1.4,0.4,2.3,1.5,3.2c0.4,0.3,0.9,0.5,1.3,0.7c2.5,0.7,1.1,2.7,0.1,3.9c-1.5,1.9-1.2,4.5,0.9,5.7c0.5,0.3,1,0.4,1.5,0.5
			c2.3,0.7,0.9,2.6,0,3.7c-1.1,1.4-2.4,2.7-3.4,4.2c-0.9,1.5,1.5,2.9,2.4,1.4c1.5-2.5,4.6-4.5,5.2-7.5c0.5-2.7-1.9-4-4-4.7
			c-1.9-0.6,1.4-3.7,1.8-4.5c0.5-1.1,0.2-2.7-0.5-3.6c-0.8-1-4.1-2.1-3.9-3.6c0.4-2.4,3.8-4.5,5.4-6.1c0.5-0.5,0.6-1.5,0-1.9
			c-2.8-2.3-6.5-2.2-9.6-3.8c-1-0.5,6.4-7.4,7.1-8.2c0.6-0.7,0.5-2-0.6-2.2c-3.3-0.6-7.8-1.8-11.1-0.9
			C110.2,0.5,110.4,1.8,111.2,2.2z"/>
		<path class="st0" d="M211.8,78.8c-0.3,0.4-0.2,1,0,1.4c0,0.1,0.1,0.1,0.1,0.2c0.6,1.5,2.9,0.4,2.5-1.1c0.3,1.4,0.3,0.9,1.6,0.6
			c0.9-0.2,1.8-0.3,2.8-0.4c1.7-0.2,3.3,0.1,4.9-0.4c1.1-0.4,2.1-1.6,2.2-2.8c0-0.7,0-1.1-0.2-1.8c-0.5-2.4,1.2-2.5,2.9-1.9
			c2.3,0.7,5.8,2.4,7.6-0.1c1.6-2.2,1.4-5.1,1.1-7.8c2.7,1.6,5.4,3.3,8.5,4.2c0.8,0.2,1.5-0.3,1.7-1c1.6-4.1,1.8-8.4,2.8-12.6
			c0.9,0.7,1.7,1.4,2.2,2.2c0.3,0.6,1.2,0.6,1.6,0c1.1-2.1-2.3-4.4-3.6-5.6c-0.8-0.7-2-0.4-2.3,0.6c-1.4,4.3-1.5,8.9-2.9,13.2
			c-3.1-1.3-5.9-3.3-8.9-4.9c-0.9-0.5-2.2,0.1-2.2,1.3c0.1,1.7,0.2,3.4,0.3,5c0.1,2.9-0.4,4.2-3.4,3.3c-2.7-0.8-6.2-2.7-8.3,0.1
			c-0.7,0.8-0.7,2.1-0.4,3.1c0.8,3.2-1.1,2.9-3.6,3.1C216.6,76.9,213.2,76.9,211.8,78.8z"/>
		<path class="st0" d="M210.6,223.9c-2.2-1.3-4.6-1.2-7-1c-4.2,0.3-2.4-4.2-1.6-6.1c0.7-1.6,0.9-3.1,0.7-4.8
			c-0.1-0.8-0.6-1.4-1.4-1.4c-3.2-0.1-6.2,1.3-9.3,1.6c0.7-3.7,2.9-7,3.4-10.8c0.1-0.8-0.3-1.6-1.2-1.6c-2.2-0.1-5,0.6-6.9,2
			c-0.2,0-0.4,0.2-0.6,0.4l-0.2,0.3c-0.6,0.9,0.5,1.9,1.4,1.4c1.4-0.7,3.1-1.3,4.7-1.6c-1.1,3.8-3.2,7.2-3.5,11.2
			c-0.1,0.8,0.7,1.4,1.4,1.4c3.3,0.1,6.2-1.3,9.4-1.6c-0.7,4.2-4.8,11.9,2,12.3c3.5,0.2,8.3-1.2,7.3,4c-0.4,2.3-0.7,4.3,0.2,6.5
			c0.6,1.5,2.9,0.4,2.5-1.1C211,232,214.2,226.1,210.6,223.9z"/>
		<path class="st0" d="M269.7,171c-0.7-1,0.3-3.4,0-4.7c-0.4-1.3-1.4-1.7-2.7-1.8c-2.2-0.2-4.5,2.1-6.1,4.2
			c-0.4-1.1-0.9-2.2-1.2-3.3c-0.8-2.4-0.4-5.1-1.1-7.5c-0.2-0.8-1.4-1.4-2.1-0.9c-3.5,2.7-6,6.7-9.5,9.4c0.5-4.7,2.1-11.1-1.9-13.6
			c-2.3-1.5-5.3,0.8-7.2,2.1c-0.7,0.5-5.3,4.2-5.9,2.6c-1-2.5,0.5-5.7-0.1-8.4c-0.2-0.8-1.2-1.2-1.9-0.8c-2.6,1.8-5.2,3.8-7.7,5.8
			c-1,0.8,0.3,2.4,1.3,1.7c2-1.3,3.8-2.6,5.8-4c-0.3,2.9-1.2,6.7,1.2,8.3c2.4,1.6,5.2-0.5,7.2-1.8c1.4-1,2.8-2,4.3-2.8
			c2.7-1.5,2.5,2.6,2.5,4.1c0,3.2-0.9,6.3-0.7,9.5c0.1,1.1,1.2,1.8,2.2,1.2c4.2-2.2,6.7-6.3,10.1-9.4c0.1,1.3,0.1,2.6,0.4,4
			c0.6,2.5,1.6,4.8,2.5,7.1c0.4,1.2,1.9,1.4,2.6,0.3c1.3-1.8,2.9-3.6,4.8-4.8c0.8-0.5,0.3,1.8,0.2,2.4c-0.1,0.9,0,1.7,0.5,2.4
			C268.3,173.9,270.8,172.5,269.7,171z"/>
		<path class="st0" d="M9.4,110c1.7,1,4-0.4,5.5-1.1c1.3-0.6,2.5-1.4,3.8-1.9c2.4-0.9,2-0.9,2.2,1.4c0.5,6.2,3.8,5.7,8.6,3.7
			c5.1-2.2,3.9,3,6.6,5.4c2.1,1.9,4.6-0.7,6.5-1.5c1.7-0.7,0.9-3.4-0.8-2.7c-0.9,0.4-1.7,0.8-2.6,1.4c-2.1,1.3-2.1-1.9-2.8-3.1
			c-0.8-1.4-2.2-3.3-4.1-3.3c-2.4,0-4.6,1.4-6.7,2.2c-2.5,1-1.9-4.1-2.4-5.6c-1.3-3.6-7.1,0.1-9,1.1c-0.7,0.4-3.4,2.2-4,0.9
			c-0.6-1.4-0.1-3.7,0.1-5.2c0.3-2.3,0.9-4.8,0.1-7.1c-0.3-0.9-1.5-1.3-2.2-0.6c-2.8,3.2-5.8,6.3-8.2,9.7c-0.7,1,0.8,1.8,1.5,1.2
			c2.3-2,4.4-4.4,6.5-6.8C7.8,102.4,5.8,107.9,9.4,110z"/>
		<path class="st0" d="M38.9,157.1c3.7,0.9,4.3-0.8,7-2.7c1.5-1,0.1-3.5-1.5-2.5c-1.9,1.3-2.4,3.4-5.5,2.1c-0.9-0.4-1.5-1.1-2.5-0.9
			c-2.7,0.5-5.2,4.2-7.3,6.5c-1.3-1.3-2.6-2.6-4.3-3.5c-0.7-0.4-1.5-0.1-1.9,0.5c-2.2,3.1-5,5.8-7,9c-2-2.8-3.4-5.9-5-9
			c-0.5-1-1.7-0.7-2.3,0c-2.5,3.4-3.7,7.9-4.2,12c-0.2,1.3,2,1.6,2.3,0.3c0.6-3,1.4-6.2,2.9-8.9c1.6,3.2,3.2,6.4,5.5,9.2
			c0.5,0.7,1.8,0.5,2.2-0.3c1.7-3.7,4.6-6.5,7.1-9.7c1.3,1,2.4,2.2,3.7,3.3c0.6,0.5,1.4,0.5,2,0c1.6-1.4,3-3.1,4.5-4.6
			C36.8,155.8,36.4,156.5,38.9,157.1z"/>
	</g>
</g>
</svg>
