<?xml version="1.0" encoding="utf-8"?>
<!-- Generator: Adobe Illustrator 16.0.0, SVG Export Plug-In . SVG Version: 6.00 Build 0)  -->
<!DOCTYPE svg PUBLIC "-//W3C//DTD SVG 1.1//EN" "http://www.w3.org/Graphics/SVG/1.1/DTD/svg11.dtd">
<svg version="1.1" id="Layer_1" xmlns="http://www.w3.org/2000/svg" xmlns:xlink="http://www.w3.org/1999/xlink" x="0px" y="0px"
	 width="18.5px" height="24px" viewBox="0 0 18.5 24" style="enable-background:new 0 0 18.5 24;" xml:space="preserve">
<style type="text/css">
<![CDATA[
	.st0{fill:#E68F33;}
]]>
</style>
<path class="st0" d="M5.8,22.4c-0.7-0.1-0.9,1-0.3,1.3C6,23.8,6.4,23.9,6.9,24C7.5,24,8.2,24,8.5,23.5c0.1-0.2,0.1-0.5,0-0.8
	c-0.2-0.3-0.7-0.5-1-0.3c0,0,0,0-0.1,0c0,0,0,0,0,0c-0.1,0-0.2,0-0.3,0C6.6,22.5,6.3,22.4,5.8,22.4z"/>
<path class="st0" d="M7.9,20.5c-0.6,0-1.1,0-1.7,0c-0.3,0-0.6,0.2-0.7,0.5c-0.1,0.4,0.1,0.7,0.5,0.8C6.6,22.1,7.3,22,7.9,22
	c0.4,0,0.8-0.4,0.8-0.8C8.6,20.8,8.3,20.5,7.9,20.5z"/>
<path class="st0" d="M8.6,18.7c-0.1-0.1-0.3-0.2-0.5-0.2c0,0,0,0,0,0c0,0,0,0,0,0c0,0,0,0,0,0c-0.1,0-0.1,0-0.2,0
	c-0.2,0-0.3,0-0.5,0c-0.3,0-0.6,0-0.8,0c-0.4,0-0.7,0.3-0.7,0.7c0,0.4,0.3,0.7,0.7,0.7c0,0,0,0,0.1,0c0.1,0,0.2,0,0.3,0
	c0.2,0,0.4,0.1,0.6,0.1c0.3,0,0.6,0.1,0.9-0.1C8.9,19.7,9,19,8.6,18.7z"/>
<path class="st0" d="M4.9,13.6c0.6,1.3,0.9,2.6,1.4,3.9c0.1,0.4,0.8,0.4,1,0C8.3,14,3,10.6,6.7,7.4c1.2-1,3-1.2,4.3-0.4
	c1.6,1,0.9,2.7,0,3.9c-0.7,1-1.4,1.8-1.9,2.8c-0.5,1.1-0.5,2.3-1,3.4C7.9,17.7,9,18,9.4,17.5c1-1.5,0.8-3.2,1.9-4.7
	c0.9-1.2,2.2-2.3,2.2-3.8c0-2.3-2.2-4-5-3.7c-2.8,0.3-4.6,2.7-4.7,4.8C3.8,11.3,4.4,12.5,4.9,13.6z"/>
<path class="st0" d="M8.5,14.2c0.3-0.5,0.3-1.1,0.3-1.6c0.1-0.5,0.1-1,0.1-1.5c0-0.7-1.1-0.9-1.2-0.1c-0.1,0.5-0.2,1-0.2,1.4
	c-0.1,0.5-0.2,1.1-0.1,1.6C7.6,14.6,8.3,14.6,8.5,14.2z"/>
<path class="st0" d="M0.6,9.1C0.6,9.1,0.6,9.1,0.6,9.1C0.6,9.1,0.6,9.1,0.6,9.1C0.7,9.1,0.7,9.1,0.6,9.1C0.7,9.1,0.7,9.1,0.6,9.1
	c0.1,0,0.1,0,0.2,0.1c0.1,0,0.2,0,0.3,0.1c0.2,0,0.4,0.1,0.6,0.2c0.3,0.1,0.7,0.1,1-0.1c0.4-0.4,0.4-1.1,0-1.5
	C2.4,7.6,2.1,7.6,1.9,7.7c0,0,0,0-0.1,0.1c-0.1,0-0.3,0-0.4-0.1c-0.1,0-0.3,0-0.4,0c-0.2,0-0.3,0-0.4,0.1c0.2-0.1,0,0-0.1,0
	C0.2,7.9,0,8.2,0,8.5C0,8.8,0.3,9.1,0.6,9.1z"/>
<path class="st0" d="M2.3,4.4C2.3,4.4,2.3,4.4,2.3,4.4C2.4,4.7,2.7,4.8,2.9,5C3,5.1,3.1,5.2,3.2,5.3C3.3,5.8,3.9,6,4.4,5.9
	c0.6-0.1,0.8-0.9,0.3-1.3C4.5,4.4,4.3,4.2,4,4C3.9,3.9,3.7,3.8,3.6,3.7C3.5,3.6,3.4,3.6,3.3,3.5c0.2,0.1-0.1,0-0.2-0.1
	c-0.2-0.1-0.5,0-0.7,0.2c0,0,0,0,0,0C2.2,3.9,2.2,4.1,2.3,4.4C2.3,4.4,2.3,4.4,2.3,4.4z"/>
<path class="st0" d="M6.6,2c0,0.2,0.1,0.3,0.1,0.5c0,0.1,0,0.1,0.1,0.2c0,0.1,0,0.1,0,0c0,0,0,0,0-0.1c-0.1,0.5,0.2,1,0.8,1
	c0.5,0,0.9-0.5,0.8-1c-0.1-0.7-0.4-1.5-0.9-2C7,0.1,6.1,0.6,6.3,1.2C6.4,1.5,6.5,1.8,6.6,2z"/>
<path class="st0" d="M10.5,2.5L10.5,2.5c0.1,0.2,0.2,0.4,0.4,0.5c0.3,0.2,0.7,0.1,1-0.2c0.4-0.3,0.6-0.8,0.7-1.3
	c0.1-0.2,0.1-0.4,0.1-0.7c0-0.5-0.4-0.9-0.9-0.9c-0.3,0-0.6,0.2-0.7,0.4C11,0.5,11,0.5,11,0.6c0,0.1,0,0.1,0,0.2c0-0.2,0-0.2,0,0
	c0,0,0,0.1,0,0.1c0,0,0,0.2,0,0.2c0,0.1,0,0.2-0.1,0.3c0,0,0,0,0,0c0,0,0,0,0,0c0,0,0,0.1-0.1,0.1c0,0,0,0.1,0,0.1
	c-0.2,0.1-0.3,0.3-0.3,0.5C10.4,2.3,10.4,2.4,10.5,2.5C10.5,2.5,10.5,2.5,10.5,2.5z"/>
<path class="st0" d="M13.8,5.7C13.8,5.7,13.8,5.7,13.8,5.7C13.8,5.8,13.8,5.8,13.8,5.7c0.2,0,0.3,0,0.4,0c0.5-0.1,0.8-0.5,1.2-0.8
	c0.2-0.2,0.4-0.3,0.6-0.5c0,0,0.1,0,0.1-0.1c0.1,0,0.3-0.2,0.3-0.2c0.3-0.3,0.2-0.8-0.1-1.1c-0.3-0.4-1.1-0.5-1.4,0.1c0,0,0,0,0,0
	c0,0.1-0.1,0.1-0.2,0.2c-0.2,0.2-0.3,0.3-0.5,0.5c-0.4,0.3-1,0.7-1,1.3C13.3,5.4,13.5,5.7,13.8,5.7z"/>
<path class="st0" d="M16.1,4.3C16.1,4.3,16.1,4.3,16.1,4.3C16,4.4,16,4.4,16.1,4.3z"/>
<path class="st0" d="M15.3,7.2c-0.2,0-0.3,0.2-0.3,0.5c0,0,0,0.1,0,0.1c0,0,0,0,0,0c0,0.3,0.2,0.5,0.4,0.6c0.5,0.3,1.1,0.1,1.6,0
	c0.1,0,0.4,0,0.6-0.1c0.5,0,0.9-0.3,0.9-0.8c0-1-1.1-0.8-1.7-0.7c-0.5,0.1-0.9,0.1-1.3,0.3C15.4,7.1,15.3,7.1,15.3,7.2z"/>
<path class="st0" d="M16.6,11.2c-0.1,0-0.1,0-0.2,0c-0.1,0-0.2-0.1-0.4-0.1c-0.2-0.1-0.4-0.2-0.6-0.2c-0.2,0-0.3,0-0.5,0.1
	c-0.5,0.1-0.6,0.7-0.3,1c0.1,0.1,0.2,0.2,0.3,0.3c0.6,0.3,1.1,0.5,1.8,0.6c0.4,0,0.8-0.4,0.8-0.8C17.4,11.5,17,11.2,16.6,11.2
	C16.6,11.2,16.6,11.2,16.6,11.2z"/>
</svg>
