<?xml version="1.0" encoding="utf-8"?>
<!-- Generator: Adobe Illustrator 16.0.0, SVG Export Plug-In . SVG Version: 6.00 Build 0)  -->
<!DOCTYPE svg PUBLIC "-//W3C//DTD SVG 1.1//EN" "http://www.w3.org/Graphics/SVG/1.1/DTD/svg11.dtd">
<svg version="1.1" id="Layer_1" xmlns="http://www.w3.org/2000/svg" xmlns:xlink="http://www.w3.org/1999/xlink" x="0px" y="0px"
	 width="270px" height="311.4px" viewBox="0 0 270 311.4" style="enable-background:new 0 0 270 311.4;" xml:space="preserve">
<style type="text/css">
<![CDATA[
	.st0{fill:#8B2022;}
]]>
</style>
<path class="st0" d="M163.3,61.9c-0.8-4.4-2.2-8.8-4.5-12.7c0-0.2,0-0.3-0.2-0.3c-1.1-1.9-2.4-3.7-3.9-5.3
	c-8.9-9.6-23-12.4-35.2-8.9c-5.7,0.8-11.2,3.3-15.8,6.7C93,49,89.1,62.8,91.1,75.4c1.5,9.1,7.4,17.9,15.5,22.4
	c9.3,5.2,21.5,6,31.4,2.4c0,0,0.1,0,0.1,0c0,0,0.1,0,0.1,0c0.5-0.2,1-0.4,1.4-0.6c2-0.7,4-1.6,6-2.7c2.9-1.6,5.5-3.8,8-5.9
	c2.6-2.2,4.9-4.3,6.5-7.4C163.5,77.2,164.5,68.7,163.3,61.9z M160.3,78.7c-0.7,0.2-1.5,0.7-2.2,0.9c-0.3,0.1-0.7,0.3-1,0.4
	c0.1-0.5,0.3-1,0.4-1.6c1.2-0.4,2.3-1,3.3-1.7C160.7,77.4,160.5,78.1,160.3,78.7z M161.4,73.6c-0.1,0.7-0.2,1.4-0.4,2
	c-1,0.7-2.2,1.4-3.3,1.8c0.2-0.9,0.3-1.8,0.4-2.7l-0.2,0.1c0.4-0.6,2-1.3,2.4-1.5c0.4-0.2,0.8-0.4,1.3-0.6
	C161.5,73.1,161.5,73.4,161.4,73.6z M161.7,71.9c-1,0.5-2,0.9-2.9,1.5c-0.2,0.1-0.4,0.2-0.6,0.4c0.1-1,0.1-2,0.1-3.1
	c1.2-0.6,2.3-1.3,3.6-1.4C161.8,70.2,161.8,71.1,161.7,71.9z M161.9,68.4c-1.3,0.2-2.5,0.9-3.6,1.5c0-0.1,0-0.2,0-0.3
	c0-0.5,0-1-0.1-1.5c1.2-0.5,2.4-1.1,3.7-1.6C161.9,67.1,161.9,67.7,161.9,68.4z M161.8,65.6c-1.3,0.3-2.5,1-3.7,1.6
	c-0.1-0.9-0.2-1.7-0.3-2.6c0.3-0.1,0.5-0.2,0.8-0.4c1-0.5,1.8-1,2.9-1.1C161.6,63.9,161.8,64.7,161.8,65.6z M161.1,61
	c0.1,0.4,0.2,0.8,0.3,1.2c-0.9,0.1-1.7,0.6-2.5,1.1c-0.4,0.2-0.7,0.4-1.1,0.6c-0.1-0.9-0.3-1.7-0.5-2.6c1-0.5,2.1-0.9,3.1-1.4
	c0.2-0.1,0.3-0.3,0.3-0.5C160.8,59.8,160.9,60.4,161.1,61z M160.5,58.8c-0.1,0-0.2,0-0.3,0.1c-1,0.5-2.1,1.1-3.1,1.4
	c-0.3-1.3-0.7-2.6-1.2-3.9c1.1-0.5,2.2-1,3.4-1.3C159.7,56.4,160.1,57.6,160.5,58.8z M158.9,54.2c-1.2,0.2-2.3,0.9-3.4,1.5
	c-0.5-1.4-1.1-2.7-1.8-4c0.3-0.1,0.5-0.2,0.7-0.3c0.8-0.4,1.6-0.9,2.5-1.2C157.6,51.4,158.3,52.8,158.9,54.2z M154.3,46.5
	c0.8,0.9,1.5,1.9,2.1,2.9c-0.6,0.2-1.2,0.6-1.8,0.9c-0.4,0.2-0.9,0.4-1.3,0.6c-0.6-1-1.2-2-1.9-3c0.1,0,0.1-0.1,0.2-0.1
	C152.6,47.4,153.4,47,154.3,46.5z M153.8,45.8c-0.7,0.4-1.4,0.8-2.1,1c-0.3,0.1-0.5,0.2-0.8,0.3c-0.5-0.7-1.1-1.4-1.7-2.1
	c0.9-0.4,1.7-0.8,2.6-1.3C152.5,44.4,153.2,45.1,153.8,45.8z M149.7,42c0.5,0.4,1,0.8,1.5,1.2c-0.8,0.4-1.7,0.8-2.5,1.2
	c-0.9-0.9-1.8-1.8-2.7-2.6c0.7-0.3,1.3-0.6,2-1C148.5,41.2,149.1,41.6,149.7,42z M147.1,40.3c-0.6,0.3-1.3,0.6-1.9,0.9
	c-0.6-0.5-1.3-1-1.9-1.4c-3.2-2.1-7-3.6-10.8-4.4C137.5,35.9,142.5,37.5,147.1,40.3z M94.3,56.7c0.1,0,0.1,0,0.2-0.1
	C94.4,56.7,94.3,56.7,94.3,56.7C94.3,56.7,94.3,56.7,94.3,56.7z M102.7,92.1C102.7,92.1,102.7,92.1,102.7,92.1
	C102.7,92.1,102.7,92.1,102.7,92.1C102.7,92.1,102.7,92.1,102.7,92.1C102.7,92.1,102.7,92.1,102.7,92.1z M151,91.1
	c0.6-0.7,1.2-1.4,1.7-2.1c0.4-0.1,0.8-0.2,1.2-0.3C153,89.6,152,90.4,151,91.1z M153.3,83.5c-0.2,0-0.3,0.2-0.3,0.3
	c0,0.2,0,0.5,0.2,0.6c0.2,0,0.4,0.2,0.6,0.3c-0.2,0.4-0.4,0.8-0.7,1.2c-0.1,0.1-0.2,0.2-0.4,0.2c-0.1,0.1-0.1,0.3-0.1,0.5
	c-0.3,0.4-0.5,0.8-0.8,1.2c0-0.2-0.1-0.4-0.3-0.4c-0.1,0,0,0-0.1-0.1c-0.1-0.1-0.2-0.1-0.3-0.1c-0.1,0-0.3-0.1-0.4-0.1
	c-0.3-0.2-0.5,0.3-0.4,0.5c0.1,0.4,0.5,1,0.9,0.9c-0.5,0.7-1.1,1.3-1.6,1.9c0,0-0.1,0-0.1-0.1c-0.5-0.1-1.1-0.5-1.6-0.3
	c-0.3,0.1-0.3,0.6,0,0.8c0.3,0.1,0.5,0.4,0.8,0.6c-0.7,0.7-1.4,1.3-2.2,1.9c-0.1-0.1-0.2-0.2-0.3-0.3c-0.1-0.2-0.3-0.2-0.5-0.1
	c-0.2,0.2-0.2,0.5-0.1,0.8c0,0.1,0.1,0.2,0.1,0.3c-0.4,0.3-0.9,0.7-1.4,1c-0.1,0-0.2-0.1-0.4-0.1c-0.1,0-0.3-0.1-0.3-0.2
	c-0.1-0.2-0.3-0.4-0.5-0.3c-0.3,0.1-0.4,0.5-0.3,0.8c0.1,0.2,0.2,0.5,0.3,0.7c-0.8,0.5-1.5,0.9-2.3,1.3c0-0.1-0.1-0.1-0.1-0.2
	c-0.1-0.1-0.2-0.2-0.3-0.3c-0.1-0.2-0.3-0.3-0.5-0.4c-0.4-0.2-0.6,0.6-0.4,0.8c0.1,0.2,0.2,0.4,0.3,0.6c-0.5,0.3-1.1,0.5-1.6,0.7
	c-0.5,0.2-0.9,0.3-1.4,0.5c0-0.1,0-0.1-0.1-0.2c-0.2-0.4-0.6-0.7-1-0.8c-0.6-0.2-0.7,0.9-0.3,1.1c0.1,0.1,0.2,0.2,0.2,0.2
	c-0.8,0.2-1.6,0.4-2.5,0.6c-0.1-0.2-0.2-0.3-0.3-0.5c-0.1-0.2-0.3-0.4-0.5-0.6c-0.2-0.2-0.5-0.1-0.6,0.1c-0.2,0.3-0.2,0.7,0,1
	c0.1,0.1,0.1,0.2,0.1,0.3c-0.6,0.1-1.1,0.2-1.7,0.2c-0.1-0.2-0.1-0.3-0.2-0.5c-0.1-0.3-0.2-0.7-0.4-0.9c-0.4-0.6-0.9,0.3-0.7,0.8
	c0.1,0.2,0.1,0.5,0.2,0.8c-1,0.1-2.1,0.1-3.1,0.1c0-0.1-0.1-0.2-0.1-0.3c-0.1-0.3-0.3-0.5-0.4-0.8c-0.1-0.2-0.3-0.2-0.5-0.1
	c-0.2,0.2-0.2,0.5-0.1,0.7c0,0.1,0.1,0.2,0.1,0.4c-0.8,0-1.5-0.1-2.3-0.2c-0.1-0.3-0.1-0.5-0.1-0.8c0-0.3-0.1-0.7-0.5-0.7
	c-0.3,0-0.5,0.4-0.5,0.7c0,0.2,0,0.4,0,0.7c-0.9-0.1-1.8-0.3-2.7-0.4c-0.1-0.2-0.1-0.4-0.2-0.7c-0.2-0.6-0.8,0-0.6,0.4
	c0,0,0,0.1,0,0.1c-0.8-0.2-1.5-0.3-2.3-0.5c0-0.4-0.1-0.8-0.1-1.2c-0.1-0.6-0.8-0.6-0.8,0c0,0.3-0.1,0.6-0.1,0.9c-0.1,0-0.1,0-0.2,0
	c-0.7-0.2-1.4-0.4-2.1-0.7c0-0.1,0-0.1,0-0.1c0,0,0,0,0,0c0,0,0,0,0-0.1c0-0.2,0-0.4,0.1-0.6c0.2-0.3,0-1.2-0.4-0.8
	c-0.4,0.3-0.5,0.7-0.6,1.2c0,0,0,0,0,0.1c-0.7-0.3-1.4-0.6-2.1-0.9c0.1-0.1,0.1-0.1,0.2-0.2c0.2-0.2,0.3-0.5,0.2-0.7
	c0-0.2-0.3-0.6-0.6-0.5c-0.3,0.2-0.7,0.5-1,0.8c-0.6-0.3-1.1-0.7-1.7-1c0.1-0.1,0.1-0.1,0.2-0.2c0.3-0.4,0.2-1.2-0.4-1.3
	c-0.3,0-0.6,0.2-0.8,0.3c-0.1,0.1-0.2,0.2-0.3,0.3c-0.8-0.6-1.6-1.3-2.4-1.9c0,0,0,0,0,0c0,0,0,0,0,0c0,0,0.1-0.1,0.1-0.1
	c0.1,0,0.1-0.1,0.2-0.1c0.3-0.2,0.4-0.5,0.3-0.9c0-0.3-0.3-0.6-0.6-0.5c-0.3,0.1-0.6,0.3-0.8,0.6c0,0.1-0.1,0.1-0.1,0.2
	c-0.6-0.6-1.2-1.2-1.8-1.9c0,0,0.1-0.1,0.1-0.1c0.2-0.2,0.3-0.4,0.5-0.6c0.3-0.3,0-1.4-0.5-0.9c-0.3,0.2-0.7,0.5-0.8,0.8
	c-0.6-0.8-1.3-1.7-1.9-2.5c0,0,0,0,0.1,0c0,0,0.1,0,0.1,0c0,0,0,0,0,0c0,0,0.1,0,0.1,0c0.1,0,0.2,0,0.3-0.1c0.5-0.2,0.5-0.8,0.4-1.2
	c0-0.2-0.1-0.4-0.4-0.5c-0.2-0.1-0.4,0.1-0.5,0.3c0,0,0,0,0,0c-0.1,0.1-0.1,0.2-0.1,0.3c0-0.1,0,0,0,0c0,0,0,0,0,0
	c-0.2,0.1-0.3,0.3-0.3,0.6c0-0.1-0.1-0.1-0.1-0.2c-0.6-1-1.2-2-1.7-3.1c0,0,0.1,0,0.1,0c0.2-0.1,0.4-0.3,0.6-0.3
	c0.6-0.1,0.7-1.4,0-1.4c-0.5,0-1,0.2-1.2,0.7c-0.3-0.6-0.5-1.2-0.7-1.9c0.1,0,0.1,0,0.2-0.1c0.1-0.1,0.2-0.2,0.3-0.3
	c0.2-0.2,0.3-0.7,0-0.9c-0.1-0.1-0.3-0.2-0.5-0.2c-0.2,0-0.3,0.1-0.4,0.2c-0.2-0.7-0.4-1.5-0.6-2.2c0.1,0,0.2,0.1,0.3,0
	c0.1-0.1,0.2-0.1,0.3-0.2c0.2-0.1,0.3-0.3,0.4-0.6c0.1-0.2,0-0.7-0.3-0.7c-0.1,0-0.2,0-0.3,0c-0.1,0-0.2,0-0.3,0.1
	c-0.2,0-0.3,0.2-0.4,0.4c-0.2-0.9-0.3-1.7-0.4-2.6c0.3,0,0.6-0.3,0.8-0.5c0.3-0.2,0.2-0.9-0.2-0.9c-0.2,0-0.3,0-0.5,0
	c-0.1,0-0.2,0-0.2,0.1c0-0.5-0.1-1.1-0.1-1.6c0.1,0,0.1,0,0.2,0c0.2-0.1,0.3-0.2,0.5-0.3c0.4-0.2,0.3-0.9-0.1-1
	c-0.2,0-0.4,0-0.6,0.1c0-0.8,0-1.6,0.1-2.4c0.1,0,0.2,0,0.3,0c0.2,0,0.3-0.2,0.6-0.2c0.4,0,0.4-0.8,0.1-1c-0.2-0.1-0.4-0.1-0.6-0.1
	c-0.1,0-0.2,0-0.3,0c0,0,0,0,0,0c0.1-1.2,0.3-2.5,0.6-3.7c0,0.1,0.1,0.1,0.1,0.2c0.2,0.2,0.4,0.2,0.7,0.1c0.2-0.1,0.5-0.1,0.7-0.2
	c0.3-0.1,0.3-0.8,0-0.9C94.4,60,94.2,60,94,59.9c-0.2-0.1-0.5-0.1-0.7,0c0.3-1.1,0.6-2.1,1-3.2c0,0,0,0,0,0c0,0,0.1,0.1,0.2,0.1
	c0.2,0.1,0.4,0.1,0.5-0.1c0.3-0.2,0.2-0.7,0-0.9c-0.1-0.1-0.2-0.1-0.3-0.1c0.4-1,0.8-2,1.3-2.9c0.2,0.3,0.6,0.6,1,0.4
	c0.4-0.1,0.3-0.8,0-1c-0.2-0.1-0.4-0.2-0.6-0.3c0.6-1,1.2-2,1.8-2.9c0,0.2,0.2,0.3,0.3,0.3c0.1,0,0.2,0.1,0.3,0.1
	c0.5-0.1,0.4-0.8,0.1-1c-0.1,0-0.1-0.1-0.2-0.1c0.8-1,1.6-2,2.5-2.9c0.1,0.4,0.5,0.8,0.9,0.6c0.4-0.2,0.4-0.8,0-1
	c-0.1-0.1-0.2-0.1-0.3-0.1c0,0,0,0,0,0c0.2-0.2,0.4-0.4,0.6-0.5c0.6-0.6,1.3-1.1,2-1.6c0,0.2,0.1,0.4,0.4,0.5c0.1,0,0.2,0.1,0.2,0.1
	c0.1,0.1,0.2,0.1,0.4,0.1c0.2,0,0.3-0.2,0.3-0.4c0-0.2,0-0.4-0.2-0.6c-0.1-0.1-0.3-0.2-0.4-0.2c0.9-0.7,1.9-1.2,2.9-1.8
	c-0.1,0.2-0.2,0.6,0,0.8c0.2,0.1,0.4,0.2,0.6,0.2c0.2,0,0.3-0.2,0.3-0.3c0-0.2,0-0.4-0.1-0.5c-0.1-0.1-0.3-0.1-0.4-0.2
	c-0.1,0-0.1-0.1-0.2-0.1c11.8-6.3,27.4-5.2,37.5,4.1c1.1,1,2.2,2.2,3.1,3.4c-0.3,0.2-0.5,0.8,0,0.9c0.1,0,0.2,0,0.3,0
	c0,0,0.1,0,0.1,0c0.1,0,0.2,0,0.3,0c0.8,1,1.5,2.1,2.1,3.2c-0.1,0.1-0.2,0.2-0.3,0.3c-0.5,0.5,0.1,1,0.6,0.5c0,0,0.1,0,0.1-0.1
	c0.7,1.3,1.3,2.6,1.9,4c-0.2,0-0.3,0-0.4,0.2c-0.1,0.1-0.2,0.2-0.4,0.3c-0.3,0.1-0.3,0.7,0,0.8c0.2,0.1,0.4,0.1,0.6,0
	c0.2-0.1,0.4-0.2,0.4-0.4c0.4,1.2,0.8,2.4,1.2,3.7c-0.3,0.1-0.5,0.3-0.8,0.5c-0.4,0.5,0.1,1,0.6,0.5c0.1-0.1,0.2-0.2,0.4-0.3
	c0.2,0.9,0.4,1.8,0.6,2.7c-0.2,0.1-0.4,0.1-0.7,0.2c-0.3,0.1-0.2,0.8,0.1,0.7c0.2-0.1,0.4-0.1,0.6-0.2c0.1,0.9,0.2,1.8,0.3,2.7
	c-0.3,0.1-0.5,0.1-0.8,0.2c-0.3,0.1-0.4,0.8,0,0.8c0.3,0,0.6-0.1,0.8-0.2c0,0.6,0.1,1.3,0.1,1.9c-0.1,0-0.3,0.1-0.4,0.1
	c-0.5,0.1-0.7,1-0.1,0.9c0.2,0,0.3-0.1,0.5-0.1c0,0.7,0,1.4-0.1,2.1c-0.1,0-0.1,0-0.2,0c-0.1,0-0.1,0.1-0.2,0.1
	c-0.3,0.1-0.3,0.7,0,0.8c0.1,0,0.1,0.1,0.2,0.1c0,0,0.1,0,0.1,0c-0.1,0.6-0.1,1.3-0.2,1.9c-0.1,0-0.2,0-0.3,0
	c-0.6-0.2-0.6,0.8-0.2,1c0.1,0.1,0.2,0.1,0.4,0.1c-0.1,0.8-0.3,1.5-0.4,2.3c0,0.1-0.1,0.2-0.1,0.4c0,0-0.1,0-0.1,0
	c0,0-0.2,0-0.3-0.1c-0.1,0-0.3,0-0.4,0c-0.6,0-0.6,1.1,0,1.2c0.2,0,0.3,0.1,0.5,0.1c-0.2,0.5-0.4,1-0.6,1.6
	c-0.1,0.1-0.2,0.3-0.2,0.5c0,0.1-0.1,0.1-0.1,0.2C154,83.5,153.6,83.4,153.3,83.5z M156.5,86.2c-0.7,0.1-1.4,0.3-2.1,0.6
	c-0.1,0-0.1,0-0.2,0.1c0.1-0.2,0.3-0.5,0.4-0.7c0.5-0.3,1.1-0.5,1.6-0.8c0.4-0.2,0.9-0.3,1.3-0.5C157.3,85.3,156.9,85.8,156.5,86.2z
	 M158.6,83.1c-1,0.4-2,0.8-2.9,1.3c-0.1,0-0.1,0.1-0.2,0.1c0.2-0.4,0.4-0.8,0.6-1.2c0,0,0,0,0,0c0.5-0.3,1-0.6,1.6-0.8
	c0.5-0.2,1.1-0.4,1.6-0.6C159.1,82.3,158.8,82.7,158.6,83.1z M159.7,80.8c-1,0.5-2.1,0.9-3.2,1.3c0.1-0.3,0.2-0.6,0.3-0.9
	c1.1-0.3,2.1-0.7,3.1-1.2C159.9,80.2,159.8,80.5,159.7,80.8z M140.4,44.4c-5.4-3.9-12.2-5.5-18.8-4.7c0,0-0.1,0-0.1,0
	c0,0-0.1,0-0.1,0c-6.5,0.9-12.4,2.7-17,7.8c-0.7,0.8-1.4,1.8-2,2.8c-0.1-0.1-0.1-0.1-0.2-0.2c-0.4-0.3-0.6,0.5-0.3,0.8
	c0,0,0.1,0.1,0.1,0.1c-0.8,1.5-1.6,3-2.3,4.4c-1.4,2.9-2.3,6-2.8,9.2c-1,7.3,0.9,15.2,5.1,21.3c1.8,2.6,3.9,5.1,6.6,6.8
	c2.8,1.9,5.8,2.5,9,3.4c5.4,1.4,10.9,1.4,15.9-0.1c0.1,0,0.1,0,0.2,0c0.1,0,0.2-0.1,0.2-0.1c7.2-2.3,13.3-7.4,16.3-15.1
	c2.5-6.4,2.2-14.3,0.5-20.9C149.2,54.1,145.4,47.9,140.4,44.4z M150,75.3c-0.1,0-0.2,0-0.3,0.1c-0.3,0.1-0.3,0.5-0.1,0.8
	c0.1,0.1,0.2,0.2,0.3,0.3c-0.4,2.9-1.7,5.7-3,8.2c-1.5,2.7-3.6,4.9-6.2,6.5c-0.5-0.1-1-0.2-1.5-0.4c-0.5-0.2-0.7-0.6-1.4-0.6
	c-0.4,0-0.4,0.9,0,0.9c0.5,0,0.9,0.5,1.4,0.7c0.1,0,0.2,0.1,0.3,0.1c-0.7,0.4-1.5,0.8-2.2,1.1c-0.9-0.3-1.7-0.8-2.6-1
	c-1.4-0.3-2.9-0.6-4.1-1.4c-0.4-0.3-0.7,0.6-0.3,0.8c1.2,0.8,2.5,1.1,3.9,1.5c0.7,0.2,1.4,0.4,2.1,0.7c-1.5,0.6-3.1,1-4.6,1.3
	c-1.6-0.3-3.1-0.8-4.6-1.9c-0.5-0.3-0.7,0.6-0.3,0.8c0.8,0.6,1.6,1,2.5,1.4c-0.5,0.1-1,0.1-1.5,0.1c-1.7,0.1-3.4,0-5.2-0.1
	c-1.1-0.5-2.2-1.1-3-2c-0.3-0.4-0.6,0.5-0.4,0.7c0.3,0.3,0.6,0.6,1,0.9c-4.1-0.8-8.1-2.3-11.3-4.6c-5.8-4.2-8.9-11.9-9.9-18.7
	c-0.2-1.6-0.3-3.1-0.2-4.6c0.2,0.3,0.6,0.6,0.9,0.8c0.3,0.1,0.4-0.5,0.2-0.6c-0.4-0.2-0.7-0.5-0.9-0.9c0-0.1-0.1-0.1-0.2-0.2
	c0.2-2,0.5-4,1.1-5.9c0.4,0.2,0.9,0.4,1.3,0.5c0.3,0.1,0.4-0.5,0.1-0.6c-0.4-0.2-0.8-0.4-1.2-0.6c0.8-2.5,2-4.9,3.4-7.3
	c1.1,0.9,2.4,1.6,3.7,1.9c0.5,0.1,0.6-0.8,0.2-0.9c-1.2-0.5-2.3-1-3.4-1.7c0.8-1.3,1.5-2.7,2.7-3.7c0.1,0,0.1-0.1,0.2-0.1
	c0.6,0.8,1.4,1.4,2.3,1.7c0.5,0.1,0.6-0.8,0.2-0.9c-0.8-0.2-1.4-0.7-1.9-1.3c1-0.8,2.2-1.6,3.2-2.4c2.9-2.2,7.1-2.5,10.6-3
	c0,0,0,0,0,0c3.2-0.4,6.5-0.1,9.5,0.6c-0.1,0.1-0.1,0.3-0.2,0.4c-0.1,0.3,0,0.9,0.4,0.8c0.4-0.1,0.7-0.5,0.8-0.9c0,0,0,0,0,0
	c1.8,0.5,3.5,1.2,5.2,2.1c0,0.1-0.1,0.1-0.1,0.2c-0.1,0.2-0.1,0.6,0.1,0.8c0.2,0.2,0.4,0,0.5-0.2c0-0.1,0.2-0.2,0.2-0.2
	c0,0,0,0,0-0.1c1,0.6,1.9,1.2,2.8,1.9c0.5,0.4,0.9,0.8,1.4,1.2c-0.3,0.1-0.5,0.3-0.7,0.5c-0.3,0.2-0.1,1.1,0.3,0.8
	c0.2-0.2,0.4-0.3,0.7-0.4c0.1,0,0.2-0.2,0.2-0.3c0.9,1,1.8,2.1,2.6,3.3c-0.2,0.1-0.3,0.1-0.5,0.2c-0.4,0.1-0.3,1.1,0.2,0.9
	c0.2-0.1,0.4-0.2,0.5-0.3c0.1-0.1,0.2-0.1,0.2-0.2c1,1.6,1.9,3.4,2.7,5.2c-0.3-0.1-0.7-0.1-1,0.2c-0.2,0.2-0.2,0.5,0,0.7
	c0.3,0.3,0.9,0.2,1.2,0.1c0,0,0.1,0,0.1,0c0.6,1.6,1,3.1,1.3,4.6c0,0.1,0,0.2,0,0.3c0,0-0.1,0-0.1-0.1c-0.3-0.1-0.7,0-1,0
	c-0.4,0.1-0.4,0.8,0,0.9c0.3,0,0.7,0.1,1,0c0.1,0,0.2-0.1,0.3-0.2c0.3,1.8,0.3,3.7,0.3,5.5c0,0,0,0-0.1,0c-0.5-0.3-0.7,0.8-0.3,1
	c0.1,0.1,0.2,0.1,0.4,0.2c0,1,0,2,0,3.1C150.1,74.5,150,74.9,150,75.3z M119,90.8c-0.8,0.1-1.4-0.5-2.1-0.8
	c-0.4-0.2-0.3-1.1,0.2-0.9c0.7,0.2,1.3,0.5,2,0.7C119.5,89.9,119.4,90.8,119,90.8z M137.4,82.7c-1.3-0.3-2.7-0.2-4-0.2
	c-0.8,0-1.4-0.2-1.7-0.5c0-0.1-0.1-0.1-0.2-0.2c-0.6-0.6-0.6-1.7-0.6-2.8c0.2-6.1,1.2-12.2,2.2-18.2c0.6-3.5,1.3-7,2.3-10.5
	c0.3-1.1,1.1-2.3,0.2-3.4c-1-1.3-4.3-0.6-5.6-0.6c-3.2,0-6.2,0-9.3-0.4c-0.2,0-0.4,0.1-0.5,0.3c-2.1-0.3-4.1-0.9-5.4,1.1
	c-1.7,2.7-1.4,6.7-2.4,9.6c-0.7,2-2.1,5-1.3,7.2c0.5,1.3,3.8,0.8,5.4,0.5c-0.6,5.5-0.9,10.9-0.9,16.5c-2.4-0.1-7.3-0.6-8.3,1.8
	c-1.9,4.6,2.5,4.7,5.7,4.7c6.6,0,13.3,0.5,19.9,1.2c2.9,0.3,8.9,1.8,7.7-3.5C140.1,83.8,138.8,83.1,137.4,82.7z M137.1,87.9
	c-0.9,0-1.7-0.1-2.6-0.3c-0.1-0.4-0.3-0.7-0.7-0.8c-0.1,0-0.2,0.1-0.3,0.2c0,0.1-0.1,0.3,0,0.4c-0.9-0.1-1.7-0.3-2.6-0.3
	c-0.4,0-0.8-0.1-1.1-0.1c0,0,0,0,0,0c-0.1-0.1-0.2-0.3-0.1-0.4c0-0.2-0.1-0.4-0.3-0.5c-0.2-0.1-0.4,0.2-0.4,0.4c0,0.2,0,0.4,0,0.5
	c-1-0.1-2-0.1-3-0.2c0-0.1-0.1-0.1-0.1-0.2c0,0-0.1-0.1-0.1-0.1c-0.1-0.1,0-0.2,0,0c0-0.2,0-0.4-0.2-0.5c-0.2-0.1-0.4,0-0.5,0.2
	c-0.1,0.2-0.1,0.4,0,0.6c-0.5,0-1-0.1-1.5-0.1c-0.5,0-1-0.1-1.5-0.2c-0.1-0.3-0.3-0.5-0.4-0.7c0-0.2-0.1-0.4-0.3-0.4
	c-0.3,0-0.3,0.3-0.4,0.5c0,0.1,0,0.3,0.1,0.5c-0.9-0.1-1.8-0.2-2.7-0.2c-0.1-0.1-0.2-0.3-0.2-0.4c0-0.2-0.1-0.5-0.3-0.5
	c-0.2,0-0.3,0.3-0.3,0.5c0,0.1,0,0.3,0,0.4c-0.5,0-1.1,0-1.6,0c-0.1,0-0.4,0-0.7,0c0-0.2,0-0.4,0-0.6c0-0.2-0.1-0.4-0.3-0.5
	c-0.2-0.1-0.4,0.2-0.4,0.3c0,0.2-0.1,0.5-0.1,0.8c-0.7,0-1.6,0.1-2.5,0.1c-0.1-0.2-0.2-0.4-0.2-0.6c0-0.2-0.1-0.3-0.3-0.3
	c-0.2,0-0.3,0.3-0.3,0.5c0,0.1,0,0.3,0,0.5c-1.5-0.1-2.8-0.3-2.9-0.8c-0.1-2.2,1.3-2.2,3.2-2.4c1.6-0.2,3.2-0.1,4.7-0.1
	c0.4,0,0.6-0.5,0.6-0.8c0-3-0.2-6-0.1-8.9c0.1-3.1,0.7-6,1-9.1c0,0,0,0,0,0c0.3-0.5,0.3-1.3,0.4-1.8c0.3-1.6,0.5-3.3,0.7-4.9
	c0,0,0-0.1,0-0.1c0.2,0,0.4-0.1,0.7-0.2c0.3-0.1,0.3-0.9-0.1-0.8c-0.2,0-0.3-0.1-0.4-0.1c-0.1,0-0.3-0.1-0.5-0.1c-0.3,0-0.6-0.1-1,0
	c-0.5,0-0.4,0.9,0,0.9c0.2,0,0.3,0.1,0.5,0.1c-0.6,2-0.8,4.1-1.2,6.1c-1.5,0.2-2.9,0.2-4.4,0.3c-0.6,0,1.3-6.3,1.3-6.6
	c0.4-2,0.7-4,1.1-5.9c0.4-1.7,0.8-3.6,2.9-3.6c0.8,0,1.7,0.1,2.6,0.2c0.1,0.2,0.3,0.4,0.5,0.4c4.5,0.5,8.9,0.1,13.4,0.4
	c1.3,0.1,0.2,1.6,0,2.4c-0.1,0.3-0.2,0.6-0.3,0.9c0,0,0,0,0,0c-0.1-0.1-0.2-0.2-0.3-0.2c-0.1,0-0.1-0.1-0.2-0.1c0.1,0.1-0.1-0.1,0,0
	c-0.1-0.3-0.4-0.4-0.6-0.2c-0.3,0.2-0.3,0.6-0.2,0.9c0.1,0.3,0.3,0.5,0.6,0.7c0.1,0.1,0.2,0.2,0.3,0.3c0,0,0.1,0.1,0.1,0
	c0,0,0,0,0,0c0,0,0,0,0,0.1c-0.1,0.3-0.1,0.5-0.2,0.8c-0.2,0.7-0.3,1.5-0.5,2.2c-0.1,0-0.2,0-0.4-0.1c-0.2-0.1-0.3-0.2-0.4-0.3
	c-0.1-0.2-0.4-0.4-0.6-0.2c-0.3,0.2-0.3,0.6-0.2,0.9c0.2,0.5,0.7,1,1.2,1.1c-0.1,0.5-0.2,1.1-0.3,1.6c-0.4-0.2-0.8-0.2-1.1-0.4
	c-0.3-0.1-0.5,0.2-0.5,0.4c-0.1,0.3,0,0.6,0.3,0.8c0.2,0.1,0.4,0.2,0.7,0.3c0.2,0.1,0.3,0.1,0.5,0.2c-0.1,0.4-0.1,0.9-0.2,1.3
	c-0.1,0.4-0.1,0.8-0.2,1.2c0,0,0,0,0,0c-0.2,0-0.3-0.1-0.5-0.2c-0.1-0.1-0.2-0.1-0.3-0.2c0,0,0,0,0,0c0,0,0,0,0,0c0,0,0,0,0,0
	c0,0,0,0,0,0c-0.1-0.2-0.2-0.4-0.4-0.4c-0.3,0-0.4,0.3-0.4,0.6c0,0.7,0.6,1.5,1.4,1.4c-0.1,0.6-0.2,1.2-0.2,1.8
	c-0.2,0-0.4-0.1-0.6-0.1c-0.1,0-0.3-0.1-0.4-0.2c-0.1-0.2-0.3-0.3-0.5-0.1c-0.2,0.2-0.3,0.6-0.2,0.8c0.2,0.6,0.9,0.9,1.5,0.8
	c-0.1,0.7-0.2,1.4-0.2,2.1c0,0-0.1,0-0.1,0c-0.1,0-0.2-0.1-0.3-0.1c-0.2-0.1-0.4-0.2-0.6-0.4c-0.2-0.2-0.5,0-0.6,0.2
	c-0.1,0.3-0.1,0.6,0.2,0.9c0.3,0.3,0.8,0.7,1.3,0.7c-0.1,0.8-0.2,1.5-0.2,2.3c-0.3-0.1-0.6-0.2-0.9-0.4c-0.3-0.1-0.5,0.2-0.5,0.4
	c-0.1,0.3,0,0.6,0.3,0.8c0.3,0.2,0.6,0.4,0.9,0.5c-0.1,0.5-0.1,1-0.2,1.5c0,0,0,0.1,0,0.1c-0.4-0.2-0.7-0.5-1.1-0.7
	c-0.6-0.4-0.9,0.8-0.5,1.1c0.4,0.3,0.9,0.7,1.3,1c0,0.4-0.1,0.7-0.1,1.1c0,0,0,0,0,0c-0.2-0.1-0.4-0.3-0.6-0.5
	c-0.2-0.2-0.5,0-0.6,0.2c-0.1,0.3-0.1,0.6,0.1,0.8c0.3,0.3,0.6,0.6,0.9,0.7c0,0.7,0,1.5,0.1,2.2c0,0,0,0.1-0.1,0.1
	c-0.1,0.2-0.1,0.5,0.1,0.8c0.1,0.1,0.2,0.3,0.3,0.4c0.1,0.3,0.2,0.6,0.4,0.8c0.5,0.8,2.1,0.6,2.8,0.6c1.4,0,2.9-0.1,4.3,0.2
	C140,85,139.4,87.9,137.1,87.9z M124.2,7.9c-0.6-1,0.6-3.4,1.3-1.9c3.5,6.4,5.6,13.4,6.2,20.6c0.1,1.7-1.8,1.7-1.9,0
	C129.3,20.1,127.3,13.7,124.2,7.9z M113.6,2.3c-0.8-0.9,0.3-3.2,1.3-1.9c5.4,6.6,9.7,14.9,10.4,23.5c0.1,1.7-1.8,1.6-1.9,0
	C122.8,16,118.5,8.3,113.6,2.3z M175.8,64.8c-1.6,0-3.2,0-4.8,0c-1.3,0-1.3-2.7,0-2.7c1.6,0,3.2,0,4.8,0
	C177,62.1,177,64.8,175.8,64.8z M157.6,38.1c1-1.2,2-2.3,3-3.5c1.1-1.3,2.1,1,1.3,1.9c-1,1.2-2,2.3-3,3.5
	C157.8,41.3,156.8,39.1,157.6,38.1z M90.5,38.1c-0.8-1,0.3-3.2,1.3-1.9c0.9,1.1,1.8,2.2,2.7,3.3c0.8,1-0.3,3.2-1.3,1.9
	C92.3,40.3,91.4,39.2,90.5,38.1z M85.4,68.4c-1.6,0-3.2,0-4.8,0c-1.3,0-1.3-2.7,0-2.7c1.6,0,3.2,0,4.8,0
	C86.7,65.7,86.7,68.4,85.4,68.4z M100.6,101.9c-5.9,0.4-9.5-8.3-10-12.9c-0.1-0.6,0.7-1.1,0.8-0.3c0.4,2.7,1.4,5.4,3.2,7.5
	c1.8,2.2,3.7,3,6.2,4C101.4,100.5,101.3,101.9,100.6,101.9z M93.6,103.3c-2.8-1.1-4.4-3.5-4.7-6.5c-0.1-0.7,0.8-0.9,0.9-0.2
	c0.4,2.7,2.1,3.8,4.2,5.3C94.4,102.3,94.2,103.6,93.6,103.3z M165.7,91c-0.4,1.8-1.7,3.3-3,4.6c-1.1,1.1-2.4,2.8-4.1,2.7
	c-0.5,0-0.6-1.1-0.1-1.2c1.5-0.4,2.6-1.8,3.6-3c1.1-1.2,1.7-2.6,2.7-3.9C165.3,89.5,165.9,90.4,165.7,91z M168,95
	c-0.1,1.2-0.9,2.2-1.7,3c-0.6,0.7-1.5,1.6-2.5,1.5c-0.6,0-0.6-1.1,0-1.2c0.6-0.1,1.4-1.1,1.8-1.6c0.5-0.7,1-1.4,1.4-2.1
	C167.4,94,168.1,94.4,168,95z M102.1,26.1c-0.6-1.2,0.9-3,1.6-1.4c0.8,1.8,1.7,3.6,2.5,5.4c0.6,1.2-0.9,3-1.6,1.4
	C103.8,29.7,103,27.9,102.1,26.1z M145.7,27.8c0.7-1.7,1.5-3.5,2.2-5.2c0.7-1.6,2.2,0.1,1.6,1.4c-0.7,1.7-1.5,3.5-2.2,5.2
	C146.6,30.8,145.2,29,145.7,27.8z M171.3,49.2c-1,0.7-2.1,1.4-3.1,2.2c-1.3,0.9-1.9-1.7-1-2.3c1-0.7,2.1-1.4,3.1-2.2
	C171.6,45.9,172.3,48.5,171.3,49.2z M86.6,53.4c0,0.5-0.3,1.5-1,1.4c-0.7-0.1-1.4-0.2-2.2-0.3c-0.7-0.1-1-0.7-1-1.4
	c0-0.5,0.3-1.5,1-1.4c0.7,0.1,1.4,0.2,2.2,0.3C86.3,52.2,86.6,52.8,86.6,53.4z M86.6,79.6c0,0.6-0.3,1.3-1,1.4
	c-0.7,0.1-1.4,0.2-2.2,0.3c-0.7,0.1-1-0.9-1-1.4c0-0.6,0.3-1.3,1-1.4c0.7-0.1,1.4-0.2,2.2-0.3C86.3,78.1,86.6,79.1,86.6,79.6z
	 M172.4,79c0,0.5-0.3,1.5-1,1.4c-0.6-0.1-1.2-0.2-1.9-0.3c-0.7-0.1-1-0.7-1-1.4c0-0.5,0.3-1.5,1-1.4c0.6,0.1,1.2,0.2,1.9,0.3
	C172.1,77.7,172.4,78.3,172.4,79z M143.6,61.1c-0.5-0.2-0.9-0.6-1.4-0.8c-0.4-0.2-0.9-0.5-1.3-0.7c-0.3-0.2-0.2-0.9,0.2-0.8
	c0.5,0.2,1.1,0.4,1.6,0.6c0.4,0.2,0.9,0.4,1.2,0.8C144.2,60.5,144,61.2,143.6,61.1z M110.6,50.2c-0.1-0.2-0.1-0.6,0.1-0.8
	c0.2-0.1,0.4-0.1,0.5,0.1c0.1,0.2,0.2,0.3,0.4,0.4c0.3,0.1,0.5,0.2,0.6,0.5c0.1,0.3,0,0.6-0.2,0.8c-0.3,0.1-0.6-0.2-0.9-0.3
	C110.9,50.7,110.7,50.5,110.6,50.2z M109.1,55.2c-0.3-0.2-0.2-1.1,0.3-0.9c0.4,0.1,0.8,0.4,1,0.8c0.1,0.3,0,0.9-0.4,0.8
	C109.7,55.7,109.4,55.4,109.1,55.2z M134.4,69.4c0.3,0,0.6,0.3,0.8,0.5c0.2,0.3,0,1-0.4,0.7c-0.1-0.1-0.3-0.3-0.4-0.3
	C134,70.3,134,69.4,134.4,69.4z M134.3,64.2c-0.3,0.1-0.5,0.1-0.8-0.1c-0.3-0.1-0.4-0.3-0.6-0.6c-0.1-0.2-0.1-0.5,0.1-0.6
	c0.1-0.1,0.3-0.1,0.4,0.1c0.1,0.1,0.2,0.2,0.4,0.2c0.2,0,0.3,0,0.5,0.1C134.7,63.2,134.7,64.1,134.3,64.2z M100.4,70.5
	c0.1,0.2,0.1,0.8-0.3,0.6c-0.4-0.2-0.9-0.6-1.2-1c-0.1-0.3,0.2-0.8,0.4-0.5c0.1,0.2,0.3,0.3,0.5,0.4
	C100.1,70.2,100.3,70.3,100.4,70.5z M101.8,73.8c0.2,0.1,0.1,0.7-0.2,0.6c-0.3-0.1-0.5-0.1-0.8-0.2c-0.3,0-0.3-0.6,0-0.6
	C101.2,73.6,101.5,73.6,101.8,73.8z M145,86.1c-0.5,0.2-1.1-0.1-1.6-0.4c-0.3-0.2-0.2-0.9,0.2-0.8c0.4,0.1,0.9,0.2,1.3,0.3
	C145.3,85.5,145.3,86.1,145,86.1z M147.3,82.8c-0.3,0.1-0.6,0.1-1,0c-0.3,0-0.5-0.2-0.8-0.3c-0.3,0-0.3-0.5,0-0.6
	c0.3,0,0.6-0.1,0.9-0.1c0.3,0,0.6,0.1,0.9,0.2C147.6,82.2,147.6,82.7,147.3,82.8z M148.6,78.6c0.2,0.2,0.2,0.7-0.1,0.8
	c-0.2,0-0.5-0.1-0.7-0.1c-0.2,0-0.3,0-0.5-0.1c-0.4-0.1-0.4-0.8,0-0.8C147.7,78.3,148.3,78.3,148.6,78.6z M143.4,64.8
	c-0.3,0.1-0.5,0-0.6-0.3c-0.1-0.2,0-0.6,0.3-0.7c0.8-0.1,1.8,0.4,2.2,1c0.1,0.2,0.1,0.9-0.3,0.7c-0.3-0.2-0.7-0.4-1-0.5
	C143.8,64.9,143.6,64.9,143.4,64.8z M145.6,69c-0.1-0.1-0.2-0.2-0.3-0.2c0,0.1-0.1,0.1-0.2,0.1c-0.1,0-0.1,0-0.2-0.1
	c0-0.1-0.1-0.2-0.1-0.4c0-0.2,0.1-0.4,0.3-0.4c0.2,0,0.4,0,0.5,0.1c0.2,0.1,0.3,0.3,0.4,0.5C146.1,68.9,145.9,69.3,145.6,69z
	 M119.5,81.5c-0.2,0-0.4-0.1-0.6-0.3c-0.2-0.2-0.2-0.4-0.1-0.6c0.1-0.2,0.3-0.3,0.5-0.2c0.1,0.1,0.2,0.1,0.3,0.2
	C120,80.7,119.9,81.5,119.5,81.5z M119.9,77.2c0.3,0.2,0.2,0.9-0.2,0.9c-0.4,0-0.8-0.5-1-0.8c-0.2-0.2,0-1,0.4-0.7
	C119.3,76.8,119.6,77,119.9,77.2z M118.6,74.2c-0.1-0.2-0.1-0.5,0.1-0.6c0.1-0.1,0.3-0.1,0.4,0.1c0.1,0.2,0.4,0.3,0.6,0.4
	c0.4,0.1,0.3,0.9-0.1,0.9C119.1,75,118.8,74.6,118.6,74.2z M119,71c0.1,0,0.2,0,0.4,0c0.4,0,0.4,0.9,0,0.9c-0.1,0-0.3,0-0.4,0
	C118.7,71.8,118.7,71.1,119,71z M119.6,68c-0.3,0-0.4,0.4-0.4,0.7c0,0.2,0.2,0.4,0.5,0.5c0.4,0,0.4-0.7,0.2-0.9
	C119.8,68.1,119.7,68,119.6,68z M119.8,68.2C119.8,68.2,119.8,68.2,119.8,68.2C119.8,68.2,119.8,68.2,119.8,68.2
	C119.8,68.2,119.8,68.2,119.8,68.2z"/>
<g>
	<path class="st0" d="M215.6,208.8c1.3,2.9,2.3,5.9,2.2,9.1c0,0.8-0.8,0.8-0.9,0c-0.2-3-0.9-5.7-2-8.5
		C214.6,208.9,215.3,208.1,215.6,208.8z"/>
	<path class="st0" d="M167.6,255.8c0.2-0.8,1-0.3,0.8,0.3c-1.3,4.4-2.9,8.8-5,12.8c-0.3,0.7-0.9-0.1-0.7-0.6
		C164.6,264.3,166.3,260.2,167.6,255.8z"/>
	<path class="st0" d="M213.5,215.2c0.9,2.6,1.7,5.2,1.6,8c0,0.7-0.7,0.6-0.7,0c-0.1-2.6-0.6-5-1.5-7.4
		C212.6,215.2,213.2,214.5,213.5,215.2z"/>
	<path class="st0" d="M170.6,261.7c1-3,1.9-6,2.9-9.1c0.3-0.9,1.1,0.1,0.9,0.7c-0.6,2.1-1.2,4.1-1.9,6.2c-0.9,2.7-1.8,5.4-3.1,8
		c-0.4,0.7-0.9-0.1-0.7-0.6C169.3,265.2,170,263.5,170.6,261.7z"/>
	<path class="st0" d="M175.4,129.3c-0.3-0.2-0.1-1.1,0.3-0.7c2.3,1.8,4.2,4.1,5.8,6.6c0.2,0.3-0.1,1.1-0.4,0.6
		C179.5,133.3,177.5,131.2,175.4,129.3z"/>
	<path class="st0" d="M177.1,254.7c0.4-1.4,0.8-2.8,1.1-4.2c0.2-0.9,1.2-0.4,1,0.4c-0.2,0.6-0.3,1.1-0.5,1.7
		c-1.1,4.3-2.3,8.5-4.3,12.5c-0.3,0.7-1-0.1-0.7-0.6C175.2,261.3,176.2,258.1,177.1,254.7z"/>
	<path class="st0" d="M221.1,192c-0.9-1.6-1.8-3.1-3-4.5c-0.4-0.4-0.1-1.6,0.5-1.1c1.4,1.4,2.4,2.9,3.3,4.6c0.2,0.3,0.2,0.7,0,1
		C221.6,192.3,221.3,192.3,221.1,192z"/>
	<path class="st0" d="M161.1,258.5c0.3-0.7,1,0.1,0.7,0.6c-1.6,4-3.2,8.1-5.2,11.8c-0.3,0.6-0.8-0.3-0.6-0.7
		C157.6,266.3,159.4,262.4,161.1,258.5z"/>
	<path class="st0" d="M221.1,185.2c-0.7-1.2-1.2-2.5-2.1-3.6c-0.4-0.4,0-1.6,0.4-1.1c1,1.1,1.7,2.4,2.4,3.7c0.2,0.3,0.2,0.7,0,1
		C221.6,185.5,221.3,185.5,221.1,185.2z"/>
	<path class="st0" d="M218.6,194.2c1.5,2.3,2.6,4.8,3.3,7.5c0.2,0.7-0.7,1.2-0.9,0.4c-0.6-2.5-1.8-4.7-3-6.9
		C217.7,194.7,218.2,193.5,218.6,194.2z"/>
	<path class="st0" d="M169.6,132.5c-1.8-2.2-3.8-4.1-5.9-6c-0.3-0.3-0.1-1.1,0.3-0.8c2.4,1.7,4.2,3.8,6,6.1
		C170.4,132.1,170,132.9,169.6,132.5z"/>
	<path class="st0" d="M216.8,200.6c1.5,2.5,2.9,5,3.3,8c0.1,0.6-0.7,1.1-0.8,0.3c-0.5-2.7-1.7-5-3.1-7.4
		C215.9,201,216.4,199.9,216.8,200.6z"/>
	<path class="st0" d="M201.6,143.1c1.1,1.3,1.8,3,2.1,4.7c0.1,0.5-0.5,0.9-0.6,0.2c-0.3-1.6-1.2-2.9-1.9-4.4
		C200.9,143.3,201.2,142.7,201.6,143.1z"/>
	<path class="st0" d="M197.5,139.9c1.1,1.5,2,3.1,2.4,4.9c0.1,0.5-0.4,0.8-0.6,0.2c-0.5-1.6-1.3-3.2-2.2-4.6
		C197,140.2,197.2,139.5,197.5,139.9z"/>
	<path class="st0" d="M192.4,136.5c1.6,1.5,2.3,3.7,3.3,5.6c0.1,0.3-0.2,0.9-0.4,0.5c-1-1.9-1.9-3.7-3.2-5.4
		C191.9,137,192.1,136.2,192.4,136.5z"/>
	<path class="st0" d="M71,258.1c0.4,0.2,0.3,1.1-0.2,1c-1.7-0.4-3-1.4-4.6-2c-1.8-0.7-3.6-1.1-5.4-1.9c-0.4-0.2-0.3-1.3,0.2-1.1
		c1.8,0.6,3.6,1,5.4,1.7C68.1,256.4,69.3,257.5,71,258.1z"/>
	<path class="st0" d="M211.8,222c0.3,3.4,0.8,6.6,0.4,10c-0.1,0.8-0.8,0.3-0.8-0.3c0.3-3.2-0.2-6.3-0.5-9.5
		C211,221.5,211.8,221.3,211.8,222z"/>
	<path class="st0" d="M191.1,260.3c-0.6,2.2-1.1,4.4-1.9,6.5c-0.2,0.7-0.9,0-0.8-0.5c0.5-2.2,1.3-4.3,2-6.5
		C190.6,259.2,191.3,259.8,191.1,260.3z"/>
	<path class="st0" d="M207.6,225.1c0-0.8,0.9-0.8,1,0c0,5,0.2,10.3-1.7,15.1c-0.3,0.8-1,0.1-0.9-0.5
		C207,234.8,207.5,230.1,207.6,225.1z"/>
	<path class="st0" d="M175.3,133.9c-1.8-2.4-3.5-4.7-6-6.4c-0.3-0.2-0.1-0.9,0.3-0.7c2.6,1.7,4.3,4,6.1,6.5
		C175.9,133.6,175.6,134.3,175.3,133.9z"/>
	<path class="st0" d="M181.4,130.6c1.9,2.1,3.6,4.4,4.9,6.9c0.2,0.3-0.3,1.1-0.5,0.6c-1.3-2.5-3.2-4.6-4.8-6.9
		C180.7,130.9,181,130.2,181.4,130.6z"/>
	<path class="st0" d="M202.7,232.5c0-1,1.1-1,1.1,0c0,4-0.4,8-1.3,12c-0.2,0.9-1.1,0.4-1-0.4C202.1,240.3,202.7,236.5,202.7,232.5z"
		/>
	<path class="st0" d="M187.1,133.2c1.7,2,3.1,4.1,4.2,6.5c0.2,0.4-0.3,1-0.5,0.4c-1.1-2.3-2.6-4.3-4.1-6.4
		C186.5,133.5,186.8,132.8,187.1,133.2z"/>
	<path class="st0" d="M49.7,298c9.3,2.8,18.5,6.7,27.3,10.8c0.4,0.2,0.3,1-0.2,0.9c-9-3.7-18.3-6.8-27.4-10.4
		C49,299,49.1,297.8,49.7,298z"/>
	<path class="st0" d="M41.4,301.9c5.8,1.4,11.2,3.8,16.8,6.1c0.5,0.2,0.4,1.5-0.2,1.2c-5.5-2.2-11.1-4.4-16.7-6.2
		C40.6,302.9,40.8,301.8,41.4,301.9z"/>
	<path class="st0" d="M154.8,261.6c0.4-0.9,1.2,0.1,0.9,0.7c-1.6,3.3-3,6.7-4.8,10c-0.4,0.6-0.9-0.3-0.7-0.8
		C151.6,268.2,153.1,264.8,154.8,261.6z"/>
	<path class="st0" d="M246.7,208.2c0,0,0.1-0.2,0.1-0.2c0,0,0-0.1,0-0.1c0-0.2,0.1-0.6,0.4-0.6c0.3,0,0.4,0.4,0.4,0.6
		c0,0.7-0.4,1.4-1,1.9c-0.6,0.4-0.8-0.7-0.6-1C246.4,208.6,246.6,208.4,246.7,208.2z"/>
	<path class="st0" d="M63.5,249.6c1.4,0.8,3,1.3,4.4,2c2,1,4,2,6,2.9c0.5,0.2,0.3,1.4-0.2,1.2c-2-0.9-4-1.9-6-2.9
		c-1.5-0.7-3.1-1.3-4.5-2.2C62.9,250.4,63.1,249.3,63.5,249.6z"/>
	<path class="st0" d="M57.5,294.6c10.7,2.9,21.4,7.3,31.2,12.4c0.3,0.2,0.3,1-0.2,0.9c-10.5-3.9-20.8-8.3-31.3-12.1
		C56.8,295.6,57,294.5,57.5,294.6z"/>
	<path class="st0" d="M243,207.8c0.1-0.1,0.2-0.3,0.2-0.4c0-0.3,0.1-0.7,0.5-0.7c0.3,0,0.5,0.4,0.5,0.7c0,0.7-0.4,1.4-1,1.8
		c-0.6,0.4-0.8-0.6-0.6-1C242.8,208.1,242.9,207.9,243,207.8z"/>
	<path class="st0" d="M227.9,280.8c3.2,0.7,6.4,2.3,8.6,4.9c0.2,0.2,0,1-0.4,0.7c-2.6-2.1-5.3-3.5-8.5-4.5
		C227.3,281.7,227.4,280.7,227.9,280.8z"/>
	<path class="st0" d="M214,278.5c5.2,1.5,9.8,4.5,14,7.9c0.3,0.3,0.1,1.1-0.3,0.8c-4.3-3.3-8.7-5.9-13.9-7.6
		C213.3,279.4,213.4,278.3,214,278.5z"/>
	<path class="st0" d="M205.3,280.1c5.5,0.4,10.5,3.9,14.9,7c0.3,0.2,0.1,1.1-0.3,0.8c-4.7-3.2-9.2-5.5-14.7-7
		C204.9,280.9,205,280.1,205.3,280.1z"/>
	<path class="st0" d="M136.3,285.7c8.8,3.2,17.4,7.8,25.2,12.9c0.4,0.3,0.2,1.4-0.4,1c-8-5-16.7-8.5-25-12.8
		C135.6,286.6,135.7,285.5,136.3,285.7z"/>
	<path class="st0" d="M65.7,292.5c-0.5-0.2-0.4-1.5,0.2-1.3c5.5,1.8,10.8,4.1,16.1,6.3c5.2,2.1,10.5,3.9,15.6,6.2
		c0.3,0.2,0.3,0.9-0.2,0.8c-5.4-1.4-10.6-3.6-15.8-5.6C76.4,296.9,71,294.9,65.7,292.5z"/>
	<path class="st0" d="M39.6,307.5c3.3,0.5,6.4,1.7,9.6,2.8c0.5,0.2,0.3,1.3-0.2,1.1c-3.1-1-6.3-2.2-9.5-2.8
		C39.1,308.5,39.1,307.5,39.6,307.5z"/>
	<path class="st0" d="M36.4,203.1c0.1,0.2,0.3,0.3,0.5,0.4c-0.5,0.1-0.5,1.1,0,1.2c6.1,0.2,13.6,2.5,18.7,6c0.6,0.4,0.9-0.8,0.5-1.1
		c-2.4-1.9-6-3.1-9-4.1c-2-0.7-4-1.2-6-1.5c4.9-1.9,7.3-8.4,7.6-13.2c0.2-3.5-1.2-10.2-6.2-8.1c-2.3,1-3.6,3.8-4.7,5.9
		C36.7,191.1,33.6,199.5,36.4,203.1z M43.3,188.3c0-1.6,0.8-2.8,1.7-2.8c1,0,1.7,1.3,1.7,2.8c0,1.6-0.8,2.8-1.7,2.8
		C44.1,191.1,43.3,189.8,43.3,188.3z M38.4,192.3c0.1-0.2,0.2-0.4,0.3-0.6c0,0,0,0,0,0c-0.1,2.8,2.3,6.9,5.3,6.8
		c-0.8,1.7-1.6,3.2-3.9,4.1C35.3,203.3,37.1,194.9,38.4,192.3z"/>
	<path class="st0" d="M51.3,223.6c2.4,0.7,4.7,1.6,6.7,3.1c2.2,1.8,4.7,3,7.1,4.6c0.3,0.2,0.1,1-0.3,0.8c-4.4-2.7-8.8-5.5-13.6-7.4
		C50.6,224.6,50.8,223.5,51.3,223.6z"/>
	<path class="st0" d="M239,207c0.2-0.1,0.4-0.1,0.6-0.2c0.2-0.1,0.2-0.4,0.3-0.6c0.2-0.5,0.2-0.9,0.4-1.4c0.2-0.7,1-0.1,0.8,0.5
		c-0.2,0.6-0.2,1.3-0.4,1.9c-0.2,0.6-0.9,1.4-1.7,1.2C238.5,208.2,238.5,207.2,239,207z"/>
	<path class="st0" d="M53.3,229.2c0.1,0.1,0.2,0.1,0.3,0.2c3.2,1.5,6.1,3.5,9.1,5.3c0.4,0.2,0.1,1.3-0.3,1.1c-2-1.2-4.1-2.5-6.1-3.7
		c-0.4-0.2-0.7-0.4-1.1-0.7c-0.3-0.2-0.7-0.4-1-0.6c-0.4-0.2-0.7-0.4-1.1-0.6C52.8,229.9,52.9,228.9,53.3,229.2z"/>
	<path class="st0" d="M52,227.4C52,227.4,52,227.3,52,227.4c0-0.2,0.1-0.2,0.2-0.2C52.1,227.3,52,227.3,52,227.4z"/>
	<path class="st0" d="M48.4,223.3c-0.1-0.1-0.1-0.1-0.2-0.2c0.1-0.1,0.1-0.2,0.2-0.3C48.5,223,48.5,223.2,48.4,223.3z"/>
	<path class="st0" d="M29.8,238c-0.3,4.5,2.2,11.3,6.8,13c5.4,2,9.3-3.4,9.5-8.2c0.3-5.3-1.3-11.9-5.6-15.3
		c-4.1-3.3-8.9-2.8-10.5,2.6c-0.1,0.4,0.3,1,0.5,0.4c0.9-2.5,2.6-3.5,4.4-3.5c-2.4,1.7-2.4,5.8-1.6,9.5c0.3,4.7,4.7,11,8,11.9
		c-0.3,0.1-0.5,0.3-0.9,0.4c-1.9,0.6-3.8,0.2-5.2-1.2c-2.6-2.5-4.1-6.2-4.6-9.7C30.6,237,29.9,237.4,29.8,238z M35.7,233.7
		C35.7,233.8,35.7,233.8,35.7,233.7c-0.1-0.3-0.1-0.7,0-1.1C35.7,233,35.7,233.4,35.7,233.7z"/>
	<path class="st0" d="M0.5,237.8c0.6,3.7,2,7.3,4.1,10.7c4.3,6.9,13,10.9,20.3,14.1c3.3,1.5,6.8,2.6,10.3,3.6
		c2.1,0.6,4.2,1.1,6.4,1.5c5.8,1.3,11.3,2.3,17.2,2.4c1.7,0,3.4,0.1,5.2,0.3c0.9,0.1,1.8,0.1,2.8,0.2c0.6,7.6,1.9,16.6,9.5,19.6
		c-0.1,0-0.1,0-0.2,0c-0.6-0.2-0.8,1-0.2,1.2c11.2,3.8,21.8,9.1,32.4,14.5c0.5,0.3,0.7-0.9,0.2-1.2c-9.7-5.2-19.4-10.6-30-13.8
		c0,0,0.1,0,0.1,0c2.9,0.6,6.4,0.6,9.5-0.2c6.6,2.5,13,5.3,19.2,8.3c1.7,2.6,4.1,4.4,7.7,4.5c0.4,0,0.8,0,1.2,0c0,0,0.1,0,0.1,0
		c2.9,0,5.5-0.4,8.1-2c0.2-0.1,0.3-0.2,0.4-0.3c2.1,1.1,4.3,2.3,6.4,3.5c0.4,0.3,0.7-0.8,0.3-1c-1.8-1.1-3.7-2.2-5.5-3.3
		c1.6-1.2,3-2.7,4.2-4.4c2.6,1.3,5.2,2.6,7.7,4.1c0.4,0.2,0.5-0.6,0.2-0.8c-2.4-1.5-4.8-3-7.3-4.3c0.1-0.1,0.1-0.2,0.2-0.3
		c0.7-1.3,1.4-2.6,1.9-3.9c7.5,3.4,14.9,7.1,22.2,11c0.4,0.2,0.5-0.6,0.2-0.8c-6.8-4.4-14.2-8.5-21.7-11.9c0.5-1.3,1-2.6,1.5-3.9
		c0.5-1.4,1.1-2.8,1.7-4.2c0.5,0,1.1,0,1.6-0.1c0.6,0.6,1.1,1.3,1.7,2c-0.5-0.2-1-0.4-1.6-0.6c-0.6-0.3-0.8,1-0.2,1.3
		c9.8,4.9,19.8,9.4,29.6,14.3c0.4,0.2,0.5-0.7,0.2-0.9c-6.3-3.5-12.7-7-19.2-10.1c1,0,2.1-0.1,3.1-0.4c1.2-0.3,2.4-0.7,3.4-1.2
		c5.5,2.5,10.9,5,16.3,7.6c1.5,1.5,3.4,2.6,5.8,3.2c0.5,0.1,0.9,0.2,1.4,0.2c1.1,0.5,2.3,1.1,3.4,1.6c0.4,0.2,0.5-0.7,0.2-0.9
		c-0.4-0.2-0.7-0.4-1.1-0.5c2.4,0,4.6-0.6,6.5-1.7c0.9,0.5,1.8,1,2.7,1.6c0.5,0.3,0.7-0.8,0.3-1.1c-0.6-0.4-1.3-0.8-1.9-1.1
		c1.5-1,2.9-2.2,4.2-3.5c2.1,1.2,4.2,2.5,6.3,3.9c0.4,0.3,0.6-0.5,0.3-0.8c-1.9-1.3-3.9-2.6-5.9-3.9c0.9-1,1.7-2.1,2.4-3.2
		c3.1,1.6,6.2,3.5,9.1,5.4c0.5,0.4,0.8-0.7,0.4-1c-2.8-1.9-5.8-3.7-8.9-5.3c0.7-1.1,1.4-2.2,2-3.3c5.1,2.2,10,4.9,14.6,8
		c0.6,0.4,0.8-0.7,0.4-1c-4.6-3.1-9.4-5.9-14.5-8c0.6-1.2,1.2-2.3,1.8-3.5c2.4-4.9,4.4-10,7.1-14.7c4-6.9,8.7-13.5,12.6-20.5
		c6.4-11.4,10.3-23.5,11.3-36.3c4.9,11.2,24.3,11.5,29.2,0.2c0.9-2,1.5-4.1,1.8-6.2c2.9-1.8,4.7-4.6,5.7-8.3
		c0.9-3.6,1.2-8.1-0.8-11.4c0-0.3-0.1-0.6-0.3-0.9c-1.3-1.8-2.6-2.9-4.9-3.4c-1.2-0.2-3.4-0.2-4,1.1c-0.9,1.6-0.1,3.4,0.9,4.8
		c1.3,1.8,2.9,5.4,1.4,7.5c-0.1-0.1-0.1-0.2-0.2-0.2c-2.9-4.1-8.8-4.2-12.1-0.6c-2.5,2.8-3.2,8.3-0.5,11.2c0.9,0.9,1.9,1.5,3.1,1.9
		c-0.1,0-0.2,0.1-0.3,0.1c-2.1,0.7-4.3,0.2-6.1-1c-3.3-2.1-5.2-5.9-7-9.3c-1.9-3.9-4-7.7-5.7-11.7c-1.2-2.8-2.4-5.2-4.2-7.6
		c-6.1-18.4-18.6-34.3-36.4-43.9c-13.9-7.6-29.6-11.3-45.3-12.3c-16.6-1.1-34.2-0.4-50.3,4c-14.9,4.1-29,11.4-40.3,22
		c-0.6,0.5-1.1,1.1-1.7,1.6c-3.5-2.3-6.5-5.4-10.7-6.2c-4.5-0.9-8.3,0.5-12.6,1.7c-0.7-0.2-1.4-0.2-1.9-0.1
		c-2.1,0.6-3.1,2.8-3.7,4.8c-1.8,5.5-0.6,11.8,0.8,17.2c1.5,5.9,3.6,11.6,5,17.5c0.1,0.2,0.2,0.4,0.3,0.6c0.4,0.5-3.2,9.7-3.6,11
		c-1,3.4-2.5,6.6-3.6,9.9c-0.4,1.2-0.7,2-2,2.4c-5.6,2-14.1,3-17.4,8.6c-0.9,1.5-1.6,3.4-2.2,5.1C0.4,223.4-0.7,230.8,0.5,237.8z
		 M262.9,192.6c2-1.7,1.9-5.3,1.1-7.6c-0.6-1.6-1.8-2.8-2.5-4.4c-0.9-2,2-1.7,2.7-1.5c1.4,0.5,1.6,1,2.3,2c0.2,0.3,0.5,0.5,0.7,0.6
		c2.1,3.4,1.6,8,0.1,11.6c-0.9,2.1-2.1,3.7-3.6,4.8C263.8,196.2,263.6,194.3,262.9,192.6z M230.9,181.2c1.3,2.8,2.8,5.5,4.1,8.4
		c2.2,4.7,4.7,10.4,9.3,13.4c4,2.6,9.6,3.4,11.9-1.8c1.4-3.2,0.2-8.5-3.9-8.4c-1.6,0-0.5,2.6,0.8,2.6c1.4,0,1.1,2.7,1,3.5
		c-0.1,0.6-0.4,1.1-0.7,1.6c-1.7-0.3-3.2-0.9-4.2-2.3c-2.6-3.8,0.5-9.8,5.2-9.8c3.5,0,6.1,2.5,6.9,5.8c0.3,1,0.4,2.1,0.4,3.2
		c-0.1,3.1-1.2,6.2-3,8.7c-1.1,1.5-2.5,2.8-4.2,3.6c-0.8,0.4-1.7,0.7-2.6,1c-5.2,1.3-11.6,0.6-15.7-3.2c-0.1-0.1-0.1-0.1-0.2-0.2
		c0.7-0.7,1.2-1.7,1.4-2.5c0.4-1.3,0.7-2.6,0.6-4c-0.1-0.8-0.9-0.8-0.9,0c0,1.1-0.2,2.2-0.7,3.2c-0.4,0.9-0.9,1.5-1.5,2.1
		c-0.5-0.7-0.9-1.3-1.2-2.1c2-1.9,2.1-5.1,2.1-7.7c0-0.8-0.8-0.8-0.9,0c0,1.3-0.1,2.7-0.6,4c-0.3,0.8-0.7,1.5-1.2,2.2
		c-0.1-0.5-0.2-0.9-0.3-1.4c0-0.7,0-1.5,0-2.2C232.8,192.9,232.2,187,230.9,181.2z M31.4,143.7c2.7,1,4.5,2.8,6.7,4.6
		c2.1,1.7,4.4,3.2,6.6,5c0.4,0.3,0.8,0.6,1.2,0.9c-1.2,1.6-2.3,3.2-3.3,4.8c0,0,0,0,0,0c-1.5-1.5-2.9-3-4.3-4.4
		c-1.1-1.1-2.2-1.8-3.8-1.6c-1.7,0.2-0.4,2.7,0.8,2.6c1.4-0.1,1.7,0.7,2.6,1.7c1,1.1,2.1,2.1,3.1,3.1c0.1,0.1,0.3,0.3,0.5,0.4
		c-2.9,4.6-5.4,9.5-7.8,14.5c-0.2-0.7-0.4-1.5-0.6-2.2c-0.8-2.5-1.5-5-2.3-7.6c-1.5-5.1-3.3-10.6-3-16.1
		C28,147.2,28.4,142.7,31.4,143.7z M53.1,145.6c0,0-1.1,1.1-1.1,1.2c-0.2,0.2-0.3,0.3-0.5,0.3c-0.3,0-0.7,0.1-1,0.2
		c-1.1,0.2-2.1,0.3-3.2,0.5c-0.7,0.1-1.3,0.2-1.9,0.4c-0.1,0-0.2,0.1-0.3,0.1c-1,0.4,0.2,1.3,0.7,1.4c0.8,0.3,1.7,0.3,2.6,0.3
		c0.1,0,0.2,0,0.3,0c0.1,0,0.5,0,0.5-0.1c-0.8,0.9-1.5,1.9-2.2,2.8c-1.7-1.4-3.2-3.2-4.6-4.4c-2.5-2.2-4.8-4.8-7.4-7
		c0,0,0.4-0.1,0.5-0.1c0.2,0,0.3-0.1,0.5-0.1c0.3-0.1,0.7-0.2,1-0.3c0.7-0.2,1.4-0.3,2-0.5c1.3-0.3,2.7-0.4,4.1-0.3
		c0.4,0,0.8,0.1,1.2,0.2c0.2,0,1,0.2,0.7,0.5c-0.3,0.3-0.9,0.2-1.2,0.2c-0.3,0-0.6,0-1,0.1c-1.2,0.1-2.4,0.1-3.5,0.5
		c-0.2,0.1-0.5,0.2-0.6,0.4c-0.1,0.2-0.2,0.5-0.1,0.7c0.2,0.3,0.4,0.4,0.7,0.5c0.4,0.1,0.7,0,1.1-0.1c0.4-0.1,0.8-0.1,1.2-0.1
		c0.9-0.1,1.8-0.1,2.7-0.2c0.3,0,0.6,0,0.8,0c0.5,0,1.3-0.1,1.3-0.8c0-0.2-0.2-0.4-0.4-0.5c-0.1-0.1-0.3-0.1-0.4-0.2
		c-0.1-0.2,0-0.2,0.2-0.2c0,0,0.1-0.1,0.1-0.1c0.2,0,0.4,0.2,0.5,0.3C48.8,142.2,50.9,144,53.1,145.6z M149.7,124.9
		c-1.7,0-3.4,0.4-5,0.4c-0.6,0-0.6-1.3,0-1.3c1.7-0.1,3.4-0.3,5-0.3C150.3,123.6,150.3,124.9,149.7,124.9z M155.1,126.1
		c-0.1,0-0.3,0.1-0.4,0c-0.2,0-0.3-0.1-0.4-0.2c-0.9-0.4-1.6-0.6-2.6-0.7c-0.1,0-0.2,0-0.4-0.1c-0.5-0.1-0.5-1.2,0-1.3
		c1.3-0.3,2.7,0.2,3.8,0.9C155.5,125,155.7,125.8,155.1,126.1z M184.9,290.8c-0.6-7.2-1.9-14.4-3-21.5c0.3-1.2,0.6-2.4,0.8-3.6
		c1.2-1,2.3-2,3.3-3.1c0.5,3.4,1,6.7,1.4,10.1c0.6,5,1.2,10.1,1.8,15.1c-0.1,0.1-0.2,0.2-0.3,0.3c-0.3,0.3-0.6,0.6-1,0.9
		C187.1,289.7,186,290.3,184.9,290.8z M185.2,258.5c0,0,0-0.1,0.1-0.1c0.2,0.9,0.3,1.7,0.5,2.6c-1.4,1.4-2.9,2.6-4.5,3.7
		c-0.2-1.3-0.3-2.5-0.5-3.8c1.3-2.9,2.4-5.9,3.2-9c0.4,1.6,0.7,3.3,1,4.9c-0.2,0.4-0.3,0.8-0.5,1.1
		C184.3,258.4,184.9,259.2,185.2,258.5z M181.8,266.4c0,0.2-0.1,0.4-0.1,0.6c0-0.1,0-0.3-0.1-0.4
		C181.6,266.6,181.7,266.5,181.8,266.4z M180.4,291.9c-0.7-6.7-1.4-13.3-2.2-20c0.3-1.2,0.7-2.4,1-3.6c0.5-0.4,1-0.7,1.5-1.1
		c0.1,0.7,0.2,1.4,0.3,2.1c-0.5,1.6-0.9,3.1-1.1,4.7c-0.1,0.6,0.6,1.1,0.8,0.3c0.2-0.9,0.4-1.9,0.7-2.8c1,6.5,2.1,13,2.8,19.5
		C182.9,291.6,181.6,291.9,180.4,291.9z M169.9,277.5c0.4-1.6,1.4-3,2.6-4.2c0.3-0.1,0.7-0.3,1-0.5c-0.2,0.8-0.4,1.6-0.6,2.3
		c-0.2,0.1-0.3,0.4-0.3,0.7c0,0.1,0,0.2,0,0.3c-0.4,1.8-0.7,3.6-0.8,5.5c0,0.6,0.7,0.8,0.8,0.2c0.1-0.9,0.2-1.9,0.4-2.8
		c0.6,3.6,1.1,7.1,1.8,10.7c0.2,0.9,1,0.4,0.9-0.4c-0.8-4.3-1.1-8.7-2.2-12.9c0.3-1.4,0.6-2.9,1-4.3c0.6-0.5,1.1-1,1.4-1.7
		c0.3-0.2,0.5-0.4,0.8-0.5c0.1,0.8,0.2,1.6,0.3,2.4c-0.6,2.3-1,4.7-1.3,7.1c-0.1,0.6,0.6,1,0.7,0.3c0.2-1.6,0.5-3.3,0.9-4.9
		c0.6,5.7,1.3,11.4,2,17.1c-3.4-0.1-6.5-1.8-7.7-5.9C171,283.3,171,280.2,169.9,277.5z M177.9,269.7c0-0.2,0-0.3-0.1-0.5
		c0.1-0.1,0.2-0.1,0.2-0.2C178,269.3,177.9,269.5,177.9,269.7z M157.1,284.3c1-0.8,1.9-1.8,2.4-3.1c0.3-0.6,0.4-1.5,0.7-2.3
		c1-0.2,2-0.4,2.9-0.7c0.8-0.3,1.6-0.4,2.4-0.7c0.6-0.2,1,2.6,1.1,2.8c0.1,0.9,0.3,1.8,0.5,2.7c-1-0.4-1.9-0.8-2.9-1.1
		c-0.6-0.2-0.7,0.9-0.2,1.1c1.2,0.5,2.3,1.1,3.5,1.6c0.6,2.1,1.4,4.2,2.5,6C165.7,288.4,161.4,286.3,157.1,284.3z M141,280.8
		c1.5-0.1,3-0.2,4.4-0.3c3.9-0.3,7.9-0.7,11.8-1.2c-1,2-2.6,3.6-5.1,4.3c-3.9,1.1-7.8,1-10.6-2.2C141.4,281.2,141.2,281,141,280.8z
		 M90,289.9c0.6-0.2,1.1-0.5,1.7-0.9c3.6-2.2,4.8-6.5,6-10.3c1.9,0.3,3.8,0.4,5.7,0.5c0.1,1.2,0.2,2.4,0.2,3.6
		c0.2,2.5,0.2,5.1,0.6,7.5c-1.4-0.5-2.8-1-4.2-1.4c-0.7-0.2-0.8,1.1-0.2,1.3c1.6,0.6,3.2,1.2,4.8,1.9c0.3,1.6,0.8,3.1,1.4,4.6
		C100.8,294,95.5,291.8,90,289.9z M92.9,281c-0.6-1-1.4-1.9-2.1-2.8c-0.2-0.2-0.3-0.5-0.5-0.8c1.2,0.3,2.4,0.5,3.6,0.7
		C93.6,279.1,93.3,280.1,92.9,281z M89.5,285.6c-2-3.3-4-6.6-6.1-9.8c1.8,0.4,3.6,0.9,5.4,1.2c0.3,0.6,0.6,1.1,1,1.7
		c0.8,1.1,2,2.2,2.6,3.5c-0.7,1.4-1.5,2.6-2.7,3.3C89.6,285.5,89.5,285.6,89.5,285.6z M85,287.3c0.1-0.2,0.2-0.6,0.1-0.8
		c-1.6-2.8-3.5-5.3-5.1-8c-1-1.6-2.3-3.1-3.5-4.6c1.8,0.6,3.7,1.1,5.5,1.5c2.1,3.6,4.1,7.4,6.6,10.6C87.5,286.6,86.3,287,85,287.3z
		 M70.4,275.8c2.8,4,6.3,7.4,8.5,11.7C72.8,286.4,71.1,281.2,70.4,275.8z M70.1,271.7c1.6,0.6,3.3,1.2,5,1.8c1.4,2,2.9,3.9,4.3,5.9
		c1.7,2.6,3.5,5.3,5.2,7.9c0,0,0.1,0.1,0.1,0.1c-1.6,0.3-3.3,0.4-4.8,0.2c-0.8-2.6-2.6-4.9-4.2-6.9c-1.8-2.3-3.8-4.6-5.4-7
		C70.2,273,70.1,272.3,70.1,271.7z M7.7,213.5c1.4-2.8,4.1-4,7-5c3.3-1.1,6.8-2.6,10.3-3c0.8-0.1,1.5-0.4,2.3-0.5
		c2.1-0.2,4.1-0.5,6.1-0.7c0.6-0.1,0.7-1.4,0-1.4c-2.1-0.1-4.6,0-6.7,0.4c-0.2,0-0.4,0.1-0.5,0.1c3.5-4.9,5.5-11.3,7.7-16.8
		c6.4-15.8,14.6-31,27.7-42.3c12.3-10.5,27.1-17.7,42.9-21c12.5-2.6,25.8-3.5,38.8-2.9c0.9,0.4,2,0.8,1.1,0.9
		c-15.9,1.1-31.3,4.6-45.2,9.4c-2.1,0.7-2.6,2.7-2.3,4.7c0.6,3.2,4.5,3.7,7.1,4c4.3,0.5,8.4-0.8,12.5-1.9c1.9-0.5,3.9-0.9,5.8-1.4
		c8.2-2.1,16.5-3.6,24.9-4.3c2.4-0.2,4.9-0.4,7.3-0.7c2.1-0.3,5.2,0.2,6.4-2c1.1-2-1.6-7-3.7-7.4c13.8,1.9,27.5,6.1,39.2,13.8
		c1.4,0.9,2.8,1.9,4.1,2.9c23.6,18,32.1,49,26,77.4c-0.5,2.5-1.2,4.9-2,7.3c-0.4-5.3-1.4-10.5-2.6-15.6c-0.2-0.7-0.9-0.3-0.7,0.3
		c1.3,5.9,2,11.8,2.4,17.8c-0.8,2.1-1.6,4.1-2.5,6.1c-0.5-4.9-1.3-9.7-1.9-14.6c-0.1-0.8-0.9-0.3-0.8,0.3c0.6,5.3,1.4,10.6,1.9,15.9
		c-1,2-2,4-3.1,6c-0.3,0.6-0.7,1.2-1,1.8c0-6.5-0.7-13.1-2.9-19.2c-0.3-0.8-1,0.1-0.8,0.7c2.3,6.5,2.5,13.4,2.6,20.2
		c-1.2,1.9-2.4,3.8-3.6,5.8c-0.1-7.3-0.7-14.6-1.4-21.9c-0.1-0.7-0.9-0.4-0.8,0.2c0.7,7.7,1,15.5,1.3,23.2c-1.5,2.3-3,4.7-4.4,7.1
		c0-2.9-0.1-5.9-0.3-8.8c-0.3-5-1.1-10-1.2-15.1c0-0.8-0.9-0.8-0.9,0c0,5.1,0.7,10,1,15.1c0,0.4,0,0.8,0,1.2
		c0.1,3.2,0.2,6.4,0.2,9.5c-0.1,0.2-0.3,0.5-0.4,0.7c-1.2,2.1-2.2,4.2-3.2,6.3c-0.2-6.7-1-13.4-1.9-20c-0.2-1.6-0.4-3.2-0.6-4.9
		c0.3-2,0.5-4,0.5-6.1c0-0.9-1-0.9-1,0c0,1.4-0.1,2.7-0.3,4.1c-0.2,0.1-0.3,0.4-0.3,0.7c0,0.2,0,0.4,0.1,0.6
		c-0.4,2.1-0.9,4.2-1.4,6.3c-0.2,0.9-0.4,1.9-0.6,2.8c-0.1,0.7,0.7,1.2,0.9,0.4c0.3-1.2,0.6-2.4,0.9-3.5c0.2-0.8,0.4-1.6,0.6-2.4
		c0.1,0.7,0.2,1.4,0.2,2.2c0.7,7,1.3,14.1,1.7,21.1c0,0.4,0,0.8,0.1,1.2c-0.9,2-1.8,4-2.8,6c-0.6,1.3-1.3,2.6-2,3.9
		c-0.1-4.9-0.4-9.8-0.8-14.6c-0.5-5.2-1-10.4-1.7-15.5c0-0.1,0.1-0.3,0.1-0.4c0.9-3.3,1.6-6.6,1.8-9.9c0.1-0.8-0.8-0.8-0.9,0
		c-0.2,2.7-0.8,5.4-1.5,8c-0.3-0.1-0.8,0.3-0.7,0.8c0,0.4,0.1,0.8,0.1,1.2c0,0.1-0.1,0.2-0.1,0.3c-0.6,2.1-1.3,4.2-1.9,6.4
		c-0.1,0.5,0.6,1.2,0.8,0.5c0.5-1.5,1-3,1.4-4.4c0.4,4.1,0.8,8.2,1.1,12.4c0.4,5.4,0.8,10.7,1.2,16.1c0,0.2,0.1,0.4,0.2,0.5
		c-1.4,2.4-2.9,4.8-4.7,6.9c-0.5-5.5-1.1-11-1.8-16.5c-0.4-3-0.9-5.9-1.4-8.9c0.5-0.7,1.1-1.4,1.5-2.2c0.3-0.4-0.2-1.5-0.6-0.9
		c-0.4,0.6-0.8,1.1-1.2,1.6c-0.2-1.1-0.4-2.1-0.6-3.2c1.1-2.4,2-4.8,2.7-7.2c0.7-2.4,1.2-4.9,1.6-7.4c0.1-0.7-0.8-1.2-0.9-0.3
		c-0.4,2.8-1,5.5-1.8,8.1c-0.6,1.7-1.2,3.5-1.9,5.2c-0.3-1.4-0.6-2.9-1-4.3c-0.1-0.3-0.1-0.6-0.2-0.9c0,0,0,0,0-0.1
		c0.5-1.9,1-3.9,1.4-5.8c0.2-0.8-0.7-1.3-1-0.4c-0.7,2.6-1.4,5.2-2.2,7.7c-0.7,2.3-1.5,4.7-2.3,7c0-0.3-0.1-0.6-0.1-0.9
		c-0.1-0.8-1-0.8-0.9,0c0.1,1,0.2,2,0.3,2.9c-0.2,0.5-0.4,1.1-0.6,1.6c-0.2,0.6,0.4,1.4,0.8,0.6c0,0,0-0.1,0.1-0.1
		c0.1,1,0.2,1.9,0.4,2.9c-1.7,1.1-3.3,2.2-5,3.4c-0.2-0.1-0.3-0.1-0.6,0c-1.4,0.3-2.4,1.3-3.8,1.7c-1.5,0.4-2.9,0.8-4.4,1.4
		c-0.3,0.1-0.7,0.3-1,0.4c-0.7,0.3-1.4,0.6-2.1,0.8c-0.6,0.1-1.3,0.3-2,0.5c-2,0.7-4.1,1.1-6.2,1.4c-2.1,0.3-4.2,0.5-6.2,0.7
		c-3.5,0.3-7.1,0.6-10.6,0.8c0.1-0.3,0.2-0.7,0.3-1c0.1-0.3,0-0.6-0.3-0.8c-0.3-0.2-0.6-0.3-0.9-0.5c-0.2-0.1-0.4,0-0.5,0.2
		c0,0,0,0,0,0c-0.2,0-0.3,0.2-0.4,0.5c-1.3,4.7-3.3,9.2-5.3,13.7c-1.2,2.6-2.6,5.6-4.9,7.3c-1.5,1.1-3.1,2.1-4.5,3.4
		c-1.7,0.7-3.5,1.1-5.5,1.1c-3.1,0-5.8-0.2-7.6-3.2c-1.6-2.6-2.4-5.5-2.7-8.5c-0.5-5.1-0.6-10.3-1.1-15.4c0-0.1,0-0.2,0-0.4
		c-0.1-1.2-1.6-1.2-1.7,0c-0.1,0.7-0.1,1.4-0.1,2.1c-1.6-0.1-3.2-0.1-4.8-0.3c-3.7-0.4-7.4-1.3-11-2.2c2.4-1.4,4.2-3.4,5.8-5.8
		c0.2-0.3-0.1-1.2-0.5-0.7c-2,2.6-4.4,4.5-7.2,6c-0.2,0-0.4-0.1-0.5-0.1c-0.6-0.1-1.3-0.3-1.9-0.5c0.2-0.1,0.4-0.2,0.5-0.2
		c1.5-0.6,2.9-1.4,3.9-2.6c0.2-0.3-0.1-1-0.4-0.6c-1.7,1.9-4.3,2.4-6.8,2.8c-2.4-0.6-4.9-1.3-7.2-2.2c2.5-0.2,5-0.6,7.4-1.3
		c5.7-1.7,11.9-5,15.1-10.2c2.7-4.3,4.3-9.8,3.9-15c0-1.9-0.2-3.9-0.7-5.7c-0.3-1.2-0.9-3-1.7-4.5c1.6,0.2,3.2,0.6,4.6,1
		c0.9,0.3,1.1-0.4,1-1.1c0-0.1,0.1-0.1,0.1-0.2c0.6-1.3-1.1-3.3-2.2-3.8c-2.2-0.9-4.9-1.2-7.3-1c-1.9,0.1-4.9,0.5-6,2.4
		c-0.9,1.6-1.2,3.9,0.7,4.8c0.1,0.1,0.2,0.1,0.4,0c0.5,0.4,1,0.5,1.4,0.1c1.1-1.2,2.4-1.8,3.8-2.1c0,0,0,0,0.1,0.1
		c0.2,0.2,0.4,0.4,0.5,0.5c1,1.7,2.2,3.3,2.8,5.4c0.9,3.2,0.9,5.8,0.7,9.1c0,0.1,0,0.1,0,0.2c-0.8,4.2-2.9,8.2-5.9,10.9
		c-8.6,7.7-20.1,7.2-30.9,7.5c-4.7-0.4-9.3-0.2-13.9-1.1c-1.5-0.3-3-0.6-4.5-1c1.3-0.3,2.5-0.6,3.6-1.2c0.6,0.9,1.6,1.2,2.5,1.4
		c1.3,0.4,2.5,0.8,3.8,1c0.4,0,0.4-0.7,0.1-0.8c-1.2-0.4-2.2-1.1-3.3-1.4c-0.6-0.2-1.2-0.4-1.8-0.7c-0.1,0-0.1-0.1-0.2-0.1
		c0.8-0.5,1.6-1.1,2.2-1.7c0,0,0.1,0.1,0.2,0.1c0.2,0,0.3,0.1,0.5,0.1c1.5,0.3,3,1.1,4.5,1.5c0.1,0,0.2,0,0.2,0
		c0.8,0.3,1.7,0.6,2.6,0.9c1.6,0.5,3.2,1,4.8,1.4c0.1,0,0.3,0.1,0.4,0.1c0.2,0.1,0.4-0.1,0.5-0.2c0.2-0.3,0.1-0.9-0.2-1
		c-0.6-0.2-1.3-0.4-1.9-0.6c-2.7-0.8-5.4-1.6-8-2.6c0,0,0,0-0.1,0c-0.3-0.1-0.5-0.2-0.8-0.3c-0.2-0.1-0.4-0.1-0.5-0.2
		c-0.4-0.1-0.7-0.2-1.1-0.3c0.6-0.9,1.1-1.9,1.5-3c1,0.3,2,0.7,2.9,1.2c0.3,0.1,0.7,0.3,1,0.4c0,0,0.1,0,0.1,0.1
		c3.5,1.2,6.9,2.2,10.3,3.6c0.3,0.1,0.6,0.3,0.9,0.4c0.4,0.2,0.6-0.3,0.5-0.7c0-0.2-0.1-0.4-0.3-0.5c-2.9-1.3-5.9-2.5-9.1-3.4
		c-0.1-0.1-0.1-0.1-0.2-0.1c-0.2,0-0.4-0.1-0.7-0.2c-0.3-0.1-0.6-0.2-0.9-0.3c-0.4-0.2-0.9-0.3-1.3-0.5c-1-0.4-2-0.8-3-1.1
		c0.4-1.4,0.7-3,0.9-4.4c0.6,0.3,1.2,0.6,1.8,0.9c0.1,0.1,0.3,0.1,0.4,0.2c0.8,0.4,1.6,0.8,2.4,1.2c0.7,0.3,1.4,0.7,2,1
		c0.5,0.3,0.7-0.9,0.2-1.2c-0.8-0.4-1.6-0.8-2.4-1.2c-0.6-0.3-1.3-0.6-1.9-0.9c-0.1,0-0.1-0.1-0.2-0.1c-0.7-0.3-1.5-0.7-2.2-1
		c0.1-0.7,0.1-1.5,0.2-2.2c0-0.2,0-0.5,0.1-0.7c0,0.2,0.1,0.4,0.3,0.5c1.1,0.2,2.2,0.5,3.3,0.9c1.9,0.6,3.7,1.5,5.2,2.7
		c0.4,0.4,0.6-0.5,0.3-0.8c-1.4-1.5-3.6-2.7-5.8-3.4c-1-0.3-2-0.6-3-0.7c-0.2,0-0.3,0.1-0.4,0.3c0.1-1.5,0.2-3.1,0.3-4.6
		c1.3,0.9,2.8,1.5,4.2,2.3c0.2,0.1,0.3,0.2,0.5,0.3c1.3,0.8,2.6,1.5,4,2.3c0.5,0.3,0.7-0.9,0.2-1.2c-1.5-0.9-3.2-2-4.8-3
		c-1.3-0.7-2.6-1.4-3.9-1.7c-0.1,0-0.2,0-0.2,0c0-1.3-0.1-2.7-0.3-4c1.3,0.6,2.6,1.3,3.8,2c1.8,1,3.6,2.2,5.4,3.3
		c0.4,0.3,0.6-0.5,0.3-0.7c-1.9-1.5-3.9-2.9-6-4.2c-1.2-0.7-2.5-1.3-3.8-1.8c-0.4-1.8-1-3.6-1.7-5.2c0,0,0-0.1,0-0.1c0,0,0,0,0,0
		c-2-4.4-5.1-8.2-9.1-11.1c-0.3-0.2-0.6-0.4-0.9-0.6c-2.9-2-6-3.5-9.2-4.9c-4.5-2-8.1-2.7-13-2.6c-0.4,0-0.4,0.9,0,0.9
		c1.4,0,2.8,0.2,4.2,0.4c12.2,1.9,25.7,10.2,28.5,22.5c0.8,3.6,0.8,7.1,0.5,10.7c-0.3,4-0.4,10-3.1,13.3c-1.7,2-3.9,3.1-6.2,3.6
		c-2.3,0.5-4.8,0.5-7.3,0.3c-0.2-0.1-0.5-0.1-0.7-0.2c-5.8-1.5-11-3.5-16.4-5.9C9.5,251.8,3.5,244,3,233.5
		C2.7,226.4,4.7,219.8,7.7,213.5z M142.1,125.4c-13.5,1.6-27.4,4.3-40.3,8.7c-0.6,0.2-0.8-1.1-0.2-1.3c13-4.4,26.9-7,40.5-8.6
		C142.6,124.2,142.7,125.4,142.1,125.4z"/>
	<path class="st0" d="M49.3,145.6c-2.2,0-4,0.7-6.2,0.7c-1.1,0-2.2-1.6-0.7-1.6c2.2,0,4-0.7,6.2-0.7
		C49.7,143.9,50.7,145.6,49.3,145.6z"/>
	<path class="st0" d="M185.4,265.7c0.2-0.7,0.9,0.1,0.7,0.6c-0.4,1.3-0.7,2.6-1,3.9c-0.2,0.7-0.9,0.3-0.7-0.3
		C184.7,268.5,185,267.1,185.4,265.7z"/>
	<path class="st0" d="M14.5,242c5.8,0.2,9.2-5.8,9.7-11c0.5-4.7-1.3-11.4-6.4-12.8c-0.3-0.1-0.4,0.1-0.5,0.3
		C5.9,216.8,2.8,241.6,14.5,242z M21,231.7c0.1,0,0.1,0,0.2,0c-0.1,0.1-0.1,0.1-0.2,0.2C21,231.8,21,231.8,21,231.7z M19,231.7
		c-0.1,0.1-0.1,0.2-0.2,0.3c0-0.3,0.1-0.6,0.1-1C18.9,231.3,18.9,231.5,19,231.7z M17.3,219.2c0.1,0.2,0.2,0.3,0.3,0.4c0,0,0,0,0,0
		c-0.4,0.1-0.8,0.3-1.1,0.5c-0.5-0.1-1,0.3-1.1,1.1c-1.9,2.3-2.7,6.2-2.7,8.5c0.1,4.1,3,8.6,7.6,7.2c-1.2,1.7-2.8,3-5,2.9
		C4.5,239.6,7.6,218.2,17.3,219.2z M17,235c-0.3-0.3-0.6-0.6-0.8-1c0.1,0.1,0.3,0.2,0.4,0.3c0.2,0.4,0.5,0.7,0.8,1
		C17.3,235.2,17.2,235.1,17,235z"/>
	<path class="st0" d="M122.3,285.4c2.6,0.9,5,2.2,7.3,3.6c-0.2,0.4-0.4,0.7-0.6,1.1c-2.2-1.3-4.5-2.4-6.9-3.6
		C121.6,286.3,121.7,285.2,122.3,285.4z"/>
	<path class="st0" d="M123.9,281.6c2.5,1.1,4.9,2.6,7.4,3.7c-0.1,0.4-0.3,0.7-0.4,1.1c-2.4-1.1-4.7-2.5-7.1-3.7
		C123.3,282.5,123.4,281.4,123.9,281.6z"/>
	<path class="st0" d="M128.4,276.1c1.8,0.6,3.4,1.6,4.9,2.5c0.3,0.2,0.2,1.1-0.3,0.9c-1.6-0.8-3.2-1.6-4.9-2.4
		C127.8,276.9,127.9,275.9,128.4,276.1z"/>
	<path class="st0" d="M124.3,277.9c2.9,1,5.4,2.8,8.2,4.1c-0.1,0.4-0.2,0.7-0.4,1.1c-2.7-1.3-5.3-2.9-8.1-4.1
		C123.7,278.7,123.8,277.7,124.3,277.9z"/>
	<path class="st0" d="M121.7,272.7c1.7-2,3.2-4.3,4.4-6.7c0.4-0.8,1.1,0.1,0.8,0.7c-1.3,2.5-2.7,4.9-4.7,6.9
		C121.7,274,121.4,273,121.7,272.7z"/>
	<path class="st0" d="M80.4,259.9c0.9-0.4,1.1-1.4,1.2-2.3c0-0.8,0.9-0.8,0.9,0c0,1.4-0.4,3.1-1.8,3.7
		C80,261.5,79.9,260.2,80.4,259.9z"/>
	<path class="st0" d="M145.4,272.3c1.4-2.8,2.6-5.7,3.7-8.5c0.3-0.8,1.1,0.1,0.8,0.7c-1.1,2.8-2.2,5.5-3.7,8.2
		c-0.1,0.1-0.1,0.3-0.2,0.4C145.8,273.6,145.3,272.8,145.4,272.3C145.4,272.4,145.4,272.3,145.4,272.3z"/>
	<path class="st0" d="M128.6,273.8c-0.4,0.6-0.9-0.3-0.7-0.7c1.3-2.4,3-4.4,4.1-6.9c0.4-0.9,1.2,0.1,0.9,0.7
		C131.8,269.3,130.2,271.6,128.6,273.8z"/>
	<path class="st0" d="M130.3,213.8c-0.2,0-0.3,0-0.5,0c-0.6,0-0.6-1.2,0-1.2c0.2,0,0.3,0,0.5,0C130.9,212.6,130.9,213.8,130.3,213.8
		z"/>
	<path class="st0" d="M131.1,209.5c-0.2,0-0.3,0-0.5,0c-0.6-0.1-0.6-1.2,0-1.3c0.2,0,0.3,0,0.5,0
		C131.7,208.3,131.7,209.4,131.1,209.5z"/>
	<path class="st0" d="M130.1,194.4c0.7-0.3,1.6-0.5,2.3-0.7c0.7-0.2,0.8,1.1,0.3,1.3c-0.8,0.3-1.6,0.5-2.3,0.7
		C129.7,195.9,129.6,194.6,130.1,194.4z"/>
	<path class="st0" d="M127.7,183.3c0.6-0.2,1.3-0.2,2-0.4c0.7-0.2,1.4-0.3,2.1-0.3c0.4,0,0.6,0.5,0.6,0.8c0,0.1,0,0.2,0,0.3
		c0,0.3-0.1,0.8-0.5,0.8c-0.3,0-0.7-0.1-1-0.1c0,0,0,0,0,0c-1,0.3-2.1,0.7-3.1,0.4C127.2,184.6,127.2,183.5,127.7,183.3z"/>
	<path class="st0" d="M133.4,273c1.4-2.3,2.8-4.6,3.9-7c0.4-0.8,1.1,0.1,0.8,0.7c-1.2,2.5-2.5,4.9-4.1,7.1
		C133.6,274.3,133.2,273.4,133.4,273z"/>
	<path class="st0" d="M122.5,293.1c1.3,0.2,2.4,0.7,3.5,1.3c-0.2,0.2-0.4,0.4-0.6,0.6c-0.1,0.1-0.3,0.2-0.4,0.3
		c-0.8-0.4-1.6-0.8-2.6-1C121.9,294.3,121.9,293,122.5,293.1z"/>
	<path class="st0" d="M121.9,289.6c1.8,0.5,3.4,1.3,5,2.3c0.4,0.3,0.2,1.5-0.4,1.2c-1.6-0.9-3.3-1.4-4.9-2.3
		C121.2,290.5,121.3,289.4,121.9,289.6z"/>
	<path class="st0" d="M76.5,260.6c0.2,0,0.5-0.2,0.6-0.4c0.1-0.1,0.2-0.2,0.2-0.3c0-0.1,0.1-0.1,0.1-0.2c0,0,0,0,0,0c0,0,0,0,0,0
		c0.1-0.3,0.4-0.5,0.7-0.3c0.3,0.2,0.3,0.7,0.2,1c-0.4,0.8-1,1.6-2,1.6C75.9,261.9,75.9,260.7,76.5,260.6z"/>
	<path class="st0" d="M92.9,270.9c-0.7,0.4-0.8-0.8-0.5-1.1c2.8-2.9,5.2-5.6,6.5-9.6c0.3-0.8,0.9,0.1,0.8,0.6
		C98.5,264.6,96.2,268.7,92.9,270.9z"/>
	<path class="st0" d="M104.3,255.7c-1.2,3.3-2.4,6.6-3.8,9.8c-0.9,2-2,4.7-4.3,5.2c-0.6,0.1-0.8-0.9-0.4-1.2
		c4.2-3.3,5.7-9.7,7.6-14.5C103.8,254,104.6,255,104.3,255.7z"/>
	<path class="st0" d="M63.9,246.9c-0.4-0.2-0.3-1.2,0.2-1c1.9,0.7,3.6,1.9,5.6,2.5c2.3,0.6,4.2,1.7,5.9,3.3c0.4,0.3,0.1,1.4-0.4,1
		c-1.6-1.5-3.5-2.6-5.7-3.2C67.4,248.9,65.8,247.7,63.9,246.9z"/>
	<path class="st0" d="M102.9,173.7c0.4-0.2,0.5-1.2-0.1-1.2c-1.7,0.1-3.4,0.6-5.1,0.8c-0.4,0.1-0.9,0.1-1.3,0.2
		c1-0.7,1.9-1.6,2.7-2.3c0.1,0.1,0.2,0.1,0.3,0.1c1.3-0.2,2.7-0.3,4-0.5c0,0.2-0.1,0.5,0,0.7c0.1,0.8,0.8,1.1,1.1,0.2
		c0.2-0.8,1.2-1.8,1.8-2.4c0.7-0.7,1.3-1.3,2.2-1.7c1,3.1,2,6.2,2.6,9.5c0.7,3.8,1.7,8.1,1.5,11.9c0,0.7,0.8,0.7,0.8,0
		c0.4-4.7-0.9-9.8-1.6-14.5c-0.4-2.5-0.8-4.8-1.6-7.2c-0.4-1.3-1-3.5-2-4.6c-2.3-2.7-4.7,1.3-6.2,2.9c-2.8,3-5.4,6.1-8.9,8.2
		c-0.2,0-0.5,0.1-0.7,0.1c-0.7,0.1-0.7,1.3-0.2,1.5c0.1,0.1,0.2,0.2,0.4,0.1c0,0,0.1,0,0.1,0C95.9,175.8,100,175.3,102.9,173.7z
		 M104.1,165.8c0.9-0.9,2.6-3.1,3.4-0.7c0,0.1,0.1,0.2,0.1,0.3c-0.3,0.1-0.6,0.3-0.8,0.5c-0.1,0-0.1-0.1-0.2,0
		C105.8,165.9,104.9,165.8,104.1,165.8z M101,169.3c0.6-0.6,1.1-1.3,1.7-1.9c0.1,0.1,0.2,0.1,0.3,0.1c0.6,0.1,1.4,0,2,0
		c0.1,0,0.1,0,0.2,0c0,0-0.1,0.1-0.1,0.1c-0.3,0.4-0.6,0.8-0.9,1.2C103.1,169.1,102,169.2,101,169.3z"/>
	<path class="st0" d="M78.2,213.3c-2,0.8-3.9,2.1-5.9,2.8c-0.9,0.3-0.9-1.2-0.5-1.6c3.2-3.1,8.8-4.1,13.1-4.8
		c4.8-0.7,9.9-0.3,14.3,2c0.4,0.2,0.3,1.2-0.2,1c-4.2-2-8.7-2.2-13.2-1.5C83.2,211.5,80.7,212.4,78.2,213.3z"/>
	<path class="st0" d="M85.5,254.8c0-0.9,1-0.9,1,0c0,1.4-0.2,3.2-1.2,4.3c-0.6,0.7-1-0.5-0.7-1C85.2,257,85.5,256,85.5,254.8z"/>
	<path class="st0" d="M106,244.8c-0.1-0.7,0.7-1.2,0.9-0.3c1.4,7.2,0.4,16.9-4.7,22.6c-0.6,0.7-1-0.5-0.7-1
		C105.3,259.5,107.4,252.5,106,244.8z"/>
	<path class="st0" d="M120.9,266.1c0.4-0.8,1.1,0.1,0.8,0.7c-0.8,1.8-2.1,3.3-3.3,4.9c-0.5,0.6-0.9-0.4-0.6-0.9
		C118.8,269.3,120.1,267.9,120.9,266.1z"/>
	<path class="st0" d="M112.9,153.5c1.5,3.8,2.3,7.9,3.5,11.9c2.8,9.6,5.2,19.2,6.1,29.2c0.1,0.7,0.8,0.4,0.8-0.2
		c0.8-10.2-1.4-20.4-3.9-30.2c-0.2-0.7-0.4-1.5-0.5-2.2c2.1,1.4,5.8-0.5,7.8-1.6c0.6,1.9,1.1,3.9,1.7,5.8c0.4,1.6,0.8,3.2,1.1,4.8
		c-0.1-0.1-0.2-0.1-0.3-0.2c-1-0.2-2,0.5-2.9,0.8c-0.8,0.3-1.6,0.5-2.1,1.1c-0.2,0.3-0.2,0.9,0.2,1c0.8,0.3,1.8-0.2,2.7-0.3
		c0.9-0.2,1.8-0.3,2.5-0.9c0.1-0.1,0.2-0.2,0.2-0.4c0.3,1.3,0.5,2.6,0.8,3.8c-0.9,0.1-1.8,0.3-2.7,0.5c-0.9,0.2-1.9,0.3-2.6,0.9
		c-0.5,0.4-0.4,1.5,0.3,1.7c0.8,0.1,1.9-0.4,2.6-0.7c0.9-0.4,1.8-0.7,2.7-1.2c0.2,0.6,0.3,1.1,0.5,1.6c0.3,0.8,1,0.4,1.2-0.2
		c0.7-2.6-0.2-5.2-0.8-7.7c-0.8-2.9-1.6-5.9-2.4-8.8c-0.8-2.7-1.6-5.3-2.4-8c-0.8-2.6-1.4-5.6-2.5-8.1c-0.6-1.3-1.6-2.3-3.2-2.1
		c-2,0.2-4.2,0.2-6.1,0.6c-3.1,0.6-7.5,1-9.8,3.1c-4,2.6-6.9,7.8-9.8,10.9c-1.6,1.8-3.3,3.5-5.2,5c-1.9,1.5-3.7,3-5.2,0.4
		c-0.5-0.9-1.2,0.2-1.2,0.7c-0.3,6,5.8,4.2,8.8,1.8c4.5-3.6,7.7-8.3,11.9-12.2C106.9,152,111.2,149.1,112.9,153.5z M113.5,147.3
		c0.5-0.1,1-0.2,1.5-0.2c1.8-0.1,3.6-0.3,5.4-0.5c1.8-0.2,2.3,0.9,2.7,2.2c-1.8,0.4-4.9,0.4-5.5,2.6c-0.1,0.5,0.3,1.3,0.8,0.9
		c1.5-1.1,3.2-1.4,4.9-2c0,0,0.1,0,0.1,0c0,0,0,0,0,0c0.3,1.1,0.7,2.3,1,3.4c-1.1,0.2-2.1,0.4-3.2,0.6c-1.1,0.2-2.2,0.3-3,0.9
		c-0.5,0.4-0.4,1.6,0.3,1.7c1.1,0.1,2.3-0.4,3.3-0.6c1.1-0.2,2.2-0.4,3.2-0.8c0.3,1.1,0.7,2.2,1,3.4c-1.2,0.2-2.3,0.5-3.5,0.8
		c-1,0.2-2.8,0.8-3.8,0.4c-0.2-0.1-0.4,0-0.5,0.1c-0.7-2.9-1.3-5.9-2.3-8.6C115.6,150.1,114.8,148.4,113.5,147.3z"/>
	<path class="st0" d="M73.1,261.1c0,0,0.1,0,0.1,0c0,0,0,0,0,0c0,0,0.1-0.1,0.1-0.1c0.2-0.2,0.5,0,0.6,0.2c0.1,0.3,0.1,0.6-0.2,0.9
		c-0.2,0.2-0.4,0.3-0.7,0.3C72.5,262.4,72.5,261.1,73.1,261.1z"/>
	<path class="st0" d="M120.6,166.8c1-0.6,2.1-0.8,3.2-1.2c1.1-0.3,2.5-0.9,3.7-0.7c0.5,0.1,0.6,0.8,0.2,1.1c-0.9,0.7-2.1,1-3.1,1.4
		c-1.2,0.4-2.5,1-3.7,1C120.2,168.3,120.1,167.1,120.6,166.8z"/>
	<path class="st0" d="M121.6,295.5c0.6,0.3,1.2,0.6,1.9,0.8c0,0,0,0,0,0c-0.3,0.3-0.5,0.6-0.8,1c-0.5-0.2-0.9-0.5-1.4-0.8
		C120.9,296.3,121.1,295.2,121.6,295.5z"/>
	<path class="st0" d="M103.2,215.2c-0.3-0.2-0.1-1.1,0.3-0.8c3,2,5.3,4.5,6.6,7.9c1,2.4,1.9,5.9-0.1,8c-0.5,0.5-1-0.5-0.8-0.9
		C110.7,224,107.3,218.6,103.2,215.2z"/>
	<path class="st0" d="M77,246.8c0.4,0.3,0.1,1.4-0.4,1c-2.3-1.5-4.5-3.1-7-4.4c-1.8-1-3.5-2.7-5.5-3.2c-0.5-0.1-0.3-1.2,0.2-1
		c2.3,0.5,4.2,2.4,6.2,3.5C72.9,243.8,74.9,245.4,77,246.8z"/>
	<path class="st0" d="M65,233.9c0.8,0.1,1.3,0.3,1.9,0.8c1.3,0.9,2.7,1.5,4,2.3c2.4,1.4,4.7,3.2,6.8,5c0.4,0.3,0.1,1.5-0.4,1.1
		c-1.9-1.6-3.9-3.1-6-4.4c-1.2-0.8-2.5-1.4-3.8-2c-1-0.5-1.4-1.3-2.6-1.5C64.4,234.9,64.4,233.8,65,233.9z"/>
	<path class="st0" d="M62.8,220c0.2,0.3-0.1,1.1-0.4,0.8c-0.3-0.3-0.8-0.4-1.2-0.6c-0.6-0.2-1.2-0.4-1.7-0.8c-0.3-0.2-0.2-1.2,0.3-1
		C60.7,219,62.1,219.1,62.8,220z"/>
	<path class="st0" d="M73.8,230.3c-3.3-3-7-5.4-10.9-7.5c-0.4-0.2-0.2-1.2,0.2-1c4,2.1,7.8,4.5,11.1,7.6
		C74.6,229.7,74.3,230.7,73.8,230.3z"/>
	<path class="st0" d="M62.5,226.1c5.2,2.7,10.2,5.7,14.2,9.9c0.3,0.4,0,1.4-0.4,1c-4-4.2-9-7.1-14-9.9
		C61.9,226.9,62,225.9,62.5,226.1z"/>
	<path class="st0" d="M58.5,223.4c-0.6-0.3-1.2-0.7-1.9-1c-0.8-0.3-1.5-0.5-2.3-0.9c-0.5-0.2-0.4-1.3,0.2-1.1c1.5,0.4,3.2,1,4.3,2.2
		C59,222.8,58.9,223.6,58.5,223.4z"/>
	<path class="st0" d="M140.2,271.1c1-2.1,2.1-4.2,3.1-6.4c0.3-0.7,1,0.1,0.7,0.6c-1,2-2,4-3,6c-0.3,0.5-0.5,1-0.8,1.5
		c-0.3,0.6-0.8-0.1-0.6-0.5C139.8,271.9,140,271.5,140.2,271.1z"/>
	<path class="st0" d="M91.9,246c0.1-0.2,0.4-0.4,0.6-0.2c0.1,0.1,0.2,0.2,0.3,0.2c0.2,0.2,0.3,0.6,0.2,0.9c-0.1,0.2-0.4,0.5-0.6,0.2
		c-0.1-0.1-0.2-0.2-0.2-0.3C91.8,246.6,91.8,246.3,91.9,246z"/>
	<path class="st0" d="M70.1,222.6c-1.4-1.2-2.9-2.2-4.5-3.2c-0.3-0.2-0.2-1.1,0.3-0.9c1.7,0.8,3.2,2,4.6,3.2
		C70.8,222,70.6,223,70.1,222.6z"/>
	<path class="st0" d="M90.8,248.4c0.1-0.3,0.4-0.5,0.7-0.3c0.5,0.4,0.5,1.2,0.5,1.9c0,0.3-0.1,0.7-0.5,0.7c-0.4,0-0.5-0.4-0.5-0.7
		c0-0.2,0-0.3,0-0.5c0,0,0-0.2,0-0.2c0,0-0.1-0.2,0-0.1C90.8,249,90.7,248.7,90.8,248.4z"/>
	<path class="st0" d="M51.6,258c0,0,0.1,0.1,0.1,0.1c0,0.1,0,0.2-0.1,0.3C51.6,258.3,51.6,258.1,51.6,258z"/>
	<path class="st0" d="M88.5,251c-0.1-0.8,0.8-1.3,1-0.4c0.3,1.7,0.5,3.4-0.3,5c-0.4,0.8-1.1-0.1-0.8-0.7
		C88.9,253.6,88.8,252.4,88.5,251z"/>
	<path class="st0" d="M48.7,177.9c-2.5,0-4.3,0.6-6.5,1.7c-0.9,0.4-2.1,0.2-2.2-0.9c-0.2-1.2,0.7-2.3,1.7-2.8
		c2.8-1.4,5.4-2.1,8.5-2.2c1.2,0,1.4,1.3,1.1,2.1C50.9,177,49.8,177.9,48.7,177.9z"/>
	<path class="st0" d="M91.9,139.1c-1-1-2.1-1.8-3.5-2.3c-0.6-0.2-0.4-1.5,0.3-1.3c1.5,0.3,2.7,1.4,3.7,2.4
		C92.8,138.3,92.4,139.7,91.9,139.1z"/>
	<path class="st0" d="M70,260.9c0.2-0.2,0.5,0,0.6,0.2c0.1,0.3,0.1,0.7-0.2,0.9c-0.1,0.1-0.2,0.2-0.3,0.2c-0.2,0.2-0.5,0-0.6-0.2
		c-0.1-0.3-0.1-0.7,0.2-0.9C69.8,261.1,69.9,261,70,260.9z"/>
	<path class="st0" d="M87,147.3c-3.3-2-6.5-4.9-10.5-5.1c-1,0-1.8-2-0.6-2c4.4,0.2,7.8,3.1,11.4,5.3C88.2,146.2,88.2,148.1,87,147.3
		z"/>
	<path class="st0" d="M132.7,189.5c-0.9,0-1.7,0.1-2.6,0.3c-0.6,0.2-0.8-0.9-0.4-1.2c0.8-0.6,2-0.5,2.9-0.5
		C133.4,188.2,133.4,189.5,132.7,189.5z"/>
	<path class="st0" d="M81.3,150c0.9,1-0.3,2-1.2,1c-2.3-2.7-6-4.1-9.5-4.1c-1,0-1.9-2-0.6-2C74.3,145,78.6,146.8,81.3,150z"/>
	<path class="st0" d="M131.5,205.5c-0.3,0-0.6,0-0.9,0c-0.6,0-0.6-1.3,0-1.3c0.3,0,0.6,0,0.9,0C132.1,204.1,132.1,205.5,131.5,205.5
		z"/>
	<path class="st0" d="M88.7,142c-1.6-1.6-3.7-2.8-5.9-3.2c-0.6-0.1-0.6-1.4,0-1.3c2.4,0.2,4.8,1.6,6.4,3.3
		C89.6,141.3,89.2,142.6,88.7,142z"/>
	<path class="st0" d="M69.6,178.7c4.3,2.2,7.1,6,9.1,10.3c1.3,2.8-2.1,3.5-3.2,1.1c-1.5-3.2-3.3-6.1-6.5-7.8
		C66.9,181.3,66.9,177.3,69.6,178.7z"/>
	<path class="st0" d="M75.4,154.8c-2.8-1.2-5.1-3.2-8.2-3.3c-1,0-1.9-2-0.6-2c3.5,0.1,6,2.3,9.1,3.6
		C76.7,153.6,76.7,155.4,75.4,154.8z"/>
	<path class="st0" d="M63.3,169.7c-1.3,0-2.5-2.6-0.8-2.6C63.7,167.1,64.9,169.7,63.3,169.7z"/>
	<path class="st0" d="M130.5,201c-0.7-0.1-0.7-1.3,0-1.4c0.6-0.1,1.1,0,1.6-0.4c0.3-0.2,0.6,0,0.7,0.3c0.1,0.3,0.1,0.7-0.2,1
		C132.1,201,131.2,201.1,130.5,201z"/>
	<path class="st0" d="M71.8,158.9c0,0.5-0.4,0.9-0.8,0.7c-1.7-0.6-3.1-1.7-5-1.7c-1,0-1.9-2-0.6-2c2.1,0.1,3.6,1.1,5.4,1.8
		C71.4,157.8,71.8,158.3,71.8,158.9z"/>
	<path class="st0" d="M67.1,163.3c-0.3,0.5-0.9,0.3-1.2,0c-0.1-0.1-0.3-0.2-0.6-0.3c-0.3,0-0.6,0-1,0c-0.5,0-1-0.5-1.2-1
		c-0.1-0.4,0-1,0.6-1c1.1,0,2.2,0.1,3,0.9C67,162.3,67.4,162.8,67.1,163.3z"/>
</g>
<path class="st0" d="M64.3,212.8c6.8,3,8.2-8,8.5-11.2c0.3-3.7,0-13.8-5.7-13.3c-4.7,0.3-6.5,8-6.9,11.6
	C59.7,204.1,60.2,210.5,64.3,212.8z M69.9,195.9c0,1.8-0.9,3.2-2,3.2c-1.1,0-2-1.4-2-3.2s0.9-3.2,2-3.2
	C69,192.6,69.9,194.1,69.9,195.9z M62,200.6c0-0.3,0.1-0.7,0.1-1c0,0.2,0.1,0.4,0.1,0.6c0.3,2,1,3.9,3.1,4.8
	c1.1,0.5,4.1,0.3,4.9-1.5c0,0,0,0,0,0c-0.4,3.5-1.5,7.9-5.3,7.9c-0.1,0-0.2,0-0.2,0C61.9,208.5,61.5,204.6,62,200.6z"/>
</svg>
