<?xml version="1.0" encoding="utf-8"?>
<!-- Generator: Adobe Illustrator 16.0.0, SVG Export Plug-In . SVG Version: 6.00 Build 0)  -->
<!DOCTYPE svg PUBLIC "-//W3C//DTD SVG 1.1//EN" "http://www.w3.org/Graphics/SVG/1.1/DTD/svg11.dtd">
<svg version="1.1" id="Layer_1" xmlns="http://www.w3.org/2000/svg" xmlns:xlink="http://www.w3.org/1999/xlink" x="0px" y="0px"
	 width="24.9px" height="24px" viewBox="0 0 24.9 24" style="enable-background:new 0 0 24.9 24;" xml:space="preserve">
<style type="text/css">
<![CDATA[
	.st0{fill:#8C2022;}
]]>
</style>
<path class="st0" d="M10.7,23.8c0.6,0,1.2,0,1.8-0.1c0.1,0.2,0.5,0.4,1,0.3c4.4-0.8,6.8-1.3,9.5-5.1c2.2-3.2,2.5-7.9,1.3-11.5
	C22.3,1.7,13.6-0.9,8.2,0.3C7.7,0.4,7.5,0.7,7.5,1C1.9,1.4,0.2,7,0,12C-0.3,18.5,4,23.6,10.7,23.8z M16.8,21.8
	c0.1-0.1,0.3-0.2,0.4-0.4c0,0,0,0,0.1,0c0.5-0.2,1-0.4,1.4-0.5c0.3-0.1,0-0.3-0.2-0.2c-0.3,0.1-0.6,0.2-0.9,0.3
	c0.2-0.2,0.4-0.4,0.5-0.6c0,0,0,0,0.1,0c0.8-0.4,1.6-0.8,2.4-1.1c0.3-0.1,0-0.2-0.2-0.1c-0.7,0.3-1.4,0.6-2.1,0.9
	c0.2-0.3,0.4-0.6,0.6-0.9c0.7-0.4,1.4-0.8,2.2-1c0.3-0.1,0.2-0.4-0.1-0.3c-0.6,0.2-1.3,0.5-1.9,0.8c0.1-0.2,0.2-0.4,0.3-0.7
	c0,0,0.1,0,0.1,0c0.8,0,1.5-0.2,2.2-0.5C20.8,19.7,19,20.9,16.8,21.8z M17.6,3.7c-0.5-0.5-1.1-1-1.7-1.4c0.6,0.3,1.3,0.6,1.9,0.9
	c0,0,0,0,0,0C17.7,3.4,17.6,3.5,17.6,3.7z M17.9,3.9c0.1-0.2,0.1-0.3,0.2-0.5c0.1,0.1,0.3,0.2,0.4,0.2c-0.1,0.3-0.2,0.6-0.3,0.9
	C18.1,4.3,18,4.1,17.9,3.9C17.9,4,17.9,3.9,17.9,3.9z M18.9,3.9C19,4,19.2,4.1,19.3,4.2c-0.1,0-0.1,0.1-0.1,0.1
	c-0.1,0.3-0.3,0.6-0.5,0.9c-0.1-0.1-0.1-0.2-0.2-0.3c0,0,0.1,0,0.1-0.1C18.7,4.5,18.8,4.2,18.9,3.9z M19.6,4.5
	c0.2,0.2,0.4,0.3,0.5,0.5C20,4.9,20,5,19.9,5c-0.2,0.3-0.6,0.6-0.8,0.9c-0.1-0.1-0.1-0.3-0.2-0.4C19.2,5.2,19.4,4.9,19.6,4.5z
	 M21.2,6c0.4,0.4,0.7,0.9,0.9,1.4c-0.5,0.6-1.2,1-1.8,1.6c0,0,0,0,0,0c-0.1-0.2-0.1-0.4-0.2-0.7c0.1-0.1,0.2-0.1,0-0.1c0,0,0,0,0,0
	c0-0.1,0-0.1-0.1-0.2c0,0,0,0,0.1-0.1c0.2-0.2,0.4-0.3,0.6-0.5c0.3-0.2,0.7-0.4,1-0.7c0.2-0.2-0.3-0.1-0.4,0c-0.4,0.4-0.9,0.6-1.3,1
	c0-0.1-0.1-0.2-0.1-0.3c0,0,0,0,0-0.1C20,6.8,20.8,6.5,21.2,6z M22.4,7.8c0.2,0.3,0.3,0.6,0.4,1c-0.7,0.7-1.3,1.4-2.1,2
	c0-0.2-0.1-0.5-0.1-0.7c0.6-0.4,1.3-0.6,1.6-1.3c0.1-0.2-0.4-0.2-0.4,0c-0.2,0.5-0.8,0.7-1.2,1c0-0.3-0.1-0.5-0.2-0.8
	c0.1,0,0.3,0,0.4-0.1c0.5-0.5,1.1-0.9,1.6-1.4C22.3,7.7,22.3,7.8,22.4,7.8z M19.7,17.6c0.9-0.5,1.9-1,2.8-1.6
	c-0.1,0.4-0.3,0.8-0.4,1.2c-0.8,0.3-1.6,0.5-2.4,0.5c0,0,0,0,0,0C19.7,17.7,19.7,17.7,19.7,17.6z M20.3,15.6
	c0.8-0.6,1.6-1.2,2.3-1.7c0.3-0.2-0.1-0.3-0.3-0.2c-0.7,0.5-1.3,1-2,1.4c0-0.2,0.1-0.5,0.1-0.7c0.9-0.5,1.7-1.2,2.4-1.8
	c-0.1,0.8-0.2,1.6-0.3,2.3c-0.1,0-0.2,0-0.2,0c-0.8,0.4-1.5,0.8-2.3,1.2C20.3,16,20.3,15.8,20.3,15.6z M22.9,10
	c-0.7,0.6-1.5,1-2.2,1.6c-0.2,0.2,0.3,0.2,0.4,0.1c0.6-0.5,1.3-0.9,1.9-1.4c0.1,0.7,0.1,1.4,0,2.1c-0.1,0-0.3,0-0.3,0.1
	c-0.6,0.6-1.3,1.1-2.1,1.6c0-0.2,0-0.4,0.1-0.6c0.7-0.8,1.5-1.5,2.3-2.1c0.2-0.2-0.3-0.1-0.4-0.1c-0.7,0.5-1.3,1-1.9,1.7
	c0-0.7,0-1.3-0.1-2c0.1,0,0.2,0,0.3-0.1c0.7-0.5,1.3-1.2,1.9-1.8C22.9,9.4,22.9,9.7,22.9,10z M20.1,16.4c0.9-0.4,1.7-0.8,2.6-1.3
	c0,0.3-0.1,0.5-0.1,0.8c-0.1,0-0.2,0-0.3,0.1c-0.8,0.5-1.6,1-2.4,1.4C19.9,17,20,16.7,20.1,16.4z M21,5.8c-0.1,0-0.1,0-0.2,0.1
	C20.5,6.3,20,6.6,19.6,7c-0.1-0.2-0.1-0.3-0.2-0.5c0-0.5,0.6-0.9,0.9-1.4C20.5,5.3,20.8,5.5,21,5.8z M7.3,1.9c0.3,0,0.6-0.2,0.9-0.4
	c0.1,0,0.2,0,0.4,0C9,1.4,9.4,1.4,9.9,1.3c-0.1,0.2-0.1,0.3,0.2,0.3c7.9,0.6,11,10.6,7.5,16.9c0,0,0,0,0,0.1
	c-0.8,1.4-1.8,2.6-3.2,3.4C9,25.5,2.8,19.5,2,14.5C1.3,10.7,2.1,1.9,7.3,1.9z"/>
<path class="st0" d="M5.3,17.2C5.4,17.2,5.4,17.2,5.3,17.2c0.7,0.9,1.9,1.4,3.1,1.6c0,0.6,0.1,1.2,0.2,1.7c0.1,0.4,0.7,0.2,1.1,0.1
	c0.4,0.2,1.7-0.1,1.7-0.7c0-0.4-0.1-0.8-0.1-1.2c0.1,0,0.1,0,0.2,0c2.3-0.5,3.6-1.8,3.6-4.2c0-1.4-0.9-2.6-1.9-3.4
	c-1.3-1.1-3.3-0.9-4-2.7c0.1,0,0.2-0.1,0.3-0.1C9.8,8,10,7.8,10.3,7.6c0.4,0.2,0.8,0.5,0.9,0.6c0.3,0.2,0.7,0.1,1.1,0.1
	c1-0.2,1.3-0.8,1.8-1.5c0.1-0.1-0.2-0.1-0.5-0.1c0-0.1,0-0.3-0.2-0.4c-0.8-0.5-1.6-0.8-2.5-0.8c0-0.7-0.1-1.5-0.5-1.8
	C10.2,3.4,10,3.2,9.7,3.1C8.8,2.9,7.8,3.3,7.6,4.3c-0.1,0.6,0,1.2,0,1.8c-1.4,0.6-2.9,2.6-1.9,4.2c0.6,1,1.7,1.3,2.8,1.6
	c0.8,0.5,1.6,1,2.5,1.3c0,0,0.1,0,0.1,0c0.4,0.4,0.8,0.8,1,1.3c0.4,1-0.1,2.2-1.3,2c-1.3-0.2-2.3-1.1-3.6-1.4c-0.1,0-0.3,0-0.5,0
	C6.6,15.1,6.5,15,6.3,15c-0.4,0-1,0.1-1.2,0.5c-0.2,0.3-0.3,0.6-0.4,0.9c-0.1,0.3,0.2,0.4,0.4,0.4C5.1,17,5.2,17.1,5.3,17.2z
	 M12.2,7.2C12.2,7.2,12.2,7.2,12.2,7.2C12,7.1,11.8,7,11.6,6.9C11.7,7,11.9,7,12.1,7.1C12.1,7.2,12.2,7.2,12.2,7.2z M7.7,7.4
	C7.2,8.1,7.3,9,7.9,9.8c0,0-0.1,0-0.1,0C7.6,9.7,7.5,9.4,7.4,9.1C7.1,8.4,7.3,7.8,7.7,7.4z M8.7,17.1c-0.6-0.2-1.1-0.4-1.7-0.7
	C7.6,16.6,8.2,16.9,8.7,17.1z"/>
</svg>
