<?xml version="1.0" encoding="utf-8"?>
<!-- Generator: Adobe Illustrator 16.0.0, SVG Export Plug-In . SVG Version: 6.00 Build 0)  -->
<!DOCTYPE svg PUBLIC "-//W3C//DTD SVG 1.1//EN" "http://www.w3.org/Graphics/SVG/1.1/DTD/svg11.dtd">
<svg version="1.1" id="Layer_1" xmlns="http://www.w3.org/2000/svg" xmlns:xlink="http://www.w3.org/1999/xlink" x="0px" y="0px"
	 width="350px" height="327.9px" viewBox="0 0 350 327.9" style="enable-background:new 0 0 350 327.9;" xml:space="preserve">
<style type="text/css">
<![CDATA[
	.st0{fill:#FFFFFF;}
]]>
</style>
<g>
	<path class="st0" d="M172.3,26.3c-38.5,27.4-41,82.9-25.6,123.8c22.4,59.2,95.2,76,149,49.4c53-26.2,69.2-103.6,39.6-151.6
		c-33.7-54.5-122-60.2-166.7-16.5c-1.2,1.2-0.5,7.4,0.8,6.4c39.3-30.1,100.5-38.5,141.9-7.1c31.7,24,42.4,64.2,31.3,101.5
		c-7.1,23.9-22.6,48.8-43.8,62.5c-21.4,13.9-53.6,11.6-77.7,7.7c-26-4.1-47.8-17.8-62.3-39.6c-27.1-40.7-23.6-99.8,14.1-132.3
		C173.7,29.8,173.1,25.7,172.3,26.3z"/>
	<path class="st0" d="M88.5,2.2C58.3,0.4,30.9,23.5,13.7,46.7C-2.3,68.2-1.6,101.9,2.4,126.9c8.2,50.7,55.7,85.2,106.1,83.2
		c27.2-1.1,48.3-15.5,66.4-34.6c21.5-22.8,28.7-49.7,28.8-80.5c0.1-25.6-9.2-47.6-27.4-65.6C154,7.2,112.5-9.4,82.8,5.9
		c-0.3,0.2-0.3,1.9,0.1,1.9c12.2,1.1,24.5,0,36.7,1c15.4,1.3,29.6,7.1,42.5,15.6c25.4,16.6,39.6,44.4,38.5,74.6
		c-0.6,16.7-3.1,32.8-10.2,48c-5.8,12.5-16.3,22.5-25.7,32.4c-14.9,15.5-35.3,23-56.4,24.1c-42.8,2.3-82.7-25.3-98.6-64.3
		c-12-29.3-9.4-69.1,10.3-94.2C35.4,25.6,63.8,6.2,88.6,3.4L88.5,2.2z"/>
	<path class="st0" d="M193.6,122.3l0-0.3L193.6,122.3z"/>
	<path class="st0" d="M172.7,118.6c-26.1-8-63.3,16.4-77.7,37.2c-15.3,22.1-22.1,49.8-19.7,76.6c2.3,25,8.1,49.3,27.4,66.8
		c25.3,23,57,31.7,90.8,27.8c53.2-6.2,84.9-53.1,85.3-103.9c0.2-24-7.6-47.9-21.1-67.6c-15.1-22-51.3-43.9-78.7-38.6
		c-1.6,0.3-1.4,6.1,0.2,6.4c24.7,5.3,46.1,10.5,65.7,27.6c19.2,16.7,29,43.8,30.5,68.6c3.1,50.5-32.7,93-82.1,99.9
		c-51.7,7.2-104.5-22.7-113.6-75.6c-5.4-31.5,1-64.8,21.8-89.6c7.4-8.8,17.5-14.8,27.6-20c14-7.3,29.5-8.1,43.7-14.2
		C173.1,119.8,173.1,118.7,172.7,118.6z"/>
	<path class="st0" d="M76,254.9c0-0.4,0.2-0.5,0.5-0.5l0-0.2c-0.6-0.1-0.7,0.1-0.7,0.7C75.8,255.1,76,255.3,76,254.9z"/>
	<path class="st0" d="M76.5,254.3c2.1-5.9,10.6,13,11.6,14.4c5.2,8.1,12.9,14.5,20.8,19.8c17.4,11.9,39.4,16.1,60.1,16.2
		c43.1,0.1,86.2-20.8,104.5-61.3c0.2-0.4-0.2-2.1-0.5-1.5c-21.9,40.1-59.2,59.3-104,60.6c-37.8,1.1-76.2-17-89.2-54.1l-0.2-0.2
		C77.5,248.7,77,252.7,76.5,254.3L76.5,254.3z"/>
	<path class="st0" d="M97.6,280c0.4,3.1-1,6.4-1.4,9.5c0,0.2,0.3,2.1,0.7,1.3c1.5-3.4,1.8-7.6,1-11.2
		C97.8,279.1,97.6,279.7,97.6,280z"/>
	<path class="st0" d="M105,281.4c-1.2,2.9-2.7,5.5-3.1,8.7c-0.2,1.7-0.8,5.1,0.8,6.3l0.3-0.6c0.2-4.8,0.3-9.3,2.3-13.9
		C105.3,281.8,105.1,281,105,281.4z"/>
	<path class="st0" d="M112.3,287.9c0.7,5-3.5,10-2.2,14.8c0,0.2,0.3,1,0.7,0.7c0.7-0.6,0.7-1.9,0.9-2.7c0.4-1.8,0.8-3.6,1.1-5.4
		c0.5-2.7,0.6-5.2-0.3-7.7L112.3,287.9z"/>
	<path class="st0" d="M119.6,292.2c-0.9,1.8-1.5,3.8-2,5.7c-0.6,1.9-1.1,3.8-0.7,5.8c0.1,0.5,0.5,1,0.8,0.3c0.4-1.3,1.1-2.4,1.6-3.7
		l-0.2-0.7c-0.6,0.8-1.2,1.5-1.9,2.1c0.1,0.9,0.1,1.8,0.2,2.6l0.2,0c0.4-0.1,0.6-0.7,0.6-1c0.7-3.5,1.8-7,1.8-10.6L119.6,292.2z"/>
	<path class="st0" d="M125.7,294.1c-1,1.1-1.4,3.7-1.9,5.1c-0.7,2-1.6,4.8-0.7,6.9l0.5,0.6c0.5-0.1,0.7-0.1,1.1-0.5
		c0.3-0.3,0.3-1.3-0.1-1.5l-0.6-0.3c0.1,0.5,0.1,1.1,0.2,1.6c-0.2,1,0.1-0.8,0.2-0.9c0-0.3,0.1-0.6,0.2-1c0.2-1.1,0.5-2.2,0.8-3.2
		c0.5-1.8,1.3-4,0.9-5.9C126.2,294.8,126,293.8,125.7,294.1z"/>
	<path class="st0" d="M135.5,296.3c-0.8,0.4-0.9,2.5-1.1,3.2c-0.4,1.7-0.9,3.5-1.3,5.2c-0.4,1.5-1.7,5.8,0,7l0.4-0.6
		c-0.2,1.2,0.3-0.9,0.4-1.3c0.4-1.5,0.5-3,0.8-4.5c0.5-2.7,1.6-6,1-8.8L135.5,296.3z"/>
	<path class="st0" d="M145.3,298c-1.3,3.9-2.6,7.8-3.4,11.8c-0.5,2.3-1.4,6.7,0.2,8.7l0.4-0.2c0.9-2.3,0.6-5.1,1.1-7.5
		c0.7-3.4,1.8-6.8,2.8-10.1C146.7,299.9,146,296.1,145.3,298z"/>
	<path class="st0" d="M158.6,300.8c-0.7,3-1.6,5.9-2.5,8.8c-0.9,2.8-2.1,5.3-2.2,8.2c0,0.3,0,1.9,0.6,1.6c1.8-0.9,2.2-5,2.7-6.8
		c1-3.3,1.9-6.6,2.6-9.9C160.2,301.7,159.2,298.3,158.6,300.8z"/>
	<path class="st0" d="M167.8,302.6c-0.8,6.1-4.5,12.4-4.1,18.6c0,0.2,0.1,1.5,0.6,1.2c0.5-0.4,0.7-0.7,0.9-1.3
		c0.6-2.4,1.3-4.7,2-7.1c0.9-3.2,1.6-6.5,2-9.9C169.2,303,168.1,300.3,167.8,302.6z"/>
	<path class="st0" d="M174.4,303.8c-0.5,3.5-1.3,6.9-2.2,10.4c-0.7,2.6-1.5,5-1.3,7.7c0,0.3,0.1,1.7,0.7,1.4
		c1.8-1.1,1.9-5.7,2.3-7.5c0.8-3.4,1.5-6.9,1.9-10.4C175.9,304.2,174.8,301.4,174.4,303.8z"/>
	<path class="st0" d="M184.1,303.7c-1.2,5.4-3.6,11.4-3.5,17c0,0.1,0.2,1.9,0.7,1.4c1.3-1.5,1.4-4.1,1.9-6c0.8-3.4,1.6-6.8,2.3-10.2
		C185.8,304.7,184.7,300.9,184.1,303.7z"/>
	<path class="st0" d="M195.2,299.5c-1.1,3.1-1.8,6.2-2.3,9.4c-0.4,2.7-1.1,5.7-0.7,8.5c0.1,0.4,0.3,1.6,0.8,0.9c1.1-1.5,1-4.2,1.2-6
		c0.4-3.2,1.1-6.4,2.2-9.5C196.8,301.8,196,297.3,195.2,299.5z"/>
	<path class="st0" d="M205,295.4c-1.5,8.1-6.4,17.7-4.1,26c0.2,0.9,0.8,0.9,0.9,0c0.6-3.6,0.7-7.3,1.5-11c0.9-4.4,2.1-8.8,2.8-13.3
		C206.2,296.2,205.4,293.1,205,295.4z"/>
	<path class="st0" d="M214.9,293.3c-1.6,3.6-2.6,7.3-3.4,11.1c-0.7,3.2-1.6,6.9-0.9,10.2c0,0.1,0.3,0.9,0.5,0.6
		c1.5-1.7,1.2-5.2,1.5-7.3c0.6-3.9,1.6-7.7,3.1-11.3C216.2,295.8,215.4,292.1,214.9,293.3z"/>
	<path class="st0" d="M224.4,287.9c-0.8,8.3-4.3,15.9-5.3,24.1c0,0.2,0.2,2.7,0.6,2.1c2.3-2.9,2.8-7.5,3.6-11
		c1.1-4.7,1.9-9.5,2.3-14.3C225.7,287.4,224.7,285.4,224.4,287.9z"/>
	<path class="st0" d="M234.1,282.4c-0.3,8.9-4.2,17-4.7,25.7c0,0.2,0.3,2.5,0.8,1.6c2-3.8,2.5-8.7,3.5-12.9
		c1.1-4.6,1.7-9.2,1.7-13.9C235.5,281.2,234.2,280.1,234.1,282.4z"/>
	<path class="st0" d="M240.2,279.5c-1.3,7.7-2.9,15.8-3,23.5c0,0.5,0.5,2.4,1,1.1c1-2.7,1.1-5.7,1.5-8.5c0.6-4.7,1.1-9.4,1.8-14.1
		C241.6,280.4,240.6,276.9,240.2,279.5z"/>
	<path class="st0" d="M247.5,272.7c-1.2,6.9-3.1,15.1-2.2,22.2c0,0.2,0.4,1.4,0.7,0.7c1-2.4,1-5.2,1.2-7.8c0.4-4.3,0.9-8.6,1.7-12.8
		C249,273.7,247.9,269.9,247.5,272.7z"/>
	<path class="st0" d="M255.4,266c-0.7,6.9-3.1,14.6-2.2,21.5c0,0.2,0.3,1.3,0.6,0.7c1.2-2.7,1.1-6.1,1.5-9c0.5-4.1,1-8.1,1.4-12.2
		C256.8,265.5,255.7,263.4,255.4,266z"/>
	<path class="st0" d="M260.9,260.5c-0.8,6.9-3.3,14.3-2.2,21.3c0.1,0.5,0.5,1,0.7,0.3c0.7-3,0.7-6.1,1.2-9.1
		c0.5-3.8,1.2-7.6,1.6-11.4C262.3,259.9,261.2,257.8,260.9,260.5z"/>
	<path class="st0" d="M265.1,254.3c-0.1,5.8-1.3,11.5-1.5,17.3c0,0.2,0.2,2.1,0.6,1.4c1.3-2.3,1.5-5.2,1.7-7.8
		c0.4-3.6,0.6-7.3,0.6-10.9C266.5,251.7,265.1,251.8,265.1,254.3z"/>
	<path class="st0" d="M270,245.8c-0.1,4.9-1.2,9.7-1,14.6c0,0.1,0.4,2,0.7,1.2c0.8-2,0.9-4.1,1.1-6.2c0.3-3.2,0.5-6.4,0.5-9.6
		C271.3,243.5,270.1,243.5,270,245.8z"/>
	<path class="st0" d="M9.4,60.1c-14.7,31.9,3.4,71,21.8,97.4c27.3,39.2,79.3,52.6,122.7,35.9l-0.1-1.1
		c-34.6,11.6-69.4,6.2-99.3-14.6C21.5,154.5-5.5,100.4,9.7,61.2C9.8,61,9.6,59.7,9.4,60.1z"/>
	<path class="st0" d="M285.3,16.2c16.3,5.3,24.9,17.9,33.9,31.7c16.8,26,18.9,57.4,10.2,86.6c-6.1,20.3-19,38.2-35.4,51.4
		c-14.4,11.6-32.9,17.6-49.5,25.4l0.1,0.9c49-13.7,83.9-47,90.5-98.5c2.6-20.6-1.5-40.5-10.4-59.1c-7.3-15.1-20.7-38.1-39.3-39.4
		L285.3,16.2z"/>
	<path class="st0" d="M6.4,98.9c-1.6,0.2-3.1,10.3-3.3,11.7c-0.1,0.6-1.6,9.4,0.4,8.7c0.5-0.1,0.3-1.2,0.1-1.5c0,0-0.1,0.2,0-0.6
		c0.1-0.8,0.2-1.7,0.3-2.5c0.3-2.1,0.7-4.3,1.1-6.4c0.5-2.8,1.8-6.2,1.5-9.1L6.4,98.9z"/>
	<path class="st0" d="M9.4,110.2c-1.6,2.8-2.3,5.7-2.9,8.8c-0.7,3.4-1.5,7.3-1,10.7c0,0.2,0.3,1.2,0.6,0.6c0.9-2,0.8-4.3,1-6.4
		c0.5-4.4,1.2-8.8,2.5-13C9.7,110.8,9.6,109.9,9.4,110.2z"/>
	<path class="st0" d="M11.5,123.5c-2,6.6-4.7,14-4.2,20.9c0,0.4,0.4,1.1,0.6,0.4c1-2.6,1.1-5.6,1.7-8.4c0.7-3.6,1.7-7.1,2.8-10.7
		C12.6,125.1,12,121.9,11.5,123.5z"/>
	<path class="st0" d="M16.3,132.5c-2.4,5.5-5.1,13.1-4.2,19.2c0,0.2,0.3,1.2,0.6,0.6c1.1-1.9,1-4.4,1.3-6.5
		c0.6-3.8,1.7-7.4,3.2-10.9C17.6,134.2,17,130.9,16.3,132.5z"/>
	<path class="st0" d="M20.5,141.5c-1.9,4.6-3.8,9.8-4.3,14.8c-0.1,0.6,0.8,3.7,1.3,1.8c1.3-4.7,2.3-9.3,4.2-13.8
		C22,143.4,21.3,139.5,20.5,141.5z"/>
	<path class="st0" d="M26.6,149.9c-1.3,3.3-2.7,6.5-3.8,9.8c-0.8,2.4-1.6,5.1-0.9,7.6c0.1,0.3,0.2,0.8,0.6,0.6
		c1.4-0.7,1.5-4.7,1.9-6c0.9-3.1,2.3-6,3.4-9C28.1,152,27.4,147.9,26.6,149.9z"/>
	<path class="st0" d="M35.2,156.9c-2.6,4.6-5.6,10.4-5.6,15.9c0,0.2,0.2,1.8,0.7,1.3c1.4-1.3,1.6-3.9,2.2-5.6
		c0.9-2.7,2.1-5.4,3.5-7.9C36.7,159.6,36,155.6,35.2,156.9z"/>
	<path class="st0" d="M38.1,165.7c-2,4.7-4.4,11.1-3.4,16.3c0,0.2,0.3,0.9,0.6,0.6c1.2-1.3,1.1-3.7,1.5-5.4c0.6-2.9,1.5-5.7,2.6-8.4
		C39.8,167.8,39,163.5,38.1,165.7z"/>
	<path class="st0" d="M46.8,171.4c-2.6,5.9-6.4,13-6.1,19.6c0,0.1,0.2,1.8,0.7,1.3c1.7-1.8,1.9-5.2,2.6-7.4c1.1-3.4,2.5-6.7,3.9-9.9
		C48.3,174,47.4,170.1,46.8,171.4z"/>
	<path class="st0" d="M50.3,178c-1.9,4.5-4.5,10.6-3.5,15.6c0,0.2,0.3,1,0.6,0.6c1.2-1.1,1.1-3.5,1.4-5c0.6-2.9,1.6-5.6,2.7-8.3
		C51.8,180,51.2,176,50.3,178z"/>
	<path class="st0" d="M56.6,180c-2,3.3-3.4,8-2.9,11.9c0.1,1.3,1.3,2.5,1.5,0.5c0.4-3,0.8-5.9,2.3-8.6c0.5-0.9,0.4-2.1,0.2-3
		C57.5,180.3,57,179.1,56.6,180z"/>
	<path class="st0" d="M62.6,184.7c-2,4-3.3,8.3-3.4,12.7c0,0.9-0.1,2.5,0.7,3c0.8,0.6,1.1-1.4,1.1-1.8c0.3-3.5,1.1-6.7,2.6-9.9
		c0.5-1,0.5-2.2,0.2-3.3C63.7,185.1,63.1,183.7,62.6,184.7z"/>
	<path class="st0" d="M69.9,188.5c-2,3.9-3.6,8.8-3,13.2c0.3,2,1.7,2.1,1.7,0c-0.5,1.5-0.6,1.9-0.2,1.1c0.1-0.3,0.2-0.7,0.2-1.1
		c0-1,0-1.9,0.2-2.9c0.4-2.4,1.1-4.7,2.1-6.9c0.3-0.7,0.3-1.8,0.1-2.6C71,188.9,70.4,187.6,69.9,188.5z"/>
	<path class="st0" d="M75.4,188.6c-2.6,3.9-4.7,8.6-4.6,13.4c0,1.2,1.2,3.5,1.6,1.1c0.7-3.9,1.8-7.4,3.9-10.8
		C76.8,191.3,76.3,187.3,75.4,188.6z"/>
	<path class="st0" d="M83.8,194.4c-0.4,2-0.8,4-1.1,6c-0.2,1.6-0.5,3.4,0.1,4.8c0.1,0.3,0.3,0.5,0.5,0.2c0.6-1,0.5-2.3,0.6-3.4
		c0.2-2,0.6-4,1-5.9c0.1-0.7,0.1-1.8-0.3-2.4C84.2,193,83.9,194,83.8,194.4z"/>
	<path class="st0" d="M90.1,194.8c-0.8,1.6-1.2,3.3-1.4,5.1c-0.2,1.4-0.4,3.5,0.4,4.8l0.4,0c0.4-0.5,0.5-1.4,0.5-2.1
		c0.1-1.6,0.2-3,0.9-4.5c0.4-0.8,0.4-1.8,0.2-2.6C91,195.2,90.5,194,90.1,194.8z"/>
	<path class="st0" d="M94.8,196.3c-0.3,1.7-0.5,3.5-0.7,5.3c-0.2,1.7-0.5,3.3-0.3,5c0,0.1,0.2,1.1,0.6,0.8c0.9-0.8,0.8-2.4,0.9-3.5
		c0.2-2,0.3-4,0.7-6c0.1-0.7,0.1-1.6-0.3-2.2C95.2,195.1,94.9,195.9,94.8,196.3z"/>
	<path class="st0" d="M102.3,196c-1.3,2.5-2.1,5.2-2.6,8c-0.2,0.9-0.2,2.1,0.3,2.8c0.5,0.8,0.9-0.3,1-0.8c0.5-2.3,1-4.6,2-6.7
		c0.4-0.8,0.4-1.8,0.2-2.6C103.1,196.4,102.7,195.2,102.3,196z"/>
	<path class="st0" d="M106.9,196.7c-0.7,2.6-1.4,5.8-0.7,8.5c0.4,1.5,1.2,0.6,1.3-0.5c0.2-2.1,0.3-4.1,0.8-6.1
		c0.2-0.8,0.1-2-0.3-2.7C107.3,195.2,107,196.3,106.9,196.7z"/>
	<path class="st0" d="M111.2,197.5c-0.5,1.4-0.7,2.9-0.8,4.4c-0.1,1.4-0.4,3.2,0.3,4.5c0.2,0.4,0.5,0.8,0.8,0.3
		c1.1-1.8,0.2-4.5,0.8-6.5c0.2-0.9,0.3-1.9-0.1-2.7C112,196.8,111.5,196.8,111.2,197.5z"/>
	<path class="st0" d="M119.9,195.9c-1.4,2.7-2.6,5.5-2.8,8.6c0,0.7-0.1,2.2,0.6,2.7c0.7,0.5,0.9-1.2,1-1.5c0.2-2.2,1.1-4.1,2.1-6.1
		c0.4-0.9,0.4-1.9,0.2-2.8C120.9,196.2,120.3,195.1,119.9,195.9z"/>
	<path class="st0" d="M124.9,197.7c-0.7,1.1-1.5,2.2-1.9,3.5c-0.3,0.9-0.3,2.1,0.1,3c0.3,0.8,0.8,0.7,1.1,0c0.6-1.4,0.9-2.9,1.4-4.3
		C125.7,199.5,125.5,196.8,124.9,197.7z"/>
	<path class="st0" d="M270.7,198.6c-0.7,2.7-1.9,5.7-1.7,8.6c0,0.2,0.2,1,0.5,0.9c0.9-0.3,1-2,1.2-2.8c0.4-1.6,0.8-3.3,1.2-4.9
		C272.2,199.4,271.3,196.2,270.7,198.6z"/>
	<path class="st0" d="M278.6,195c-1.2,3-2.4,6.1-2.6,9.4c0,0.7-0.1,2.1,0.6,2.6c0.7,0.5,0.9-1.2,0.9-1.5c0.3-2.6,1.3-5.1,2.2-7.5
		c0.3-0.9,0.3-2.1-0.1-3C279.4,194.2,278.9,194.2,278.6,195z"/>
	<path class="st0" d="M284.8,190.9c-1.3,4.4-3.6,9.8-3,14.5c0,0.1,0.3,1.4,0.6,0.9c1.1-1.2,1-3.3,1.4-4.9c0.6-2.7,1.3-5.3,2-7.9
		c0.2-0.9,0.3-1.8-0.1-2.7C285.5,190.2,285,190.2,284.8,190.9z"/>
	<path class="st0" d="M289.6,187.1c-1.3,5.6-3.2,11.5-2.9,17.3c0,0.3,0.4,1.7,0.7,0.8c0.9-2.4,1-5,1.4-7.5c0.5-3,1.2-6,1.8-8.9
		C290.9,187.9,290.1,185.1,289.6,187.1z"/>
	<path class="st0" d="M299.3,179.1c-1.3,7.4-4,15-4.2,22.5c0,0.4,0.4,2.7,0.9,1.4c2.6-6.7,3.3-14.9,4.5-22
		C300.7,180,299.7,176.7,299.3,179.1z"/>
	<path class="st0" d="M309.1,172.1c0.3,6.2-3.7,11.8-3,18c0,0.2,0.3,1.4,0.7,0.7c1.6-2.6,1.8-6.6,2.5-9.6c0.7-3.2,1.1-6.3,0.8-9.6
		C310,170,309.1,170.9,309.1,172.1z"/>
	<path class="st0" d="M316.3,165.1c-1.3,5.6-3.8,11.9-2.9,17.7c0.1,0.8,0.6,1.4,0.9,0.3c0.6-2.6,0.7-5.3,1.3-7.9
		c0.6-2.8,1.3-5.5,2-8.3C317.8,165.9,316.9,162.7,316.3,165.1z"/>
	<path class="st0" d="M327.4,134.9c-1.9,12.5-5.9,25.2-6,37.8c0,0.6,0.5,1.5,0.7,0.5c2.8-12,4.4-24.7,6.2-36.9
		C328.4,135.5,327.7,133.1,327.4,134.9z"/>
	<path class="st0" d="M334.2,113.3c-1.5,18.1-4.9,36.1-5.4,54.3c0,0.5,0.4,2,0.7,0.8c3.3-17.8,4.5-36.3,5.6-54.3
		C335.1,113,334.3,111.6,334.2,113.3z"/>
	<path class="st0" d="M339,64.9c-2.4,15.3-4.2,30.7-5.4,46.1c0,0.5,0.4,1.9,0.6,0.7c2.4-15.1,3.4-30.3,5.6-45.5
		C340,65.6,339.3,63.1,339,64.9z"/>
	<path class="st0" d="M343.8,77.2c0.1,25.1-5.5,49.8-5.4,74.9c0,1,0.8,1.7,0.9,0.3c0.9-25.2,5.7-50,5.5-75.2
		C344.8,75.5,343.8,75.5,343.8,77.2z"/>
	<path class="st0" d="M348.1,89.7c-3,14.1-4.5,28.7-5.4,43.1c0,0.6,0.5,2.2,0.8,0.9c2.7-14,2.8-28.3,5.6-42.4
		C349.3,90.5,348.5,87.6,348.1,89.7z"/>
	<path class="st0" d="M319.5,35.2c0,4.6-0.7,9.4-0.5,14c0,0.3,0.3,1.8,0.7,0.8c1.6-4.4,0.8-10.2,0.8-14.8
		C320.5,33.4,319.5,33.5,319.5,35.2z"/>
	<path class="st0" d="M325.6,43.6c-0.7,2.2-1,4.4-1.2,6.7c-0.2,2.4-0.5,5.1,0.1,7.5c0.1,0.4,0.4,0.9,0.7,0.2
		c0.5-1.6,0.3-3.3,0.4-4.9c0.1-2.3,0.3-4.6,1-6.8C326.8,45.4,326.1,41.8,325.6,43.6z"/>
	<path class="st0" d="M331,48.3c-1.3,7.6-3.3,15.6-3,23.4c0,0.4,0.6,2.3,0.9,1c1.8-7.3,2-15.2,3.2-22.7
		C332.2,49.1,331.4,46.1,331,48.3z"/>
	<path class="st0" d="M336.6,56.5c-1.9,8.1-4,16-4.2,24.3c0,0.5,0.4,1.5,0.6,0.5c1.3-7.5,2.7-15,4.4-22.4
		C337.6,58.2,337,54.9,336.6,56.5z"/>
	<path class="st0" d="M97.2,154.6c3.2,2.5-6.1,26.9-7.1,30.6c-1.8,6.5-5.1,14.2-4.8,21.1c0,0.3,0.3,1.3,0.6,0.6
		c4.1-11,6.1-23.2,8.9-34.6c0.5-2.2,5.2-16,2.4-17.9L97.2,154.6z"/>
	<path class="st0" d="M105,172.4c-0.6,0.5-1,0.2-1.1-1l-0.2,0.1c0,0.8,0.3,2.3,1.3,1.5L105,172.4z"/>
	<path class="st0" d="M113,144.6c-8.1,18.6-13.7,39.9-16.3,59.9c0,0.3,0.1,2,0.7,1.4c0.4-0.5,0.8-0.9,1.1-1.4
		c0.2-0.2,0.2-1.6-0.2-1.4c-1.3,0.5-0.2,5.1,0.2-1.2c0.7-9.4,4.2-17.8,6.6-26.8c2.7-10.1,6.2-20,7.9-30.3L113,144.6z"/>
	<path class="st0" d="M128.5,136.1c-3.1,6.4-24.3,66-16.7,68.5c0.4,0.1,0.3-1.3,0.1-1.5c-3.2-3.7,5.7-27,6.7-30.8
		c3-11.1,5.7-23,10.5-33.6C129.4,138.1,128.9,135.2,128.5,136.1z"/>
	<path class="st0" d="M140,136.3c-8.4,20.3-15.1,42.9-15.2,65c0,0.6,0.6,1.6,0.7,0.5c3.3-21.8,7.1-42.8,15.3-63.4
		C141,137.9,140.6,134.9,140,136.3z"/>
	<path class="st0" d="M148.4,154.3c-3.9,14.4-11,29.4-10.3,44.6c0,0.6,0.6,1.9,0.8,0.6c2.9-14.4,6.8-28.2,10.5-42.5
		C149.6,156.2,148.9,152.4,148.4,154.3z"/>
	<path class="st0" d="M154.4,167.5c-1.4,7.9-4.1,15.7-4.7,23.7c0,0.2,0.3,2.4,0.7,1.5c3.4-6.8,4.1-16,5.2-23.4
		C155.7,168.4,154.8,165.1,154.4,167.5z"/>
	<path class="st0" d="M163.6,172.6c-0.7,2.8-1.4,5.5-1.7,8.4c0,0.2,0.2,1.9,0.6,1.2c1.1-2.1,1.5-4.6,2.1-6.9
		c0.2-0.9,0.2-1.9-0.1-2.7C164.3,171.9,163.8,171.9,163.6,172.6z"/>
	<path class="st0" d="M182.5,164c-1.4,7-3.9,14.3-3.6,21.6c0,0.4,0.5,2.1,0.8,0.9c1.8-6.7,2.6-13.9,3.8-20.8
		C183.7,164.8,182.9,161.8,182.5,164z"/>
	<path class="st0" d="M200.2,133c-4,21.4-11.2,42.5-12.2,64.3c0,0.6,0.6,2.5,0.8,1c3.5-21.4,8.5-42.5,12.2-63.8
		C201.2,133.7,200.6,131.2,200.2,133z"/>
	<path class="st0" d="M212.5,134.4c-3.8,22.1-13,43.4-14.1,66c0,0.7,0.6,2.8,0.9,1.1c3.6-22.2,10.7-43.6,13.9-65.8
		C213.3,135,212.7,132.8,212.5,134.4z"/>
	<path class="st0" d="M224.6,138c-4.8,22.3-13.3,44.4-14.7,67.3c0,0.7,0.6,2.8,0.9,1.1c4.5-22.4,10.2-44.6,14.6-67
		C225.6,138.6,225,136.2,224.6,138z"/>
	<path class="st0" d="M240,142.4c-8.8,18.9-13.4,41.1-13.6,62c0,0.7,0.7,2.1,0.9,0.7c2.9-20.8,5.6-40.9,13.3-60.6
		C240.7,144,240.3,141.7,240,142.4z"/>
	<path class="st0" d="M249.5,151.3c-4,17.3-10.3,34.8-11,52.7c0,0.7,0.6,2.8,0.9,1.1c3.7-17.2,7.4-34.3,11.1-51.5
		C250.7,152.9,249.9,149.6,249.5,151.3z"/>
	<path class="st0" d="M257.4,167.8c-3.5,12.2-8.5,24.6-9.3,37.3c0,0.5,0.5,3.3,1,1.7c3.6-11.9,6.1-24.4,9.1-36.5
		C258.5,169.6,257.9,166.1,257.4,167.8z"/>
	<path class="st0" d="M265.2,184.6c-1.9,6.9-4.5,13.8-5.4,20.9c0,0.2,0.2,2.9,0.7,1.9c3.1-5.8,4.1-13.4,5.8-19.8
		C266.6,186.8,265.8,182.5,265.2,184.6z"/>
	<path class="st0" d="M153.3,48.4c-2.7,22.7-8.9,44.7-12,67.3c0,0.3,0.3,2.1,0.5,1.2c5.9-21.7,9.8-44.5,12.4-66.9
		C154.3,49.1,153.6,46.4,153.3,48.4z"/>
	<path class="st0" d="M167.4,37.3c-1.7,27.2-14.8,52.1-16.4,79.2c0,0.5,0.4,2.1,0.7,0.8c4.8-26.5,15.3-52.3,16.5-79.3
		C168.2,37,167.5,35.6,167.4,37.3z"/>
	<path class="st0" d="M180.8,40.5c-3.6,26-12.9,50.9-15.3,77c-0.1,0.8,0.6,2.9,0.9,1.1c4.7-25.6,11.9-50.9,15.2-76.7
		C181.7,41.2,181,38.7,180.8,40.5z"/>
	<path class="st0" d="M191.8,54.4c-7.5,22.4-14.5,46.1-15.5,69.9c0,0.8,0.7,3.1,1,1.2c3.6-23.6,8.4-46.4,15-69.3
		C192.6,55.6,192.2,53.2,191.8,54.4z"/>
	<path class="st0" d="M199,73.9c-3.4,15.9-9.6,31.3-11.6,47.5c-0.1,0.5,0.4,3.6,0.9,2c4.5-15.7,8.6-31.8,11.6-47.8
		C200.1,74.7,199.4,71.8,199,73.9z"/>
	<path class="st0" d="M149,122.6c-2.2,5.3-4.8,12.1-3.7,17.9c0.1,0.3,0.3,0.6,0.4,0.2c0.7-2.3,0.8-4.7,1.3-7.1
		c0.7-3.5,1.7-7,2.2-10.5C149.3,123,149.2,122.2,149,122.6z"/>
	<path class="st0" d="M153.6,123.5c-1.4,8-6.5,15.2-5.7,23.5c0.1,0.7,0.5,1.1,0.7,0.2c1.6-7.8,4.9-15.4,5.3-23.4
		C153.9,123.6,153.7,122.9,153.6,123.5z"/>
	<path class="st0" d="M159.5,120.1c-2.2,7.1-3.8,14.4-6.3,21.3c-1.2,3.5-2.4,7.4-1.3,11.1c0.1,0.4,0.4,0.5,0.5,0
		c1.9-10.3,5.3-20.5,7.7-30.7C160.2,121.4,159.8,118.9,159.5,120.1z"/>
	<path class="st0" d="M164,120.4c-3.5,11.1-8.6,22.9-8.7,34.8c0,0.3,0.3,1.4,0.6,0.6c3.5-10.8,5.6-22.2,8.9-33.2
		C165,122,164.5,118.9,164,120.4z"/>
	<path class="st0" d="M168.7,123.4c-4.1,11.7-9.1,24.3-8.4,37c0,0.4,0.4,1.3,0.6,0.4c2-12.1,4.7-23.5,8.6-35.1
		C169.7,125,169.2,121.8,168.7,123.4z"/>
	<path class="st0" d="M174.5,123.2c-5,14.3-10.5,29.8-10.9,45.1c0,0.2,0.3,1.9,0.6,0.9c4.3-14.5,6.3-29.5,11-44
		C175.4,124.7,174.9,121.8,174.5,123.2z"/>
	<path class="st0" d="M183.2,119.6c-3.1,10.5-5.9,21.1-8.7,31.7c-1.8,6.9-4.4,13.2-3.8,20.4c0,0.5,0.7,1.8,1,0.7
		c0.1-0.4,0.2-0.9,0.4-1.3c0-0.2,0.2-1.6-0.3-1.5c1.2-0.2,5.1-19.6,5.7-22.2c2.1-8.5,4.2-17.1,6.5-25.6
		C184.1,121.2,183.6,118.2,183.2,119.6z"/>
	<path class="st0" d="M187.8,125.9c-5,13.5-8.9,29-8.4,43.5c0,0.8,0.7,2.4,1,0.8c2.8-14.2,3.6-28.2,8.1-42.1
		C188.8,127.5,188.4,124.4,187.8,125.9z"/>
	<path class="st0" d="M192.9,127.6c-0.3,7.5-3.6,14.3-4.3,21.7c0,0.2,0.3,2.5,0.8,1.6c3.2-6.7,4.6-15.5,4.6-22.9
		C194,126.7,193,125.7,192.9,127.6z"/>
</g>
<g>
	<path class="st0" d="M170.4,281.4c1.8,0,3.6,0,5.4-0.3c0.3,0.6,1.5,1.2,3,0.9c13.2-2.4,20.4-3.9,28.5-15.3
		c6.6-9.6,7.5-23.7,3.9-34.5c-6-17.1-32.1-24.9-48.3-21.3c-1.5,0.3-2.1,1.2-2.1,2.1c-16.8,1.2-21.9,18-22.5,33
		C137.5,265.5,150.4,280.8,170.4,281.4z M188.7,275.4c0.3-0.3,0.9-0.6,1.2-1.2c0,0,0,0,0.3,0c1.5-0.6,3-1.2,4.2-1.5
		c0.9-0.3,0-0.9-0.6-0.6c-0.9,0.3-1.8,0.6-2.7,0.9c0.6-0.6,1.2-1.2,1.5-1.8c0,0,0,0,0.3,0c2.4-1.2,4.8-2.4,7.2-3.3
		c0.9-0.3,0-0.6-0.6-0.3c-2.1,0.9-4.2,1.8-6.3,2.7c0.6-0.9,1.2-1.8,1.8-2.7c2.1-1.2,4.2-2.4,6.6-3c0.9-0.3,0.6-1.2-0.3-0.9
		c-1.8,0.6-3.9,1.5-5.7,2.4c0.3-0.6,0.6-1.2,0.9-2.1h0.3c2.4,0,4.5-0.6,6.6-1.5C200.7,269.1,195.3,272.7,188.7,275.4z M191.1,221.1
		c-1.5-1.5-3.3-3-5.1-4.2c1.8,0.9,3.9,1.8,5.7,2.7l0,0C191.4,220.2,191.1,220.5,191.1,221.1z M192,221.7c0.3-0.6,0.3-0.9,0.6-1.5
		c0.3,0.3,0.9,0.6,1.2,0.6c-0.3,0.9-0.6,1.8-0.9,2.7C192.6,222.9,192.3,222.3,192,221.7C192,222,192,221.7,192,221.7z M195,221.7
		c0.3,0.3,0.9,0.6,1.2,0.9c-0.3,0-0.3,0.3-0.3,0.3c-0.3,0.9-0.9,1.8-1.5,2.7c-0.3-0.3-0.3-0.6-0.6-0.9c0,0,0.3,0,0.3-0.3
		C194.4,223.5,194.7,222.6,195,221.7z M197.1,223.5c0.6,0.6,1.2,0.9,1.5,1.5c-0.3-0.3-0.3,0-0.6,0c-0.6,0.9-1.8,1.8-2.4,2.7
		c-0.3-0.3-0.3-0.9-0.6-1.2C195.9,225.6,196.5,224.7,197.1,223.5z M201.9,228c1.2,1.2,2.1,2.7,2.7,4.2c-1.5,1.8-3.6,3-5.4,4.8l0,0
		c-0.3-0.6-0.3-1.2-0.6-2.1c0.3-0.3,0.6-0.3,0-0.3l0,0c0-0.3,0-0.3-0.3-0.6c0,0,0,0,0.3-0.3c0.6-0.6,1.2-0.9,1.8-1.5
		c0.9-0.6,2.1-1.2,3-2.1c0.6-0.6-0.9-0.3-1.2,0c-1.2,1.2-2.7,1.8-3.9,3c0-0.3-0.3-0.6-0.3-0.9c0,0,0,0,0-0.3
		C198.3,230.4,200.7,229.5,201.9,228z M205.5,233.4c0.6,0.9,0.9,1.8,1.2,3c-2.1,2.1-3.9,4.2-6.3,6c0-0.6-0.3-1.5-0.3-2.1
		c1.8-1.2,3.9-1.8,4.8-3.9c0.3-0.6-1.2-0.6-1.2,0c-0.6,1.5-2.4,2.1-3.6,3c0-0.9-0.3-1.5-0.6-2.4c0.3,0,0.9,0,1.2-0.3
		c1.5-1.5,3.3-2.7,4.8-4.2C205.2,233.1,205.2,233.4,205.5,233.4z M197.4,262.8c2.7-1.5,5.7-3,8.4-4.8c-0.3,1.2-0.9,2.4-1.2,3.6
		c-2.4,0.9-4.8,1.5-7.2,1.5l0,0C197.4,263.1,197.4,263.1,197.4,262.8z M199.2,256.8c2.4-1.8,4.8-3.6,6.9-5.1
		c0.9-0.6-0.3-0.9-0.9-0.6c-2.1,1.5-3.9,3-6,4.2c0-0.6,0.3-1.5,0.3-2.1c2.7-1.5,5.1-3.6,7.2-5.4c-0.3,2.4-0.6,4.8-0.9,6.9
		c-0.3,0-0.6,0-0.6,0c-2.4,1.2-4.5,2.4-6.9,3.6C199.2,258,199.2,257.4,199.2,256.8z M207,240c-2.1,1.8-4.5,3-6.6,4.8
		c-0.6,0.6,0.9,0.6,1.2,0.3c1.8-1.5,3.9-2.7,5.7-4.2c0.3,2.1,0.3,4.2,0,6.3c-0.3,0-0.9,0-0.9,0.3c-1.8,1.8-3.9,3.3-6.3,4.8
		c0-0.6,0-1.2,0.3-1.8c2.1-2.4,4.5-4.5,6.9-6.3c0.6-0.6-0.9-0.3-1.2-0.3c-2.1,1.5-3.9,3-5.7,5.1c0-2.1,0-3.9-0.3-6
		c0.3,0,0.6,0,0.9-0.3c2.1-1.5,3.9-3.6,5.7-5.4C207,238.2,207,239.1,207,240z M198.6,259.2c2.7-1.2,5.1-2.4,7.8-3.9
		c0,0.9-0.3,1.5-0.3,2.4c-0.3,0-0.6,0-0.9,0.3c-2.4,1.5-4.8,3-7.2,4.2C198,261,198.3,260.1,198.6,259.2z M201.3,227.4
		c-0.3,0-0.3,0-0.6,0.3c-0.9,1.2-2.4,2.1-3.6,3.3c-0.3-0.6-0.3-0.9-0.6-1.5c0-1.5,1.8-2.7,2.7-4.2
		C199.8,225.9,200.7,226.5,201.3,227.4z M160.2,215.7c0.9,0,1.8-0.6,2.7-1.2c0.3,0,0.6,0,1.2,0c1.2-0.3,2.4-0.3,3.9-0.6
		c-0.3,0.6-0.3,0.9,0.6,0.9c23.7,1.8,33,31.8,22.5,50.7c0,0,0,0,0,0.3c-2.4,4.2-5.4,7.8-9.6,10.2c-16.2,10.5-34.8-7.5-37.2-22.5
		C142.3,242.1,144.7,215.7,160.2,215.7z"/>
	<path class="st0" d="M154.2,261.6C154.6,261.6,154.6,261.6,154.2,261.6c2.1,2.7,5.7,4.2,9.3,4.8c0,1.8,0.3,3.6,0.6,5.1
		c0.3,1.2,2.1,0.6,3.3,0.3c1.2,0.6,5.1-0.3,5.1-2.1c0-1.2-0.3-2.4-0.3-3.6c0.3,0,0.3,0,0.6,0c6.9-1.5,10.8-5.4,10.8-12.6
		c0-4.2-2.7-7.8-5.7-10.2c-3.9-3.3-9.9-2.7-12-8.1c0.3,0,0.6-0.3,0.9-0.3c0.9-0.9,1.5-1.5,2.4-2.1c1.2,0.6,2.4,1.5,2.7,1.8
		c0.9,0.6,2.1,0.3,3.3,0.3c3-0.6,3.9-2.4,5.4-4.5c0.3-0.3-0.6-0.3-1.5-0.3c0-0.3,0-0.9-0.6-1.2c-2.4-1.5-4.8-2.4-7.5-2.4
		c0-2.1-0.3-4.5-1.5-5.4c-0.6-0.9-1.2-1.5-2.1-1.8c-2.7-0.6-5.7,0.6-6.3,3.6c-0.3,1.8,0,3.6,0,5.4c-4.2,1.8-8.7,7.8-5.7,12.6
		c1.8,3,5.1,3.9,8.4,4.8c2.4,1.5,4.8,3,7.5,3.9h0.3c1.2,1.2,2.4,2.4,3,3.9c1.2,3-0.3,6.6-3.9,6c-3.9-0.6-6.9-3.3-10.8-4.2
		c-0.3,0-0.9,0-1.5,0c-0.3,0-0.6-0.3-1.2-0.3c-1.2,0-3,0.3-3.6,1.5c-0.6,0.9-0.9,1.8-1.2,2.7c-0.3,0.9,0.6,1.2,1.2,1.2
		C153.7,261,154,261.3,154.2,261.6z M174.9,231.6L174.9,231.6c-0.6-0.3-1.2-0.6-1.8-0.9c0.3,0.3,0.9,0.3,1.5,0.6
		C174.6,231.6,174.9,231.6,174.9,231.6z M161.4,232.2c-1.5,2.1-1.2,4.8,0.6,7.2h-0.3c-0.6-0.3-0.9-1.2-1.2-2.1
		C159.6,235.2,160.2,233.4,161.4,232.2z M164.4,261.3c-1.8-0.6-3.3-1.2-5.1-2.1C161.1,259.8,162.9,260.7,164.4,261.3z"/>
</g>
<g>
	<path class="st0" d="M87,68.5c-2.1-3.3-4.6-7-5.8-11c-0.6-1.5-2.4-2.4-4-1.5c-7.6,4.9-7,14-12.5,20.4c-1.5,2.1,1.2,4.9,2.7,2.7
		c4.3-4.6,5.5-12.2,9.7-16.7c1.2,2.7,2.4,4.9,4,7.6c2.1,3.3,3.7,7.6,7,9.7c1.5,0.9,3.3-0.3,3.3-1.8C91.5,74.3,88.8,71.2,87,68.5z"/>
	<path class="st0" d="M64.5,74.3c-3,2.4-7,3-10.6,3.7c-3.6,0.9-6.7,2.1-9.7,4.6c-0.9,0.9-1.2,2.7-0.6,3.7
		c4.3,6.1,12.2,10.6,18.9,13.4c3,1.2,6.4-2.4,3.6-4.9c-4.6-4-11-5.8-15.5-9.7c5.2-3.3,12.2-3.3,16.7-7.6
		C69.9,75.5,66.6,72.5,64.5,74.3z"/>
	<path class="st0" d="M80.6,100.8c-2.7,2.1-4.9,4.6-7.6,7c-1.5,1.2-3,2.7-4.6,3.7c0.3-4-0.3-7.9-0.6-12.2c0-2.7-4-2.7-4,0
		c0,5.5,1.2,11.6-1.8,16.4c-1.5,2.1,1.2,4.6,3.7,3.7c7-3.7,14-9.1,18.6-15.2C85.8,102,82.7,99.2,80.6,100.8z"/>
	<path class="st0" d="M104.3,90.1c-0.6-0.3-1.5-0.3-2.1,0c-2.1,1.5-1.2,4.3-1.2,6.1c0.3,3.7,0.3,7.6,0.3,11.3c0,1.2-0.3,2.7-0.6,3.6
		c-0.6,1.2-4.6-1.2-5.2-1.5c-3-1.8-6.4-4.9-8.2-7.9c-1.2-2.1-4.3-0.3-3.3,1.8c2.1,4.6,14.9,18,20.4,10.3c2.1-3.3,2.1-8.2,2.1-12.2
		C106.1,99.2,107.1,91.9,104.3,90.1z"/>
	<path class="st0" d="M115.9,75.5c-8.8,0-17.6,0.3-26.8,0.6c-2.4,0-2.4,3.6,0,3.6c7.3,0,14.6,0.3,21.6,0.6c-4,4-8.5,7.6-11.6,12.5
		c-1.5,2.4,2.1,5.5,4,3.3c4.9-5.5,10.3-10.6,14.6-16.7C118.9,77.6,117.4,75.5,115.9,75.5z"/>
</g>
<g>
	<path class="st0" d="M253.5,122.6c-2.5-0.4-3.2,3.5-1.1,4.6c1.8,0.4,3.2,0.7,4.9,1.1c2.1,0,4.6,0,5.6-1.8c0.4-0.7,0.4-1.8,0-2.8
		c-0.7-1.1-2.5-1.8-3.5-1.1c0,0,0,0-0.4,0l0,0c-0.4,0-0.7,0-1.1,0C256.3,122.9,255.3,122.6,253.5,122.6z"/>
	<path class="st0" d="M260.9,115.9c-2.1,0-3.9,0-6,0c-1.1,0-2.1,0.7-2.5,1.8c-0.4,1.4,0.4,2.5,1.8,2.8c2.1,1.1,4.6,0.7,6.7,0.7
		c1.4,0,2.8-1.4,2.8-2.8C263.4,116.9,262.3,115.9,260.9,115.9z"/>
	<path class="st0" d="M263.4,109.5c-0.4-0.4-1.1-0.7-1.8-0.7l0,0l0,0l0,0c-0.4,0-0.4,0-0.7,0c-0.7,0-1.1,0-1.8,0c-1.1,0-2.1,0-2.8,0
		c-1.4,0-2.5,1.1-2.5,2.5c0,1.4,1.1,2.5,2.5,2.5c0,0,0,0,0.4,0c0.4,0,0.7,0,1.1,0c0.7,0,1.4,0.4,2.1,0.4c1.1,0,2.1,0.4,3.2-0.4
		C264.4,113.1,264.8,110.6,263.4,109.5z"/>
	<path class="st0" d="M250.3,91.5c2.1,4.6,3.2,9.2,4.9,13.8c0.4,1.4,2.8,1.4,3.5,0c3.5-12.3-15.2-24.3-2.1-35.6
		c4.2-3.5,10.6-4.2,15.2-1.4c5.6,3.5,3.2,9.5,0,13.8c-2.5,3.5-4.9,6.4-6.7,9.9c-1.8,3.9-1.8,8.1-3.5,12c-0.7,2.1,3.2,3.2,4.6,1.4
		c3.5-5.3,2.8-11.3,6.7-16.6c3.2-4.2,7.8-8.1,7.8-13.4c0-8.1-7.8-14.1-17.6-13c-9.9,1.1-16.2,9.5-16.6,16.9
		C246.4,83.4,248.6,87.7,250.3,91.5z"/>
	<path class="st0" d="M263,93.7c1.1-1.8,1.1-3.9,1.1-5.6c0.4-1.8,0.4-3.5,0.4-5.3c0-2.5-3.9-3.2-4.2-0.4c-0.4,1.8-0.7,3.5-0.7,4.9
		c-0.4,1.8-0.7,3.9-0.4,5.6C259.8,95.1,262.3,95.1,263,93.7z"/>
	<path class="st0" d="M235.2,75.7L235.2,75.7L235.2,75.7C235.5,75.7,235.5,75.7,235.2,75.7C235.5,75.7,235.5,75.7,235.2,75.7
		c0.4,0,0.4,0,0.7,0.4c0.4,0,0.7,0,1.1,0.4c0.7,0,1.4,0.4,2.1,0.7c1.1,0.4,2.5,0.4,3.5-0.4c1.4-1.4,1.4-3.9,0-5.3
		c-1.1-1.1-2.1-1.1-2.8-0.7c0,0,0,0-0.4,0.4c-0.4,0-1.1,0-1.4-0.4c-0.4,0-1.1,0-1.4,0c-0.7,0-1.1,0-1.4,0.4c0.7-0.4,0,0-0.4,0
		c-1.1,0.4-1.8,1.4-1.8,2.5C233,74.6,234.1,75.7,235.2,75.7z"/>
	<path class="st0" d="M241.1,59.1L241.1,59.1c0.4,1.1,1.4,1.4,2.1,2.1c0.4,0.4,0.7,0.7,1.1,1.1c0.4,1.8,2.5,2.5,4.2,2.1
		c2.1-0.4,2.8-3.2,1.1-4.6c-0.7-0.7-1.4-1.4-2.5-2.1c-0.4-0.4-1.1-0.7-1.4-1.1c-0.4-0.4-0.7-0.4-1.1-0.7c0.7,0.4-0.4,0-0.7-0.4
		c-0.7-0.4-1.8,0-2.5,0.7l0,0C240.8,57.3,240.8,58,241.1,59.1L241.1,59.1z"/>
	<path class="st0" d="M256.3,50.6c0,0.7,0.4,1.1,0.4,1.8c0,0.4,0,0.4,0.4,0.7c0,0.4,0,0.4,0,0c0,0,0,0,0-0.4
		c-0.4,1.8,0.7,3.5,2.8,3.5c1.8,0,3.2-1.8,2.8-3.5c-0.4-2.5-1.4-5.3-3.2-7.1c-1.8-1.8-4.9,0-4.2,2.1C255.6,48.9,256,49.9,256.3,50.6
		z"/>
	<path class="st0" d="M270.1,52.4L270.1,52.4c0.4,0.7,0.7,1.4,1.4,1.8c1.1,0.7,2.5,0.4,3.5-0.7c1.4-1.1,2.1-2.8,2.5-4.6
		c0.4-0.7,0.4-1.4,0.4-2.5c0-1.8-1.4-3.2-3.2-3.2c-1.1,0-2.1,0.7-2.5,1.4c-0.4,0.7-0.4,0.7-0.4,1.1s0,0.4,0,0.7c0-0.7,0-0.7,0,0v0.4
		v0.7c0,0.4,0,0.7-0.4,1.1l0,0l0,0c0,0,0,0.4-0.4,0.4v0.4c-0.7,0.4-1.1,1.1-1.1,1.8C269.7,51.7,269.7,52,270.1,52.4L270.1,52.4z"/>
	<path class="st0" d="M281.7,63.7L281.7,63.7C281.7,64,281.7,64,281.7,63.7c0.7,0,1.1,0,1.4,0c1.8-0.4,2.8-1.8,4.2-2.8
		c0.7-0.7,1.4-1.1,2.1-1.8c0,0,0.4,0,0.4-0.4c0.4,0,1.1-0.7,1.1-0.7c1.1-1.1,0.7-2.8-0.4-3.9c-1.1-1.4-3.9-1.8-4.9,0.4l0,0
		c0,0.4-0.4,0.4-0.7,0.7c-0.7,0.7-1.1,1.1-1.8,1.8c-1.4,1.1-3.5,2.5-3.5,4.6C279.9,62.6,280.7,63.7,281.7,63.7z"/>
	<path class="st0" d="M289.8,58.7L289.8,58.7C289.5,59.1,289.5,59.1,289.8,58.7z"/>
	<path class="st0" d="M287,69c-0.7,0-1.1,0.7-1.1,1.8v0.4l0,0c0,1.1,0.7,1.8,1.4,2.1c1.8,1.1,3.9,0.4,5.6,0c0.4,0,1.4,0,2.1-0.4
		c1.8,0,3.2-1.1,3.2-2.8c0-3.5-3.9-2.8-6-2.5c-1.8,0.4-3.2,0.4-4.6,1.1C287.4,68.6,287,68.6,287,69z"/>
	<path class="st0" d="M291.6,83.1c-0.4,0-0.4,0-0.7,0c-0.4,0-0.7-0.4-1.4-0.4c-0.7-0.4-1.4-0.7-2.1-0.7c-0.7,0-1.1,0-1.8,0.4
		c-1.8,0.4-2.1,2.5-1.1,3.5c0.4,0.4,0.7,0.7,1.1,1.1c2.1,1.1,3.9,1.8,6.3,2.1c1.4,0,2.8-1.4,2.8-2.8C294.4,84.1,293,83.1,291.6,83.1
		L291.6,83.1z"/>
</g>
</svg>
