<?xml version="1.0" encoding="utf-8"?>
<!-- Generator: Adobe Illustrator 16.0.0, SVG Export Plug-In . SVG Version: 6.00 Build 0)  -->
<!DOCTYPE svg PUBLIC "-//W3C//DTD SVG 1.1//EN" "http://www.w3.org/Graphics/SVG/1.1/DTD/svg11.dtd">
<svg version="1.1" id="Layer_1" xmlns="http://www.w3.org/2000/svg" xmlns:xlink="http://www.w3.org/1999/xlink" x="0px" y="0px"
	 width="27px" height="24px" viewBox="0 0 27 24" style="enable-background:new 0 0 27 24;" xml:space="preserve">
<style type="text/css">
<![CDATA[
	.st0{fill:#0789C1;}
]]>
</style>
<g>
	<path class="st0" d="M18.3,8.3c-0.9-2.6-2.1-5.9-4-8c-0.2-0.2-0.6-0.3-0.8-0.2c-3.1,1.3-4.2,5.3-5.1,8.2C8,9.3,9.6,9.7,9.9,8.7
		c0.7-2,1.5-5.5,3.5-6.7c1.6,2,2,4.8,3.3,6.9C17.3,9.6,18.6,9.2,18.3,8.3z"/>
	<path class="st0" d="M7.5,7.2C6.9,8.3,5.1,8.1,4,8.2c-1.3,0.1-1.3,2,0,2.1c1.9,0.1,4.2-0.2,5.2-2.1C9.8,7.1,8.2,6.1,7.5,7.2z"/>
	<path class="st0" d="M7.5,16.4c-1.4-2.6-3.9-5-6.2-6.9c-0.8-0.6-1.8,0.3-1.1,1.1c1.2,1.5,2.3,3.4,3.6,4.8c1.8,2,2,3.1,0.5,5.4
		c-0.7,1.1,1,2.6,1.9,1.5C7.5,20.6,8.6,18.4,7.5,16.4z"/>
	<path class="st0" d="M18.8,22c-1.9-1-3.6-2.2-5.1-3.6c-0.4-0.4-1.1-0.4-1.5,0c-1.5,1.4-3.3,2-5.1,2.9c-1.2,0.6-0.2,2.3,1,1.8
		c1.7-0.8,3.3-1.5,4.8-2.5c1.5,1.3,3.1,2.4,4.8,3.3C19,24.5,20,22.7,18.8,22z"/>
	<path class="st0" d="M19.4,22.7c-0.7-1.3-0.7-2.6-0.5-4c0.1-1.1,0.6-2.1-0.2-3c-0.2-0.3-0.7-0.2-0.9,0c-0.8,0.9-0.5,2.3-0.5,3.4
		c0,1.5,0.4,2.9,1.3,4.1C19,23.6,19.7,23.2,19.4,22.7z"/>
	<path class="st0" d="M26.7,9.2c-1.3-1.1-2.9-1.4-4.5-1.7c-1.8-0.3-4.4-0.8-6,0.1c-0.7,0.4-0.7,1.5,0,1.9c2.3,1.3,5.6-0.3,8,0.9
		c-1.7,2.1-4.1,3.6-6.5,4.9c-1.2,0.6-0.1,2.5,1.1,1.8c3.1-1.6,6-3.6,8.1-6.4C27.2,10.2,27,9.5,26.7,9.2z"/>
</g>
</svg>
