<?xml version="1.0" encoding="utf-8"?>
<!-- Generator: Adobe Illustrator 16.0.0, SVG Export Plug-In . SVG Version: 6.00 Build 0)  -->
<!DOCTYPE svg PUBLIC "-//W3C//DTD SVG 1.1//EN" "http://www.w3.org/Graphics/SVG/1.1/DTD/svg11.dtd">
<svg version="1.1" id="Layer_1" xmlns="http://www.w3.org/2000/svg" xmlns:xlink="http://www.w3.org/1999/xlink" x="0px" y="0px"
	 width="270px" height="257.5px" viewBox="0 0 270 257.5" style="enable-background:new 0 0 270 257.5;" xml:space="preserve">
<style type="text/css">
<![CDATA[
	.st0{fill:#0789C1;}
]]>
</style>
<g>
	<path class="st0" d="M80.1,28.6c-3.8,0.6-7.7,0.5-11.5,0.7c-4.2,0.1-8.5,0.6-12.8,1c-8.2,0.7-16,2.3-23.9,4.4
		c-5.9,1.5-12.2,3.3-16.3,8.1c-2.7,3.1-7.8,9.2-4.6,13.5c0.9,1.2,3.2,0.3,2.5-1.2c-1.8-3.9,2.8-8.6,5.2-11.3c2-2.3,5.4-3.6,8.2-4.6
		c3-1.1,6-1.7,9-2.6c7.5-2.2,15.3-3.3,23-4c7.1-0.6,14.6-1.2,21.4-3.5C80.3,28.9,80.3,28.6,80.1,28.6z"/>
	<path class="st0" d="M93.5,27.4c-6.3,0.4-12.4,2.4-18.2,4.7c-6.1,2.4-12,5.2-18,7.9c-6.3,2.9-12.8,5.5-19,8.6
		c-6.2,3.2-13.1,6.6-20.1,7.5c0,0,0,0.1,0,0.1c3.3,0,6.4-0.4,9.6-1.2c3.3-0.9,6.4-2.2,9.6-3.5c3.3-1.3,6.4-3.2,9.7-4.6
		c3.2-1.4,6.5-2.8,9.7-4.2c6-2.7,12-5.4,18-8c6-2.5,12.3-4.7,18.9-5.1C95.1,29.6,95,27.3,93.5,27.4z"/>
	<path class="st0" d="M88.9,24.6c-12,1.7-24.1-0.5-36.1,0.9c-9.3,1.1-18.4,3.4-27.2,6.4c-7,2.4-14.1,5.7-19.2,11.2
		c-4.7,5.1-8.2,15.2-2.6,21C5,65.4,7.3,66.3,8,67.9c0.8,1.9,3.5,0.5,2.5-1.2c-1-1.7-2.8-2.5-4.4-3.6c-2-1.5-2.8-4-2.9-6.4
		c-0.1-3.9,1.6-8,4-11c4.6-5.9,12.1-9.2,19-11.6c8.8-3.1,18-5.4,27.4-6.5C65.4,26.1,77.3,28,89,25.3C89.4,25.1,89.2,24.5,88.9,24.6z
		"/>
	<path class="st0" d="M105.2,48.1c-0.4-1.8-3.1-1.7-2.9,0.2c0.5,4.8-0.5,8.7-4.2,11.9c-1.8,1.6-4.9,1.9-7.2,2.1
		c-2.7,0.4-5.3,0.7-8,1.4c-2.6,0.7-5.1,1.6-7.6,2.5c-2.8,1-5.7,1.8-8.5,2.8c-5.5,1.9-10.8,4.1-16.1,6.3c-5.4,2.2-10.5,4.8-15.7,7.4
		c-4.7,2.3-9.2,5.2-14.6,5c-4.1-0.1-7.9-2.5-10-5.9c-1.3-2.1-1.6-4.6-2-7c-0.4-2.7-1-5.2-2.1-7.6C5.9,66,5.3,65,4.6,64
		c-0.4-0.6-1.4-0.1-1.2,0.6c1,2.6,1.6,5.2,2.1,8C6,75,6.1,77.7,6.8,80.2C7.9,84,10.6,87,14,88.9c9.1,4.9,18.7-1.8,26.8-5.7
		c10.4-5.1,21.2-9.6,32.4-13c5.4-1.6,10.5-3.9,16.1-4.6c4.9-0.6,9.2-1.2,12.7-5C105.1,57.1,106.1,52.5,105.2,48.1z"/>
	<path class="st0" d="M109.1,19.5c-1.9-0.7-3.7-0.5-5.7-0.1c-2.9,0.6-4.4,2.8-6.9,4.2c-0.3,0.2,0,0.7,0.3,0.6c1.6-0.6,3-1.7,4.5-2.4
		c1.6-0.7,3.5-1,5.2-0.9c2.3,0.2,7.4,3,5.3,5.7c-0.9,1.2,0.8,2.7,1.8,1.6C116.6,24.4,112.6,20.7,109.1,19.5z"/>
	<path class="st0" d="M105.7,28.1c-1.8-1-8.7,1.9-7.3-2.6c0.2-0.5-0.7-0.8-0.9-0.3c-0.9,2-0.3,3.7,1.8,4.4c1.1,0.4,2.2,0.4,3.3,0.5
		c1,0,2.3,0.2,3.2-0.4C106.4,29.3,106.3,28.4,105.7,28.1z"/>
	<g>
		<path class="st0" d="M108,46.1C108,46.1,108,46,108,46.1C107.9,46.1,107.9,46.1,108,46.1z"/>
		<path class="st0" d="M117.6,33c-1-2.2-3.1-3.4-4.8-5.1c-0.1-0.2-0.3,0.1-0.2,0.2c1.8,3.6,4.5,7,2.8,11.2c-1.1,2.6-3.8,4.2-6.1,5.9
			c0,0-0.1,0.1-0.2,0.1c-0.4,0.3-0.7,0.5-1.1,0.8l0,0l0,0c-1.5,1.2,0.2,3.7,1.7,2.5c3-2.6,7.1-4.8,8.4-8.8
			C118.8,37.5,118.5,35.1,117.6,33z"/>
	</g>
	<path class="st0" d="M175.5,7.4c-2.3,0.4-4.5,1.1-6.9,1.3c-2.5,0.3-5,0.8-7.5,1.4c-6.2,1.4-12.2,0.6-18.4,0.2
		c-5.7-0.4-11-0.4-16.3,1.7c-2.6,1.1-5,2.9-7.2,4.6c-2,1.7-3.5,4-5.7,5.5c-0.9,0.6,0,1.9,0.9,1.4c2.1-1.2,3.5-3.2,5.5-4.6
		c2.4-1.8,5-3.6,7.9-4.6c5.8-2,11.3-1.4,17.3-0.9c6,0.5,11.7,0.7,17.7-0.7c2.6-0.6,5.1-1,7.6-1.3c2-0.3,4.6-0.6,5.9-2.3
		C176.8,8.4,176.5,7.2,175.5,7.4z"/>
	<path class="st0" d="M176.6,8.5c-1.4,1.1-3,2.2-4.5,3.3c-1.4,1-2.8,2.3-4.4,3.2c-2,1.1-5.5,3.4-5.3,6c0.1,0.7,0.9,1.2,1.6,0.8
		c1.1-0.7,1.5-2,2.3-3c0.9-1.1,2.2-1.7,3.2-2.7c2.5-2.4,5.1-4.6,7.6-7.1C177.3,8.8,176.9,8.3,176.6,8.5z"/>
	<path class="st0" d="M122.2,26.6c3.3-0.2,6.6-1.2,9.8-2.1c4.1-1.1,8.3-1.2,12.5-1.5c8-0.4,16.1-0.2,24,1.5
		c3.6,0.8,7.1,1.8,10.8,2.2c2.8,0.4,5.4,0.1,8.1-0.3c0.2-0.4,0.4-0.9,0.8-1.3c0.6-0.7,1.2-1.3,1.9-2c-3.8,0.9-7.5,1.4-11.5,1
		c-3.7-0.4-7.3-1.4-10.9-2.1c-7.6-1.5-15.5-1.4-23.2-0.9c-3.9,0.3-7.7,0.6-11.5,1.6c-3.6,0.9-7,2.7-10.7,3.2
		C121.7,26,121.7,26.6,122.2,26.6z"/>
	<path class="st0" d="M204.4,33.2c-0.6-2.8-4.6-2.7-6.8-2.3c-3.3,0.5-5.8,2.1-7.9,4.6c-2.1,2.5-3.5,5.5-5,8.4
		c-0.8,1.5-1.6,3.4-2.8,4.8c-4.9,2.4-10.4,3.4-16.1,3.7c-10.2,0.5-20-2.5-28-8.9c-3.9-3.1-7.1-6.9-11.1-9.9
		c-3.6-2.7-8.3-4.5-12.8-4.7c-0.2,0-0.4,0-0.6,0c-1.4,0-1.4,2-0.2,2.4c5,1.4,9.5,2.6,13.4,6c3.7,3.3,7.1,7.1,11.2,9.9
		c3.9,2.7,8.1,5,12.7,6.4c4.6,1.4,9.4,1.8,14.2,1.8c6.9-0.1,13.8-1.4,19.8-4.8c-0.2-0.1-0.5-0.2-0.7-0.4c2.3-2.1,3.9-5.7,5.2-8
		c1.5-2.8,3.4-5.7,6.2-7.4c1.1-0.7,2.6-0.9,3.9-1.1c1.5-0.2,2.1,0.3,3.3,1.1C203.6,35.7,204.6,34.3,204.4,33.2z"/>
	<path class="st0" d="M50.8,37.3c-8,2-16.4,1.6-24.1,4.9c-5,2.1-10.9,6.5-11.9,12.2c-0.3,1.5,2.1,2,2.3,0.5
		c0.9-5.5,7.1-9.7,11.9-11.7C36,40.2,43.6,39.6,50.8,37.3C50.9,37.3,50.9,37.3,50.8,37.3z"/>
	<path class="st0" d="M115.8,31.4c-1.1,0.5-1.6,2.1-2.4,3c-1.2,1.4-2.8,2.6-4.7,2.7v0c1.6,0.3,3-0.2,4.4-0.9
		c1.3-0.7,3.9-2.3,4.1-3.9C117.3,31.6,116.6,31.1,115.8,31.4z"/>
	<path class="st0" d="M113.2,29c-1-1.5-2.7-2.8-4.4-3c-0.8-0.1-1.5,0.1-2.3,0.4c-0.2,0-1.1,0.4-1.2,0.2c-0.7-0.9-0.1-1.8,1.1-1.4
		c0.1,0,0.2-0.1,0.1-0.2c-2.3-1.5-3.4,0.9-2.3,2.9c0.5,1.1,2.7,0.4,3.5,0.3c1.5-0.3,3,1.1,3.7,2.3C112.1,31.6,114,30.3,113.2,29z"/>
	<path class="st0" d="M104.6,36.2c-1.2-3.4-3.5-6.7-6.2-9.1c-2.5-2.2-5.3-2.8-8.5-2.4c-0.2,0-0.2,0.3,0,0.3
		c5.7,1.6,9.5,6.2,11.7,11.6c0.6,1.4,1.1,3.1,0.6,4.6c-0.5,1.6-1.9,2.8-2.8,4.1c-1.8,2.5-4.3,4.8-5.8,7.5c-0.4,0.7,0.2,1.6,1,1.5
		c1.7-0.2,2.8-1.3,3.8-2.7c1.3-1.7,2.6-3.4,3.9-5.2c1.1-1.5,2.5-3,2.9-4.8C105.7,39.8,105.3,38,104.6,36.2z"/>
	<path class="st0" d="M41.3,65.9c-2.3,0.1-4.1,1.2-6.2,2.1c-1.8,0.8-2.9,2.8-4.8,3.8v0c1.6-0.6,3-1.2,4.3-2.4
		c0.7-0.7,2.3-0.9,3.2-1.2c1.1-0.4,2.3-0.7,3.4-0.9C42.3,67.2,42.3,65.8,41.3,65.9z"/>
	<path class="st0" d="M49.3,61.4c-0.2,0.8-0.5,1.5-0.8,2.2c-0.4,0.8-0.9,1.6-1,2.5c0,0.4,0.4,0.9,0.9,0.6c1.4-1.1,2-3.3,2.4-4.9
		C51.1,60.7,49.6,60.5,49.3,61.4z"/>
	<path class="st0" d="M56.9,58.7c-0.5,1.6-1.6,2.6-2.4,3.9c-0.4,0.6,0.5,1.4,1.1,0.9c1.5-1.1,2.5-2.8,3-4.5
		C58.9,58,57.2,57.6,56.9,58.7z"/>
	<path class="st0" d="M63,56.6c-0.2,1-0.5,1.9-1.1,2.8c-0.5,0.8-1.3,1.5-1.8,2.3c-0.4,0.6,0.5,1.4,1.1,0.9c1.8-1.3,3-3.5,3.5-5.7
		C64.9,55.9,63.2,55.5,63,56.6z"/>
	<path class="st0" d="M69.2,55.1c-0.5,2.3-2.8,3.7-3.4,5.9c-0.2,0.6,0.6,0.8,0.9,0.5c1.7-1.5,3.4-3.8,3.9-6
		C70.9,54.4,69.4,54.1,69.2,55.1z"/>
	<path class="st0" d="M74.2,52.9c-0.5,1-1.1,1.9-1.6,3c-0.4,0.8-0.9,1.8-0.8,2.7c0,0.5,0.7,0.9,1.1,0.4c0.5-0.7,0.7-1.6,1.1-2.3
		c0.5-1,1.1-2,1.6-3C76.1,52.8,74.7,52.1,74.2,52.9z"/>
	<path class="st0" d="M79.7,53.7c-0.2-0.4-0.6-0.5-1-0.3c-0.2,0.1-0.1,0.3,0,0.4c0.1,0,0,0,0.1,0.1c0,0,0,0,0,0c0-0.1,0,0.1,0,0.1
		c-0.1,0.4-0.3,0.7-0.4,1c-0.2,0.3,0,0.7,0.3,0.9c0.4,0.2,0.9,0,1-0.5C79.7,54.9,79.9,54.3,79.7,53.7z"/>
	<path class="st0" d="M79.6,41.3c-0.3,0.8-0.6,1.5-0.8,2.3c-0.2,0.7-0.4,1.9,0.3,2.5c0.2,0.2,0.5,0.2,0.7,0c0.6-0.5,0.5-1.2,0.6-1.9
		c0.1-0.8,0.4-1.5,0.7-2.2C81.5,41.1,80,40.3,79.6,41.3z"/>
	<path class="st0" d="M84.8,40.1c-0.3-0.8-1.6-0.4-1.3,0.4c0.5,1.7-0.2,3.5,0.5,5.1c0.2,0.3,0.7,0.3,0.9,0
		C85.6,44,85.4,41.7,84.8,40.1z"/>
	<path class="st0" d="M88.4,38.2c-0.3,1.4-0.5,2.8-0.7,4.2c-0.1,1.1-0.3,2.1,0.2,3.1c0.2,0.4,0.8,0.3,1-0.1c0.5-1,0.3-2.1,0.4-3.2
		c0.1-1.2,0.4-2.5,0.5-3.7C90,37.6,88.6,37.3,88.4,38.2z"/>
	<path class="st0" d="M92,37.6c0-0.8-1.3-0.7-1.2,0.1c0.1,1.9,0,3.9,0.4,5.7c0.1,0.5,1,0.5,1.1-0.1C92.4,41.5,92.1,39.5,92,37.6z"/>
	<path class="st0" d="M94.5,37.2c-0.2-0.8-0.2-1.7-0.2-2.5c-0.1-1.1-1.8-1-1.7,0.1c0.1,1.8,0,3.9,1.1,5.4c0.4,0.6,1.6,0.3,1.4-0.5
		C95,38.9,94.7,38,94.5,37.2z"/>
	<path class="st0" d="M18.7,44.9c-1.1,2.7-2.6,5.7-2.6,8.6c0,0.4,0.6,0.4,0.7,0C17.6,50.8,18,47.7,18.7,44.9
		C18.7,44.9,18.7,44.8,18.7,44.9z"/>
	<path class="st0" d="M22.9,41.2C22.9,41.2,22.9,41.2,22.9,41.2c0.6,2.2-0.5,3.7-0.9,5.7c-0.4,2.2-1.1,4.7-0.5,6.9
		c0.1,0.5,0.9,0.4,1-0.1c0.4-2.8,0.2-5.7,1-8.4C23.8,44.3,24.4,41.9,22.9,41.2z"/>
	<path class="st0" d="M28.8,39.8c-0.2-1.1-2-1.1-1.8,0.1c0.4,2.3-0.2,4.6-0.8,6.8c-0.5,1.9-1.7,4.5-1.1,6.4c0.2,0.7,1.1,0.7,1.4,0.1
		c0.5-0.8,0.5-1.8,0.7-2.7c0.3-1.3,0.6-2.7,0.9-3.9C28.8,44.4,29.2,42.1,28.8,39.8z"/>
	<path class="st0" d="M31.8,39.6C31.8,39.6,31.8,39.6,31.8,39.6c0.1,0.3-0.3,1.8-0.4,2.1c-0.3,1.4-0.5,2.8-0.9,4.3
		c-0.5,2.2-1.4,4.5-1.4,6.8c0,0.7,0.9,0.7,1.2,0.2c1.5-2.5,1.6-6.2,2-9C32.5,43.7,32.8,38.6,31.8,39.6z"/>
	<path class="st0" d="M35.9,38.2c0.1,3.5-1.3,6.7-1.5,10.2c0,0.9,1.4,1,1.6,0.1c0.7-3.5,1.8-6.9,1.8-10.4
		C37.7,37,35.9,37.1,35.9,38.2z"/>
	<path class="st0" d="M40.2,35.5c-0.2,2-0.6,4-1.1,6c-0.5,2-1.5,4.2-1.3,6.2c0.1,0.8,1.1,1,1.5,0.3c1-1.6,1.2-3.7,1.6-5.5
		c0.6-2.2,1.1-4.4,1.2-6.7C42.2,34.6,40.3,34.2,40.2,35.5z"/>
	<path class="st0" d="M43.6,35.5c0,1.6-0.2,3.2-0.5,4.8c-0.3,1.4-0.8,2.8-0.5,4.3c0.1,0.7,1.1,1,1.4,0.3c1.3-2.7,1.5-6.5,1.4-9.5
		C45.4,34.3,43.6,34.4,43.6,35.5z"/>
	<path class="st0" d="M47.3,35.3c0.1,2.5-1.1,4.9-1.1,7.4c0,1.2,1.7,1.2,2,0.2c0.7-2.4,1.5-5.1,1.4-7.7
		C49.6,33.7,47.3,33.8,47.3,35.3z"/>
	<path class="st0" d="M53.3,33.2c0,1.3-0.5,2.6-0.9,3.8c-0.4,1.2-1.1,2.7-0.4,4c0.2,0.4,0.8,0.5,1.1,0.2c1.1-0.9,1.2-2.4,1.6-3.7
		c0.5-1.5,1-2.9,0.9-4.4C55.6,31.6,53.3,31.7,53.3,33.2z"/>
	<path class="st0" d="M61,32.5c-0.4-1.2-2.2-0.5-1.8,0.6c0.3,0.9,0.3,1.8,0.2,2.7c-0.1,0.8-0.5,1.5-0.2,2.3c0.2,0.4,0.7,0.7,1.1,0.4
		c0.8-0.6,0.9-1.6,1.1-2.6C61.5,34.8,61.4,33.6,61,32.5z"/>
	<path class="st0" d="M64.5,31.9c-0.7,1-0.9,2.6-0.4,3.7c0.3,0.7,1.2,0.6,1.4-0.1c0.1-0.5,0.1-0.9,0.1-1.4c0-0.3,0-0.7,0.2-1
		C66.6,32.2,65.2,30.9,64.5,31.9z"/>
	<path class="st0" d="M71.8,29.8c-0.8-0.8-2.1,0.6-1.2,1.4c0.1,0.1,0.2,0.2,0.2,0.3c0.1,0.1,0,0.1,0.1,0.2c0.1,0.3,0.1,0.5,0.3,0.9
		c0.3,0.5,1.1,0.4,1.3-0.1C73,31.4,72.5,30.5,71.8,29.8z"/>
	<path class="st0" d="M133.8,30c0,1-0.8,1.9-1.4,2.7c-0.3,0.3,0.2,0.7,0.5,0.4c0.8-0.9,1.6-1.9,1.6-3.2
		C134.5,29.5,133.8,29.6,133.8,30z"/>
	<path class="st0" d="M138,30.7c-0.2,0.7-0.4,1.2-0.8,1.8c-0.4,0.5-0.8,1-1.1,1.5c-0.4,0.5,0.5,1.2,0.9,0.9c1.2-1,2-2.3,2.4-3.9
		C139.7,30.1,138.3,29.8,138,30.7z"/>
	<path class="st0" d="M143.5,31.4c-1.1,1.3-2,2.8-3.1,4.2c-0.3,0.4,0.2,0.8,0.5,0.5c1.2-1.2,2.1-2.8,3.2-4.1
		C144.6,31.5,143.9,30.9,143.5,31.4z"/>
	<path class="st0" d="M146.8,32.9c-1,1.7-2.2,3.4-2.9,5.3c-0.2,0.5,0.4,0.9,0.7,0.5c1.3-1.6,2.2-3.5,3.2-5.3
		C148.2,32.7,147.2,32.2,146.8,32.9z"/>
	<path class="st0" d="M151.7,33c-1.1,2.4-2.2,4.7-3.5,7c-0.4,0.7,0.7,1.4,1.1,0.8c1.6-2.1,2.6-4.6,3.7-7.1
		C153.4,32.9,152.1,32.2,151.7,33z"/>
	<path class="st0" d="M156.2,34.4c-1.4,2.9-2.1,6.2-3.3,9.3c-0.3,0.9,0.8,1.5,1.3,0.7c1.8-2.8,2.1-6.2,3.5-9.2
		C158.2,34.2,156.7,33.4,156.2,34.4z"/>
	<path class="st0" d="M161.9,36.6c-0.5,3-2.3,5.3-3.2,8.1c-0.2,0.6,0.6,0.8,0.9,0.5c2.2-1.9,3.4-5.5,3.8-8.3
		C163.6,35.9,162.1,35.5,161.9,36.6z"/>
	<path class="st0" d="M169.9,35.9c-0.9,2.3-1.4,4.7-2.3,6.9c-0.3,0.7,0.7,1.4,1.1,0.8c1.4-2.1,1.6-4.7,2.6-7
		C171.6,35.7,170.2,35,169.9,35.9z"/>
	<path class="st0" d="M175.4,37.1c0.1,1.6-0.5,3-0.5,4.5c0,0.5,0.7,0.6,1,0.2c0.9-1.5,1.2-3.2,1.2-4.8C177,35.9,175.4,36,175.4,37.1
		z"/>
	<path class="st0" d="M185.1,34.7c-0.4,0-0.6,0.3-0.6,0.7l0,0c-0.3,0.1-0.5,0.3-0.5,0.6c0,0.4,0.3,0.6,0.6,0.6
		c0.2,0,0.4-0.1,0.6-0.2c0.4-0.2,0.5-0.7,0.5-1.1C185.8,34.9,185.4,34.6,185.1,34.7z"/>
	<path class="st0" d="M184.9,33c-9.6,5.4-21.2,6.4-32,5c-5.8-0.8-11.3-2.8-16.6-4.9c-5.3-2.1-10.8-4.4-16.5-5.1
		c-1.7-0.2-2.2,2.2-0.5,2.6c11.7,2.7,22.4,8.8,34.5,9.7c10.6,0.8,22.2-1.3,31.3-7.1C185.2,33.1,185.1,32.9,184.9,33z"/>
	<path class="st0" d="M120.4,22.5c-1.6,1.8-2.4,3.9-1.9,6.3c0.1,0.5,0.9,0.4,0.9,0c0.2-2.1,0.5-3.8,1.9-5.4
		C121.8,22.7,120.9,21.9,120.4,22.5z"/>
	<path class="st0" d="M124.5,19.7c-0.4,2.5-1.4,4.9-1.7,7.4c-0.1,0.7,0.9,0.9,1.1,0.2c0.7-2.5,1.5-4.9,1.9-7.4
		C125.8,19.2,124.6,18.9,124.5,19.7z"/>
	<path class="st0" d="M129.6,18.3c-0.3,1.1-0.5,2.1-0.7,3.1c-0.2,1.1-0.7,2.2-0.4,3.3c0.1,0.4,0.6,0.5,0.8,0.2
		c0.6-0.9,0.6-2.1,0.8-3.2c0.2-1.1,0.4-2.1,0.7-3.2C130.9,17.8,129.7,17.6,129.6,18.3z"/>
	<path class="st0" d="M133.8,18.2c0.1,1.9-0.5,3.6-0.7,5.5c0,0.7,0.9,1.2,1.3,0.5c0.9-1.8,1.1-4.1,1-6
		C135.4,17.1,133.8,17.2,133.8,18.2z"/>
	<path class="st0" d="M141,15.9c-0.4-1.1-2.1-0.5-1.8,0.6c0.4,0.9,0.3,1.9,0.1,2.8c-0.2,0.9-0.7,1.7-0.7,2.6c0,0.5,0.6,0.8,1.1,0.5
		c1-0.6,1.3-2,1.5-3.1C141.4,18.2,141.4,16.9,141,15.9z"/>
	<path class="st0" d="M143.7,15.9c0.1,1.9-0.8,3.8-0.7,5.7c0,0.7,1.1,1,1.4,0.3c0.8-1.7,1.1-4.2,1-6.1
		C145.4,14.6,143.6,14.8,143.7,15.9z"/>
	<path class="st0" d="M149.3,15.4c-0.2,1.2-0.3,2.3-0.3,3.5c0,1.1-0.1,2.3,0.5,3.2c0.3,0.4,0.9,0.4,1.1-0.1c0.5-0.9,0.3-1.9,0.2-2.8
		c0-1.2,0.1-2.3,0.3-3.5C151.3,14.6,149.5,14.2,149.3,15.4z"/>
	<path class="st0" d="M153.3,16.5c0,1.7-0.5,3.4-0.2,5.1c0.2,0.9,1.6,1.2,1.7,0.1c0.2-1.8,0.4-3.5,0.3-5.3
		C155,15.2,153.2,15.3,153.3,16.5z"/>
	<path class="st0" d="M158,17.4c-0.5,1.1-0.9,2.9-0.3,4.1c0.4,0.7,1.3,0.7,1.6-0.1c0.2-0.5,0.1-0.9,0.1-1.4c0-0.6,0.1-1.2,0.3-1.7
		C160,17.1,158.4,16.3,158,17.4z"/>
	<path class="st0" d="M166.5,15c-0.4,0-0.6,0.4-0.6,0.8l0,0h0c-0.4,0.1-0.4,0.9,0,0.9c0.6,0.1,1.2-0.3,1.2-0.9
		C167.2,15.4,166.9,15,166.5,15z"/>
	<path class="st0" d="M104.8,40.3c-0.9,2.3-1.8,5-1.1,7.5c0.2,0.7,1.3,0.6,1.4-0.1c0.4-2.3,0.5-4.4,1.4-6.5
		C106.9,40.1,105.2,39.2,104.8,40.3z"/>
	<path class="st0" d="M109.2,38c-0.5,2.1-1.2,4.4-0.7,6.6c0.2,0.7,1.3,0.6,1.4-0.1c0.4-2.1,0.5-4.1,0.8-6.2
		C110.9,37.4,109.4,37,109.2,38z"/>
	<path class="st0" d="M113.4,38.5c-0.1-0.6-0.4-1.1-0.8-1.5c-0.6-0.6-1.5,0.4-0.9,1c0.7,0.7,0.3,1.8,0.7,2.5c0.2,0.3,0.7,0.3,0.9,0
		C113.6,39.9,113.5,39.2,113.4,38.5z"/>
	<path class="st0" d="M114.1,35.7c0,0.6,0.1,1.2,0.3,1.8c0.2,0.6,1.2,0.6,1.3-0.1c0.1-0.6,0.1-1.2,0-1.9
		C115.6,34.6,114,34.7,114.1,35.7z"/>
	<path class="st0" d="M105.9,40.1c0,1.1-0.4,2.2-0.8,3.2c-0.2,0.7,0.9,1.1,1.2,0.4c0.6-1.2,1.2-2.4,1.1-3.8
		C107.5,39,105.9,39.1,105.9,40.1z"/>
	<path class="st0" d="M15,79c-0.5,1.2-0.5,2.5-0.9,3.6c-0.2,0.7,1,1.1,1.3,0.5c0.5-1.1,0.5-2.3,1-3.4C16.7,78.8,15.4,78.1,15,79z"/>
	<path class="st0" d="M22,75.4c-0.4,1.8-1.7,3.6-1.2,5.5c0.2,0.6,1.1,0.5,1.2-0.1c0.4-1.8,1.1-3.4,1.5-5.1
		C23.7,74.8,22.2,74.5,22,75.4z"/>
	<path class="st0" d="M26.6,74.2C26.6,74.2,26.6,74.2,26.6,74.2c0.5,0.7-0.7,3.4-1,4c-0.5,1.3-1.1,2.5-1.4,3.9
		c-0.1,0.6,0.9,1.1,1.1,0.4c0.7-1.7,1.2-3.5,1.6-5.3C27.2,76.5,27.7,74.5,26.6,74.2z"/>
	<path class="st0" d="M30.3,73.8c-0.9,2.6-1.6,5.3-2.3,8c-0.2,0.8,0.9,1.1,1.3,0.5c1.4-2.4,1.6-5.5,2.5-8.2
		C32.2,73.2,30.7,72.8,30.3,73.8z"/>
	<path class="st0" d="M35.8,72.8c-0.5,2.2-2.4,6.2-0.3,8.1c0.5,0.5,1.3-0.1,1.1-0.8c-0.7-2.3,0.4-4.7,0.9-6.9
		C37.8,72.1,36,71.7,35.8,72.8z"/>
	<path class="st0" d="M41.9,71.7c-1.1,2.7-2.1,5.6-1.7,8.5c0.2,1.1,1.6,1,1.7-0.1c0.2-2.6,0.8-5.1,1.8-7.5
		C44.2,71.4,42.4,70.5,41.9,71.7z"/>
	<path class="st0" d="M48,68.2c-0.4,0.2-0.7,0.6-1.1,0.7c-0.7,0.3-0.5,1.1,0,1.2c-0.9,2.4-1.8,4.9-1.8,7.4c0,0.9,1.3,0.9,1.5,0.1
		c0.9-2.8,1.5-5.7,2.3-8.6C49.1,68.6,48.5,68,48,68.2z"/>
	<path class="st0" d="M52.6,67.3c-0.3-0.4-1.1-0.2-1,0.4c0.2,1.1-0.4,2.3-0.7,3.3c-0.4,1.3-1.1,2.6-1.3,3.9
		c-0.2,0.8,1.1,1.3,1.4,0.5c0.5-1.5,1.1-3,1.5-4.5C52.7,69.9,53.3,68.2,52.6,67.3z"/>
	<path class="st0" d="M58.8,64.9c-0.1-0.9-1.4-0.8-1.4,0.1c0,2-0.7,4.2-1.8,5.9c-0.5,0.8,0.7,1.5,1.3,0.9
		C58.4,70.2,59,67.1,58.8,64.9z"/>
	<path class="st0" d="M62.6,63.3c-0.5,1.4-0.9,2.8-1.2,4.2c-0.4,1.3-1,2.7-0.8,4c0.1,0.7,0.9,1,1.4,0.5c0.9-0.9,1.1-2.3,1.4-3.5
		c0.4-1.6,0.9-3.2,1.4-4.8C65.2,62.4,63.1,62,62.6,63.3z"/>
	<path class="st0" d="M68.7,61.7c-0.6-0.8-1.6,0-1.2,0.8c0.5,1-0.1,2.5-0.4,3.4c-0.4,1.2-0.7,2.3-0.5,3.5c0.1,0.9,1.5,1.1,1.6,0.1
		C68.5,67.3,70.3,63.8,68.7,61.7z"/>
	<path class="st0" d="M73.3,59.9c-0.2,1.2-0.5,2.4-0.7,3.5c-0.2,1-0.5,1.9-0.4,2.9c0.1,0.5,0.8,0.9,1.2,0.4c0.5-0.8,0.7-1.6,0.9-2.6
		c0.3-1.3,0.5-2.7,0.7-4C75.2,59.2,73.5,58.8,73.3,59.9z"/>
	<path class="st0" d="M78.9,58.2c-0.5,1.2-0.9,2.4-1.2,3.7c-0.3,1.2-0.7,2.5-0.6,3.6c0.1,0.7,1.1,1,1.4,0.3c0.5-0.9,0.5-2.1,0.8-3.1
		c0.3-1.3,0.7-2.5,1.2-3.7C80.9,58,79.3,57.2,78.9,58.2z"/>
	<path class="st0" d="M84,58.2c-0.2,1.1-0.6,2.3-1,3.4c-0.3,1-1,2.1-0.9,3.2c0.1,0.5,0.7,0.9,1.1,0.4c0.6-0.8,0.8-1.9,1.1-2.8
		c0.4-1.2,0.7-2.5,1-3.8C85.6,57.6,84.2,57.3,84,58.2z"/>
	<path class="st0" d="M88.2,56.2c-0.2,1.4-0.4,2.8-0.7,4.1c-0.2,1.1-0.5,2.3-0.5,3.5c0,0.7,1.1,1,1.5,0.3c1-2.2,1.1-5.1,1.4-7.6
		C90.1,55.4,88.4,55,88.2,56.2z"/>
	<path class="st0" d="M93,55c-0.6-0.7-1.8,0.4-1.2,1.1c0.7,0.8-0.2,2.8-0.5,3.7c-0.4,1.2-1.2,2.8-0.7,4.1c0.2,0.5,0.8,0.6,1.2,0.2
		c1.1-1.2,1.3-3.5,1.7-5.1C93.7,57.6,94,56,93,55z"/>
	<path class="st0" d="M97.2,54.5c-0.4-1.2-2.3-0.5-1.8,0.6c0.3,0.9,0.3,1.7,0.3,2.6c0,0.9-0.2,1.7,0.3,2.5c0.3,0.5,1.1,0.4,1.3-0.1
		c0.4-0.8,0.3-1.7,0.4-2.6C97.7,56.6,97.6,55.5,97.2,54.5z"/>
	<path class="st0" d="M100.1,52.3C100,52.3,100,52.3,100.1,52.3c0.1,0.1,0,0.4,0,0.5c0,0.2,0,0.4,0,0.7c0,0.4,0,0.7,0,1.1
		c0.1,0.9,1.4,0.8,1.4-0.1C101.5,53.9,101.1,51.8,100.1,52.3z"/>
	<path class="st0" d="M198.8,24.9c-5.8-2.5-11.8-0.4-17.6,0.5c-0.8,0.1-0.7,1.2,0.1,1.2c4.9,0,9.8-1.3,14.7-0.2
		c3.9,0.9,7.8,4.2,8.1,8.4c0.2,1.9-0.4,3.8-1.6,5.2c-0.7,0.7-1.6,1.4-2.5,1.9c-1.2,0.6-1.6-0.5-1.9-1.4c-1.2-3.2-2.6-6.8-6.7-6.1
		c-1.1,0.2-1.7,1.7-0.5,2.2c0.9,0.4,1.9,0.6,2.7,1.2c0.7,0.6,1,1.8,1.3,2.7c0.7,2,1.8,4.6,4.3,4.6c2.2,0,4.1-1.7,5.6-3.1
		c1.6-1.6,2.2-4.2,2.2-6.4C207,30.6,203.1,26.8,198.8,24.9z"/>
	<path class="st0" d="M199.9,28.3c-3.2-2.8-8.2,0.3-11.6,1.8c0,0-0.1-0.1-0.1-0.1c-0.4,0-0.6,0.2-0.9,0.6c-0.2,0.2,0.1,0.6,0.4,0.5
		c1.6-0.2,3.2-0.8,4.7-1.2c1-0.3,2-0.5,3.1-0.7c1.3-0.1,2.4,0.4,3.7,0.5C200,29.7,200.6,28.8,199.9,28.3z"/>
	<path class="st0" d="M177.1,0c-2,0.4-4.6,2.3-5.6,4c-1.1,1.7-2.6,3.7-4.6,4.3c-2,0.6-3.9,0.9-5.7,2.1c-1.1,0.7-0.2,2.6,1,2.1
		c2.3-1,5-1.2,7.2-2.5c2.2-1.3,3.2-3.6,4.9-5.3c0.6-0.6,1.3-1.1,2-1.6c0.4-0.2,0.7-0.4,1.1-0.6c0.3-0.1,0.2-0.2,0.3,0
		c0.8,2.2-1.4,5.7-3.1,6.9c-0.1,0.1,0,0.2,0,0.2c2.9,0.9,4.9-3,5.4-5.2C180.4,2.4,179.7-0.4,177.1,0z"/>
	<path class="st0" d="M196.9,32.1c-0.5,1.6-1.6,3-1.8,4.7c-0.1,0.8,1,1.3,1.4,0.5c0.8-1.6,1.8-3,2.3-4.8
		C199.2,31.3,197.3,30.9,196.9,32.1z"/>
	<path class="st0" d="M199.3,33.5c-0.8,1.8-1.9,3.9-1.8,5.9c0,0.9,1.2,1,1.6,0.4c0.5-0.9,0.7-1.8,1.1-2.7c0.3-0.9,0.7-1.7,1-2.6
		C201.7,33.2,199.8,32.3,199.3,33.5z"/>
	<path class="st0" d="M201.7,35.4c0.1,0.7,0.1,1.5,0.2,2.2c0.2,1.1,1.6,1,1.6-0.1c0-0.7,0-1.5-0.1-2.3
		C203.4,34.1,201.5,34.3,201.7,35.4z"/>
	<path class="st0" d="M62.2,46.8c-12.6,3.9-24,10.5-36.4,14.8c-3,1.1-6.2,1.7-9.3,2.3c-1.5,0.3-3,0.4-4.6,0.5c-1.7,0-3-0.7-4.3-1.7
		c-4-3.1-3.4-8.3-1.8-12.5c0.4-1.2-1.2-2.7-2.1-1.4c-3,4.2-3.4,9.7-0.4,14.1c1.6,2.3,4,3.6,6.5,4.4c1.4,0.5,3.5,0,4.9-0.2
		c1.9-0.3,3.7-0.8,5.6-1.3C35.2,61.7,47.9,52.4,62.2,46.8C62.3,46.9,62.3,46.8,62.2,46.8z"/>
</g>
<g>
	<g>
		<path class="st0" d="M48.3,148.7c-0.4,6.4-3.2,12.3-4.9,18.4c-0.9,3.2-1.7,6.5-2.6,9.7c-0.5,1.8-1,3.6-1.5,5.3
			c-0.5,1.5-1.3,3.1-1.2,4.7c0,0.7,1.1,1.2,1.7,0.7c1.2-1.2,1.5-2.8,2-4.3c0.5-1.6,0.9-3.3,1.4-4.9c0.9-3.6,1.8-7.2,2.8-10.7
			c1.8-6.2,4.5-12.1,4.8-18.6C50.8,147.5,48.4,147.1,48.3,148.7z"/>
		<path class="st0" d="M46.3,193.6c-0.4-1.3-1.6-2.2-2.6-3.1c-1.2-1.2-2.6-2.4-3.6-3.8c-0.8-1.1-2.4,0.2-1.6,1.3
			c0.9,1.2,1.9,2.3,2.9,3.4c1.1,1.1,2,2.6,3.2,3.5C45.6,195.7,46.6,194.7,46.3,193.6z"/>
		<path class="st0" d="M78.6,179.9c-0.8-3.2-3.7-5.7-5.9-7.9c-2.8-2.8-4.7-6.3-7.5-9.1c-2.8-2.8-4.8-6.4-7.6-9.2
			c-1.4-1.4-2.8-2.7-4.3-4c-1-0.9-2.1-2.2-3.4-2.7c-0.7-0.3-1.2,0.5-1,1l0,0l0,0c0,0,0,0.1,0.1,0.1c0.5,1.1,1.5,1.9,2.3,2.8
			c1.4,1.4,2.9,2.9,4.3,4.3c2.7,2.7,4.6,6,7,9c1.1,1.4,2.3,2.7,3.4,4.2c1.2,1.6,2.2,3.4,3.7,4.8c2.3,2.4,4.5,4.6,6.1,7.6
			C76.6,182,79,181.6,78.6,179.9z"/>
		<path class="st0" d="M76,180.8c-1,0.9-1.7,2.1-2.5,3.2c-0.6,0.8-1,1.8-1.4,2.7c-0.5,1-1.2,2.1-0.7,3.2c0.2,0.5,0.9,0.8,1.4,0.5
			c1.8-0.9,1.6-3.8,2.5-5.4c0.7-1.1,1.6-2.5,1.8-3.8C77,180.9,76.4,180.4,76,180.8z"/>
		<path class="st0" d="M51.8,212.6c-0.8,1.9-1.6,3.8-2.5,5.6c-0.5,1.1-1.2,2.1-1.9,3.2c-0.6,0.8-1.3,1.4-1.4,2.5
			c-0.1,0.6,0.5,1.2,1.1,1.1c2-0.5,3.2-3.2,4.1-4.9c1.1-2.1,2-4.3,2.9-6.5C54.7,212.1,52.5,211.2,51.8,212.6z"/>
		<path class="st0" d="M75.8,255c-5.3-5.5-11-10.4-16.4-15.7c-2.3-2.3-4.6-4.6-6.9-7c-1.9-2.1-4.6-4-5.7-6.7
			c-0.5-1.1-2.1-0.4-1.8,0.7c1,2.7,3.2,4.8,5.1,6.8c2.3,2.4,4.5,4.9,6.8,7.4c2.6,2.8,5.4,5.3,8.1,7.9c3,2.8,5.8,5.8,8.7,8.7
			C75,258.1,77,256.1,75.8,255z"/>
		<path class="st0" d="M84.4,215.5c-0.4-1.5-2-2.7-3.2-3.5c-2-1.4-4.1-2.7-6.4-3.9c-1.1-0.6-2.2,1.2-1.1,1.8
			c1.9,1.1,3.8,2.3,5.6,3.5c1.2,0.9,2.9,1.9,2.8,3.5c-0.2,2.1-0.8,4.3-1.1,6.5c-0.4,2.2-0.7,4.4-1.1,6.5c-0.8,4.4-1.7,8.8-2.7,13.2
			c-1,4.4-2.2,8.7-3,13.1c-0.3,1.6,2.1,1.7,2.5,0.3c1.2-4.5,2.2-9.1,3.2-13.7c1.1-4.9,2.1-9.9,2.9-14.8c0.4-2.4,0.7-4.8,1.1-7.2
			C84.1,219.2,84.8,217.2,84.4,215.5z"/>
		<path class="st0" d="M45.7,195.3c-1.4-1.9-3.7-3-5.9-3.7c-1.2-0.4-2.4-0.8-3.5-1.2c-1.1-0.4-2.3-1.1-3.4-1.2
			c-0.9-0.1-1.4,0.9-0.9,1.6c1.1,1.6,4.1,2,5.8,2.5c2.3,0.7,4.8,1.4,6.3,3.4C44.9,197.7,46.5,196.4,45.7,195.3z"/>
		<path class="st0" d="M32.1,188c-2.7,2-5,4.4-7.5,6.7c-2.8,2.6-6,4.6-8.8,7.1c-2.6,2.3-5.4,4.3-8.1,6.5c-2.4,1.9-5.2,4.1-6.9,6.9
			c-0.7,1.1,0.6,2.7,1.6,1.7c2.3-2.2,4.4-4.5,6.9-6.5c2.7-2.2,5.5-4.3,8.1-6.6c2.7-2.4,5.7-4.4,8.4-6.8c2.6-2.3,5-5.1,7.7-7.2
			C34.6,188.9,33.3,187.2,32.1,188z"/>
		<path class="st0" d="M40.3,226.1c-1.7-2-4.6-2.6-6.9-3.2c-3.3-0.9-6.5-1.6-9.8-2.5c-3.7-1-7.6-1.2-11.3-2.5c-4-1.4-8-2.8-12-4
			c-0.4-0.1-0.5,0.5-0.2,0.7c3.7,1.7,7.5,3,11.1,4.8c3.1,1.6,6.7,2.3,10,3c3.5,0.8,6.8,2.1,10.3,2.9c2.2,0.5,5.2,0.9,6.9,2.7
			C39.7,229.1,41.3,227.2,40.3,226.1z"/>
		<path class="st0" d="M48.4,210.9c-1.1,1.1-1.5,2.6-2.5,3.9c-0.8,1.1-1.6,2-2.2,3.2c-1.5,2.8-1.9,6.2-4.4,8.3
			c-0.7,0.6,0.2,1.8,0.9,1.2c2.4-1.9,3.4-5,4.8-7.6c1.4-2.7,5.3-5,5-8.2C50,210.9,48.9,210.4,48.4,210.9z"/>
		<path class="st0" d="M53.8,211.5c-1.1-0.6-2.2-1.1-3.4-1.4c-1.1-0.3-1.8,1.2-0.7,1.7c1.2,0.5,2.3,1.3,3.5,1.5
			C54.5,213.4,54.7,212,53.8,211.5z"/>
		<path class="st0" d="M83.6,211c-0.5-1.5-2.9-2.2-4.3-2.7c-2-0.6-4.1-0.8-6.2-0.9c-1.1,0-1.3,1.6-0.2,1.7c1.7,0.2,3.4,0.4,5.1,0.8
			c0.9,0.2,1.8,0.5,2.6,0.9c0.7,0.4,1.2,0.9,2,1.2C83.2,212.3,83.9,211.7,83.6,211z"/>
		<path class="st0" d="M80.1,181.5c-1.4,1.1-2.3,2.9-3.5,4.2c-1.4,1.6-3,3-4.4,4.5c-0.9,1,0.8,2.3,1.7,1.3c1.4-1.5,3-3,4.4-4.5
			c1.2-1.3,2.8-2.9,3.2-4.6C81.6,181.5,80.7,181,80.1,181.5z"/>
		<path class="st0" d="M118.4,185.6c-5.7-2.8-11.5-3.5-17.5-3.8c-6.6-0.3-13.3-1-19.9-1.1c-0.7,0-0.7,1.3,0,1.4
			c6.4,0.6,12.7,1.5,19.2,1.9c3,0.2,5.9,0.3,8.9,1c2.9,0.6,5.8,1.7,8.4,3.2C119,189,119.9,186.4,118.4,185.6z"/>
		<path class="st0" d="M115.1,187.7c-4.3,5.4-9.5,9.7-14.7,14c-2.4,1.9-4.7,3.9-7.3,5.5c-2.3,1.4-4.9,2.8-6.7,5
			c-1.1,1.2,0.5,3.5,1.5,2.2c1.9-2.3,4.5-3.6,6.9-5.1c2.7-1.6,5-3.7,7.4-5.8c5.2-4.3,10.3-8.8,14.6-14.3
			C117.8,188,116,186.6,115.1,187.7z"/>
		<path class="st0" d="M63.2,196.9c-0.5-0.2-0.9,0-1.1,0.2c-0.1,0-0.2,0-0.3,0c-2.1,0.1-3.9,0.3-4.8,2.6c-0.9,2.3,0.7,5.2,3.1,5.7
			c2.2,0.4,4.3-1.1,5.2-3C66.2,200.3,65.4,197.6,63.2,196.9z M63.4,201.5c-0.4,1.1-1.6,1.9-2.7,1.6c-1.3-0.4-1.8-1.9-1.3-3.2
			c0.4-0.8,1.9-0.8,2.6-1c0.1,0,0.2,0,0.2-0.1C63.1,199.6,63.9,200.3,63.4,201.5z"/>
		<path class="st0" d="M74.2,195.6c-1.2-3.2-3.9-5.6-6.9-7.1c-1.1-0.5-2-0.8-3.2-0.8c-0.9,0-1.2,1.4-0.5,1.9
			c1.2,0.8,2.6,1.2,3.9,1.9c1.2,0.7,2.2,1.8,3.1,2.8c1.8,2.3,2.4,5.2,2,8c-0.4,2.9-1.7,6.4-4.1,8.2c-1.4,1.1-3.8,1.1-5.5,1.2
			c-1.9,0.1-3.9,0.2-5.8,0c-6-0.6-10.5-5.6-10.1-11.7c0.4-6.5,5.9-11,11.9-12.4c0.3-0.1,0.3-0.5-0.1-0.5c-7,0.5-12.5,5.2-13.6,12.2
			c-1.1,6.7,3.7,12.4,10,14c1.8,0.5,3.6,0.4,5.4,0.5c2.3,0,4.7,0,7-0.6c3.6-0.9,5.4-4.6,6.5-7.8C75.4,202.3,75.5,198.9,74.2,195.6z"
			/>
		<path class="st0" d="M54.8,168.4c-0.9-5.8-2.4-11.6-3.4-17.4c-0.1-0.7-1.1-0.5-1.1,0.2c0.7,5.9,2.1,11.7,2.8,17.5
			c0.4,3,0.6,5.9,0.8,8.9c0.2,2.9,0.2,6,0.9,8.8c0.3,1.3,2.1,1.1,2.1-0.3c-0.1-2.9-0.6-5.8-0.9-8.7
			C55.7,174.3,55.3,171.3,54.8,168.4z"/>
		<path class="st0" d="M44.3,202.7c-2.1,0.8-4.3,0.9-6.6,1.2c-1.7,0.2-3.5,1.2-5.1,1.8c-1.9,0.7-3.6,1.5-5.5,2.1
			c-3.7,1.1-7.4,2.6-11.3,3.4c-3.1,0.7-6.4,2.3-9.6,1.8c-0.5-0.1-0.6,0.6-0.2,0.8c3,1.2,6.2-0.1,9.2-0.7c4-0.9,8-2,11.9-3.1
			c1-0.3,2-0.5,3-0.7c1-0.2,2-0.9,3-1.2c1.8-0.7,3.8-1.6,5.7-1.8c1.8-0.2,6.4,0.1,7.1-2.1C46,203.2,45.2,202.4,44.3,202.7z"/>
		<path class="st0" d="M70.8,230.8c-0.6-3.4-1.6-6.5-2.7-9.8c-0.8-2.6-0.5-5.4-2.3-7.6c-0.8-1-2.5,0-1.9,1.2
			c1.2,2.3,1.4,4.9,2.3,7.3c1.2,3.2,2.2,6.4,2.9,9.8c1.4,6.8,2.8,13.6,4,20.4c0.1,0.6,1.1,0.5,1-0.2
			C73.5,244.8,72.1,237.8,70.8,230.8z"/>
		<path class="st0" d="M112.7,187.6c-3.3,0.4-6.3,1.7-9.4,2.7c-3.4,1.1-6.9,1.6-10.3,2.4c-3.3,0.7-6.5,1.4-9.8,1.9
			c-3.1,0.5-6.1,0.9-9.1,1.9c-1.6,0.5-0.5,3,1,2.4c2.8-1.1,5.9-1.5,8.9-2.1c3.3-0.6,6.5-1.6,9.8-2.4c3-0.8,6-1.5,9-2.4
			c3.4-1.1,6.5-2.9,10.1-3.5C113.3,188.3,113.1,187.6,112.7,187.6z"/>
	</g>
	<path class="st0" d="M51.6,161c-2,3.2-4.1,6.2-6.3,9.3c-0.4,0.6,0.4,1.2,0.9,0.7c2.3-3,4.2-6.2,6.1-9.4
		C52.6,161,51.9,160.5,51.6,161z"/>
	<path class="st0" d="M54.5,166.4c-0.2,0-0.3,0.1-0.4,0.1c-0.1,0,0,0.2,0,0.2c0.5,0,0.1,0.2-0.2,0.7c-0.5,0.8-1.3,1.4-1.9,2.1
		c-1.2,1.1-2.3,2.2-3.3,3.5c-2.8,3.6-5.5,7.3-8,11.3c-0.3,0.5,0.4,1.1,0.7,0.5c2.5-3.6,5.2-7.1,7.8-10.7c1.1-1.4,2.1-2.7,3.4-4
		c0.9-1,1.9-2.1,2.2-3.5C54.8,166.4,54.6,166.4,54.5,166.4z"/>
	<path class="st0" d="M54.1,173.6c-3.9,4.6-8.2,9-11.7,13.9c-0.6,0.9,0.7,1.8,1.3,1c3.7-4.8,7.8-9.3,11.7-13.9
		C56,173.7,54.7,172.8,54.1,173.6z"/>
	<path class="st0" d="M55.5,179.4c-1.8,1.3-2.9,3.2-4.2,5c-1.5,2.1-3.2,4.1-5.1,5.9c-0.6,0.5,0.1,1.4,0.7,1c1.9-1.4,3.4-3.2,4.9-5.1
		c1.4-1.9,2.6-4.1,4.5-5.5C57.2,180,56.3,178.8,55.5,179.4z"/>
	<path class="st0" d="M53.9,186.1c-0.3,0.9-1.1,1.5-1.8,2c-0.4,0.4,0,1.1,0.5,0.8c1-0.6,2-1.2,2.5-2.4
		C55.5,185.8,54.2,185.3,53.9,186.1z"/>
	<path class="st0" d="M11.2,213.1c-1.1,1.5-2.5,2.8-3.5,4.4c-0.4,0.6,0.4,1.1,0.9,0.6c1.3-1.3,2.6-2.7,3.8-4.2
		C12.9,213.3,11.8,212.4,11.2,213.1z"/>
	<path class="st0" d="M18.5,211.2c-1.6,2.1-3.2,4.2-4.7,6.4c-0.4,0.6,0.4,1.2,0.9,0.7c1.7-2,3.2-4.2,4.8-6.3
		C20,211.3,19,210.6,18.5,211.2z"/>
	<path class="st0" d="M23.9,209.5c-1.6,2.7-3.2,5.5-4.4,8.4c-0.2,0.6,0.6,0.9,0.9,0.4c1.5-2.7,3-5.3,4.6-8
		C25.4,209.6,24.3,208.8,23.9,209.5z"/>
	<path class="st0" d="M26.7,210.5c0.3,3.5-3.1,6.5-4.1,9.7c-0.2,0.7,0.8,1.1,1.1,0.4c1.4-3.4,4.8-6.4,4.4-10.3
		C27.9,209.5,26.6,209.7,26.7,210.5z"/>
	<path class="st0" d="M33.1,207.9c-2.2,3.9-4.1,8-5.8,12.1c-0.3,0.7,0.8,1.2,1.1,0.5c1.9-4.1,3.7-8.2,5.8-12.1
		C34.5,207.7,33.4,207.2,33.1,207.9z"/>
	<path class="st0" d="M39.1,205.1c-1.6,5.4-4.2,10.5-6.6,15.6c-0.3,0.7,0.7,1,1,0.4c2.8-5,5.3-10,6.9-15.5
		C40.8,204.8,39.4,204.2,39.1,205.1z"/>
	<path class="st0" d="M44.2,205c-0.6,3.7-2.1,7.2-3,10.8c-0.2,0.6,0.9,0.9,1.1,0.3c1.1-3.7,2.8-7.1,3.4-11
		C45.8,204.2,44.3,204.1,44.2,205z"/>
	<path class="st0" d="M58.7,212.6c-1.9,2.5-4.4,4.3-6.5,6.7c-0.4,0.5,0.4,1.2,0.8,0.8c2.3-2.2,4.8-4.1,6.8-6.6
		C60.3,212.7,59.2,211.9,58.7,212.6z"/>
	<path class="st0" d="M61.9,214.6c-4.4,5.2-9.4,10-13.4,15.5c-0.4,0.6,0.5,1.3,0.9,0.7c4.2-5.3,9-10.3,13.3-15.6
		C63.2,214.7,62.4,214.1,61.9,214.6z"/>
	<path class="st0" d="M65.9,215.9c-4.4,6.1-9.8,11.4-14,17.5c-0.3,0.5,0.3,1.2,0.7,0.7c5.3-5.3,10-11.4,14.1-17.6
		C67.1,216,66.3,215.3,65.9,215.9z"/>
	<path class="st0" d="M67.7,222.4c-1.9,5.2-6.5,8.8-9.4,13.4c-0.4,0.7,0.5,1.4,1,0.7c3.2-4.5,7.6-8.4,9.4-13.8
		C68.8,222.1,67.9,221.8,67.7,222.4z"/>
	<path class="st0" d="M66.1,232.5c-0.8,1.1-1.6,2.1-2.3,3.2c-0.6,0.9,0.6,1.8,1.3,1c0.9-1,1.7-2.1,2.5-3.1
		C68.3,232.7,66.8,231.6,66.1,232.5z"/>
	<path class="st0" d="M78.8,199.2c-2.1,2.9-4,6-5.3,9.3c-0.2,0.4,0.5,0.7,0.6,0.3c1.4-3.3,3.1-6.3,5.2-9.2
		C79.5,199.2,79,198.8,78.8,199.2z"/>
	<path class="st0" d="M84.6,195.7c-2.6,3.5-4.2,7.6-6.4,11.3c-0.4,0.8,0.6,1.6,1.1,0.9c2.4-3.6,3.9-7.7,6.4-11.3
		C86.3,195.8,85.1,194.9,84.6,195.7z"/>
	<path class="st0" d="M89.7,193.5c-1.8,6.5-6,11.8-8.5,18c-0.3,0.7,0.8,1.1,1.1,0.4c2.6-6.1,6.7-11.7,8.1-18.3
		C90.4,193.3,89.8,193.1,89.7,193.5z"/>
	<path class="st0" d="M96.3,192.3c-2.8,5.8-6.2,11.5-8.2,17.7c-0.2,0.7,0.7,1.1,1,0.4c2.9-5.8,5.7-11.7,8.5-17.6
		C97.9,192,96.7,191.5,96.3,192.3z"/>
	<path class="st0" d="M101.6,193.5c-2.5,4.9-5.4,9.6-7.2,14.8c-0.2,0.6,0.6,0.9,0.9,0.4c2.5-4.9,5.1-9.7,7.5-14.6
		C103.3,193.2,102,192.6,101.6,193.5z"/>
</g>
<g>
	<path class="st0" d="M219.6,208.1c9-2,15-13.2,12.3-22c-0.2-0.8-1.1-1.1-1.8-1.1c0.2-4.8-2.5-8.5-6.5-11.1c-4-2.7-8.5-3-13.1-1.9
		c-9.9,2.5-15.2,12.7-12.9,22.3C200.1,204.1,209.7,210.3,219.6,208.1z M201.6,194.7c-2.8-7.6,0.6-15.4,7.8-18.8
		c7.4-3.5,18.6,0.3,19.2,9.3c0,0.2,0.1,0.4,0.3,0.5c-0.1,0.2-0.2,0.4-0.2,0.6c-0.4,3.4-0.1,6.6-1.3,9.9c-1.2,3.5-3.8,6.3-7.2,7.7
		C212.3,207.1,204.3,202,201.6,194.7z"/>
	<path class="st0" d="M215,193.1c0.8-0.1,1.4-0.8,1.4-1.6c0.3,0.3,0.7,0.4,1.2,0.2c0.6-0.2,1-1,0.7-1.6c-0.7-1.5-1.8-2.9-3.5-3.2
		c-1.3-0.3-2.6,0.4-3.5,1.3c-0.9,1-1.1,2.4-0.4,3.6C211.6,193.1,213.6,193.3,215,193.1z M214.6,189.6
		C214.6,189.6,214.6,189.6,214.6,189.6c0.1,0.1,0.2,0.1,0.2,0.1c0,0,0.2,0.1,0.3,0.2c0.1,0,0.1,0.1,0.2,0.2l0,0
		c-0.2-0.1-0.4-0.1-0.6-0.1c-0.3,0-0.5,0-0.8,0c-0.1,0-0.2,0-0.2,0c-0.1,0-0.1,0-0.2,0c0,0,0-0.1,0.1-0.1l0,0c0,0,0.1,0,0.1-0.1
		c0,0,0.1-0.1,0.2-0.1c0.1,0,0.2-0.1,0.2-0.1c0.1,0,0.2,0,0.2,0l0,0l0,0C214.4,189.6,214.5,189.6,214.6,189.6z"/>
	<g>
		<path class="st0" d="M248.8,172.5c3.5-1.4,6.8-3.9,8.6-7.3c1.6-3.1,1.6-7.4-1.2-9.7c-1.2-1.1-3,0.7-2.1,2
			c5.3,7.1-5.9,13.4-11.7,14c-4.5,0.4-8.9-1.3-13.3-1.9c-2.5-0.3-5.1-1.9-7.3,0c-0.4,0.4,0,1.2,0.5,0.9c1.7-0.9,3.7,0.2,5.2,0.9
			c2.1,1,4.8,1.2,7.1,1.7C239.4,174.1,244,174.4,248.8,172.5z"/>
		<path class="st0" d="M243.2,197.3c2.4-1,4.9-1.8,7.2-3c4.3-2.2,8-5.7,10.9-9.6c2.9-4,3.4-9.8,2.6-14.5c-0.9-5.3-3.8-10-6.7-14.5
			c-0.7-1.2-2.3,0.1-1.7,1.2c4.8,8.2,9,19.1,2.2,27.4c-2.8,3.4-6.5,6.3-10.6,7.9c-2.1,0.8-4.2,1.6-6.3,2.4c-1.7,0.7-3.9,1.6-4.8,3.3
			c-0.5,0.9,0.4,2.1,1.4,1.9C239.4,199.7,241.3,198.1,243.2,197.3z"/>
	</g>
	<g>
		<path class="st0" d="M180.4,208.2c-3.5,1.4-6.8,3.9-8.6,7.3c-1.6,3.1-1.6,7.4,1.2,9.7c1.2,1.1,3-0.7,2.1-2
			c-5.3-7.1,5.9-13.4,11.7-14c4.5-0.4,8.9,1.3,13.3,1.9c2.5,0.3,5.1,1.9,7.3,0c0.4-0.4,0-1.2-0.5-0.9c-1.7,0.9-3.7-0.2-5.2-0.9
			c-2.1-1-4.8-1.2-7.1-1.7C189.8,206.7,185.1,206.3,180.4,208.2z"/>
		<path class="st0" d="M186,183.4c-2.4,1-4.9,1.8-7.3,3c-4.3,2.2-8,5.7-10.9,9.6c-2.9,4-3.4,9.8-2.6,14.5c0.9,5.3,3.8,10,6.7,14.5
			c0.7,1.2,2.3-0.1,1.7-1.2c-4.8-8.2-9-19.1-2.2-27.4c2.8-3.4,6.5-6.3,10.6-7.9c2.1-0.8,4.2-1.6,6.3-2.4c1.7-0.7,3.9-1.6,4.8-3.3
			c0.5-0.9-0.4-2.1-1.4-1.9C189.7,181.1,187.8,182.6,186,183.4z"/>
	</g>
	<g>
		<path class="st0" d="M233.6,223.9c1.4,3.5,3.9,6.8,7.3,8.6c3.1,1.6,7.4,1.6,9.7-1.2c1.1-1.2-0.7-3-2-2.1
			c-7.1,5.3-13.4-5.9-14-11.7c-0.4-4.5,1.3-8.9,1.9-13.3c0.3-2.5,1.9-5.1,0-7.3c-0.4-0.4-1.2,0-0.9,0.5c0.9,1.7-0.2,3.7-0.9,5.2
			c-1,2.1-1.2,4.8-1.7,7.1C232.1,214.5,231.7,219.1,233.6,223.9z"/>
		<path class="st0" d="M208.8,218.3c1,2.4,1.8,4.9,3,7.3c2.2,4.3,5.7,8,9.6,10.9c4,2.9,9.8,3.4,14.5,2.6c5.3-0.9,10-3.8,14.5-6.7
			c1.2-0.7-0.1-2.3-1.2-1.7c-8.2,4.8-19.1,9-27.4,2.2c-3.4-2.8-6.3-6.5-7.9-10.6c-0.8-2.1-1.6-4.2-2.4-6.3c-0.7-1.7-1.6-3.9-3.3-4.8
			c-0.9-0.5-2.1,0.4-1.9,1.4C206.5,214.5,208,216.4,208.8,218.3z"/>
	</g>
	<g>
		<path class="st0" d="M195.5,156.8c-1.4-3.5-3.9-6.8-7.3-8.6c-3.1-1.6-7.4-1.6-9.7,1.2c-1.1,1.2,0.7,3,2,2.1
			c7.1-5.3,13.4,5.9,14,11.7c0.4,4.5-1.3,8.9-1.9,13.3c-0.3,2.5-1.9,5.1,0,7.3c0.4,0.4,1.2,0,0.9-0.5c-0.9-1.7,0.2-3.7,0.9-5.2
			c1-2.1,1.2-4.8,1.7-7.1C197.1,166.2,197.5,161.6,195.5,156.8z"/>
		<path class="st0" d="M220.3,162.4c-1-2.4-1.8-4.9-3-7.2c-2.2-4.3-5.7-8-9.5-10.9c-4-2.9-9.8-3.4-14.5-2.6
			c-5.3,0.9-10,3.8-14.5,6.7c-1.2,0.7,0.1,2.3,1.2,1.7c8.2-4.8,19.1-9,27.4-2.2c3.4,2.8,6.3,6.5,7.9,10.6c0.8,2.1,1.6,4.2,2.4,6.3
			c0.7,1.7,1.6,3.9,3.3,4.8c0.9,0.5,2.1-0.4,1.9-1.4C222.7,166.2,221.1,164.3,220.3,162.4z"/>
	</g>
	<path class="st0" d="M250.2,178.2c3.1-1.4,5.7-4,7.6-6.7c1.8-2.6,4-6.5,3.2-9.8c-0.4-1.6-2.7-1.8-3,0c-0.5,2.9-1.1,5.3-2.8,7.9
		c-1.6,2.4-3.7,4.6-6.1,6.1c-2.6,1.6-6.5,1.8-9.5,1.9c-3.5,0.1-7.1-0.9-10.3-2.5c-0.5-0.3-1,0.6-0.5,0.9
		C235,179.6,243.3,181.3,250.2,178.2z"/>
	<path class="st0" d="M199.7,177.6c3.7-6.3,5.6-15.6,1.5-22.3c-1.9-3.1-4.6-5.2-7.9-6.7c-1.6-0.8-3.4-1.3-5.1-1.8
		c-1.9-0.5-4-1.2-6-1c-1.2,0.1-1.3,1.8-0.3,2.2c2.7,1.3,6,1.4,8.8,2.4c3.1,1.1,5.9,2.8,7.9,5.4c4.4,5.7,2.6,15,0.2,21.2
		C198.5,177.6,199.4,178.1,199.7,177.6z"/>
	<path class="st0" d="M173.1,220.5c-1.6-6,0.3-13.8,6.3-16.8c6-3,13.7-2.3,20.1-1.1c1.1,0.2,1.2-1.4,0.2-1.6
		c-7.6-1.9-16.3-2.4-23.3,1.6c-6.1,3.5-9.6,12.7-6.4,19.1C170.9,223.8,173.6,222.6,173.1,220.5z"/>
	<path class="st0" d="M245,231.7c-6.3-0.4-12.2-3.2-15.9-8.5c-3.4-4.9-4.6-12.4-0.9-17.4c0.5-0.6-0.5-1.4-1-0.7
		c-4,5.2-3.2,13.3-0.3,18.8c1.7,3.2,4.4,5.7,7.4,7.6c2.9,1.9,7.1,3.5,10.6,2.8C246.4,234.1,246.6,231.8,245,231.7z"/>
	<path class="st0" d="M197.9,153.4c-2.3-0.4-4.6-0.4-6.9,0.3c-0.9,0.3-0.4,1.5,0.4,1.5c2.1,0,4.2-0.2,6.3,0.2
		C198.9,155.6,199.2,153.6,197.9,153.4z"/>
	<path class="st0" d="M202.7,158c-2.2,0.3-4.3-0.2-6.5-0.4c-0.9-0.1-1.3,1.2-0.4,1.5c2.3,0.7,4.7,1,7.1,0.7
		C204,159.6,203.8,157.8,202.7,158z"/>
	<path class="st0" d="M202.4,162.3c-2.5,0.2-5-0.9-7.4-0.2c-0.5,0.1-0.4,0.9,0.1,0.9c2.5,0.1,5,0.7,7.4,0.4
		C203.3,163.3,203.1,162.3,202.4,162.3z"/>
	<path class="st0" d="M200.8,166.8c-1.4,0.5-2.9,0-4.4,0.1c-0.5,0-0.4,0.7,0,0.8c1.7,0.4,3.2,0.9,4.9,0.2
		C202.1,167.7,201.6,166.5,200.8,166.8z"/>
	<path class="st0" d="M198.1,205c-1.4-2.1-2.8-4.1-4.3-6.1c-0.5-0.7-1.5,0.1-1,0.8c1.5,2,2.9,4.1,4.5,6
		C197.7,206.2,198.4,205.5,198.1,205z"/>
	<path class="st0" d="M193.2,207.6c-1.5-2.5-3.5-4.4-4.7-7.1c-0.4-0.7-1.5-0.3-1.2,0.5c1.2,2.7,3.2,4.9,5,7.2
		C192.9,208.8,193.6,208.1,193.2,207.6z"/>
	<path class="st0" d="M185.6,206.9c-1.1-1.5-2.8-2.6-3.6-4.3c-0.2-0.5-1-0.2-0.8,0.3c0.9,1.9,2.5,3,3.9,4.4
		C185.4,207.6,185.8,207.1,185.6,206.9z"/>
	<path class="st0" d="M181.5,207.8c-0.9-1.4-1.7-2.8-2.8-4.1c-0.5-0.6-1.4,0.2-1,0.7c1.1,1.3,1.9,2.8,3.2,4
		C181.3,208.8,181.7,208.2,181.5,207.8z"/>
	<path class="st0" d="M178.1,209.4c-0.2-0.6-0.4-1.1-0.6-1.7c-0.4-1.2-2.3-0.4-1.8,0.7c0.3,0.5,0.5,1.1,0.8,1.6
		C176.9,211.1,178.5,210.4,178.1,209.4z"/>
	<path class="st0" d="M233.2,207.1c-0.4-0.7-1.1-0.4-1.6-0.2c-0.2,0.1-0.1,0.3,0.1,0.3c0.4-0.1,0.9-0.4,1.1,0
		C232.9,207.5,233.3,207.4,233.2,207.1z"/>
	<path class="st0" d="M232.8,211c-2.5,0.4-5,0.7-7.4,1.2c-0.9,0.2-0.7,1.4,0.2,1.4c2.5-0.2,5-0.5,7.4-0.9
		C234.1,212.5,233.9,210.8,232.8,211z"/>
	<path class="st0" d="M232.6,216.3c-2.4-0.4-5.1-0.2-7.4,0.5c-0.7,0.2-0.5,1.2,0.2,1.3c2.3,0.3,4.7-0.5,7.1-0.1
		C233.5,218.2,233.7,216.5,232.6,216.3z"/>
	<path class="st0" d="M231.5,220.7c-1.7,0.1-3.7-0.3-5.3,0.4c-0.7,0.3-0.4,1.1,0.2,1.2c0.9,0.2,1.7,0.1,2.6,0.1c0.9,0,1.8,0,2.7-0.1
		C232.8,222.2,232.5,220.6,231.5,220.7z"/>
	<path class="st0" d="M234.2,224.8c-0.3-0.5-0.9-0.2-1,0.2l0,0c0,0-0.1,0.1-0.1,0.1c-0.2,0.1-0.4,0.2-0.5,0.3
		c-0.4,0.2-0.8,0.4-1.1,0.6c-0.5,0.4-0.2,1.3,0.5,1.2C232.8,227.1,235,226.1,234.2,224.8z"/>
	<path class="st0" d="M254.2,171.2c-0.5-1.8-1.6-3.2-2.3-4.9c-0.5-1.1-2.2-0.4-1.7,0.7c0.8,1.8,1.9,3.2,3,4.8
		C253.5,172.4,254.4,171.8,254.2,171.2z"/>
	<path class="st0" d="M250.7,173.9c-0.5-1.4-1.5-2.4-2-3.7c-0.4-0.9-1.8-0.3-1.4,0.5c0.6,1.3,1.6,2.4,2.3,3.6
		C250,175,250.9,174.6,250.7,173.9z"/>
	<path class="st0" d="M246.8,175.4c-0.3-1.1-0.7-2.1-0.6-3.2c0-1.1-1.6-1.3-1.6-0.2c-0.1,1.5,0.4,2.7,1,3.9
		C246,176.7,247.1,176.3,246.8,175.4z"/>
	<path class="st0" d="M224.9,191.5c0-1.3-1.8-1.6-2-0.3c-0.6,3.4-2.3,5.7-5.4,7.3c-2.6,1.2-4.9,1.4-7.2-0.3c-3.2-2.3-7.3-9-3.5-12.4
		c0.4-0.4-0.1-1.1-0.6-0.7c-4.8,4-0.1,11.1,3.4,14.1C215,204,224.7,198.2,224.9,191.5z"/>
	<path class="st0" d="M219.7,202.9c0.5-0.4,0.2-1.2-0.5-1.2c-2.7,0.3-4.9,1.1-7.7,0.2c-2.8-0.8-5-3-6-5.7c-0.2-0.5-0.9-0.2-0.8,0.3
		c0.8,3,2.9,5.2,5.8,6.5C213.1,204.2,217.2,204.6,219.7,202.9z"/>
</g>
<g>
	<path class="st0" d="M127.4,245.5c10.2-26.4,25-51.2,32.1-78.7c0.2-0.6-0.7-0.9-0.9-0.3c-8.9,27.1-24.8,51.3-33.9,78.2
		C124.1,246.4,126.7,247.1,127.4,245.5z"/>
	<path class="st0" d="M106.3,232.7c4.3-6.1,9-11.8,13.8-17.6c4.7-5.8,8.9-11.9,13.8-17.6c5-5.9,10-12,14.9-18c2.1-2.5,4.2-5,5.9-7.8
		c1.6-2.7,3.2-5.8,6.1-7.2c0.3-0.2,0.1-0.7-0.2-0.6c-2.3,0.8-3.9,2.7-5.3,4.6c-2,2.7-3.9,5.4-6.1,8c-5.4,6.3-10.8,12.6-16.3,18.9
		c-5.1,5.8-9.6,12-14.5,17.9c-4.9,5.9-10.1,11.6-14,18.2C103.4,232.8,105.4,234,106.3,232.7z"/>
	<path class="st0" d="M105.3,247.9c6.5,1.5,13.1-1.7,19.6-1.5c1,0,1-1.4,0-1.5c-6.5-0.7-12.9,1.2-19.4,1.1
		C104.5,246,104.2,247.7,105.3,247.9z"/>
	<path class="st0" d="M107.2,246.7c-0.2-4.1-0.7-8.3-1.6-12.4c-0.3-1.4-2.4-0.9-2.2,0.5c0.5,3.9,1.4,7.8,1.6,11.8
		C105.1,248.1,107.3,248.2,107.2,246.7z"/>
	<path class="st0" d="M109.2,248.8c2.9-5.5,6.6-10.6,9.2-16.3c2.9-6.4,6.8-12.5,10.6-18.3c3.9-5.8,7.1-12,10.8-17.8
		c3.7-5.8,6.2-12.6,10.6-18c0,0,0,0,0,0c-4.1,5.1-7.2,10.7-10.8,16.1c-4.1,5.9-7.8,12.1-11.9,18c-4.1,5.8-7.8,11.8-11.1,18
		c-1.6,3-3.2,5.8-5,8.7c-1.8,2.8-3.4,5.6-4.1,8.8C107.2,249.1,108.7,249.8,109.2,248.8z"/>
	<path class="st0" d="M137.2,201.3c-0.1-2.6,0.7-5.1,0.7-7.6c0-0.7-1.1-0.9-1.2-0.2c-0.5,2.6-1.1,5.1-1,7.8
		C135.7,202.3,137.2,202.3,137.2,201.3z"/>
	<path class="st0" d="M131.5,208c0.2-2.3-0.3-4.7-0.5-7.1c0-0.6-1-0.9-1.1-0.2c-0.5,2.4,0.2,4.8,0,7.2
		C129.9,209,131.5,209,131.5,208z"/>
	<path class="st0" d="M125.7,214.4c0,0,0-0.1,0-0.1c0.4,0.1,1.2-6.2,1.1-6.8c-0.1-0.6-1-0.4-1.1,0.1c-0.2,1.7-0.4,3.4-0.5,5.1
		C125.1,212.7,125.1,215,125.7,214.4z"/>
	<path class="st0" d="M122.1,222.5c0.3-2.7-0.2-5.4,0.5-8.1c0.2-0.7-0.9-1-1.1-0.3c-0.8,2.7-0.3,5.6-0.6,8.3
		C120.8,223.2,122,223.2,122.1,222.5z"/>
	<path class="st0" d="M117.9,229.1c0.5-3.7,0.3-7.3,0.3-11c0-0.7-0.9-0.7-1,0c-0.3,3.7-0.1,7.4-0.5,11
		C116.5,229.9,117.8,229.9,117.9,229.1z"/>
	<path class="st0" d="M114,235.2c0.1,0,0.2,0,0.1-0.1c-1.5-1.3-0.9-5.3-0.8-7c0-2,0.3-4,0-6c-0.1-0.7-1.1-0.4-1,0.2
		c0.3,2.5,0,5.1,0.1,7.6C112.4,231.4,112.5,234.4,114,235.2z"/>
	<path class="st0" d="M109.9,240.4c1.1-3.4,0.2-6.5-0.3-9.9c0-0.3-0.4-0.2-0.4,0.1c0.4,3.3,1.2,6.5,0.5,9.8
		C109.7,240.5,109.8,240.5,109.9,240.4z"/>
	<path class="st0" d="M137.2,207.8c3.4-1.7,6.5-3.9,10.1-4.8c0.7-0.2,0.5-1.3-0.3-1.1c-3.9,0.8-7,3-10.3,5.1
		C136.3,207.4,136.6,208.1,137.2,207.8z"/>
	<path class="st0" d="M129.5,216.1c3.7-1.9,7.6-3.6,11.3-5.7c0.1-0.1,0-0.2-0.1-0.2c-3.7,1.9-7.7,3.4-11.4,5.4
		C129,215.9,129.2,216.3,129.5,216.1z"/>
	<path class="st0" d="M124,224.3c4.2-2.1,8.5-3.7,12.9-5.1c0.3-0.1,0.2-0.5-0.1-0.4c-4.6,0.7-9.1,2.6-13.2,4.9
		C123.2,223.9,123.6,224.5,124,224.3z"/>
	<path class="st0" d="M119,228.6c5-1.8,9.7-4.4,15-5.4c0.5-0.1,0.4-0.9-0.2-0.8c-5.4,0.8-10.2,3.2-15.1,5.4
		C118.2,228,118.5,228.8,119,228.6z"/>
	<path class="st0" d="M117.8,231.4c5.1-2.1,10-4.8,15.4-5.9c0.1,0,0.1-0.2,0-0.2c-5.6,0.7-10.6,3.2-15.7,5.4
		C117,230.9,117.3,231.5,117.8,231.4z"/>
	<path class="st0" d="M118.9,232.5c3.9-1.3,7.9-2.3,12-3.1c0.7-0.1,0.4-1.2-0.2-1.1c-4.1,0.7-8.1,1.6-12,2.9
		C117.8,231.5,118.1,232.7,118.9,232.5z"/>
	<path class="st0" d="M116.9,239.3c4.7-1.6,9.5-2.9,14.3-4c1-0.2,0.6-1.8-0.4-1.6c-4.9,1.1-9.7,2.4-14.3,4.5
		C115.9,238.4,116.3,239.4,116.9,239.3z"/>
</g>
<g>
	<path class="st0" d="M140.3,77.3c-4.5,2.4-9.4,3.6-14.3,5c-5.5,1.5-10.8,3.4-16.1,5.3c-5,1.8-10.1,3.6-15,5.8
		c-5,2.3-10.4,3.7-15.4,6c-10,4.6-20.5,8.3-30.6,12.6c-5.1,2.1-10.1,4.6-15,6.9c-4.5,2.1-8.8,5-13.6,6.5c-0.1,0,0,0.1,0,0.2
		c4.6,0.2,9.3-2.8,13.5-4.5c5.1-2,10.2-4.2,15.2-6.2c10.5-4.3,21.2-7.8,31.6-12.5c5-2.3,10.3-3.7,15.4-5.9c4.9-2.1,9.9-4.1,15-5.8
		c5.4-1.7,10.6-3.8,16.1-5.3c5-1.4,10.2-2.5,14.5-5.5C142.9,78.8,141.7,76.5,140.3,77.3z"/>
	<path class="st0" d="M146.7,130c-2.1-0.4-4.3-0.1-6.5-0.1c-2.5,0-5-0.2-7.5-0.5c-5.2-0.5-10.5-0.1-15.7-0.3c-11-0.3-22-0.8-33-0.9
		c-10.8-0.1-21.6-0.4-32.4-1.2c-5.4-0.4-10.8-0.9-16.2-1.2c-5-0.3-10.1-0.7-15-0.1c-0.7,0.1-0.5,1.1,0.1,1
		c5.1-0.3,10.4,0.3,15.6,0.7c5.4,0.4,10.8,1.1,16.1,1.6c10.7,1.1,21.4,1.6,32.2,1.9c10.7,0.3,21.4,0.7,32.1,1
		c5.5,0.2,11.1-0.1,16.6,0.4c2.2,0.2,4.5,0.4,6.7,0.4c2.4,0.1,5,0.3,7.3-0.6C148,131.8,147.8,130.2,146.7,130z"/>
	<path class="st0" d="M140.8,79.9c-0.1-0.3-0.2-0.5-0.2-0.9c0-0.1-0.1-0.2-0.2-0.2c-0.2,0-0.4,0-0.6,0.1c-0.1,0.1-0.1,0.3,0,0.3
		c0.2,0,0.3,0,0.4,0c0.1,0.2,0.2,0.3,0.3,0.4c0.2,0.3,0.4,0.8,0.4,1.1h0C141,80.5,140.9,80.2,140.8,79.9z"/>
	<path class="st0" d="M169,88.7c-3.5-1.9-6.9-3.7-10.6-5.1c-2.4-0.9-4.5-2.3-6.8-3.4C149,79,141.9,75,140,78.9
		c-0.8,1.7,1.8,2.8,2.6,1.2c-0.2,0.3,0.5,0.2,1.1,0.3c1,0.2,2,0.6,2.9,1.1c2,0.9,3.9,1.9,5.8,3c2.2,1.2,4.4,2.2,6.8,3.2
		c1.7,0.7,3.3,1.4,4.8,2.4c1.2,0.8,2.5,1.6,3.9,1.8C169.9,92,170.5,89.6,169,88.7z"/>
	<path class="st0" d="M169.2,112.6c-2.1,1.1-3.8,2.9-5.5,4.5c-2.1,1.8-4.2,3.5-6.4,5.3c-3.8,3.3-7.2,7.1-11.6,9.5
		c-0.9,0.5-0.1,1.8,0.8,1.4c4.6-1.8,8.3-4.8,12.2-7.8c2.1-1.7,4.3-3.3,6.4-5c2-1.7,4.4-3.3,5.9-5.5
		C171.7,113.9,170.7,111.8,169.2,112.6z"/>
	<path class="st0" d="M173.1,111c-1.1-0.9-2.1-0.9-2.9-2.1c-0.9-1.3-1.4-3-1.6-4.6c-0.4-2.3-0.3-5,0-7.3c0.3-1.7-0.3-4.2,1.1-5.5
		c0.6-0.5,0-1.5-0.7-1c-1.8,1.2-1.9,3.4-2.1,5.4c-0.3,3-0.8,6-0.5,9c0.2,2,0.8,4.2,1.9,6c0.9,1.4,3,3.5,4.8,2
		C173.6,112.4,173.7,111.5,173.1,111z"/>
	<path class="st0" d="M231.7,81.7c-2.5,0.5-4.9,0.8-7.4,0.9c-2.4,0.2-4.8,0.9-7.2,1.2c-5.6,0.6-11.1,1.2-16.7,1.8
		c-5.2,0.5-10.4,0.5-15.6,1.4c-2.5,0.4-4.9,1.1-7.3,1.4c-2.5,0.3-4.8,0.4-7.1,1.4c-0.7,0.3-0.3,1.4,0.4,1.2c2.5-0.9,5-0.8,7.6-0.9
		c2.5-0.2,4.9-0.7,7.4-1c5.2-0.6,10.4-0.5,15.6-0.9c5.6-0.4,11.2-1.1,16.8-1.6c2.4-0.2,4.8-1,7.1-1.1c2.5-0.2,4.8-0.3,7.1-1.6
		C233.3,83.2,232.7,81.5,231.7,81.7z"/>
	<path class="st0" d="M233.7,103.6c-2.4-0.5-5.1,0.2-7.5,0.5c-2.7,0.4-5.3,0.7-7.9,1.2c-5.5,0.8-11,1.4-16.5,2.1
		c-5.3,0.7-10.6,1.5-15.8,2.2c-5,0.7-9.7,1.5-14,4c-0.1,0,0,0.2,0.1,0.2c5-0.9,10.1-1.4,15.1-1.7c5-0.4,10-1.1,15-1.7
		c5.2-0.7,10.4-1.2,15.6-2c2.6-0.4,5.3-0.8,7.9-1.2c2.7-0.4,5.8-0.3,8.3-1.4C235.1,105.5,235,103.9,233.7,103.6z"/>
	<path class="st0" d="M236.7,103.8c-0.3-1.3-1.2-2.3-1.9-3.5c-0.7-1.5-1.1-3.1-1.3-4.7c-0.7-4.1-0.6-8.3-1.1-12.4
		c-0.1-0.8-1.3-0.7-1.2,0.1c0.3,4.4,0.3,8.8,0.5,13.2c0.2,2.8,0.9,6.7,3.4,8.4C236,105.5,236.9,104.8,236.7,103.8z"/>
	<path class="st0" d="M232.1,82.3c-0.1,0.2-0.3,0.3-0.4,0.5c-0.1,0.2,0,0.3,0,0.5c0,0,0.1,0,0.1,0c0-0.2,0-0.3,0-0.4
		C232,82.7,232.1,82.5,232.1,82.3C232.3,82.3,232.2,82.3,232.1,82.3z"/>
	<path class="st0" d="M265,76.6c-3.5-3.4-8.1-5.5-13.1-5.8c-4.8-0.3-9.5,1.4-13.6,4c-3.4,2.2-6.9,5.1-6.7,9.4l0,0v0l0,0
		c0.1,0.7,1.1,0.9,1.4,0.2c2.7-6.6,11.3-10.6,18.1-10.8c4.2-0.1,7.8,1.9,11,4.4c3.1,2.4,4.2,6.7,4.6,10.4c0.4,3.5,0.3,7.3-1.4,10.4
		c-1.7,3.4-5.2,5.5-8.6,6.8c-6.7,2.4-15,2.6-20.2-2.9c-1.4-1.5-4.1,0.4-2.6,1.9c3,3.2,6.4,5.1,10.7,5.7c4.3,0.5,9.1-0.4,13.3-1.7
		c4-1.3,7.6-4,9.8-7.6c2.4-3.9,2.5-8.5,2.1-12.9C269.4,84,268,79.6,265,76.6z"/>
	<path class="st0" d="M259.7,87.9c-1.2-4.6-6.4-8.5-11.2-6.7c0,0,0,0,0,0c-7.1-0.3-9.5,8.2-7.8,14c1.8,6.3,9.8,7.6,14.9,4.7
		C259.7,97.6,260.8,92.2,259.7,87.9z M255.7,97.1c-3.1,3.3-9.6,2.8-12.2-0.8c-3-4.2-1.1-13.3,4.8-13.3c0.1,0.1,0.2,0.1,0.4,0.1
		c2,0.1,3.7-0.1,5.6,0.9c1.5,0.8,2.5,2.3,3.1,3.7C258.6,90.9,257.9,94.7,255.7,97.1z"/>
	<path class="st0" d="M180,88.9c0.5-0.9-0.9-1.5-1.5-0.7c-2.8,4.6-5.4,8.7-6.1,14.1c-0.4,3.2-1,9.9,3,11.1c0.7,0.2,1.2-0.7,1-1.2
		c-0.6-1.7-1.5-2.9-1.8-4.8c-0.3-1.9-0.2-3.9,0-5.9C175.2,96.9,177.7,92.9,180,88.9z"/>
	<path class="st0" d="M191.7,86.6c-2.3,3.4-3.9,7.1-4.6,11.1c-0.7,3.9-0.9,8.8,0,12.7c0.3,1.1,2.2,1.5,2.3,0.1
		c0.1-3.7-0.5-7.2-0.1-11c0.4-4.2,1.6-8.1,3.9-11.7C194,86.8,192.5,85.5,191.7,86.6z"/>
	<path class="st0" d="M202.3,88.6c0.4-1.2-1.3-1.9-1.8-0.8c-0.7,1.9-1.4,3.8-2,5.7c-0.5,1.7-1.4,3.9-1.3,5.7
		c0.2,2.3-0.5,7.3,1.8,8.8c0.5,0.4,1.4,0.2,1.5-0.6c0.2-1.2-0.4-2.2-0.6-3.3c-0.3-1.5-0.3-3.1-0.4-4.6
		C199.2,96.1,201.1,91.8,202.3,88.6z"/>
	<path class="st0" d="M215.2,85.6c0.1-0.3-0.3-0.6-0.5-0.3c-2.1,3.2-2.5,6.9-3.1,10.7c-0.3,1.9-0.1,3.9,0.1,5.8
		c0.2,2,0.4,4.3,1.4,6.1c0.4,0.7,1.7,0.4,1.8-0.4c0.2-1.8-0.5-3.4-0.9-5.1c-0.5-1.9-0.8-4.1-0.6-6.1C213.8,92.6,213.8,89,215.2,85.6
		z"/>
	<path class="st0" d="M226.8,85.4c0.3-0.9-1.2-1.3-1.5-0.5c-1.3,3.5-2.3,7.2-2.6,10.9c-0.2,3,0.1,7.6,2.8,9.6
		c0.8,0.6,2.1-0.2,1.7-1.2c-0.5-1.4-1.4-2.6-1.8-4c-0.5-1.7-0.5-3.6-0.4-5.4C225.1,91.6,225.9,88.5,226.8,85.4z"/>
	<path class="st0" d="M173.2,97.9C173.2,97.9,173.1,97.9,173.2,97.9c0.4,0.5,0.8,0.9,1.1,1.4c0.4,0.5,0.6,1.2,0.9,1.7
		c0.1,0.1,0.2,0,0.2-0.1C175.1,99.8,174.2,98.7,173.2,97.9z"/>
	<path class="st0" d="M172.7,95c-0.8-1.1-1.8-1.9-3-2.6c-0.4-0.2-0.9,0.5-0.5,0.7c0.9,0.6,1.6,1.4,2.2,2.3c0.7,1,0.7,2.2,1.2,3.2
		c0.3,0.5,1.1,0.5,1.2-0.1C174.2,97.3,173.3,96,172.7,95z"/>
	<path class="st0" d="M195.5,101.2c-1.5-2.2-3.4-4.2-5.4-6c-0.1-0.1-0.4,0.1-0.2,0.2c3.4,3.7,6,7.7,7,12.6c0.2,1.1,1.8,1,1.7-0.2
		C198.5,105.4,196.9,103.2,195.5,101.2z"/>
	<path class="st0" d="M199.6,91.9c-0.6-2.1-2.3-3.7-4-4.9c-0.6-0.5-1.3,0.4-0.8,0.9c1.4,1.3,2.5,2.8,3.4,4.5
		C198.7,93.2,199.9,92.8,199.6,91.9z"/>
	<path class="st0" d="M216.5,102.3c-0.9-1.3-2.1-2.2-3.6-2.7c-0.4-0.2-0.9,0.4-0.4,0.7c1.3,0.9,2.3,2.2,2.9,3.7c0.3,0.7,1,3.3,2.2,2
		C218.5,105,217.1,103.2,216.5,102.3z"/>
	<path class="st0" d="M223.9,93.6c-1-3.2-4.2-5.3-6.7-7.2c-0.4-0.2-0.7,0.2-0.4,0.5c1.1,1,2.2,2,3.2,3.1c1.1,1.2,1.8,2.7,2.6,4.1
		C222.9,95,224.2,94.6,223.9,93.6z"/>
	<path class="st0" d="M147.5,104.4c-9.2,1.8-18.6,2.9-27.9,4.5c-9.9,1.7-19.7,3.7-29.6,5.2c-10,1.5-20,2.9-30,4.2
		c-9.2,1.2-18.9,2.1-27.6,5.5c-0.5,0.2-0.2,0.9,0.3,0.7c9-2.8,18.9-3.6,28.3-4.7c10.1-1.2,20.1-2.5,30.1-4
		c9.6-1.4,19.1-3.4,28.7-5.1c5-0.9,9.9-1.3,14.9-2.1c2.1-0.4,4.2-0.9,6.4-1.2c2.3-0.3,4.6-0.5,6.8-1.5
		C148.7,105.6,148.5,104.2,147.5,104.4z"/>
	<path class="st0" d="M151.4,103.2c-0.5-1.4-1.4-2.6-2.1-3.9c-0.8-1.5-1.4-3.1-2.1-4.7c-1.4-3.3-3-6.5-4.3-9.8
		c-0.1-0.2-0.3-0.1-0.2,0.1c1.1,3.7,2.5,7.3,3.6,11c0.8,2.7,1.5,6.4,3.9,8.2C150.8,104.6,151.7,104,151.4,103.2z"/>
	<path class="st0" d="M167.4,100.3c-1.4,0.1-2.8,0.5-4.2,0.8c-1.8,0.4-3.7,0.5-5.5,0.8c-1.7,0.3-3.3,0.7-5,0.8
		c-1.2,0-2.3,0.1-3.4,0.7c-1.8,0.9-1.2,3.4-1,4.9c0.5,3.4,0.6,7.2,0,10.6c0,0.2,0.2,0.2,0.2,0c0.7-3,0.7-6.1,1.1-9.1
		c0.1-1.1,0-2.1,0.1-3.2c0.1-1.6,0.4-1.9,2-2.1c2.9-0.3,5.7-0.8,8.5-1.2c2.6-0.4,5.2-0.8,7.5-2.1C168.4,101,168,100.2,167.4,100.3z"
		/>
	<path class="st0" d="M148.2,122.1c-0.5,1.4-0.6,2.9-0.9,4.4c-0.3,1.7-1.2,3.2-1.4,4.8c-0.2,1.7,2.5,1.6,2.2,0.1
		c-0.2-1.4,0.3-2.8,0.2-4.3c-0.1-1.7-0.2-3.3,0.3-4.9C148.7,122,148.3,121.9,148.2,122.1z"/>
	<path class="st0" d="M41.2,121.2c-1.7,1.1-2.6,2.9-4.2,4.1c-0.7,0.6,0,1.6,0.9,1.2c1.8-1,2.6-3,4.2-4.1
		C42.9,121.9,42,120.7,41.2,121.2z"/>
	<path class="st0" d="M46.2,120.7c-1.6,1.5-2.8,3.3-3.8,5.3c-0.4,0.7,0.7,1.4,1.2,0.7c1.2-1.7,2.2-3.5,3.7-5
		C47.9,121.2,46.8,120.1,46.2,120.7z"/>
	<path class="st0" d="M51.9,120.4c-1.2,1.9-2.6,3.6-3.9,5.4c-0.5,0.7,0.4,1.4,1,0.8c1.6-1.7,3-3.5,4.2-5.6
		C53.8,120.2,52.4,119.6,51.9,120.4z"/>
	<path class="st0" d="M59.3,118.6c-1.5,1.8-3,3.7-4.4,5.7c-0.4,0.5,0.4,1.2,0.8,0.7c1.6-1.8,3.1-3.6,4.6-5.5
		C60.9,118.8,59.9,117.9,59.3,118.6z"/>
	<path class="st0" d="M64.1,119c-1.9,1.8-3.5,3.7-5,5.8c-0.5,0.6,0.4,1.4,0.9,0.8c1.7-1.9,3.3-3.8,5.1-5.5
		C65.6,119.4,64.7,118.4,64.1,119z"/>
	<path class="st0" d="M86.1,116.7c-0.5,1.6-2.5,3.2-3.6,4.4c-2.3,2.8-4.6,5.5-6.8,8.4c-0.5,0.7,0.5,1.5,1.1,0.9c2.6-2.9,5-6,7.4-9
		c0.9-1.2,2.5-2.8,2.7-4.4C86.8,116.5,86.2,116.3,86.1,116.7z"/>
	<path class="st0" d="M96.5,113.8c-3.4,4.1-6.8,8.2-9.9,12.5c-0.7,1,0.7,2.1,1.4,1.2c3.2-4.2,6.5-8.4,9.8-12.6
		C98.7,114,97.3,112.9,96.5,113.8z"/>
	<path class="st0" d="M106.2,112.7c-3.8,6.4-8.6,12.2-12.9,18.2c-0.5,0.8,0.5,1.7,1.2,0.9c4.7-6,9.4-11.9,12.9-18.6
		C107.8,112.5,106.6,112,106.2,112.7z"/>
	<path class="st0" d="M113.6,117.3c-2.4,3.9-5.1,7.6-7.9,11.1c-0.4,0.5,0.4,1.1,0.7,0.6c3-3.6,5.6-7.3,7.4-11.7
		C113.8,117.3,113.7,117.2,113.6,117.3z"/>
	<path class="st0" d="M124.2,118.3c-1.6,2.5-3.2,4.9-4.8,7.4c-0.3,0.4,0.4,0.9,0.6,0.5c1.6-2.5,3.2-5,4.8-7.4
		C125,118.4,124.4,117.9,124.2,118.3z"/>
	<path class="st0" d="M143.1,109.1c-2.6,3.5-5.2,6.7-7.4,10.4c-2.6,4.2-5.2,8.4-7.6,12.7c-0.4,0.7,0.7,1.2,1.2,0.5
		c2.5-4,4.9-7.9,7.3-11.9c2.3-3.9,5-7.5,7.2-11.4C143.9,109.1,143.4,108.7,143.1,109.1z"/>
	<path class="st0" d="M147.3,111.6c-3.7,5.7-7.2,11.5-11.1,17c-0.4,0.5,0.4,1.1,0.7,0.6C141.1,123.8,144.7,117.9,147.3,111.6
		C147.4,111.6,147.3,111.6,147.3,111.6z"/>
	<path class="st0" d="M149,80.6c-1.3,1.7-2.4,3.5-3.1,5.5c-0.2,0.5,0.5,0.8,0.7,0.3c0.8-1.9,1.9-3.7,3.2-5.3
		C150.1,80.8,149.4,80.2,149,80.6z"/>
	<path class="st0" d="M153.2,81.6c-2.8,3.8-5.9,7.5-7.6,12c-0.2,0.5,0.5,0.9,0.8,0.4c2.1-4.2,4.9-7.9,7.6-11.7
		C154.3,81.7,153.6,81.1,153.2,81.6z"/>
	<path class="st0" d="M154.3,84.4c-2.3,5-5.2,9.7-7.8,14.7c-0.2,0.5,0.5,0.9,0.8,0.5c3.3-4.5,5.8-9.6,7.8-14.7
		C155.4,84.2,154.6,83.8,154.3,84.4z"/>
	<path class="st0" d="M158.6,85.7c-2.4,4-4.4,8.3-7,12.2c-0.3,0.5,0.4,1.1,0.7,0.6c2.9-3.9,4.8-8.2,7.2-12.4
		C159.9,85.6,158.9,85.2,158.6,85.7z"/>
	<path class="st0" d="M90.7,95.9c-3.2,2.8-5.7,6.3-8.4,9.6c-0.2,0.3,0.2,0.7,0.5,0.4c2.7-3.3,5.1-6.8,8.1-9.6
		C91.1,96.1,90.8,95.8,90.7,95.9z"/>
	<path class="st0" d="M101.3,90.9c-4.9,5.4-9.5,11-13.4,17.2c-0.3,0.5,0.4,1.1,0.7,0.6c4.3-5.8,8.8-11.5,13.6-17
		C102.9,91.1,101.9,90.2,101.3,90.9z"/>
	<path class="st0" d="M111.2,88.2c-5,8.1-10.9,15.6-16,23.7c-0.4,0.6,0.4,1.2,0.8,0.7c5.5-7.9,11.3-15.6,16.2-23.9
		C112.6,88,111.6,87.6,111.2,88.2z"/>
	<path class="st0" d="M117.4,96.8c-2,3-4,6-6,9c-0.2,0.4,0.3,0.8,0.5,0.4c2.1-2.9,4.1-5.9,6.1-8.9C118.3,96.9,117.7,96.4,117.4,96.8
		z"/>
	<path class="st0" d="M177,101.8c-0.8,2-1.6,3.9-2,6c-0.2,0.8,0.9,1,1.2,0.4c1.1-1.8,1.7-3.7,2.4-5.7
		C179,101.4,177.4,100.6,177,101.8z"/>
	<path class="st0" d="M181,101.8c0.1,1.9-1.4,3.6-1.9,5.4c-0.2,0.7,0.6,1.4,1.2,0.7c1.4-1.8,2.7-4,2.5-6.3
		C182.7,100.5,181,100.7,181,101.8z"/>
	<path class="st0" d="M186,100.2c-0.3,1.8-0.9,3.4-1.7,5.1c-0.4,0.9,0.9,1.5,1.4,0.7c1-1.7,1.6-3.5,1.9-5.5
		C187.8,99.4,186.2,99.1,186,100.2z"/>
	<path class="st0" d="M200.2,98.7c-0.4,2-1.6,3.8-1.7,6c0,0.8,1.3,1,1.5,0.3c0.6-1.9,1.5-3.9,1.9-5.9
		C202.1,97.9,200.4,97.6,200.2,98.7z"/>
	<path class="st0" d="M206.2,97.4c-1.1,2.3-2.8,4.6-3.4,7.1c-0.2,0.7,0.8,1.1,1.2,0.5c0.7-0.9,1.2-2,1.8-3.1
		c0.7-1.2,1.3-2.5,1.9-3.8C208.2,97.2,206.7,96.5,206.2,97.4z"/>
	<path class="st0" d="M210.5,97.6c-0.7,1.9-1.5,3.7-2.5,5.5c-0.2,0.4,0.4,1,0.7,0.6c1.6-1.5,2.3-3.5,3-5.5
		C212.1,97.3,210.8,96.7,210.5,97.6z"/>
	<path class="st0" d="M226.3,98.2c0,0.4-0.1,0.7-0.3,1c-0.2,0.4-0.3,0.8-0.4,1.2c-0.2,0.7,0.8,0.9,1.1,0.4c0.2-0.4,0.5-0.8,0.6-1.3
		c0.2-0.5,0.2-0.9,0.1-1.4C227.3,97.3,226.3,97.4,226.3,98.2z"/>
	<path class="st0" d="M238.5,99.4c-0.1,0.4-0.2,0.8-0.3,1.2c-0.1,0.3-0.1,0.5-0.2,0.9c-0.3,0.5,0.4,0.7,0.7,0.4
		c0.5-0.5,0.7-1.2,0.9-1.9C239.9,99.2,238.7,98.7,238.5,99.4z"/>
	<path class="st0" d="M241,101.3c0.1,0.9-0.4,1.8-0.9,2.6c-0.3,0.4,0.2,0.8,0.6,0.5c0.8-0.9,1.4-1.9,1.3-3.2
		C241.9,100.6,241,100.7,241,101.3z"/>
	<path class="st0" d="M243.7,102.1c-0.4,1.2-0.9,2.4-0.9,3.7c0,0.5,0.7,0.5,0.9,0.2c0.5-1.1,0.8-2.2,1.2-3.2
		C245.4,101.8,244,101.2,243.7,102.1z"/>
	<path class="st0" d="M247,102.7c-0.4,1-0.8,2-1,3.1c-0.2,0.7,0.8,0.9,1.1,0.4c0.5-0.9,0.9-1.9,1.2-2.8
		C248.6,102.4,247.4,101.8,247,102.7z"/>
	<path class="st0" d="M251.1,102.9c-0.3,0.9-0.3,1.9-0.6,2.8c-0.1,0.3,0.4,0.5,0.5,0.2c0.3-0.9,0.3-1.9,0.6-2.8
		C251.7,102.9,251.2,102.6,251.1,102.9z"/>
	<path class="st0" d="M254.1,102.3c0.1,1.2-0.5,2.1-0.9,3.1c-0.2,0.4,0.3,0.7,0.6,0.5c1-0.8,1.4-2.5,1.3-3.7
		C255,101.6,254,101.7,254.1,102.3z"/>
	<path class="st0" d="M257.1,101.5c0,0.9-0.3,1.8-0.5,2.7c-0.2,0.6,0.7,0.8,1,0.3c0.5-1,0.9-2,0.7-3.1
		C258.2,100.7,257.1,100.8,257.1,101.5z"/>
	<path class="st0" d="M260.7,99.4c0,0.3-0.1,0.5-0.2,0.8c-0.1,0.4-0.2,0.7-0.1,1.1c0.1,0.5,0.9,0.6,1,0c0-0.4,0.2-0.7,0.2-1
		c0-0.4,0.1-0.7,0-1C261.6,98.6,260.7,98.7,260.7,99.4z"/>
	<path class="st0" d="M262.8,97.5c-0.4,0-0.7,0.4-0.6,0.7c0,0.1,0,0.1,0,0.2c-0.1,0.1-0.2,0.2-0.2,0.3c-0.2,0.3-0.2,0.7,0.1,0.9
		s0.7,0.2,0.9-0.1c0.2-0.2,0.4-0.4,0.5-0.6c0.1-0.3,0.1-0.5,0.1-0.8C263.6,97.8,263.2,97.5,262.8,97.5z"/>
	<path class="st0" d="M239.4,81.1c0.1,0.9,0.2,1.8,0.4,2.7c0.1,0.5,0.7,0.4,0.7-0.1c0-0.9,0-1.8-0.1-2.8
		C240.4,80.3,239.3,80.4,239.4,81.1z"/>
	<path class="st0" d="M243.1,78.7c-0.4-0.8-1.7-0.3-1.3,0.5c0.5,1,0.6,2.1,0.9,3.1c0.2,0.5,1.1,0.5,1.1-0.1
		C244,81,243.6,79.8,243.1,78.7z"/>
	<path class="st0" d="M246.6,77.6c-0.1-0.7-1.2-0.6-1.1,0.1c0.1,0.9,0.1,1.8-0.2,2.7c-0.2,0.5,0.8,0.8,1,0.3
		C246.8,79.7,246.7,78.7,246.6,77.6z"/>
	<path class="st0" d="M250.3,77.4c-0.4-0.7-1.4,0-1,0.7c0.1,0.2,0.3,0.4,0.3,0.7c0,0,0,0,0,0c-0.1,0.1-0.2,0.3-0.4,0.4
		c-0.4,0.4-0.1,1.2,0.5,0.9c0.5-0.2,1-0.6,1.1-1.2C250.9,78.4,250.5,77.9,250.3,77.4z"/>
	<path class="st0" d="M253.9,78.2c-0.3-0.6-1.2-0.2-0.8,0.5c0.4,0.8,0,1.6-0.1,2.5c0,0.3,0.4,0.5,0.6,0.3
		C254.2,80.4,254.5,79.2,253.9,78.2z"/>
	<path class="st0" d="M258.2,79.7c-0.1-0.5-0.8-0.4-0.8,0.1c0,0.4,0,0.7,0,1.1c0,0.3,0,0.7-0.2,1c-0.2,0.4,0.3,0.8,0.6,0.5
		C258.7,81.7,258.4,80.7,258.2,79.7z"/>
	<path class="st0" d="M121.1,110.4c-0.7,1.9-2.4,3.4-3.4,5.1c-1.3,2.5-2.4,5.1-3.8,7.5c-0.3,0.5,0.6,1.1,0.9,0.6
		c1.4-2.1,2.5-4.4,3.5-6.8c1-2.1,2.8-4,3.4-6.2C121.8,110.3,121.2,110.1,121.1,110.4z"/>
	<path class="st0" d="M127.3,108.4c-3.3,7.2-9,12.9-12.9,19.7c-0.3,0.5,0.5,1,0.9,0.5c4.4-6.5,9.8-12.5,12.7-19.9
		C128.1,108.3,127.5,108,127.3,108.4z"/>
	<path class="st0" d="M133.8,106.9c-4.8,6.8-9.1,14.2-13.1,21.4c-0.4,0.7,0.7,1.3,1.2,0.7c5.3-6.3,8.6-14.3,13.2-21.1
		C135.6,107.1,134.4,106.1,133.8,106.9z"/>
	<path class="st0" d="M139,105.7c-3.7,5.9-6.9,12.1-10.4,18.2c-0.4,0.7,0.7,1.2,1.2,0.5c3.6-5.9,6.6-12.2,10.1-18.2
		C140.1,105.7,139.3,105.2,139,105.7z"/>
	<path class="st0" d="M110,112.6c-3.6,5.3-7.8,10.2-11.4,15.4c-0.5,0.8,0.6,1.8,1.2,1c3.9-5,7.8-10.1,11.3-15.5
		C111.5,112.8,110.5,111.9,110,112.6z"/>
	<path class="st0" d="M101.6,113.8c-2.6,3.6-5.6,6.9-8.1,10.6c-0.6,0.9,0.6,1.9,1.2,1.1c2.7-3.6,5.7-6.9,8.2-10.5
		C103.7,114,102.3,112.8,101.6,113.8z"/>
	<path class="st0" d="M79.2,116.8c-1.5,2.3-3.2,4.4-4.9,6.5c-0.4,0.4,0.3,1,0.7,0.5c1.8-2.1,3.4-4.2,4.9-6.5
		C80.2,116.9,79.5,116.3,79.2,116.8z"/>
	<path class="st0" d="M161.1,102.3c-2.1,2.6-3.9,5.5-5.1,8.6c-0.2,0.6,0.6,1.2,1.1,0.7c1.9-2.7,3.3-5.7,5.3-8.3
		C162.9,102.5,161.8,101.5,161.1,102.3z"/>
	<path class="st0" d="M168.3,101.3c-2.8,6.4-7.3,11.8-11,17.6c-0.5,0.7,0.5,1.6,1,0.9c4.1-5.8,8.5-11.3,11.3-17.9
		C169.9,101.1,168.7,100.5,168.3,101.3z"/>
	<path class="st0" d="M165.8,102.9c-0.4,0.8-0.7,1.6-1.1,2.3c-0.5,0.8-1,1.6-1.5,2.4c-0.2,0.4,0.4,0.7,0.6,0.3
		C164.6,106.4,166.1,104.6,165.8,102.9C165.9,102.9,165.8,102.9,165.8,102.9z"/>
</g>
<g>
	<path class="st0" d="M236.4,31.8c-0.9-1.4-1.9-2.8-2.8-4.2c-0.7-1.2-1.6-2.9-3.2-3.4c-3.2-1-3.6,5.8-4.9,7.3
		c-0.8,1,0.6,2.4,1.4,1.4c0.8-0.9,1.1-2.1,1.5-3.2c0.2-0.6,1.1-4,1.8-3.4c1.2,1,1.9,2.7,2.7,4c0.6,1,1.3,2.4,2.5,2.7
		C236.2,33.4,236.9,32.5,236.4,31.8z"/>
	<path class="st0" d="M226.6,30.6c-1.1,0.5-2.2,0.8-3.4,1.1c-1.1,0.2-2.3,0-3.2,0.6c-0.5,0.4-0.5,1.1,0,1.4c1.1,0.7,2.6,0.2,3.7-0.1
		c1.4-0.4,2.6-1,3.6-1.9C228,31.1,227.2,30.3,226.6,30.6z"/>
	<path class="st0" d="M227,38c-1.1-1.3-2.8-1.8-4.2-2.8c-1.1-0.9-1.5-1.7-3-1.4c-0.3,0-0.3,0.5,0,0.6c0.5,0.1,0.7,0.5,0.9,1
		c0.4,0.6,0.9,1.2,1.4,1.6c1.1,1,2.5,1.7,3.7,2.6C226.8,40.3,227.7,38.8,227,38z"/>
	<path class="st0" d="M233.2,39.8c-1.7,1.5-3.5,2.9-5.5,4.1c0.2-1.4,0.4-2.9,0.7-4.3c0.3-1.2-1.5-1.7-1.8-0.5
		c-0.5,2.1-0.6,4.3-1.2,6.4c-0.3,0.9,0.7,1.5,1.4,1.1c2.8-1.4,5.7-3.2,7.8-5.4C235.6,40.3,234.2,38.9,233.2,39.8z"/>
	<path class="st0" d="M242.5,40c-0.2-1.3-0.5-3.5-1.8-4.2c-0.4-0.2-0.9,0-1,0.4c-0.2,1.1,0.4,2.2,0.7,3.3c0.3,1.2,0.5,2.5,0.4,3.7
		c-2.1-1-3.9-2.3-5.7-3.9c-0.8-0.7-2,0.4-1.2,1.2c2.2,2.2,4.5,3.8,7.4,5c0.5,0.2,1.1-0.2,1.2-0.7C242.8,43.2,242.8,41.6,242.5,40z"
		/>
	<path class="st0" d="M246,29.8c-2.4,0.4-6.7,2.5-8.9,0.9c-0.5-0.4-1,0.4-0.6,0.8c2.1,2,5.4,0.5,8.1,0c-1.4,1.8-3,3.3-4.9,4.8
		c-0.9,0.7,0.3,2.2,1.2,1.6c2.5-1.8,5-4.2,6.1-7.1C247.2,30.1,246.5,29.7,246,29.8z"/>
</g>
<g>
	<path class="st0" d="M238,126.6c-0.7-1.1-1.5-2.3-1.9-3.6c-0.2-0.5-0.8-0.8-1.3-0.5c-2.5,1.6-2.3,4.6-4.1,6.7
		c-0.5,0.7,0.4,1.6,0.9,0.9c1.4-1.5,1.8-4,3.2-5.5c0.4,0.9,0.8,1.6,1.3,2.5c0.7,1.1,1.2,2.5,2.3,3.2c0.5,0.3,1.1-0.1,1.1-0.6
		C239.5,128.5,238.6,127.5,238,126.6z"/>
	<path class="st0" d="M230.6,128.5c-1,0.8-2.3,1-3.5,1.2c-1.2,0.3-2.2,0.7-3.2,1.5c-0.3,0.3-0.4,0.9-0.2,1.2c1.4,2,4,3.5,6.2,4.4
		c1,0.4,2.1-0.8,1.2-1.6c-1.5-1.3-3.6-1.9-5.1-3.2c1.7-1.1,4-1.1,5.5-2.5C232.4,128.9,231.3,127.9,230.6,128.5z"/>
	<path class="st0" d="M235.9,137.2c-0.9,0.7-1.6,1.5-2.5,2.3c-0.5,0.4-1,0.9-1.5,1.2c0.1-1.3-0.1-2.6-0.2-4c0-0.9-1.3-0.9-1.3,0
		c0,1.8,0.4,3.8-0.6,5.4c-0.5,0.7,0.4,1.5,1.2,1.2c2.3-1.2,4.6-3,6.1-5C237.6,137.6,236.6,136.7,235.9,137.2z"/>
	<path class="st0" d="M243.7,133.7c-0.2-0.1-0.5-0.1-0.7,0c-0.7,0.5-0.4,1.4-0.4,2c0.1,1.2,0.1,2.5,0.1,3.7c0,0.4-0.1,0.9-0.2,1.2
		c-0.2,0.4-1.5-0.4-1.7-0.5c-1-0.6-2.1-1.6-2.7-2.6c-0.4-0.7-1.4-0.1-1.1,0.6c0.7,1.5,4.9,5.9,6.7,3.4c0.7-1.1,0.7-2.7,0.7-4
		C244.3,136.7,244.6,134.3,243.7,133.7z"/>
	<path class="st0" d="M247.5,128.9c-2.9,0-5.8,0.1-8.8,0.2c-0.8,0-0.8,1.2,0,1.2c2.4,0,4.8,0.1,7.1,0.2c-1.3,1.3-2.8,2.5-3.8,4.1
		c-0.5,0.8,0.7,1.8,1.3,1.1c1.6-1.8,3.4-3.5,4.8-5.5C248.5,129.6,248,128.9,247.5,128.9z"/>
</g>
<g>
	<path class="st0" d="M28,9.4c-0.7-2-1.6-4.6-3-6.2c-0.2-0.2-0.4-0.3-0.7-0.2c-2.4,1-3.2,4.1-3.9,6.3c-0.3,0.8,1,1.1,1.2,0.4
		c0.5-1.5,1.2-4.2,2.7-5.2c1.2,1.6,1.5,3.7,2.6,5.3C27.2,10.5,28.2,10.1,28,9.4z"/>
	<path class="st0" d="M19.7,8.6c-0.5,0.9-1.8,0.7-2.7,0.7c-1,0-1,1.6,0,1.6c1.4,0.1,3.2-0.2,4-1.6C21.5,8.5,20.2,7.8,19.7,8.6z"/>
	<path class="st0" d="M19.7,15.7c-1.1-2-3-3.9-4.8-5.3c-0.6-0.5-1.4,0.2-0.9,0.9c0.9,1.2,1.7,2.6,2.7,3.7c1.4,1.5,1.5,2.4,0.4,4.2
		C16.6,20,18,21,18.6,20.2C19.6,18.9,20.5,17.2,19.7,15.7z"/>
	<path class="st0" d="M28.4,20c-1.4-0.7-2.7-1.7-3.9-2.8c-0.4-0.3-0.8-0.3-1.2,0c-1.1,1.1-2.5,1.6-3.9,2.2c-0.9,0.4-0.1,1.8,0.8,1.4
		c1.3-0.6,2.5-1.1,3.7-1.9c1.1,1,2.4,1.9,3.7,2.6C28.5,21.9,29.3,20.5,28.4,20z"/>
	<path class="st0" d="M28.8,20.5c-0.5-1-0.5-2-0.4-3.1c0.1-0.8,0.4-1.6-0.2-2.3c-0.2-0.2-0.5-0.2-0.7,0c-0.6,0.7-0.4,1.8-0.4,2.7
		c0,1.1,0.4,2.2,1,3.1C28.5,21.2,29,20.9,28.8,20.5z"/>
	<path class="st0" d="M34.4,10.1c-1-0.9-2.2-1.1-3.4-1.3c-1.4-0.2-3.4-0.7-4.6,0c-0.5,0.3-0.5,1.2,0,1.4c1.8,1,4.3-0.2,6.2,0.7
		c-1.3,1.6-3.2,2.8-5,3.7c-0.9,0.5-0.1,1.9,0.8,1.4c2.4-1.2,4.6-2.8,6.2-5C34.8,10.9,34.7,10.4,34.4,10.1z"/>
</g>
<g>
	<path class="st0" d="M123.1,154.8c-0.3-2.2-3.2-4.2-4.8-5.3c-0.4-0.2-0.9-0.2-1.2,0.2c-1.7,1.9-1,4.8-2.9,6.4
		c-1,0.8,0.4,2.3,1.4,1.4c0.9-0.7,1.4-1.6,1.7-2.7c0.3-1,0.3-2.1,0.7-3c0.6,0.5,1.2,1,1.8,1.6c0.7,0.7,1.4,1.8,2.3,2.3
		C122.7,155.8,123.2,155.3,123.1,154.8z"/>
	<path class="st0" d="M117,161c-0.5-0.6-1.9-0.6-2.7-0.8c-0.7-0.2-1.8-0.5-2.5-1.1c1.1-0.9,2.4-1.4,3.7-1.9c0.6-0.2,0.4-1.2-0.3-1
		c-1.8,0.5-3.7,1-5.1,2.3c-0.3,0.2-0.3,0.7-0.1,0.9c0.6,1.1,1.9,1.5,3,1.9c0.9,0.4,3.1,1.2,3.9,0.4C117.2,161.5,117.2,161.2,117,161
		z"/>
	<path class="st0" d="M121.8,161.4c-1.1,0.5-1.8,1.7-2.4,2.7c-0.6,0.9-1.2,1.7-1.9,2.3c0-1.3,0-2.6,0-3.9c0-0.9-1.4-0.9-1.4,0
		c0,1.8,0,3.5,0,5.3c0,0.6,0.6,0.9,1.1,0.6c1.2-0.7,2.2-1.7,3-2.8c0.8-1.1,1.9-2.3,2.4-3.5C122.6,161.7,122.1,161.3,121.8,161.4z"/>
	<path class="st0" d="M128.3,159.9c-0.3-0.7-0.7-1.2-1-1.9c-0.3-0.6-0.4-1.2-0.9-1.7c-0.3-0.3-0.8-0.2-0.9,0.2
		c-0.4,2.2,2.3,3.7,2.4,5.9c-1.7-0.4-3.4-0.9-5.1-1.3c-1-0.3-1.4,1.3-0.4,1.6c2,0.5,4.1,1.2,6.2,0.9c0.2,0,0.4-0.2,0.4-0.4
		C129.1,162.1,128.8,161,128.3,159.9z"/>
	<path class="st0" d="M129.3,151.3c-2,0.7-3.8,1.8-5.8,2.3c-0.9,0.2-0.5,1.6,0.4,1.4c1.5-0.4,2.9-1.1,4.3-1.7
		c-0.4,0.6-0.8,1.1-1.2,1.6c-0.6,0.7-1.5,1.4-1.5,2.3c0,0.4,0.4,0.7,0.8,0.6c1-0.3,1.6-1.6,2.3-2.3c0.8-1,1.4-2.1,1.8-3.3
		C130.3,151.7,129.8,151.2,129.3,151.3z"/>
</g>
<g>
	<path class="st0" d="M182.3,238.5c-0.7-1.1-1.4-1.9-2.4-2.7c-0.2-0.2-0.6-0.2-0.8,0c-0.9,0.6-1,1.8-1.1,2.8
		c-0.1,1.6,0.1,3.2-0.3,4.8c-0.2,0.8,1,1.2,1.3,0.4c0.3-1,0.4-2.1,0.4-3.1c0-0.5,0-2.1,0.2-2.9c1.2,1.5,1.9,4.4,3.8,4.6
		c0.4,0,0.8-0.2,0.8-0.6C184.1,240.6,183,239.5,182.3,238.5z"/>
	<path class="st0" d="M179.7,248.4c-0.8-0.6-1.9-0.5-2.9-0.7c-0.9-0.1-1.7-0.2-2.5-0.3c1.1-1,2.6-1.9,3.9-1.6
		c0.7,0.2,1.1-0.9,0.3-1.2c-2.5-0.8-5.3,1.1-6.7,3.1c-0.4,0.5,0.2,1.3,0.7,1.3c1.3,0,2.5,0.2,3.8,0.3c1.1,0.2,2.5,0.5,3.5-0.2
		C180,249,180,248.6,179.7,248.4z"/>
	<path class="st0" d="M183.5,247.5c0-0.4-0.6-0.5-0.8-0.2c-0.8,0.7-1.1,1.8-1.6,2.8c-0.2,0.4-0.5,1-0.8,1.6
		c-0.2-0.9-0.4-1.9-0.4-2.8c0-1.2-1.9-1.2-1.9,0c0,1.6,0.4,3.3,0.7,4.9c0.1,0.7,1.1,0.9,1.5,0.4c0.9-0.9,1.6-1.9,2.1-3
		C182.9,250,183.7,248.8,183.5,247.5z"/>
	<path class="st0" d="M189.5,248.4c-0.4-0.8-0.9-1.6-1.4-2.3c-0.5-0.7-1.1-1.7-2-1.8c-0.3,0-0.6,0.1-0.6,0.4
		c0.1,0.9,0.7,1.5,1.3,2.2c0.2,0.3,0.5,0.7,0.7,1c-1.3-0.3-2.5-0.8-3.9-0.7c-0.7,0-0.7,1,0,1c1.8,0.2,3.4,1.3,5.3,1.4
		C189.4,249.6,189.7,248.9,189.5,248.4z"/>
	<path class="st0" d="M190.1,236.8c-1.7,1-3.6,1.3-5.3,2.3c-1.1,0.7-0.1,2.3,1,1.7c1-0.6,2.1-1,3.2-1.4c-0.3,0.7-0.7,1.4-1.1,2.1
		c-0.7,1.2-1.6,2.4-1.4,3.8c0,0.4,0.6,0.6,0.9,0.4c1.2-0.8,1.7-2.4,2.4-3.6c0.8-1.3,1.4-2.7,1.8-4.2
		C191.7,237.1,190.9,236.4,190.1,236.8z"/>
</g>
<g>
	<path class="st0" d="M15.3,158.3c1.4-1.7,1.1-5.1,0.8-7.2c0-0.4-0.5-0.8-0.9-0.8c-2.5,0-4.2,2.4-6.7,2.1c-1.3-0.2-1.4,1.8-0.1,2
		c1.1,0.2,2.1,0,3.2-0.5c0.9-0.4,1.8-1.2,2.7-1.4c0,0.8,0,1.6,0,2.4c-0.1,1.1-0.4,2.2-0.2,3.2C14.2,158.7,15,158.7,15.3,158.3z"/>
	<path class="st0" d="M6.6,157.8c0.1-0.8-0.8-1.8-1.2-2.5c-0.3-0.7-0.8-1.7-0.8-2.6c1.4,0.2,2.6,0.9,3.9,1.5
		c0.6,0.3,1.2-0.5,0.6-0.9c-1.6-1-3.2-2.1-5.1-2.3c-0.4,0-0.7,0.2-0.8,0.5c-0.4,1.2,0.1,2.4,0.5,3.5c0.4,0.9,1.1,3.1,2.3,3.2
		C6.3,158.4,6.5,158.1,6.6,157.8z"/>
	<path class="st0" d="M9.4,161.6c-1.1-0.5-2.4-0.2-3.6-0.1c-1,0.1-2,0.2-3,0.1c1-0.9,1.9-1.7,2.9-2.6c0.7-0.6-0.3-1.7-0.9-1.1
		c-1.3,1.2-2.7,2.3-3.9,3.5c-0.4,0.4-0.3,1.1,0.3,1.2c1.3,0.5,2.7,0.5,4.1,0.4c1.3-0.1,3,0,4.2-0.5C9.7,162.5,9.8,161.8,9.4,161.6z"
		/>
	<path class="st0" d="M14.8,165.6c0.3-0.7,0.5-1.4,0.7-2c0.2-0.6,0.6-1.1,0.7-1.8c0-0.4-0.4-0.7-0.8-0.5c-1.9,1.2-1.2,4.2-2.8,5.7
		c-0.9-1.6-1.6-3.2-2.5-4.7c-0.5-0.9-1.9-0.2-1.4,0.7c1,1.9,1.8,3.9,3.4,5.3c0.1,0.1,0.4,0.1,0.5,0
		C13.8,167.6,14.4,166.7,14.8,165.6z"/>
	<path class="st0" d="M22,160.6c-1.8-1-3.9-1.6-5.7-2.8c-0.7-0.5-1.5,0.7-0.8,1.2c1.3,0.9,2.7,1.4,4.1,2.1c-0.7,0.1-1.3,0.2-2,0.1
		c-0.9,0-2.1-0.2-2.7,0.4c-0.3,0.3-0.3,0.7,0.1,1c0.9,0.5,2.2,0.2,3.2,0.1c1.3,0,2.5-0.3,3.7-0.9C22.4,161.6,22.5,160.9,22,160.6z"
		/>
</g>
</svg>
