<?xml version="1.0" encoding="utf-8"?>
<!-- Generator: Adobe Illustrator 16.0.0, SVG Export Plug-In . SVG Version: 6.00 Build 0)  -->
<!DOCTYPE svg PUBLIC "-//W3C//DTD SVG 1.1//EN" "http://www.w3.org/Graphics/SVG/1.1/DTD/svg11.dtd">
<svg version="1.1" id="Layer_1" xmlns="http://www.w3.org/2000/svg" xmlns:xlink="http://www.w3.org/1999/xlink" x="0px" y="0px"
	 width="190px" height="155.9px" viewBox="0 0 190 155.9" style="enable-background:new 0 0 190 155.9;" xml:space="preserve">
<style type="text/css">
<![CDATA[
	.st0{fill:#D68033;}
]]>
</style>
<g>
	<path class="st0" d="M59.8,103.8c1.2,3.1,3.5,7,7.1,7.7c5.4,1.1,8.7-2.2,12.8-5.3c5.7-4.2,10.4-9.5,5.7-16.4
		c-0.4-0.6-0.5,1.1-0.4,1.4c3.7,8.1-3.8,11.9-8.9,16.1c-6.1,5-13,3.1-15.9-4.2C59.9,102.7,59.7,103.6,59.8,103.8z"/>
	<path class="st0" d="M102.5,64.2c3,2.8,6.4,5.5,10.7,5.6c4.3,0.1,7.9-5.1,10.8-7.7c4.5-4,7.3-9.3,3.5-14.9
		c-0.4-0.5-0.5,1.1-0.3,1.4c3.4,7.7-3.5,11.2-8,15.9c-5.9,6.2-10.7,2.4-16.6-1.3C102.4,63,102.3,64,102.5,64.2z"/>
	<path class="st0" d="M31.5,146.9c4.2-2.8,7.7-6.7,11.4-10.1c2.9-2.7,6.5-4.8,9-7.9c3.1-3.8,3.8-8.7-0.7-11.7
		c-0.3-0.2-0.3,1-0.2,1.2c5.6,7.4-3.7,12.5-8.4,16.7c-3.9,3.5-7.8,7.2-11.4,11C31.2,146.3,31.3,147.1,31.5,146.9z"/>
	<path class="st0" d="M50.9,119.2c2.3,4.4,7.3,6,10.8,1.9c2.3-2.7,3.6-9.2,0.6-11.9c-0.3-0.3-0.3,1-0.3,1.1c0.6,2.1,1.4,3.9,0.8,6.2
		c-0.5,1.7-1.6,3.2-3,4.2c-3.3,2.4-6.6,0.1-8.7-2.6C50.8,117.7,50.8,119,50.9,119.2z"/>
	<path class="st0" d="M123.5,45.1c1.9-0.6,4.4,0.5,6.3,0.8c2.1,0.3,4.4-0.8,5.7-2.4c1.8-2.4,2.7-7.4,0-9.5c-0.4-0.3-0.3,1.2-0.3,1.4
		c0.9,2.1,1.5,3.9,0.2,6c-0.9,1.5-2.7,2.6-4.4,2.9c-2.7,0.4-5.1-1.5-7.6,0.2C123.3,44.5,123.3,45.2,123.5,45.1z"/>
	<path class="st0" d="M135.1,35c6.9,3.8,12.1-7.9,16.2-11.5c3.6-3.1,9.3-8.4,5.1-13.4c-0.4-0.5-0.4,1.1-0.3,1.3
		c2.8,6-5.4,9.9-8.5,13.9c-3.2,4.1-6.3,10.3-12.4,8.3C134.9,33.5,134.9,34.8,135.1,35z"/>
	<path class="st0" d="M38.8,139.7c-0.7,2.7-2.7,5.4-2.5,8.3c0,0.2,0.2,0.7,0.4,0.3c0.6-1.3,0.8-2.8,1.3-4.2c0.5-1.3,0.9-2.6,1.2-3.9
		C39.3,139.9,39,139,38.8,139.7z"/>
	<path class="st0" d="M42.9,135.5c-0.4,3-2.7,6.1-2.2,9.2c0,0.1,0.2,0.5,0.3,0.3c0.7-1.3,0.8-2.9,1.2-4.3c0.5-1.6,1-3.2,1.1-4.9
		C43.4,135.3,43,134.7,42.9,135.5z"/>
	<path class="st0" d="M47.8,131.5c-1,2.9-2.3,6.1-2.6,9.1c0,0.1,0.1,0.9,0.3,0.6c0.7-0.8,0.8-2.1,1.1-3.1c0.5-1.9,1-3.8,1.5-5.7
		C48.2,132.1,48,130.9,47.8,131.5z"/>
	<path class="st0" d="M51.3,128.6c-1.1,2.5-2,5.4-1.9,8.2c0,0.2,0.2,0.7,0.3,0.3c1-2.4,1.1-5.2,1.9-7.7
		C51.8,129.1,51.6,128,51.3,128.6z"/>
	<path class="st0" d="M54.9,124.1c-0.9,3.5-2.8,7.2-2.7,10.9c0,0.1,0.1,0.6,0.3,0.3c0.7-1.6,0.9-3.4,1.4-5c0.5-1.8,1.1-3.7,1.5-5.5
		C55.4,124.4,55.1,123.3,54.9,124.1z"/>
	<path class="st0" d="M58.4,122.5c-1.5,3.6-2.9,8.3-2.5,12.2c0,0.2,0.2,0.6,0.3,0.2c0.5-1.5,0.5-3.1,0.8-4.6c0.4-2.4,1.1-4.7,1.7-7
		C58.8,123.1,58.6,121.9,58.4,122.5z"/>
	<path class="st0" d="M62.8,118.6c-1.1,4.2-2.7,8.5-3.3,12.9c0,0.1,0.1,1,0.3,0.6c0.9-1.6,1.2-3.5,1.7-5.2c0.6-2.5,1.2-5,1.8-7.5
		C63.2,119.2,62.9,118,62.8,118.6z"/>
	<path class="st0" d="M67,114.6c-1.4,5-3.5,10.3-3.5,15.5c0,0.2,0.2,0.7,0.3,0.3c1.6-4.8,2.6-10.2,3.5-15.2
		C67.3,115.1,67.1,114.1,67,114.6z"/>
	<path class="st0" d="M72.2,109.6c-1.1,3.4-3.3,7.3-2.7,11c0,0.2,0.2,0.5,0.3,0.2c0.6-1.7,0.7-3.6,1.3-5.4c0.5-1.7,1.1-3.4,1.5-5.1
		C72.6,110.1,72.4,109.1,72.2,109.6z"/>
	<path class="st0" d="M76.1,107.6c-0.6,3.4-2.4,7.1-2.1,10.5c0,0.1,0.1,0.7,0.3,0.4c0.8-1.5,1-3.5,1.4-5.1c0.5-1.8,0.8-3.6,0.9-5.4
		C76.5,107.7,76.2,106.9,76.1,107.6z"/>
	<path class="st0" d="M79.9,105c-1.1,4.6-3.2,9.6-2.9,14.4c0,0.1,0.2,0.6,0.3,0.3c0.7-1.9,0.8-4,1.3-5.9c0.6-2.7,1.3-5.4,1.8-8.1
		C80.4,105.3,80.1,104.2,79.9,105z"/>
	<path class="st0" d="M83.2,102.5c-0.5,5.7-2.7,11.1-3.4,16.8c-0.1,0.5,0.5,1.6,0.7,0.6c1.1-5.7,2.9-11.4,3.1-17.2
		C83.6,102.3,83.2,101.8,83.2,102.5z"/>
	<path class="st0" d="M87.4,95.9c-0.5,4.3-1.9,8.3-2.9,12.5c-1,4.1-1.5,8.3-2.2,12.4c-0.1,0.5,0.4,1.9,0.6,0.8
		c1.1-4.6,1.4-9.3,2.6-13.9c1-3.8,2-7.5,2.2-11.5C87.7,95.8,87.4,95.3,87.4,95.9z"/>
	<path class="st0" d="M90.6,96.6c-1.5,7.7-4,15.3-4.1,23.2c0,0.6,0.5,1,0.6,0.2c0.7-7.7,2.6-15.2,3.8-22.8
		C90.9,96.9,90.7,96,90.6,96.6z"/>
	<path class="st0" d="M93.5,99.1c-0.7,6-2.2,11.9-2.8,17.9c0,0.5,0.5,1.7,0.7,0.7c1-6,2.2-12.2,2.5-18.3C94,99,93.6,98.3,93.5,99.1z
		"/>
	<path class="st0" d="M96.1,101.8c-0.6,3.9-2.3,7.8-2,11.8c0,0.4,0.4,0.7,0.5,0.1c0.6-3.8,1.6-7.7,1.9-11.5
		C96.6,102,96.3,101.1,96.1,101.8z"/>
	<path class="st0" d="M115.1,68.2c-0.7,0.7-0.9,1.8-1.1,2.8c-0.3,1.2-0.4,2.6-0.2,3.8c0.1,0.3,0.2,0.2,0.3,0
		c0.2-0.8,0.2-1.7,0.3-2.5c0.1-1.1,0.4-2.2,0.9-3.2C115.4,68.9,115.3,68,115.1,68.2z"/>
	<path class="st0" d="M118.3,66.6c-0.9,3.1-2.1,6.7-1.7,9.9c0,0.2,0.2,0.5,0.3,0.2c0.4-1,0.4-2.2,0.5-3.2c0.3-2,0.7-4,1.2-5.9
		C118.8,67.3,118.5,66,118.3,66.6z"/>
	<path class="st0" d="M122.5,62.4c-0.7,6.3-3.2,12.4-2.9,18.8c0,0.6,0.5,1,0.6,0.2c0.6-6.3,2.3-12.4,2.8-18.6
		C123,62.2,122.6,61.6,122.5,62.4z"/>
	<path class="st0" d="M125.5,60c-0.3,8.7-4,17.3-3.2,26c0,0.4,0.3,0.3,0.3,0c1.1-8.6,3.1-17.2,3.3-25.9
		C125.9,59.7,125.5,59.4,125.5,60z"/>
	<path class="st0" d="M129.9,50.9c-0.3,9.2-2.2,18.7-3.5,27.8c-0.1,0.5,0.5,1.5,0.7,0.6c1.1-4.7,1.3-9.5,1.9-14.2
		c0.6-4.7,1.4-9.3,1.4-14C130.3,50.6,129.9,50.3,129.9,50.9z"/>
	<path class="st0" d="M132.7,50.2c-0.1,7.9-2.3,15.8-1.8,23.7c0,0.5,0.5,0.8,0.5,0.1c0.8-7.9,1.8-15.9,1.7-23.9
		C133.2,49.5,132.8,49.6,132.7,50.2z"/>
	<path class="st0" d="M133.5,44.9c-0.3,3.3-1.4,6.6-1.2,9.9c0,0.2,0.2,0.6,0.3,0.2c0.6-3.2,1.3-6.5,1.4-9.8
		C133.9,44.7,133.5,44.1,133.5,44.9z"/>
	<path class="st0" d="M137,41c-0.2,9.9-0.9,20.6-2.3,30.4c-0.1,0.8,0.6,1.6,0.8,0.5c1.5-9.9,1.9-20.8,1.8-30.9
		C137.3,40.4,137,40.5,137,41z"/>
	<path class="st0" d="M140.4,34.3c0.7,2.4,0.2,4.9-0.1,7.3c-0.2,1.4-0.9,3.7-0.2,5l0.2,0.1c0.4-0.6,0.3-1.5,0.4-2.2
		c0.2-1.7,0.4-3.4,0.6-5.1c0.1-1.6,0.5-4.5-0.7-5.7C140.4,33.5,140.4,34.2,140.4,34.3z"/>
	<path class="st0" d="M143.8,32.3c0,4.5-0.5,9-0.2,13.5c0,0.6,0.5,1,0.6,0.2c0.4-4.5,0.1-9.1,0.1-13.7
		C144.3,31.6,143.8,31.6,143.8,32.3z"/>
	<path class="st0" d="M147,27.6c-0.1,5.5-2.2,11.4-0.6,16.8c0.2,0.7,0.6,0.1,0.5-0.3c-0.4-5.5,0.6-10.9,0.5-16.5
		C147.5,26.9,147,27,147,27.6z"/>
	<path class="st0" d="M150,24c-0.3,3.2-1.5,6.8-0.9,10.1c0.1,0.3,0.3,0.5,0.3,0.1c0.3-1.4,0.3-2.9,0.4-4.3c0.2-1.9,0.4-3.7,0.6-5.6
		C150.5,23.8,150.1,23.2,150,24z"/>
	<path class="st0" d="M152.9,20.8c-0.1,1.4-0.2,2.9-0.4,4.3c-0.1,1.2-0.4,2.6,0,3.7c0.1,0.2,0.2,0.3,0.3,0.1c0.4-1,0.3-2.3,0.4-3.4
		c0.1-1.5,0.2-3.1,0.2-4.6C153.3,20.4,152.9,20.1,152.9,20.8z"/>
	<path class="st0" d="M156,18.1c-0.3,2-0.9,4.2-0.2,6.1l0.2,0.2l0.1,0c0.2,0,0.2-0.3,0.1-0.4c0-0.8-0.2-1.5-0.2-2.3
		c0-0.9,0.3-1.9,0.4-2.8C156.5,18.4,156.1,17.1,156,18.1z"/>
	<path class="st0" d="M158.6,15c-0.4,1.2-0.7,2.5-0.6,3.7c0,0.1,0.1,0.5,0.2,0.3c0.4-0.9,0.4-2,0.7-3c0.1-0.3,0.1-0.7,0-1
		C158.9,14.7,158.7,14.7,158.6,15z"/>
	<path class="st0" d="M85.7,74c-1.3-2.7-3.8-5.1-5.8-7.3c-0.7-0.7-1,1.7-1,1.8c-0.1,1,0,2.4,0.7,3.2c0.9,1,1.9,2,2.8,3
		c0.8,0.9,1.7,2.2,2.7,2.7C86.2,77.9,85.9,74.5,85.7,74z"/>
	<path class="st0" d="M79.9,70.9c0.2,0.1,0.4,0.1,0.6,0.2l0.2-0.1c4-3.8,8-7.7,11.9-11.7c0.9-0.8,0.7-2.7,0.6-3.7
		c0-0.3-0.5-2.9-1.3-2.1c-2.4,2.6-4.9,5.1-7.4,7.7c-2,2.1-4.3,4.1-5.1,7C79.3,68.9,79.1,70.6,79.9,70.9z"/>
	<path class="st0" d="M86.6,77c3.3-5.2,10.4-8.2,11.8-14.4c0.1-0.3,0.1-4-0.8-3.7c-1.6,0.7-2.3,2.7-3.4,4c-1.2,1.3-2.4,2.6-3.6,3.9
		c-1.9,2.2-4,3.8-5.1,6.5C85.2,74.1,85.6,78.5,86.6,77z"/>
	<path class="st0" d="M104,94.1c-0.7-3.1-3.1-5.9-5.5-7.8c-0.9-0.7-1.2,1.7-1.2,2c-0.1,0.9-0.1,2.8,0.8,3.5c1,0.7,1.9,1.6,2.9,2.5
		c0.7,0.7,1.7,1.4,2.3,2.3c0.3,0.5,0.7,0.1,0.8-0.3C104.2,95.5,104.1,94.8,104,94.1z"/>
	<path class="st0" d="M98.1,91.4c1.7-0.1,3.5-2.6,4.6-3.6c1.5-1.4,2.8-2.9,4.2-4.3c1.5-1.6,3.1-3.1,4.8-4.5c1.3-1.1,1.1-4.7,0.1-5.9
		c-0.3-0.4-0.4-0.5-0.9-0.3c-1.2,0.5-2.2,1.8-3.1,2.6c-1.4,1.4-2.8,2.9-4.2,4.3c-2,2.2-4.5,4.1-6.2,6.4
		C96.9,86.9,96.6,91.4,98.1,91.4z"/>
	<path class="st0" d="M103.8,96.4c0.6,0.5,4.7-3.9,5.3-4.4c2.1-1.7,4-3.6,5.9-5.6c0.9-1,2.2-1.9,2.6-3.1c0.3-0.9,0.7-5.7-1.2-5.3
		c-1.2,0.3-2.9,2.9-3.6,3.8c-1.8,2.1-3.7,4-5.7,5.9c-1.4,1.4-3.1,3.2-3.6,5.2C103.3,93.8,102.9,95.7,103.8,96.4z"/>
	<path class="st0" d="M124.2,84.3c-3.3-6.4-9.4-11.5-14.5-16.4c-7.2-6.8-14.7-13.2-20.7-21.1c-1.2-1.5-2.5,4.8-0.7,6
		c3,1.9,5.6,5.7,8,8.3c2.9,3.2,6.1,6.1,9.2,9.2c3.1,3.1,6.4,5.9,9.4,9c2.8,2.8,5.4,6.5,8.9,8.3C124.8,88.1,124.4,84.8,124.2,84.3z"
		/>
	<path class="st0" d="M88.2,52.5c3.6-3.1,6.9-6.6,10.5-9.8c2-1.7,3.3-4.5,5.9-5.5c2.5-0.9,5.8,0.1,8.3,0.7
		c10.9,2.5,12.9-4.6,11.9-13.6c-0.3-2.6-2.1-2.6-2.1,0.1c-0.2,4.9-0.7,7.7-6.5,7.4c-4.6-0.2-8.6-2.9-13.2-1.1
		c-3.2,1.2-5.9,6.2-8.4,8.5c-2.9,2.8-5.8,5.2-7.2,9C87.1,48.8,87.2,53.4,88.2,52.5z"/>
	<path class="st0" d="M123.9,87.2c3.1-1.1,5.6-5.2,7.9-7.5c2.4-2.4,6.7-4.8,7.7-8.2c0.8-2.9,1-5.5,0.4-8.5c-0.4-2.2-1-4.4-1.4-6.6
		c-1.4-7.5,4.5-5,8.3-5c1.9,0,1-4.6,0.2-5.4c-9-8.4-11.6,5.9-10.8,12.1c0.3,1.8,0.7,3.6,1.1,5.4c0.9,4.1-2.5,6.2-5.1,8.7
		c-3.8,3.7-7.5,7.8-8.9,13C123.4,85.4,123.3,87.4,123.9,87.2z"/>
	<path class="st0" d="M136.4,74.3c2.8-7.7,1.5-15.1-2.6-22.1c-2.6-4.5-6.7-8.1-10.7-11.3c-3.5-2.8-10.2-8.1-14.9-7.1
		c-1.2,0.3-0.8,3.5-0.1,4.1c4.3,3.9,11.2,5.6,16.1,9.1c8.1,5.8,14,14.6,11.2,24.9C135.2,72.6,135.8,75.9,136.4,74.3z"/>
	<path class="st0" d="M123.7,27.9c2.7-1.5,4.6-1,7.5-1.3c3-0.3,5.8-1.7,8.3-3.3c5.6-3.7,8.8-9.9,14.9-13.1c1.7-0.9,0.9-7.9-0.9-7
		c-6.1,3.2-9.6,9.3-14.8,13.7c-2.9,2.4-7.1,3.5-10.7,3.2c-3-0.2-3.9,0.6-5.1,3.3C122.7,24.1,122.3,28.7,123.7,27.9z"/>
	<path class="st0" d="M148,50.8c2.3-3,2.1-6.2,1.9-9.8c-0.4-6.3,9.1-16,12.7-20.4c4.9-5.9-4.7-14.3-8.4-17.4c-1.2-1-2.1,5.8-0.5,7.2
		c1.3,1.1,6.9,6.5,7.3,8.2c0.1-1.7,0.3-3.4,0.4-5.1c-3,5.2-7.1,10-10.3,15.1c-3.9,6.1-2,11.9-4.4,18.1
		C146.4,47.4,146.7,52.5,148,50.8z"/>
	<path class="st0" d="M148.6,45.5c-1.4-1.9-3.4-3.3-4.9-5c-1.5-1.6-3.3-4.2-5.5-4.9c-1.6-0.6-1.2,3.9-0.6,4.6
		c-0.1-0.3-0.2-0.6-0.4-0.9c0.1,0.3,0.2,0.6,0.4,0.9c0.4,0.5,0.8,1.1,1.3,1.5c1.1,1,2.1,2,3.1,3c1.3,1.4,4.3,4.7,6.4,4.5
		C149.6,49.1,149.1,46.2,148.6,45.5z"/>
	<path class="st0" d="M131.2,29.3c-1.1-1.2-1.7-2.7-2.7-3.9c-0.9-1.2-1.8-2.6-3-3.5c-1-0.7-1.3,1.9-1.3,2.3c-0.1,1.1-0.1,3.2,0.9,4
		c0.9,0.8,1.9,1.4,2.8,2.2c1,0.9,2,1.4,3,2.2c0.5,0.4,0.7-1,0.7-1.2C131.7,30.7,131.7,29.9,131.2,29.3z"/>
	<path class="st0" d="M157.8,10.8c0.2,0.3,0.4,0.7,0.5,1c0.2,0.4,0.5,0.4,0.8,0.3c2.1-1,3.9-2.7,5.9-4c2.8-1.9,6.1-1.4,9.2-0.8
		c6.3,1.2,11.4,3.6,15.5-2.6c0.3-0.5,0.5-2.9-0.4-2.9c-4.1-0.3-7.7,0.4-11.9-0.4c-3.7-0.8-8.4-2.4-12-0.4
		C163,2.5,155.7,6.6,157.8,10.8z"/>
	<path class="st0" d="M65.8,71.6C69.2,78,75.2,83.1,80.4,88c7.2,6.8,14.7,13.2,20.7,21.1c1.2,1.5,2.5-4.8,0.7-6
		c-3-1.9-5.6-5.7-8-8.3c-2.9-3.2-6.1-6.1-9.2-9.2c-3.1-3.1-6.4-5.9-9.4-8.9c-2.8-2.8-5.4-6.5-8.9-8.3C65.2,67.8,65.6,71.2,65.8,71.6
		z"/>
	<path class="st0" d="M101.8,103.4c-3.6,3.1-6.9,6.6-10.5,9.8c-2,1.7-3.3,4.5-5.9,5.5c-2.5,0.9-5.8-0.1-8.3-0.7
		c-10.9-2.5-12.9,4.6-11.9,13.6c0.3,2.6,2.1,2.6,2.1-0.1c0.2-4.9,0.7-7.7,6.5-7.4c4.6,0.2,8.6,2.9,13.2,1.1c3.2-1.2,5.9-6.2,8.4-8.5
		c2.9-2.8,5.8-5.2,7.2-9C102.9,107.1,102.8,102.5,101.8,103.4z"/>
	<path class="st0" d="M66.1,68.8c-3.1,1.1-5.6,5.2-7.9,7.5c-2.4,2.4-6.7,4.7-7.7,8.2c-0.8,2.9-1,5.5-0.4,8.5c0.4,2.2,1,4.4,1.4,6.6
		c1.4,7.5-4.5,5-8.3,5c-1.9,0-1,4.6-0.2,5.4c9,8.4,11.6-5.9,10.8-12.1c-0.3-1.8-0.7-3.6-1.1-5.4c-0.9-4.1,2.5-6.2,5.1-8.7
		c3.8-3.7,7.5-7.8,8.9-13C66.6,70.5,66.7,68.6,66.1,68.8z"/>
	<path class="st0" d="M53.6,81.7c-2.8,7.7-1.5,15.1,2.6,22.1c2.6,4.5,6.7,8.1,10.7,11.3c3.5,2.8,10.2,8.1,14.9,7.1
		c1.2-0.3,0.8-3.5,0.1-4.1c-4.3-3.9-11.2-5.6-16.1-9.1c-8.1-5.8-14-14.6-11.2-24.9C54.8,83.3,54.2,80.1,53.6,81.7z"/>
	<path class="st0" d="M66.3,128c-2.7,1.5-4.6,1-7.5,1.3c-3,0.3-5.8,1.7-8.3,3.3c-5.6,3.7-8.8,9.9-14.9,13.1c-1.7,0.9-0.9,7.9,0.9,7
		c6.1-3.2,9.6-9.3,14.8-13.7c2.9-2.4,7.1-3.5,10.7-3.2c3,0.2,3.9-0.6,5.1-3.3C67.3,131.8,67.7,127.3,66.3,128z"/>
	<path class="st0" d="M42,105.1c-2.3,3-2.1,6.2-1.9,9.8c0.4,6.3-9.1,16-12.7,20.4c-4.9,5.9,4.7,14.3,8.4,17.4c1.2,1,2.1-5.8,0.5-7.2
		c-1.3-1.1-6.9-6.5-7.3-8.2c-0.1,1.7-0.3,3.4-0.4,5.1c3-5.2,7.1-10,10.3-15.1c3.9-6.1,2-11.9,4.4-18.1
		C43.6,108.5,43.3,103.4,42,105.1z"/>
	<path class="st0" d="M41.4,110.4c1.4,1.9,3.4,3.3,4.9,5c1.5,1.6,3.3,4.2,5.5,4.9c1.6,0.6,1.2-3.9,0.6-4.6c0.1,0.3,0.2,0.6,0.4,0.9
		c-0.1-0.3-0.2-0.6-0.4-0.9c-0.4-0.5-0.8-1.1-1.3-1.5c-1.1-1-2.1-2-3.1-3c-1.3-1.3-4.3-4.7-6.4-4.5
		C40.4,106.8,40.9,109.8,41.4,110.4z"/>
	<path class="st0" d="M58.8,126.6c1.1,1.2,1.7,2.7,2.7,3.9c0.9,1.2,1.8,2.6,3,3.5c1,0.7,1.3-1.9,1.3-2.3c0.1-1.1,0.1-3.2-0.9-4
		c-0.9-0.8-1.9-1.4-2.8-2.2c-1-0.9-2-1.4-3-2.2c-0.5-0.4-0.7,1-0.7,1.2C58.3,125.2,58.3,126.1,58.8,126.6z"/>
	<path class="st0" d="M32.2,145.1c-0.2-0.4-0.4-0.7-0.5-1c-0.2-0.4-0.5-0.4-0.8-0.3c-2.1,1-3.9,2.7-5.9,4c-2.8,1.9-6.1,1.4-9.2,0.8
		c-6.3-1.2-11.4-3.6-15.5,2.6c-0.3,0.5-0.5,2.9,0.4,2.9c4.1,0.3,7.7-0.4,11.9,0.5c3.7,0.8,8.4,2.4,12,0.4
		C27.1,153.5,34.3,149.3,32.2,145.1z"/>
</g>
</svg>
