<?xml version="1.0" encoding="utf-8"?>
<!-- Generator: Adobe Illustrator 16.0.0, SVG Export Plug-In . SVG Version: 6.00 Build 0)  -->
<!DOCTYPE svg PUBLIC "-//W3C//DTD SVG 1.1//EN" "http://www.w3.org/Graphics/SVG/1.1/DTD/svg11.dtd">
<svg version="1.1" id="Layer_1" xmlns="http://www.w3.org/2000/svg" xmlns:xlink="http://www.w3.org/1999/xlink" x="0px" y="0px"
	 width="190px" height="143px" viewBox="0 0 190 143" style="enable-background:new 0 0 190 143;" xml:space="preserve">
<style type="text/css">
<![CDATA[
	.st0{fill:#75458E;}
]]>
</style>
<g>
	<path class="st0" d="M0.9,1.5c-1.5,10.1-0.6,20.7-0.3,30.9C1,46.1,0.5,59.8,0.1,73.5c-0.3,12,0.3,23.9,0.5,35.8
		c0.2,10.2-0.3,20.5,0.7,30.6c0.5,4.6,3.2,1.1,2.9-1.9c-1-9.5-0.2-19.2-0.9-28.8c-0.8-12-1-23.8-0.7-35.8C3.1,49.7,3.7,25.6,1.9,1.8
		C1.8,0.9,1.1,0.2,0.9,1.5z"/>
	<path class="st0" d="M1.7,3.5C17.1,4.8,33,3.9,48.5,3.7c16-0.2,32,0.9,48,1.1c15.1,0.3,30.1-1.3,45.2-1.4
		c15.3-0.1,31.1,0.9,46.3,2.1c1.1,0.1,1.1-5.5-0.1-5.4c-14.5,1.1-28.9,0.3-43.4-0.4c-14.9-0.7-30,1.9-44.9,1.8
		C67.1,1.5,34.1-1.7,1.6,1C1,1.1,1.1,3.5,1.7,3.5z"/>
	<path class="st0" d="M186.1,6c2,4.1,0.9,10.8,0.8,15.3c-0.1,9.3-0.1,18.7-0.2,28c-0.2,17.5-0.3,34.9,1.1,52.4
		c0.4,4.5,2.4,0.8,2.2-1.8c-1.6-22.1-1.1-44.1-1.2-66.2c0-7.3,0-14.6-0.2-21.8c-0.1-3.2,0.1-7.6-2-10.2C186,1.1,185.7,5.2,186.1,6z"
		/>
	<path class="st0" d="M187.9,101c-1.4,13.7-22.7,2.8-30.5,7.4c-3.4,2-3.3,7.7-3.2,11c0.1,3.1,0.7,6.1,1.1,9.1
		c0.5,3.1,1.2,6.9-1.5,9.5c2.7-2.6-7.1,2.6-6,2.1c-0.4,0.2-0.3,1.7,0,1.9c6.5,3.5,9.3-3.3,9.6-8.7c0.4-7.2-5.8-21.5,5.4-22.2
		c8.7-0.5,29.4,5.3,25.9-10.4C188.5,99.4,187.9,100.2,187.9,101z"/>
	<path class="st0" d="M4,142.8c-0.5,1.4,20.4,0.2,21,0.1c13.9-1,28.3-0.9,42.2-0.7c27.7,0.3,56.3,1.3,84.2-0.5
		c0.8-0.1,0.7-3.6-0.1-3.7c-12.7-1.6-25.5,1.5-38.2,0.8c-7.1-0.4-14.2-0.3-21.3-0.1c-7.1,0.1-14.5-0.5-21.5,1
		c-2.3,0.5-7.1-0.5-9.5-0.6c-4.2-0.2-8.4-0.4-12.6-0.5c-6.9-0.1-13.7-0.3-20.6,0c-5.4,0.3-10.8,0.7-16.2,0.9c-2.8,0.1-5.9-0.4-7.8,2
		c-0.2,0.3-0.3,1.1,0,1.4l0,0C3.9,143.1,4,143,4,142.8z"/>
	<path class="st0" d="M155.2,140.6c1.9-1.5,3.2-3.6,4.8-5.6c2.8-3.6,6.2-6.8,9.4-9.9c5.2-5.1,12.2-9,16.3-15.1
		c0.1-0.2,0.3-1.8-0.2-1.7c-6.3,1.4-12,8.8-16.6,12.9c-5.3,4.9-11.5,10.9-14.1,17.7C154.7,139.1,154.8,140.9,155.2,140.6z"/>
	<path class="st0" d="M110.7,49.2c14,1,28.7-2.7,42.6,0.3c0.8,0.2,1.1-4.1-0.1-4.1c-14.3-0.3-28.2-1-42.5,0.3
		C109.7,45.9,109.8,49.2,110.7,49.2z"/>
	<path class="st0" d="M110.5,76.8c14.5,0.9,28.5-2.5,43,0.2c1,0.2,1.1-4-0.1-4.2c-13.9-3.2-28.9-1.1-42.9,0.2
		C109.3,73,109.4,76.7,110.5,76.8z"/>
	<path class="st0" d="M110.5,103.4c6.9-0.9,13.6-0.7,20.5-0.6c8.1,0,15-1,23.1,0.6c0.7,0.1,0.6-2.7,0.1-3.1
		c-6.2-4.1-13.7-2.2-20.7-1.6c-7.9,0.7-15.6-0.9-23.1,2.2C109.8,101.1,109.9,103.5,110.5,103.4z"/>
	<path class="st0" d="M38.6,88.1c0.3,4.5-0.3,9.2,0.4,13.6c0.4,2.3,1.7,2.3,1.9,0c0.2-2-0.2-4.1-0.3-6.1c-0.2-2.1,0-5.9-1.1-8.6
		C39,85.7,38.6,87.6,38.6,88.1z"/>
	<path class="st0" d="M76.4,47.8c-0.9,10.8-0.1,21.7-0.7,32.5c-0.4,6.1-1.6,13.7,0.8,19.5c1.1,2.9,2.2-2.4,1.9-3.6
		C76.8,90.8,78,84.5,78.1,79c0.1-10.2,0.3-20.5-0.1-30.7C77.9,46.5,76.6,45.3,76.4,47.8z"/>
	<path class="st0" d="M75.9,48.6c2.3,2.6,7.4,1.4,10.7,1.5c3.6,0.1,8.3,0.7,11.4-1.5c0.6-0.4,0.7-3.3-0.2-3.4
		c-3.6-0.4-7.6,0.4-11.3,0.3c-3.7-0.1-8.5-1.2-10.7,2.3C75.7,47.9,75.7,48.4,75.9,48.6z"/>
	<path class="st0" d="M96.3,46c-0.8,10.4-0.4,20.9-0.5,31.3c-0.1,4.4,0,8.7,0.1,13.1c0,2.3-0.7,4.8,0.2,7c1.1,2.5,2.9-10.1,2.3-3.9
		c0.4-4.3-0.2-8.9-0.3-13.3C98,69,98.3,57.6,97.5,46.4C97.4,45,96.4,44,96.3,46z"/>
	<path class="st0" d="M57.1,72.9c3.1,1.3,6.5,1.5,9.8,1.7c3.5,0.2,8.2,0.3,10.9-2c0.8-0.6,0.1-3.5-0.4-3.1c-0.4,0.3-0.7,0.7-1.1,1
		c-0.2,0.2-0.2,0.8,0,1c0.4,0.3,0.8,0.7,1.1,1c0-1,0.1-2.1,0.1-3.1C74.5,69,71.1,70,68,70c-3.6,0-7.2-0.4-10.8-0.5
		C56.3,69.6,56.4,72.6,57.1,72.9z"/>
	<path class="st0" d="M56.9,70.6c-0.6,4.5-0.5,9.2-0.6,13.7c-0.1,5-0.8,10.5,0.3,15.4c0.4,1.5,1.3,1.3,1.6,0
		c1.1-4.3,0.4-9.2,0.3-13.5C58.5,81.1,58.7,76,58,71C57.9,70.1,57.1,69.1,56.9,70.6z"/>
	<path class="st0" d="M37.7,88.2C39,90.9,45.4,90,47.9,90c2,0,7.7,0.5,8.8-1.8c0.3-0.6,0.8-4.1-0.5-4.1c-1.3,0.1-2.9,0.9-4.4,1.1
		c-2.7,0.4-5.5,0.4-8.3,0.4C42.5,85.7,36.4,85.7,37.7,88.2z"/>
	<path class="st0" d="M39,103c9.6,1.4,19.6,0,29.2-0.4c4.4-0.2,8.8,0.3,13.2,0.5c5.1,0.3,10.7-0.8,15.5,0.2c1.1,0.2,0.9-3.2,0.9-3.6
		c-0.2-1.9-0.3-2.9-1.2-4.6c-0.5-0.9-0.9,0.8-0.9,1c-0.1,1.8,0,3.3,0.1,5.1c0.2-1.2,0.4-2.3,0.6-3.5c-4.2,2.4-10.6,1.4-15.2,1.2
		c-4.4-0.2-8.8-0.1-13.2,0.1c-9.7,0.3-19.5,0.6-29.2,1.4C38.2,100.4,38.3,102.9,39,103z"/>
	<path class="st0" d="M173.5,18.2c-0.9-2.7-1.7-4.6-4.5-5.5c-2.4-0.8-5.7,1.2-7.5,2.4c-5,3.2-4.9,10.2-1.2,14.3
		c4.6,5.1,11.7,4.7,15.5-1.1c1.6-2.4,1.8-5.4,1.3-8.2c-0.5-2.9-3.3-6.5-6.5-6.4c-0.8,0-0.5,2.5-0.1,2.9c2.1,1.4,5,2.5,5.5,5.4
		c0.3,1.9-1.4,3.9-2.7,5.1c-3.5,3.2-8.4,2.7-11.9-0.2c-2-1.6-3.4-3.8-2.2-6.3c0.8-1.7,2.3-3.1,4-4C165.9,15.4,172.2,15,173.5,18.2
		L173.5,18.2z"/>
	<path class="st0" d="M166.4,8.7c-0.2,5.5,0.4,10.9,0.9,16.3c0.4,4-0.3,8.7,0.7,12.7c0.5,1.9,1.3,0,1.3-0.9c0.1-9.3-1-18.3-1.6-27.6
		C167.6,7.6,166.5,6.4,166.4,8.7z"/>
	<path class="st0" d="M152.7,25c9.9,1.1,20.9,0.1,30.7-1.3c0.5-0.1,0.5-2-0.1-2.1c-9.8-1.5-20.9-0.7-30.7,0.6
		C151.9,22.3,152,24.9,152.7,25z"/>
	<path class="st0" d="M24.8,17.6c2.3-4.8-6.5-4-8.6-3.1c-5.9,2.5-3.8,12.4-0.2,15.8c5.1,5,14.5,2.1,16.7-4.6c1-3.1,0.2-7.2-1.9-9.6
		c-2.5-2.9-6.8-4.1-9.8-1.4c-0.4,0.3-0.5,2.2,0.2,2.3c3.6,0.3,12.9,1.6,10.3,7.4c-1.7,3.9-7.1,5.4-11,4.9c-4.8-0.7-9.3-8.7-4.1-11.7
		C17.7,16.8,24.5,14.7,24.8,17.6L24.8,17.6z"/>
	<path class="st0" d="M22.1,8.6c-0.5,5-0.4,10.1-0.4,15.2c0,4.9-0.8,9.8,0,14.6c0.5,3,1.8,0.6,1.6-1.2c-1.2-9.3,0.4-19.1-0.4-28.5
		C22.8,7.5,22.2,7.5,22.1,8.6z"/>
	<path class="st0" d="M9,24c5.5,0.1,11,0.1,16.4,0c4.7-0.1,10.8,0.9,15-1.3c0.4-0.2,0.4-2.3-0.2-2.3c-5,0.2-9.8,0.8-14.9,0.9
		c-5.5,0.1-11,0.1-16.4,0.2C8.3,21.5,8.4,24,9,24z"/>
	<path class="st0" d="M28.3,117.8c0.5-6-6.6-8.3-11-5.6c-5.3,3.2-6.1,11.8-2.4,16.4c4.1,5.1,13.4,3.4,16.4-1.9
		c1.4-2.5,1.2-6,0.2-8.5c-1.2-3-4.1-7.1-7.7-6.6c-0.4,0.1-0.2,1.2,0,1.4c2.9,2.8,10.2,8.1,5.8,12.3c-2.7,2.7-8.1,2.6-11.4,1.4
		c-5.5-2-4.3-7.8-0.4-10.7c2-1.5,10.1-2.2,10.3,1.8C28,118,28.2,118.2,28.3,117.8z"/>
	<path class="st0" d="M20.7,106.2c-0.5,4.9-0.2,9.8-0.2,14.7c0.1,4.8-0.3,9.8,0.3,14.5c0.2,1.7,1.3,1.5,1.5,0
		c0.6-4.8,0.1-9.7,0-14.5c-0.2-4.9-0.2-10-1.2-14.8C21,105.5,20.7,105.8,20.7,106.2z"/>
	<path class="st0" d="M7,122.1c5.9,1.6,12.7,0.8,18.8,0.7c3.8-0.1,8.9,0.7,12.4-1c0.5-0.3,0.4-2.7-0.2-2.5c-10.1,2-21.1-1.6-31,1.1
		C6.4,120.4,6.5,121.9,7,122.1z"/>
	<path class="st0" d="M41.5,92.9c0.6-1.5,0.7-4,2.6-4.2c-0.1-0.4-0.1-0.9-0.2-1.3c-1.7,2.5-3,5.6-3.9,8.4c-0.2,0.5-0.9,4.8,0.6,3.7
		c0.2-0.1,0.2-1-0.1-1c-0.4,0-0.4,0.8-0.2,0.3c0.1-0.4,0.2-0.9,0.4-1.3c0.3-1.1,0.8-2.2,1.2-3.3c0.8-1.9,1.7-3.8,2.4-5.8
		c0.1-0.2-0.1-1.5-0.3-1.2c-1.5,1.8-1.8,3.3-2.6,5.5L41.5,92.9z"/>
	<path class="st0" d="M48.6,89.8c0.3-0.1-0.8,2.7-0.9,3c-0.7,1.7-1.4,3.3-2,5c-0.2,0.7-0.5,1.3-0.6,2c0,0.3,0,0.6,0,0.9
		c-0.2-0.7-0.1-0.5-0.1-0.1c0,0.6,0.2,1.2,0.6,0.4c0.1-0.1,0.1-0.9-0.1-0.8c-0.4,0.2-0.2,1.3,0.2,0.5c0.3-0.6,0.5-1.3,0.8-2
		c0.6-1.8,1.3-3.5,1.9-5.3c0.1-0.2,1.2-4.4,0.3-4L48.6,89.8z"/>
	<path class="st0" d="M55.6,87.7c-1.9,4.1-4.2,8.8-4.6,13.3c0,0.1,0.1,1.2,0.3,0.9c0.6-0.6,0.9-1,1.3-1.8l-0.1-0.7
		c-0.4,0.4-0.8,0.7-1.3,0.9c0.1,0.5,0.1,1,0.2,1.4c0.9-2.1,1.4-4.5,2.1-6.6c0.8-2.4,1.7-4.7,2.2-7.2C55.7,88,55.7,87.5,55.6,87.7z"
		/>
	<path class="st0" d="M61.8,75.1c0.5-1,0.5-0.8,0-1.8l-0.1,0c-3.2,5.4-5.1,12.6-5.8,18.7c0,0.1,0.1,0.9,0.2,0.6
		c1-2.7,1.6-5.7,2.3-8.5c0.5-1.7,1-3.4,1.6-5.1c0.4-1.2,0.9-2.4,1.3-3.6C61.6,75.1,62.3,73.9,61.8,75.1L61.8,75.1z"/>
	<path class="st0" d="M67.6,71.5c-2.9,9.2-7.5,18.1-9.5,27.5c0,0.1,0,1.3,0.3,1.1c1-1,0.7-0.6,1.3-1.7l-0.1-0.7
		c-0.4,0.4-0.8,0.8-1.4,1c0.1,0.4,0.1,0.9,0.2,1.3C62.2,91,65.8,81.2,67.6,71.5L67.6,71.5z"/>
	<path class="st0" d="M72.4,73.7C72.1,79.3,69.5,85,67.5,90c-0.9,2.2-2.8,5.7-1.5,8.1l0.1,0.1c0.2,0,0.4,0,0.6-0.1
		c0.2-0.1,0.2-0.9,0-1C65.8,96.8,73.4,76.9,72.4,73.7L72.4,73.7z"/>
	<path class="st0" d="M76.7,80.5c-1.3,3.4-3,6.6-4.3,10c-0.8,2.1-1.9,5.2-0.9,7.5c0.1,0.2,0.2,0.2,0.3,0c0.8-2.9,1.1-5.7,2.3-8.6
		c1-2.5,2.2-5,3.1-7.6C77.2,81.6,76.9,80.1,76.7,80.5z"/>
	<path class="st0" d="M82.9,49.7c-2.8,5.2-5.1,11-4.9,17c0,0.4,0.2,0.7,0.3,0.1c0.6-5.7,2.2-10.8,4.9-15.8
		C83.4,50.7,83.1,49.3,82.9,49.7z"/>
	<path class="st0" d="M88.7,48.7c-6.3,12-10.7,25.9-12.4,39.4c0,0.1,0.1,1.1,0.3,0.6c4.2-13,6.1-26.1,12.4-38.5
		C89.1,49.8,88.9,48.3,88.7,48.7z"/>
	<path class="st0" d="M95.3,49.7c-4.8,10.9-6.9,22.7-11.5,33.7c-2,4.9-6.3,11.6-4.9,17.1c0.1,0.4,0.3,0.2,0.3-0.1
		c0.6-7.3,4.9-14,7.2-20.9c3.2-9.5,5.2-19.3,9.2-28.6C95.7,50.7,95.5,49.4,95.3,49.7z"/>
	<path class="st0" d="M99.7,60.3c-4.4,12.5-12.8,26-13.3,39.5c0,0.1,0.1,1.1,0.3,0.5c4.2-13,8.9-25.8,13.3-38.7
		C100.2,61.2,99.9,59.9,99.7,60.3z"/>
	<path class="st0" d="M98,81.4c-2.7,5.9-6.7,13-7.1,19.6c0,0.1,0.1,1.1,0.3,0.7c1.4-2,1.7-5.2,2.5-7.5c1.3-3.8,2.9-7.6,4.6-11.3
		C98.4,82.6,98.2,81,98,81.4z"/>
	<path class="st0" d="M161.6,108.4c-2.4,6.4-6,12.8-6.7,19.6c0,0.1,0.2,1.1,0.3,0.7c1.1-2.8,1.8-5.8,2.8-8.7
		c1.2-3.4,2.6-6.7,3.9-10.2C162.1,109.5,161.8,108,161.6,108.4z"/>
	<path class="st0" d="M167.8,110.1c-3.5,6.7-6.8,13.9-9.3,21c-0.1,0.2,0,1.8,0.4,1.3c4.2-6.1,5.9-14.1,9.3-20.7
		C168.3,111.4,168.1,109.6,167.8,110.1z"/>
	<path class="st0" d="M170.5,111c-2.4,5.3-5.8,11.8-5.3,17.8c0,0.1,0.2,0.7,0.3,0.4c1-2.2,1.1-4.9,1.8-7.2c1-3.2,2.2-6.3,3.6-9.4
		C171,112.2,170.7,110.6,170.5,111z"/>
	<path class="st0" d="M176.2,109.9c-1.5,5.4-4.6,10.6-5.3,16.2c0,0.1,0.1,1.4,0.3,1c1.1-2.1,1.6-4.5,2.4-6.7c1.1-3.1,2.2-6.1,3-9.2
		C176.7,110.8,176.4,109.1,176.2,109.9z"/>
</g>
</svg>
